<mxfile host="app.diagrams.net" modified="2023-10-05T03:39:53.181Z" agent="Mozilla/5.0 (X11; Ubuntu; Linux x86_64; rv:109.0) Gecko/20100101 Firefox/118.0" etag="XGTo56kerYKWIGdtq0oy" version="22.0.2" type="github">
  <diagram name="Page-1" id="SL1GFSdcG_tLdhaZWDz6">
    <mxGraphModel dx="1354" dy="698" grid="1" gridSize="10" guides="1" tooltips="1" connect="1" arrows="1" fold="1" page="1" pageScale="1" pageWidth="850" pageHeight="1100" math="0" shadow="0">
      <root>
        <mxCell id="0" />
        <mxCell id="1" parent="0" />
        <mxCell id="mMZBT7bqYluBtJ0m3_0H-4" value="" style="rounded=0;whiteSpace=wrap;html=1;" vertex="1" parent="1">
          <mxGeometry x="10" y="181.61" width="540" height="230" as="geometry" />
        </mxCell>
        <mxCell id="mMZBT7bqYluBtJ0m3_0H-5" value="" style="shape=image;verticalLabelPosition=bottom;labelBackgroundColor=default;verticalAlign=top;aspect=fixed;imageAspect=0;image=data:image/png,iVBORw0KGgoAAAANSUhEUgAAAMcAAAGWCAYAAADMoJcgAAAABHNCSVQICAgIfAhkiAAAABl0RVh0U29mdHdhcmUAZ25vbWUtc2NyZWVuc2hvdO8Dvz4AAAAmdEVYdENyZWF0aW9uIFRpbWUAMjAyMy0wOS0yN1QxMDo0NTo0OSswNzAw9k7CNgAAGGBJREFUeJzt3Wt4VNW9x/FvNCRAEsCkHEEQ0RILIhaKUuwRFEULXrB4o/Uo1BZs1frUy7EVFa2llRZtT7U9WKscxR5rrVXx0kfUcikKeCkErSJHoIJSA8hFAgkkQXJerCzGmeSfmUlmZu+Z/D5vkkxm9qxJ5r9/e6211568mpqaBoAdO3YAkJeXB0BDQwMAJSUlUV8tFRUrAXhh3ssAPD13IQDbt+0CoKi4EIDCwoIWtyPSnNraOgD21e9v/LkegIHH9gHga+PPAGD06SMAKCx077eysrIWt1tZWdns7fv37+egNrZZJGfltTY5Pv74YwBuu/UuAOa/tAKA0jJ3v8LCDmltuMhnVVVVR/085fLzAbjiystafJySQ6QVDiTH9u3b3Q0xydGlSxcgkhwPz3kMgJ9OfwBQUkg4+STp0qUIgPtn/xSA8vJ+UffzyeHf756SQ6QFeVu3bm0Au1e/b98+AKZMvh6A5W+sASKJEY8fVfCjDdW7awGoq3O3FxS4xPGjWcnyewYJl9j/e2vFvl9KSjoDkN/B7dcT/f9vWL8ZgNunXwHAWWePBloezVJyiBjyqqqqGqDpaJRPjIsu+A4AlZVuNCte38LvMTZVuj7M2LO+DMCYMaMAGHr8IAB69erV9tZ/xikjJ6R0e9I6fl5r6Wt/AqC4uDil21+zZi0Ay5YuB2DuUy8C8M7bHwDx+8CVH7n35TXXXQy0PJql5BAxmMlx3te+DSSeGL4iz7/wVACuvW4yAN27d09hc5vy8y3Dhl4IwBF9D03r80nLfHL85t5bARg5cnhGntefoTH99l8DsHaNG4Wy+sb+/XrzNPc+nTip6ZGHkkPEkB97w63Tfg7A+sbefbzRAL+n+OPjdwIwZMjglDYwntpaN5rhR70kHOrr2jZKlSz/vnty7myg6Xxcz8NKo+7vf75t2r0ADDruC1HbASWHiCm/U6dOAMz/62IAHnv0r0DTSvP8aJS3cPHvgfhnP6ZL165dA3leaVlpWZdAn9/3IXwinHfuNUDTPqn/edIlNwEwf9EcwB2RKDlEDHm1tbUNACeP+DoQf1TKn7Oy+JU/Aqkfx26tM8deCkBNdWaPdSWa74OuePMZAPLzm3RrA+FHs75+4Q1A0yMjf0R07tfcfNyUyy9WcohY8uc9vwCInAMTb2bxuedd7z4sieHdOPUqAKZ8axpg95kkPfwRxRVXufmmsCSG50eh/LzGXTNd3yJ2Rv2+e58A4PwLxio5RCx5J4+4qKGlO/g9wqUTxwFw7XWXp79VbeDnaeY++Tcg8bOHpXX8+6Nv46iPn2cIO+sMEN/3uGjCGCWHiCVv0DFjG8Dew/o9w5JljwPg50XCzs+Q+hnQQ0pdH0lXP2kb3zfdsX03AN/4j68CcMeMqYG1qTX82b1nj3XrO2L7qB07Fig5RCz5RcUdm/1F5NjL7RmyJTE8P0PqV3z95Tk387969T8Da1Mu6N//KABO/MpQoOma7Gzh2/358h5A0/mx9/+5SckhYjFHq2LnNbJ1DyHSkmeengfAj277DRA5C72qqlrJIWIxpzH9uK8SQ3LZgGPc+9tf5cQnR2GhRqtETGZy9Cvvmcl2iATiyCP7mr9TcogYmiSHn9/oP0B9Dcl9/uzh2BnywsIOSg4Ri4pDBHcuVceO0efdqThEDCoOEYOKQ8Sg4hAxqDhEDCoOEYOKQ8Sg4hAxqDhEDCoOEYOKQ8Sg4hAxqDhEDCoOEYOKQ8Sg4hAxqDhEDCoOEYOKQ8Sg4hAxqDhEDCoOEYOKQ8Sg4hAxqDhEDCoOEYOKQ8Sg4hAxqDhEDCoOEYOKQ8Sg4hAxqDhEDCoOEYOKQ8Sg4hAxqDhEDCoOEYOKQ8Sg4hAxqDhEDCoOEYOKQ8Sg4hAxqDhEDCoOEYOKQ8Sg4hAxqDhEDCoOEYOKQ8SQH3QDJLU2VdUCsDevIOCWpEbfkrzAnlvJIWJQcuSIv370KQC3rWoAoKiwPsjmtNnDX2xo/K4wsDYoOUQMSo4s5xNj5jr39bDO2b2/e3iIex2dOnUKuCVKDhGTkiNLxSZG14ODbE3bPXK8+1pQEHxieEoOEYOSI8vkWmL4PkaYEsNTcogYlBxZIlcTIwyjUhYlh4hByRFySozgKDlEDEqOkFJiBE/JIWJQcoSMEiM8lBwiBiVHSORaYoTxXKlkKTlEDEqOgOVuYmT/GnYlh4hByREQJUb4KTlEDEqODFNiZA8lh4hByZEhSozso+QQMSg50kyJkb2UHCIGJUeaKDGyn5JDxKDkSDElRu5QcogYlBwposTIPUoOEYOSo42UGLlLySFiUHK0khIj9yk5RAxKjiQpMdoPJYeIQcmRICVG+6PkEDEoOeJQYrRfSg4Rg5LDoMQQJYeIQckRQ4khnpJDxKDkaKTEkFhKDhFDu08OJYZYlBwihnabHEoMiUfJIWJod8kxd309ALM+bACyPzEeHeb2b/n57e5fmXZKDhFDu9ndKDEkWUoOEUPO73b8qFSuJIYflVJipJ+SQ8SQs7sfzWNIWyk5RAw5lxy5NiqlxAiOkkPEkDPJkWuJoXmM4Ck5RAxZv1vKlcTo2vifmDXYfVViBE/JIWLI2t1TriSG5xNDo1LhoeQQMWRdcuRaYmgeI7yUHCKGrEmOXEsMzWOEn5JDxBD63ZYSQ4Ki5BAxhHb3lSuJkamZ701VtQDcsjovLdvPlJ373Ncbj3Z/p6GfC27/reQQMYQuOXI1MdI1j+ETY+KbLjGy9e/1Uc1+AO4Z7P5OQSaGF3wLREIqNMmRa4nx2y+ld1QqVxJjp1viH6rE8MLTEpGQCU1yPLdFiZGIXEuMGQOCH5WyhK9FIiERmuR4YJg75pz8eh0AH7gdZNbsGZUYicmGxPDC2zKRgIUmObzYBPEzpmGV7nOlciUxwjiPEU/4WygSkNAlhxfWPohGpZKTjYnhZU9LRTIstMnhhS1BlBiJCfPMd6Kyr8UiGRL65PCCShD1MZKTTfMY8WRvy0XSLGuSw8tUgmQqMdbvcueU3fC2EiNssv8ViKRJ1iWHl64EyVRiLN/qxv+PX+Ia/pUilxyHdc6u/VU2z2PEkzuvRCTFsjY5vFQnSLoT452tbsXj8UvcSWP9G5eWb693fQ8a98RhT5BcTgwv916RSIpkfXJ4rU2QTI9KHRuTGLHCniC5MPOdqNx9ZSJtlDPJ4SWaIJme+R67xCWBlRixwpYg7aGPESv3X6FIK+VccnhWgvQpdF8zlRg9FyaXGLGCThDfx/jdYBe9A9tBYnjt55WKJClnk8PzCTKjohqAGwa56Eh3YoxKso8RT6YTJLaP0Z4Sw2t/r1gkQTmfHN7UIUVp3X5sYqRLuhOkPfcxYrXfVy4SR7tJjnTJVGLESnWCxK7HaM+J4ekvIGJQcrRSUIkRq60J4hPjvwa49SRKjAj9JUQMSo4khSUxYiWbIJFRqQ4A9C3J7k+hTQclh4hByZGgsCZGrHgJosRInJJDxKDkiCNbEiNWbIIM6OL2g78+1t3eQ4kRl5JDxKDkiOP81xuCbkKb+ATpvOotAHoMOz7I5mQVJYeIQckRx8KRbv/xxfmfBtyS1tk6fxEAv16+CoCi6k8AmHHV6KCalDWUHCIGJUccBQVuJdw/TnfXmxr0Un2QzYmrtIMbhXpv3kIAtq77AICDDu0KwM/+8l7U/ZUgNiWHiEHJkSC/5vwfp7ufT17kkuTAfEJINEmMwugLdh3UxSWhEiQ+JYeIQcmRJJ8gC0e6medRi93XoBPEj0pZiRFLCRKfkkPEoORoJT+KtXCku6JiUAkSmxjJUoLYlBwiBiVHG/kE+dspbvTqzGUuQT7cnZ4Z9SbzGKved7+I6WPsr3XPH6/v4SlBmlJyiBiUHCniR7FeHOF+vnCp64u8vTM1CZJoYrSVEiRCySFiUHKkyeNfcXvgVCXIgcRoPLuWbsUJPc73PTz1QRKn5BAxKDnSrK0JcmAewydGp04JPS7RhIi7nXacIEoOEYOSI0MSTZAmo1IJJkaqksLcfjtMECWHiEHJkWFWgsRNjMZkSHdCxJPrCVJV5T47ckvtPiWHiEXJERCfIP5z0p/+03zgMzPfjfMYQSeFJdcS5KDGP/Psq84HYMhRfZQcIhYlR8D856QXzd8LwD2Nt4c1MWLlSoLMmXweAN27dXE3fPqpkkPEouQIibunjm/87ikA7nm5EojsmcMuWxNk/5YtAHQvafyc+k8j809KDhGDkiNklCDhoeQQMSg5QkoJkhn7S0uB5lNCySFiUHKEnBIkvfza/4eWrgTgmyOGHvidkkPEoOTIEkqQ9HpowXIAnln5fwCMG/wFJYeIRcmRZZQg6dGxo2tXZeUOAO6rfFXJIWJRcmQpJUh6FBZ2OPC9kkPEoOTIclaCpPoausnKhSsrKjlEDEqOHOET5NjyV5N63D83727x9zVVu5q9fee+lre7trI6qXZQ2hGAmS+vB+CoQ93rmHLB8OS2k0JKDhGDkiPHBLmnzTVKDhGDikPEoOIQMag4RAwqDhGDikPEoOIQMag4RAwqDhGDikPEoOIQMag4RAwqDhGDikPEoOIQMag4RAwqDhGDikPEoOIQMag4RAwqDhGDikPEoOIQMQR23apdu9yV9DZt2pyS7XXq5K6Y17t376jb16xZC8Du3e7KfgMHHgNAQUF2XI1cgqPkEDEElhwVFe8AcO6Z1wDwbz1KAKirq09qO9W76wC4YMIIAGbd+/Oo3//whhkAPPX0EgDee+85AMrL+7Wm2dKOKDlEDIFfK/fwI0oB6FfeE4BhXx4MQE1NTVLb6devb7O3d+1WDEDfw3sAkb5JWDw85zEAFi5cCsAll5wPwGmjRya1nZumuoSsrNzkfr75akAJ2RZKDhFD4MlRW+v6GKefcRIAV1x5WZDNybjqapeQixa8CcD48WNbtR2fGH47N92cgsa1c0oOEUPgyeHt3ZvcKFWuKSjoEP9OGdyOKDlETKFJjqBt3LgRgD179gLQu3cvADp16pTQ4+vq3HzLhg0fRN0eO1rkn8fbudPN3PvPv/7XvyqbbU9p6SEAlJWVAZGZ/86dXft2fhK9ncrKrY3t7xi1nZ493ahdcXFxi6/Hb3/Z0uUAfPTRFgC6dnWPO/rozwPJj6r57Xqxf59nnp4HwKpVa6Keb8rllwKQn5+5t6ySQ8Sg5Gg07ZY7AXhozgtA8jPpVVVVABx99FkAnDzCzdcsWvxYs88z98+vAXBkv88BUFrmzhC4/3dPADDzZ3MAWP+hG4Wa89DtAEycNCHqebof4pLk8+U9orYz5VvTgMgZB+s/dIm0YoVrz5Ahg6PatW+f+3jYW6e59j1w37MAFBW3fA5aj55unmrWb29tdruxzjhtMhDpG/294kkAzjnL3b5h/eao32/Z5M7BO2fc6UDTc+fSSckhYlByNPLH5n4mPVl5eXmNj3cz/aWlzR/T+3mMYcPcHvb111cCsPrdDwEYfuJAAAYN6g9ERvEGHfeFqO3MuON7QOSY/NlnFwCwY7v7/O/Lvj0u6vd+O927f67Zdl10wXcAWLvGJcxJIwcAcM11UwAYMMD1MT75ZCcAT/z5eQAenP0MAF897UoAlrz2MGAnrk+arl2LAPjhD34CRBLjBzdOAiJ9mrfeWg3AwQcf3Oz20knJIWIITXJ8/PE2ACoqVib1uF273CjMyJHZ8fnb484dE3PLgwAsfWUVAGPGjDLuF+3GqVdH/ewTaN0a10e55NLxQPxjdH9ul0+MoSeUu1Y9dHez9+/evXvU859wwhcBuPb7PwNgyrfd1HxsXyvW3r1udG/+SysA+HuF62v50Tgv2dGwVFJyiBgCTw4/Lr9wwRsAPPrIC63azvsfLEpVk3KCn9eI566ZblTMn+M2885bknoev2fvV+62U7FiHRCZz7D6Htu3uVGoO39xPdA0McJAySFiCDw5vP4DDgdg4qRzAm5J++D37D4xBh7bB4CNG/8FwLvvrktoOyUlbpSv/wCXEL7v4mfWreTwzzvq1H9Puu2ZouQQMQSeHH4Pctxxbny/va3nCIq/GkvkXKwdQGS+IlmHlLp5Cz8jv23bzhbv75/Xzw+FkZJDxBB4ckiwfHKfNHIQEDlHys8ftdZRR2XuHKh0UXKIGJQcKbJnzx4ge1bi+XOsfB9hU+P6j3hn1bYnSg4Rg5KjUbdu3YDInt+vpEt0PceC+e6KikXFhWloXer5c678WbLvvO1WMMab2bb4c+L69HHzVWGc8U6WkkPEoORo1L//UQAUFr4MwIP/8ygQ/2xfv6e9bdq9ABzR99BWPX/sGvJk+fUofjsfbPgIiJ8AU2+6HIAbrv8FAFdf5VYcPv7ELABKSkpafLx//eed6655/Ml2N8q1dsNfgOxOECWHiEHJ0Wj8eWcCkQTwK/Mu++b3gcg1bEvLugDw6rIKd/9b7gfgu1edC8Bzz7rksVYCxhp+4hAgsmbcryHv1cutKCwq6hx1f2t9w/DhXwLglcX/AGD6j/876vf+yoqH93ErHf2olF83Mm/eQiCyvuLkEd8A4Jpr3VU/+h55RNT2lv/9LQB+O+vxqNvnPPIjILsTw1NyiBgCS476xus8vbfOjZLs2LEjLc+zefN2IHL1DWudgz+2fvLpXwHw9QtvACIr9Pw1aD1/bH3F1S4xbpl2LQDTf/JLALp0OSWh9vk9+KWT3Nry389xa7N9H8BffeOOmW6Nt5Uc/qokc596EYiMPl353elR2/nz3JnNPt5/rsm9s9zKRJ+IPkkthzQm5P33uOeJ10fbVOn/H27FYkNDQ4v3D5KSQ8SQd/KIi6JKN3Ke/QkA3DFjalqe2F8nyc8s+yvZJXqFwUT5s0/9Hire6Ets+/62yH1uhh9F6tatKwBDj3fnIvXq1Svqcf6zDv3ZpvGuLBgr9kqD3qmnuXUPiV63afHiVwFY//6GqHb79RPx/g7+//LGG29GbcfzV0NJdkbd/328RP8f6TbmDNe38mvbQckhYgosOUTCRMkhkgQVh4hBxSFiUHGIGFQcIgYVh4hBxSFiUHGIGFQcIgYVh4hBxSFiUHGIGFQcIgYVh4hBxSFiUHGIGFQcIgYVh4hBxSFiUHGIGFQcIgYVh4hBxSFiUHGIGFQcIgYVh4hBxSFiUHGIGFQcIgYVh4hBxSFiUHGIGFQcIgYVh4hBxSFiUHGIGFQcIgYVh4hBxSFiUHGIGFQcIgYVh4hBxSFiUHGIGFQcIgYVh4hBxSFiUHGIGFQcIgYVh4hBxSFiUHGIGFQcIgYVh4hBxSFiUHGIGFQcIgYVh4hBxSFiyA+6ASJhsHdvXZPblBwiBjM5Kis3ZbIdIoHavm0XAKVlJQduU3KIGJokR2FhBwDeXLku440RybTKykoAamvro26vra1XcohYzD5H9e5aADZu3AhA7969M9MikQx64/U3ASgqLoy6vba2TskhYsn3x1q+r+H5SlowfwkAEydNyGzLRDJg3ryFABQWFkTdvq9+v5JDxJI36JixDRA9vvtZPlmWvfZk5lolkmZ+lOqUERMB6HlYadTvq6qqlRwilvz8Di3XR/XuvQA8POcxQH0PyQ3Tf/wroOkRkz9SumjCV5UcIpa8X/7ivgaAPz02D2g6auX5c08WLv49AGVlZZlon0hKLV78KgBTvjUNaNrX2LB+MwAvzn9AySFiyduyZUsDwEknXgw0rSTPH4v17HkIAE/OnZ2J9omkxLZt2wAYNfJSwO5rjDr1BADumDFVySFiyauvr28A+MMjTwBw18w5QPx5j/4DDgfgwYfuTnsjRVpr1y7XVz5j9CTA7lP7vsYryx4BoLS0VMkhYsnbtWtXA0DHjh0BmDL5egBWv/shYFdabB/k/tkzAY1iSTisWbMWgAkXXgNEzp2KfT/7Udj//IFLlrPOHg3Anj17lBwilryqqqoGgPx8t7SjpqYGgLPPnALYyeH5BPEz6b4CNZMumbRnzx4A7v7VAwA8OPsZwB59raqqBmDM2H8HYOpN3wNg9+7dAOzfr7NyRUx5NTU1DQD79u0DIgnix4XHnf1dALp0KUpog74i/THexEnnADD69BEAlJf3S0nDpX2rqFgJwAvzXgbgD//7PABFxa7vbB3x+Pfn8BMHAvDzmbcAkVEtT8kh0oK8hoaGBogca3kFBW7Pv2XLFgAuudiNYlkrBy3+/n5UwD9u6AnlAPTs2aP1rZd2Y/W7bvSpYoW7Kk5JSWcgflJ4/v139jh3BPOj2937ua6u6ZUOPSWHiCGvtra2ASJJ4ROkMVAoLHRryX0fxJ8HP/+lFYA9GhBP7HWCRFqS6JGKF3vEcvO0yQCMP+9MAKqqqgDo1auXuQ0lh4jh/wHzH0WWy1oRLwAAAABJRU5ErkJggg==;" vertex="1" parent="1">
          <mxGeometry x="707.17" y="170" width="49" height="99.97" as="geometry" />
        </mxCell>
        <mxCell id="mMZBT7bqYluBtJ0m3_0H-6" value="" style="shape=image;verticalLabelPosition=bottom;labelBackgroundColor=default;verticalAlign=top;aspect=fixed;imageAspect=0;image=data:image/png,iVBORw0KGgoAAAANSUhEUgAAAZAAAAEsCAYAAADtt+XCAAAACXBIWXMAAAsTAAALEwEAmpwYAAAKT2lDQ1BQaG90b3Nob3AgSUNDIHByb2ZpbGUAAHjanVNnVFPpFj333vRCS4iAlEtvUhUIIFJCi4AUkSYqIQkQSoghodkVUcERRUUEG8igiAOOjoCMFVEsDIoK2AfkIaKOg6OIisr74Xuja9a89+bN/rXXPues852zzwfACAyWSDNRNYAMqUIeEeCDx8TG4eQuQIEKJHAAEAizZCFz/SMBAPh+PDwrIsAHvgABeNMLCADATZvAMByH/w/qQplcAYCEAcB0kThLCIAUAEB6jkKmAEBGAYCdmCZTAKAEAGDLY2LjAFAtAGAnf+bTAICd+Jl7AQBblCEVAaCRACATZYhEAGg7AKzPVopFAFgwABRmS8Q5ANgtADBJV2ZIALC3AMDOEAuyAAgMADBRiIUpAAR7AGDIIyN4AISZABRG8lc88SuuEOcqAAB4mbI8uSQ5RYFbCC1xB1dXLh4ozkkXKxQ2YQJhmkAuwnmZGTKBNA/g88wAAKCRFRHgg/P9eM4Ors7ONo62Dl8t6r8G/yJiYuP+5c+rcEAAAOF0ftH+LC+zGoA7BoBt/qIl7gRoXgugdfeLZrIPQLUAoOnaV/Nw+H48PEWhkLnZ2eXk5NhKxEJbYcpXff5nwl/AV/1s+X48/Pf14L7iJIEyXYFHBPjgwsz0TKUcz5IJhGLc5o9H/LcL//wd0yLESWK5WCoU41EScY5EmozzMqUiiUKSKcUl0v9k4t8s+wM+3zUAsGo+AXuRLahdYwP2SycQWHTA4vcAAPK7b8HUKAgDgGiD4c93/+8//UegJQCAZkmScQAAXkQkLlTKsz/HCAAARKCBKrBBG/TBGCzABhzBBdzBC/xgNoRCJMTCQhBCCmSAHHJgKayCQiiGzbAdKmAv1EAdNMBRaIaTcA4uwlW4Dj1wD/phCJ7BKLyBCQRByAgTYSHaiAFiilgjjggXmYX4IcFIBBKLJCDJiBRRIkuRNUgxUopUIFVIHfI9cgI5h1xGupE7yAAygvyGvEcxlIGyUT3UDLVDuag3GoRGogvQZHQxmo8WoJvQcrQaPYw2oefQq2gP2o8+Q8cwwOgYBzPEbDAuxsNCsTgsCZNjy7EirAyrxhqwVqwDu4n1Y8+xdwQSgUXACTYEd0IgYR5BSFhMWE7YSKggHCQ0EdoJNwkDhFHCJyKTqEu0JroR+cQYYjIxh1hILCPWEo8TLxB7iEPENyQSiUMyJ7mQAkmxpFTSEtJG0m5SI+ksqZs0SBojk8naZGuyBzmULCAryIXkneTD5DPkG+Qh8lsKnWJAcaT4U+IoUspqShnlEOU05QZlmDJBVaOaUt2ooVQRNY9aQq2htlKvUYeoEzR1mjnNgxZJS6WtopXTGmgXaPdpr+h0uhHdlR5Ol9BX0svpR+iX6AP0dwwNhhWDx4hnKBmbGAcYZxl3GK+YTKYZ04sZx1QwNzHrmOeZD5lvVVgqtip8FZHKCpVKlSaVGyovVKmqpqreqgtV81XLVI+pXlN9rkZVM1PjqQnUlqtVqp1Q61MbU2epO6iHqmeob1Q/pH5Z/YkGWcNMw09DpFGgsV/jvMYgC2MZs3gsIWsNq4Z1gTXEJrHN2Xx2KruY/R27iz2qqaE5QzNKM1ezUvOUZj8H45hx+Jx0TgnnKKeX836K3hTvKeIpG6Y0TLkxZVxrqpaXllirSKtRq0frvTau7aedpr1Fu1n7gQ5Bx0onXCdHZ4/OBZ3nU9lT3acKpxZNPTr1ri6qa6UbobtEd79up+6Ynr5egJ5Mb6feeb3n+hx9L/1U/W36p/VHDFgGswwkBtsMzhg8xTVxbzwdL8fb8VFDXcNAQ6VhlWGX4YSRudE8o9VGjUYPjGnGXOMk423GbcajJgYmISZLTepN7ppSTbmmKaY7TDtMx83MzaLN1pk1mz0x1zLnm+eb15vft2BaeFostqi2uGVJsuRaplnutrxuhVo5WaVYVVpds0atna0l1rutu6cRp7lOk06rntZnw7Dxtsm2qbcZsOXYBtuutm22fWFnYhdnt8Wuw+6TvZN9un2N/T0HDYfZDqsdWh1+c7RyFDpWOt6azpzuP33F9JbpL2dYzxDP2DPjthPLKcRpnVOb00dnF2e5c4PziIuJS4LLLpc+Lpsbxt3IveRKdPVxXeF60vWdm7Obwu2o26/uNu5p7ofcn8w0nymeWTNz0MPIQ+BR5dE/C5+VMGvfrH5PQ0+BZ7XnIy9jL5FXrdewt6V3qvdh7xc+9j5yn+M+4zw33jLeWV/MN8C3yLfLT8Nvnl+F30N/I/9k/3r/0QCngCUBZwOJgUGBWwL7+Hp8Ib+OPzrbZfay2e1BjKC5QRVBj4KtguXBrSFoyOyQrSH355jOkc5pDoVQfujW0Adh5mGLw34MJ4WHhVeGP45wiFga0TGXNXfR3ENz30T6RJZE3ptnMU85ry1KNSo+qi5qPNo3ujS6P8YuZlnM1VidWElsSxw5LiquNm5svt/87fOH4p3iC+N7F5gvyF1weaHOwvSFpxapLhIsOpZATIhOOJTwQRAqqBaMJfITdyWOCnnCHcJnIi/RNtGI2ENcKh5O8kgqTXqS7JG8NXkkxTOlLOW5hCepkLxMDUzdmzqeFpp2IG0yPTq9MYOSkZBxQqohTZO2Z+pn5mZ2y6xlhbL+xW6Lty8elQfJa7OQrAVZLQq2QqboVFoo1yoHsmdlV2a/zYnKOZarnivN7cyzytuQN5zvn//tEsIS4ZK2pYZLVy0dWOa9rGo5sjxxedsK4xUFK4ZWBqw8uIq2Km3VT6vtV5eufr0mek1rgV7ByoLBtQFr6wtVCuWFfevc1+1dT1gvWd+1YfqGnRs+FYmKrhTbF5cVf9go3HjlG4dvyr+Z3JS0qavEuWTPZtJm6ebeLZ5bDpaql+aXDm4N2dq0Dd9WtO319kXbL5fNKNu7g7ZDuaO/PLi8ZafJzs07P1SkVPRU+lQ27tLdtWHX+G7R7ht7vPY07NXbW7z3/T7JvttVAVVN1WbVZftJ+7P3P66Jqun4lvttXa1ObXHtxwPSA/0HIw6217nU1R3SPVRSj9Yr60cOxx++/p3vdy0NNg1VjZzG4iNwRHnk6fcJ3/ceDTradox7rOEH0x92HWcdL2pCmvKaRptTmvtbYlu6T8w+0dbq3nr8R9sfD5w0PFl5SvNUyWna6YLTk2fyz4ydlZ19fi753GDborZ752PO32oPb++6EHTh0kX/i+c7vDvOXPK4dPKy2+UTV7hXmq86X23qdOo8/pPTT8e7nLuarrlca7nuer21e2b36RueN87d9L158Rb/1tWeOT3dvfN6b/fF9/XfFt1+cif9zsu72Xcn7q28T7xf9EDtQdlD3YfVP1v+3Njv3H9qwHeg89HcR/cGhYPP/pH1jw9DBY+Zj8uGDYbrnjg+OTniP3L96fynQ89kzyaeF/6i/suuFxYvfvjV69fO0ZjRoZfyl5O/bXyl/erA6xmv28bCxh6+yXgzMV70VvvtwXfcdx3vo98PT+R8IH8o/2j5sfVT0Kf7kxmTk/8EA5jz/GMzLdsAAAAgY0hSTQAAeiUAAICDAAD5/wAAgOkAAHUwAADqYAAAOpgAABdvkl/FRgAAOQVJREFUeNrsnXl0VGWevzm/6eme6dN/zDgz4dgsklTdurXe2rLvqSwkQEgCCSEha1UgoCjgQhBBUVlcAZewqsiOIEIQkDVBEEVMABGEAAkQ0F6Oti2oLQr5/P64lZuFqpAKoJJ87jnPSVLLrSWp98n7fpe3B4AehBBCiK/wTSCEEEKBEEIIoUAIIYRQIIQQQigQQgghhAIhhBBCgRBCCKFACCGEUCCEEEIoEEIIIYQCIYQQQoEQQgihQAghhFAghBBCKBBCCCGEAiGEEEKBEEIIoUAIIYRQIIQQQigQQgghhAIhhBBCgRBCCKFACCGEUCCEEEIoEEIIIYQCIYQQQoEQQgihQAghhFAghBBCKBBCCCGEAiGEEEKBEEIIoUAIIYRQIIQQQigQQgghhAIhhBBCgRBCCKFACCGEUCCEEEIIBUIIIYQCIYQQQoEQQgihQAghhFAghBBCCAVCCCGEAiGEEEKBEEIIoUAIIYRQIIQQQggFQgghhAIhhBBCgRBCCKFACCGEUCCEEEIIBUIIIYQCIYQQQoEQQgihQAghhFAghBBCCAVCCCGEAiGEEEKBEEIIoUDILaSmpua/Z82aleZwOHIkSUr08/Oz9OjRow8h3RFJkhKzsrLGlZWVFVVVVfXhGEGBEA9UVFToTCZT/O9///u+s2bN+k+Hw5EgSdJYPz+/hT169NhLSHdEkqSxWVlZvcvKyv7jrrvu6ufn52epqKjQccygQIibUaNGlfn5+fmbTKbx7g8OCCHXsdfPz2+hn5+ff3x8fA7HDgqk2yNJUuIf//jHfhQHIR0XiclkyvHz87PU1tb+nuMIBdItcTgcOSqVairlQUjnZiOSJCVyLKFAuh0TJ050mUymHMqDkM6jUqmmjho1qoxjCgXSrTKt/vd//1d1I3n4+fnB4XAgPj4eDoejFS0va3t9fHy8x/v4grfztz13R2/Xkcfxdl3br20fw9PlnXk8b4/l7T7eHr8jj+PL82vv9bX3HrR3rvZeU0dvezO/247+vXVkJvLHP/6xH5eyKJBuw+jRoye2J4+JEyeitrYWly9fBg8e3f2oqanBzJkz25UIZyEUSLfBYrH09zbjqKqq4ojBg4eHo7a21qtE7r77bhvHFgqky1NdXX2XO3B+3YegvLycowQPHu0cVVVVHgVy1113rayurr6LYwwF0qXZtGmTwdPyVXx8PJesePDowCFJksdlrBUrVoRwjKFAujQrVqwI8/Qf1MyZMzky8ODRgcNbPGTevHlJHGMokC7N/Pnzkzz98VdUVHBk4MHjJpaxysvLkznGUCBdmvLy8mRPf/ztBc8vXbqEmTNnwuFwoGfPnvDz82v1ten7jtD2/t5u48s5vd2v7Tk6cs727t/Rc3h6Pm2/9/U98eW96ex715HX7e3cN/uYnp6Dt+d0o9t15rk0IUkSZs2a1SmBzJs3jwKhQLo28+bN81kg5eXlLBoj3YqysjKvn4fKykrOQCgQzkA6KhAvQUNCuix+fn6cgVAg5FYIhAMK6Y5cunSJAqFACAVCiO94S2tnEJ0CYQzkJgXy5169YTRZOojZh9t2BvOvdN+OnMt8E49r7uB15pt8reYW15l/4ffI3Mnbtvc8fXu+//77P1AgFAj5JWcgoeFR0BoDCbnjiXMkcQmLAiE3I5DKykqfBBJGgZBuKhBmYVEgFMhNzkAoENLVBeLrEhZnIBQIBcIlrF8dUW+DqDXL6K18T7iERSgQCoTcQBxaCwS1HjpzKKSYFJhjB0Jvj4Cg1kMjSnyPfuMC4RIWBcIYCAXyqyCoDTCGOpAw7RUM23YM+Ye+RsHhbzC88jSSZ6+ANSkDQoAOWoON79dvdAmLAqFAOANhDOSXxWCHoNIjZHgpct6vR8kXgOs84KyXcZ0DRn4BFBz9FrEPz4IoShB1XNaiQAgFwiUszjxUekSOmYyikz/AdR4oPn0VrvOyRFzngJIGoPj0NVkm54H+zy+FqLNSIgyiEwqEabzdXR6hhQ+guPZHOM8CzjPX4DoHDN34CaLufxxhReMxaGEFnGdkgRSfuYaSi0DSs0ugEYzQGux8HxkDoUAIl7C6GxrBCGtiBvKq/w7XOVkOzrNA4vSF0OptEAK0EAJ00AgmRJSWoeDTb+E6K9/OdQ6ImTBdjonwveQSFgVCuITVjdDbIOptyFj7AUouystWJQ2yPASVvvXylMEOtb+I0Lz7UPT593DWN8JZDxR+9i3sg4ZDI5j4fjKNlwIhFEh3WrqKHvekEvMouQAMXroDotbiJbZhh+CvRfS4J+Gsb1TuM3TjJ0rdCN9XxkAoEMIlrG5Q62EMdSBn3zm4zgGus40Y8fFfIMWkQKMxtZ+tpTZgwCtrUXKhOdgePeEpCCo931vOQCgQwhlIl599BOjgmDy7eenqAhDz0IwOxTM0ohnGkFhZPmflLK3cDxpgCI6BqLXw/WUvLAqEUCBddvahs8IQGIWcve7Zx3lg2Pbj0JlDO5yWKwRoEfPgdHd6ryyguEnPcxbCIDoFQiiQrh77iHrgCblQ8LScTRU1dioElc4nCeksYRi2/bgsoXNAzp466O1RrA3pJLGORAqEAiE3s6EUW5nc/opzUW/D0HcOoKQBcJ2VB35DUDREncXnZbDIex9zB+FlEUWMKuMshDEQCoTcGTsSUiA+1n1oTLAPzkXxyR/hbCoInLGoU7Ucos4Kgz0Sw/fUwXVWrlZPX/0+NFrL9cWFBptcuS6aodFI0GhMbiRoRLM8a+nmBYmcgVAghFlYv3i7dY1ghKA2QFDrW2CQB+g2g7Og0iHhqfkouQA4zzSi6PMf5DoOjamTy2E6JE5fIJ+vrhGFx76Dtf9QCCqd/LzcX7XGIBhDYmF2pMI2IBuBaXkIzCiAbWA2LPFpMATHQtRZIaj08u27YUowZyAUCKFAbrs0BLUBGrUBOksozHGpCBpajNCC+xHueggRIx9BxMhHEJp3H+xp+bAkyIOz1mCXK8o1JmRtOaL0uRq64RO5fqOT//1rNCZYk7NQeOx7OM80ouQCkDDtVejtkQjJGQ3H1LkYtGgTsjYfQe7+C8g//A0Kj3+PopNXUFT7E4qO/4CCT79F7gcNGLL+ABJnLEZQplOpkqdAKBAKhFAgt6JbrnuPjrDiCRg47x1k7zyJ/CPfoPjUz3KTw7PNOOuAopNXlMF56IaDSJmzCglPzUfhZ5fl5asGIPaRWVD1UXXqP35RL88Y1P4i0te8j5IGwHnmKgqO/BMjDnypCKXkgrspo/t5OesaWyBf1rQE1pRWPHTDxwgeViLHU7rJ0hYLCSkQwmaKt2XWodGYEFY8HsO2HoXzrDzQus61GZDrPQ/QrrPyAF5yAUrabfGpn+Gsa0T/55bA2n8ItKYgZbmp3Ypygx0aUYKg0kFvDUdI7hgkz1kpC6PumnzeM+7n4v6qPLb78V3n5OuKT19tfX0Dmps1XgCKTv4L0Q9M6zYzEabxUiCEQfRbPvPQiBISpy+E8yzgcgvAWd9i0K1rRNHn/0LBp9+i4OglFB77HsW1V2R5tBi8XeeA4lOyPJpwnQWKPv8BWVuOIHHGIgRlFkMrBUNQ6SCKZuW/f2XpTGOCNWkIEp6ah+xdtXDWNaLkoiyuluctPnMNzrpG5FV/hawtn2LwkvfQ/9kliJ34LCJGlSEkdwyCh5UgrPABRN3/BBKnL0Tait3Iq/5KmYU4zwLFp35C8PBRENQGCoQzEAqEUCA+xRjUBkSPe9K9PNQI55lGuBqAEQf+gtQ3tiJu0vMIyR3tDkYPhiUpA9aULARmFCA07z5EP/AEEp6ah9TXNmPYtmMoOnlFkUjLJSXX+eblo8zNhxFb9hykaLmtidpfC60xCCF592Hw0u0oPHq5WUjuPUJKLsgzHXk5rRE5e+oRkjsGpqhkaE1B0GhMEFR6CCqdO1BuaA7+uy/XaEyQopORPGelPEtq6rX1zgE5/biLL2UxBkKBEG5pe8v7VeXuv+BerrqGos+/R/wTL8MYFq9kOTVnXEkyGgkawdRqcFb3E2FNzkThse/grJOXj3Ler0fB4W/k2IN7JuM8c02ZteTXfIWB89Yj5uGZGLrxE3m2caHpdo3K/fI++TsGlL+Nwct2wHm2Ua4t2XceemsYBLWh40F692xL7a9F/2eXyIWO7kwxa0oWNBqJMxAuYVEghDOQjlaMh7seavGf/jVEj5sG9T0CRK0ZWqPdt3M5H5RnHWcaUXTyRwQOKYQUk4KYB6cjfVWVvNfH+RYxknp3YNsdBG+6vPj0VRR+dhkZb3+I6HFPQorqD1UfFYKHj5LbvLvjG8HDSjoVv9AIJlgS0lH42XdKDCfc9VCXL1CkQCgQwlYmt1AgOiTOWKQsD+W8fw56a7jPFeNNAkmcvlCeQZwFRhz4EsbQOLlmRKWDRpQgRSbBMfUlFBy9BOeZa61jGm6c9Y3I/aABobmjoe6nUWSmEc0wRfZH3sG/KUtacZOe71yBotYCKao/8qu/UoLskWMmd1uBcAmLAiEUSKcE0v+5JUq8IWvrUehMwb7vu2GwQyOaMPjNbXIW1HlgyPoD7qUlOcNLIxgRNLQY6av3oPjUT0oMwnWuRQC+aQZSewXZu07CMflFGINj3ZtPydXnmRurlSWwQQsrIHRiy1uNxgRrShYKj/+gZJeFF0/o8oF0BtEpEEKB3NqW64/NUWYNSst0H5sVinobdOYQDNt2TBHCgPK3IfjL29Wa4wdj0KJNKD79s5zme+qq0qU3a/MRJDw1H1lbj8qXubPAmuo2hleeRuSYyRB1Vqj6qDCw/O1m4W35FFpTkM/CE1R6RJROcsd95Awz28DOV8tzCYtQIBRI9xOIumXcQl5SCh5WAo3a6POSkCk8ASMO/EVZXop95BkIghGOyS8i//A/5FTcM80ZVcN3n0L0A9Ogs4RC7S9Cbw1HZGkZMt+tgauhOSXYdU6WW/rqPTA7UhE9/kmlniPv4N9gikj0eY8QjWDEoMXvKiLK3n1KXrrTW7mERYFQIIRB9A4NpKIZ5thByD/8jZIB1f+FZT7HAjSi1CIDS64WT5r1Goas2y/PburlIH3JBSD/0FeIf+IV6O2REAJ0yqDdVHUu6m2IKJ2E4XvqZOnUN+8Hkn/4Hxiybr+7mPAaik5eQWBank8zB40owRw7EPmHvlZqTJLnrISg1nfbOhAKhAIhnIF0uogwbcVudyC9Ebn7L8AYHOvTf/UawYiQnFJ5FnP6Goprf5LrQJpmEeflFOFBi9+F2TFYFoeXQL2ot0EI0EJnDYPjsdnIr/l78+ylrtF9zp+V84ePfMQn4QkqHRKeLHfXvVxDce0VBGU6u0U1OmMgFAhhHcgtT+WNGPmwkspb0gA4Hn0R6gCtb/t2jHn0ulTcpnbuOVVnEFY0DhrB2OHZgqizQu2vhRSdgoHz3kZx7ZVWbVKKT/2MkguA47HZUPUJ6PDsQ4pJQd7Hf4WzXq4zGfL2h3KfLoONAuEMhAIhnIH4HgAPRdZ7n6HkPOCsb0Tex3+BFDOgQ4O9qLNC3U+DpGffcAfI3bOD80Dx6Z+RPHs5DEHR8m6EnrKlDHaIeqvXYkCNKEGjNiJoWAkyN1XLz7EOLVJ+zyNoWIncGqW9GIbBDo1gRMpLa1Bywb1BVf01hOaP7TYbVHEJiwIhFMhtKih8GK6z1+R4w0Ug9bUtskDa+c9cI0oQ9TYkPL0ARbU/wnmmuUAw5/16hBbcL8c1tGaP922Keeit4dCZQ+R2JGrD9Y9psENQG6AzhypB+aagv+scUHTiB8RPfUluCimavC5dheSUori2eaOr9FV7oBElduP1MgOprKykQCgQCoQCuVEsRN44Km3ZTqVfletsI6IfmAbBy1KWRm2AITgWact3NscTTv0M59lGDN9TB1N4gnxfDzsHCmoDLIkZSJy+AEPf+RjDK09j2PbjSH1tM8KKx0Ort3lsK9KUypvysnsW0VR8WCdndqUt3wVTZP/r6jk0ohmGkFgMrzqjpO4WHrsE24Bh3WpPEF9nIBQIBUKBcD+QjhfXJWag4PDXcNXLxXUFR/4hD7JtMpQElR6WpCEYtv2YIhwlLtEAZLy1zz17sXvc4TCu7DkUfPpPjLzo3sfjnEyJ++f01XsgRSVDozF6jLfEP1neLJDTV5XeWyMvArn7ziEwLU+pUBf1VmhEM1Jf2yw/11NXUdIAxD/xirysxi1tGUSnQAgFcmsq02MmPK0Ew10NQPbOEzAExyrxECFAh6AhRRhx4EtlEG9ZR1LSAKSvrISmRav2ljGIBPfg76yHx1YmxaevYuSXQPaOEzCFJ0DTZvlLUOkQ+/BMJaBe+Nll5Nd8LT9nd+yl4Mg3CHdOgBCghTpAKxdLnnfL4yIw5O2P5AJEnZUC4RIWBUK4hHUr03oHzn+n+b/1C0D6qiropGCo+6oRmn8/Cj79xj1gu9uhb6pG9q6TcmbTBSD1ja3XzUAEwYiQ4aUoPvWTPGPwJI8WjPwSGLRo03UxCkGlR8RodxV5PZD38V8RnFOKzE01zctv54Di2iuIeuAJhDsfRPGpK3DWXYPrHJD3yd9giU/rdtvZMguLAiEUyC/S4l1vj0Dmu4daSWTAq+sQMXIiCo9dVvpWlVwE0pbthN4eiYy39sHl7qw7aPEmeYBuGvgNdog6C9JXVraKXbRHU4sR+6DWLUYEtR7hJQ+79xppROHRS5CiU6Azh2LwG1vl2c0ZebfE4tqfUHj8e/fOiddQfPoKworGd5usKwqEAiFcwvoV4iFGSLEDkbO3Xuld5axrhPN001e5XmTAK2uVpamh73yMkvOeBaLRmiFFpyC/5ms46xs7JBClzmPy7FaxCkFtQGj+WGWjqqLPf4Bt0HCo/UWIOisSpy9E8cl/uZs1XnMXN16F8/RPcvfebrQH+u2KgVAgFAhbmXAGcsM+WbYB2cjd3yAP+u7uucWnr6K49kckPfMGRK1FXmLS2zBk/QGlS+7ABRvcS0R2pVI9ML0AxbU/eW3j7k0gA15dB0EwtKp6D84pVba0LT55BfbBI6DRmJQsrcTpC5WYSFOqb+amQxBFqVOt6jkDoUAoEM5AKBBfMAVB1TtADqq32OvcdRYYXnkKelu4shQk6izIWLNX2Rxq0KI2MxDBiMAhRSjqhEAGzlvfKi1XIxgRnD2qWSC1VxCYUSDvnhigQ2B6AXL21stLVu6gvJwl9iMcj82BoNZ3+a1rWUhIgRDOQH7dZSzBCHPcIAzfc0aZgTjPNMrLWfXXkLH2AxjDEuT9x0Uz0ldWKQIZ/MZ7rYLootYMKWYA8g/9Q6ki75BALgLxj7/UaglLIxgQPHxU6xlIWh5Uvf0RklOK/ENfKbMPZ727h5Y7JuKsv4bo8U+5xWfnEhbTeCkQwl5Yt1weWgv0Vncg/YI7BnLmGgqPfw/XWSiDe/bOE7CmZEHVOwCpb7yn7GGevmK3XH3eKohulWcpHQ2in5HlEJie3yqILjduHK00Vyz6/F+wJmYgrHj8dQH+1Nc2I2L0oyj8/Ac5ZlLfiOLafyFkxL3drgaES1gUCOEM5JdJ5RWMGPDq281ZWBeB1Ne3wDYoB9m7ahWplDQAedV/R0jOaAx45S2UXJAFkrH2A2UHweuC3/XXOrSMNfILYPCS9+SuwC3Oo1EbEDJijDuzSs7CGjj/HRR9/gOcZ1vI4/Ut0EnBUPVVI+qBJ+CskyXoOgfkffwlzHGpXX4DKQqEAiG/skC6WxaWoNIjauzU5v/kG4Bh24/BEBQD9T0CTJFJGLL+o1Y1F4WffYfcDxrkAdq9y6DWFCR3uW0pJo0J/Z9dgpEX4X0pyy2AnPfrIMWkyEH6VsF9A8KLJyj7hBTX/qQUMjrrGuFqAFLmrpJnPe5ZkLJfe0NzWvKQ9Qegk4K7VTEhYyAUCGEQ/ba2M7HEpyGv+u9wnQVcZ4GCw1/DNmCYvOGSKQgajQk6SxgGLdok98Cqa3QP3s1V6cOrzkBvi7hucBZ1Vog6KxKmlaPoxA8Y+YW7jYn7sUouyFvaDt3wMczxgz0W+wkBWkSMmtgqy6q5Gv4q4h9/WW7y2GI/k6bHHfzm9lazqvipL3Wrpaxb1UyRMRAKhAKhQK5futJIckPFpnbnZxsRed/U6xoqilozNFoL4h59AUWf/9BqMHfWAXkH/wpjSKzHwVnUy80U7am5SJ6zElnvHUXuBw0YXnUG6St2I/LeydBKIR6Xl0RRghCgQ+KMRe7WJG55NAAFn36DiNIypcOvJzmaIpOQ+8H55oaKR7+FNTmz2yxlcQmLAiFcwro9S1cBOoQXT1D6YMkFge96bIqoiEClQ1CmEzl76lo1Nyw+cw2D39wGc/xgeUD3sEzU1LpdJwXDEBwrz1hESU6zbbuvh3sZyhjqwMD576D49M9KA0fXWSB71wnYU3PlBortpOgKATqEFY1H8ZmfUHxG3mI3bdmu1gF/LmExC4sCIQyi+7aplNYUhGHbjqGkAXDVNyLv4F8hxQ702Fa9bczEFJGIjDV7m6vM3QLKq/474iY9D505xGsFuKi3yUtMeqv3DaUEI0LzxyLn/Xp5CapF6/jc/RdgikjqWHsS974iSoLA6Wtw1l1FaN6917WA5wyEMxAKhEtYFEgHA+eRo5u2pJXblMhtP3QdnL1oYUlIl/tOnWlsFZcoaQCythxByIgxvm1pq7dBCNDBFJGEAfPWK80Qmwoaldbxaz/wOkvyHOeRYI4bhPyar+Csk5s/pq3YDVHs+rMQCoQCIb9wHUhXX8ISDfJWskPWfyzPPs4BwytPwxAY1eG2H6LOCmNILHL3X1DqROTCPXnAdzUAzrprSH1jCyxJGVD7az3uUthylqA1BiJ63DSM+OgLd4NEd5bVWaCo9opSqZ76+lZ53xAfBn8hQIf+z70pn7euEYXHvoc1JfOGsy0KhAKhQLiExRlIm1iEPTUXRSd+hPNMI0oaAMdjs33LTnIP3pnvHoLrvCyLnPfrkbP3rDJIF5+Wt5EtPP4d+j+3BMbwBAj+WnnfkBZFghrBiOBhJRi68aC82dTZ5phM4bHvkDhjEYZXnYGzXs7a6v/cmz5311Ve88l/ydvbXgAcU+d2+YwspvFSIOQmBcIZyPWbSDmmzlUG+vzD38AcN+i6+osbN180YNCCjXIq7nm5zkKKTkbK3FUoOv69ktnlrGvEyC/kTK2EJ8shxQyAoNLLmVmDcpD6+hYUn/pJ2TDKdU5eBhuy/gBsg3JgCIpB3id/lwXSAMQ+PNP3gd+953rm5iNyA8gGIH1lVZffH/1WzUAYRKdAGAOhQJRiu/SVVfJeHg1A+qo98i6APg6kgkoPx5S5ym6DeQf/BmNwLAR/Lexp+UhbvgvOM1cVMTjr5S1s8z75O/o/vxQDXl2HQrdomparSi4CuR9eQMyEp6E1BkLVV43AtHwUnbwi97eqB0ILH+hUAFxQ6dD/+aWy8M4Bw3aegN4S6jEFmALhDIQCoUC4hOUhUK2zhiF710n5P/0LQOLT85X9xH2dgYQVjZf3U3c3XQzKdEJQG6ARjBB1FoQW3I8hb3+Ews9/UNJwm2YSJQ1oDsCfuYa8g39F4vQFMIbFQwjQudOG9YgcM9m9TNaIwmPfues4pE4JJK7sWVkgZ4HcfedhCIrp0pXpt6qQkAKhQCgQzkAg6qwwBEUjZ+85JWMqZsLTnYoFaEQzLAlpKDz6LZx1soxiy55VajM0ghEBvfrBYI/EoMXvwuVtYyn3plVpy3bCkpgBUWeBoNJBIxih9hfR/9kl8iyladAP7tygr+4nIuGpeSi5KAsk5/2z0AdGdWmBeOvGyxgIBUI4A+nEDMQKvT0Sw6vOKK1E4ia/CHU/TedmM5YwZO/4XJnNpL7xHlR9VBB1FtgGZCNxxiJk765F0ckfW1Wul1yAsvSlXF4PFJ38EVlbjiDhyXIEZhRAJwUjY81euBrklicZa/b6XgRokNODjaFx8us+J6fydupcDKITCoQC6bZZWE0xkNXvu2MBjRi2/TgMgVE3rOq+7jw6K1R91Uh+YZlbBnKRX/zjL2PIuv1KfMN1DkpX3JILQH7NVxjw8ltInrMSIw58KWdeNTTt43FN2eWwuPYKsnfVouDTf8LpzspKeuYNqO8R5CC8OxCv0ZjkXliiWW65IprdVe96ZSksKMuFrK1HlbqSkgtA9LhpXX6vdAbRKRBCgdzyIsLocdOUTrWu80BmRQ3sg3Ig6q3uwVmnxDI0ghGC2tDqclFngd4eBWvSEKS8tMY9MP+spMi6mpou1jXPNLJ3nYRj6ly52t19PlNEIqIfmIahGw6i6MSP8vLS+eaGjU3ykc99FbkfXkTa8l1IeuZ1xIx/GqH5YxGYXgBrShbM8YNhjh0IS0Ia7Km5iCh5GEmzXsPQimq5g6+7l9bIL4ChG6uhs4Rd30KFAqFAKBAKhAJpfxlLZw5F5qYajPzC3VH3PFB04kcM3XgQyS+uQMxDMxBWOA5BmU4EZToRmj8WUWOnwjFlDlJefgsZb+1Dzvv1KDrxr+vbtJ++ihJ3qmzBkW8weOl2hBdPgN4SJsc2WtSBiFqLMvOxp+Uh4al5yNxUg4LPLssiabOPSFMtSMlFdxC+Diiu/QmFx79HwZF/Iv/Q1yj49FsUnfiXMuNpOo+zDhj5BTBs22eQYgZ0i4aKFAgFQlhIeFuKCc2OVGTvPIGRX8gDsfNMo7J8VNLQJj5Rh+br3Ne7zjbPMpTbnr6KohM/IuOtDxDz0HSYHYOU5aR2/9s32KARTEow35KYjqixUzHiwJdyUWJTm5SLLR67HsomUy2fh3w5lJ+btt0tOPIN+r/wJgzBsezGyywsCoQwC+tm90A3hjqQ8vIaFBz5RpGD61zbwbm1KJoK/Uouyt8XfPotRhz4UsmmKjz2HaxJQ+Rgeif6TTX1xDIExyLv4N/grG+E6xww+M3tSHhqHtJX7cHwytPIP/QPuZq+Tr7edd793N2V7IXHvkPuR19gyLoP4ZgyB2ZHqrz8prV0i98v9wOhQAiXsG7vcpbWosxGYh+ZhbRlO92D89co+vwHeVZRewVFJ35E4dFLyDv4N2TvOon0lVXo/9ybiBwzGWZHKmwDs1Fw9JLSrDD+8Zc7VVvSsmYj6r4p7uWnRhSf/gmBaXlQ9Q6AqDVDb4uAOXYA7INzEZI7BhEljyBy9KOIHP0owp0TEJTphLX/EBhDHRB11uuWzrgjIbOwKBBCgdyqjaVEs3uQlaC3hcMcOxC2gdkIGlKEwPR82FNzYUnKgCkiEXprOEStWcmE0mhM0GhMyFjzfnOV9/bj0JlDoO1MkLpFtXxTs8fsnSebg94GO0S9Vc64cu8xIqj1rTOzBKOcmdVmn3YKhJXoFAjhEtbtTPNtMTjLWVim5lRZrUVu/dFmUBZUekTd+xhKzskzBmfdVYTklHaq5YhGI8GSkN48o7kIJD3zepdPuaVACAXSBZophnZngXS6wt0CQ1AMcvadVwoUU9/Y6tO+HS2XrxKemufukdWIopM/wp6a220C3xQIoUC4hNXtEAJ0SJy1GCUX5bTZotofETikCIJg8CkmYwiJVVqtuBqAjLc+8DjrIUzjpUAIBdJVsrpECWZHKvIP/0MJpqevrPSpXYgQoEXcpOfcHXzlqvTwkoe5fPULBdGZxkuBUCAUyK9a5d7/haVygWLT/uMF93coI0sjmmEMT8CIj76A66xckzJs23FopaDOBeMJ60AoEEKB3EmzEDOk6BTkHfyrXL9xHhi+uxaG4Jj2N6wy2KERDEies8q9EZXcYiVy9KOcfXAJiwIhd04lehgFctOxkJiHZsoicDcuTF38LjSi2Ws1uuAvIqx4PIpPXVH6aQ1Zf0Be+jLY+L4yiE6BEKbxdouMLL0NWqMdGWv2KrOJkgYgcfpCdyNG63XCsQ0YhryDf5MryesaUXTiB9jT8qARjHxPKRAKhLAXVrdaytKYYI4diNyPLirNDF1ngYTpC6A12KH217rbrWsRmFGI3P0X5G65p6/C1QDET53LpavfUCU6l7AoEM5AOAP5xQPqQZlOFHz2rdzu3R3XyNxUjcgxkxGadx+S56xE4WeXm/fp+AJIXbxZriDXc+mKrUwoEPIrC4SFhL+uREJG3IuCw1+7U3NlibjOQ2nN3rT3x8gvgLRlO6GzhHarhocUCKFAmIVF2qkstw/KwbD3PsPIL9ybTdW3aLd+ASg+/TP6v7AUOlNwt2x6yCwsQoEwBkK8SURtgN4ajtiJzyCzohr5h75G4ec/IK/mK6SvqkRIzmgIauN1AXbCIDoFQjgDIUpbda0hEFLMANgGDIMUlSw3blQb2KqEMxBCgVAg5EYdf21Kt19f2pwQzkAoEMJCQkI4AyEUCGcghLAXFqFAKBAKhDCNl0tYFAgFwjoQQigQCoSwEp0QtjKhQAhnIIRwBkIoEM5ACLkDiHUkMguLAiGsRCeES1gUCGEdCCEsJCQUCGMghDAGQigQzkA4AyGcgVAgFAhnIBQIIe0F0RkDoUAIBUIIW5lQIIStTAjhEhahQBhEv1X7ZxjsELt5q3PNb3BfdI3eBtHX36XeBtHAIDqhQFgHcovpG6BDH389+gYYIOibhaGTgmG0hEAtSlCJFog6KwJEC7SmoFvwuHb0U8mPp3MPihr9TcrKYEcffx1UOht0t+S9CYLREnqLzuV+T42BUIsS1DfxHI2WEOhMvt3HYAmF/pb83jgDoUAIl7DcMwzBGIKZL7+GZStW480li5HsiECAaMU9/USkPDAVz70wC6nD7sVIZyH0QXFITkiBWrS0EoGgs0LQ2ZRzavQ2CDqrIgTR4L6N8t+8Hf3EQDzy+HMYnBSLANECozUcRnMIREMgRINNOYdosEPb6pyeZwQarRn9TFGYu3glcpOT4S9aWp+jzX/jgs4Kjfvypts1vQatMRAq0QB94FC8s34tIoLMUOsDW9226Xk1va6m1y2/XrcM3de3FKNaa0Vk/wxEh0ZDrbN5eG+an6NG33R503tshb8uGItWLUHGwHAEaGzK5cr74P65abah0dtwd4AJT654G/nZmegnmO/IGQiD6BQIBfJbE4jeBo01BvtqajBiWCYiopNgttgRoA1EaGgMRjw1F68tmQ/JHouwsEiUzHoNO5a/AbN7wNQaAxGgtSAkqj/CI+Ig6u0wWkKhl4IQGpUIoxQItdaCAK0NEbHJCA6JkgdMrYTApHzs2bMDoWYzemtCsL7qMLavmY8Afx2MljCYLGGIiEmCVm+BVgqG0RqMkKgkWKzBUOts14nQGhKHqKQhmDbzRQyMjUc/wQS9NRLRcckwmYOV5yvq7TAHRiPGkQKjZIfGGASTLRQh0UkIDo6EWrQgQDQjMCIOjuRR2LdnJ6KCJaj1gdBoLdBbIxDjGACLNQSiKRhRjgEIDomA1hgKiz1MlogUCqs9DAGiDdGOFFitwVBprdAa7bhHG4QFm/eifNLDUKmNUBuCERM/EHZ7KAI0ZmhNQRANgTBYw2AKjEZ4ZCwCNGaEx6UgMDAMf1bZsH5HBbLTwvHnfmaEx6YgMjIOKsEEjSEQwVFJiIpJgEZngUqUYLRHwxaRgJe378HIghzco5a4oRShQCiQWyMQwRyF3R/XYNb0p3HvvWOhNYZj7uK12LB2DfbUnMCCl2ch//5JeGr6/Zi7/n3Uf3YYY7KHI0CQcI/KhPufeAU7dmzD2rWrER9mxYj7HsXhIzXY+f5H2LVxFXSiDXNXbELV7l14a9ECBOrM+PM9IsrmrMD8GWXoeXcAYoaMwdbtO1G5eweirRaMnfIGTn56GJV7P8Sbr0xH4qDhOPr5Z9ixuwp7d25FdFAQ1Lrm/+r7CWbkPfg0Vqxai6qDBzAoJQlS5FBs2f0+Vq7dgKcn3Qt/tRFagw3+Ujgemz0fS5a+hXXLXkeUYxCqPvoIy5atwt49e5ERH4Xh42Zg27btWLOhErVHKhFqMyJAY4Y5egjWbtiKN5csxaj8DKTnTsSSZcux+d13MX58Gda9vRrqvio8POs1TH/0QUx5ZhFWLF2G9evWITE6Ev3URpgTsvDhyQZ8tHUjUlOy8cbqd7Fy+Qps37kLwwcOhL/Ggr4BepTOWIhPjhzC8zMew8QZc7FyxSq8s3ED0lKSsWzjGgxOCcfEma9j84b12LS9EtMmjEVgbCoWvr4c6zbtwNOT7oM9KhNbtu/C0mVrcOLceYwYNuQ3IxBvMxBmYVEgFMgdJZBI7D54CC8+9wzGjh6DJOdEbN28Dr3/727kTJmDBfNexOgpszD7qSIMGP8M1r30PHr10kBrDEQffxOmv7oe+3ZugKu4CGq1BmMffxEH92yG1hyDZ2bMxsgxT+Oj7RUwCHoYLGHQG6wIMMfj3Z1VGBQXgZ69RUx5ZTWm3e/ClJdWY8qYApQ9sx7vrn4K9+iTUVVVhfHjx+JQ9QdQq/RYtnEXpozLQe8AE/o2xTtMQRC0ZvxPXz3mbK1E4bB0BMYX4dNjxzBz2mTEO+Kg1lmhNdigNoVh3NRnMG/xKpz85DBcQ/NRtX87dP38MfWlN/Hq7GfwzrvbkRptgxAyAvs/2I3IIBP8BROCkgtx4JPDeGSMC6IoYXDu/Zj98nzsr/kUM54YidfXvoei7OFYvq4C9457BEeOHcEDY8dj80fH8PyD96G3vwF/7mfAM6vfQ1lmOvInv4jVrz2P//rvu1HwyIvYvHIu+vlr0aefDhMXvoOlz0+F2pKKz06cxGMPP4hVW/diwUtPY+GKxSgdNwrbd78Ho6CGISoL+6q2Ijk5BTNfLMdbm/Zgx8qlmPbqasycNAZ/8tPgtR374MrLRm9/g88BeM5AKBBCgXhZworFrg/2IsxuxX/9dy/EOCdhx7YN6NOzN0pnLMbrC+fKAnm6GOkPzcamhXPRp4/oXl+3wx6ahIKRj+DD46fxWEE2SifNwpqlr+LuPgLu7uWP1JEzUbNrEwyiEWZ7FNQqHYaOnY6KVYvQ7x4B/fRR2HXoFHZu3Yid+2qwc81iPD5zJV551gV1cBY+3FuJ++67D9u2rEPPvkZU7N6PB13p6CuG4v6HH0P/uHio3ctDvQQr5mzZjaKcLPhrgpCSlodXlm/Cwe0bYFQb4K/SI8lZhr17tyE6IRP7dn+E0dlObNr2Ovzv6YVJLyxA+asLsWnrLgyOtsPscOFQ9V5EBpmg1gVCNAUiImEolm+uwtwXX0bFlg9RMjQdr67egmen5CCj9CnUVB/G6y9OQ3SGC58dPYz7x4zFAw+WYVB8ItRaK3r5mzBnXSWmjshEwaOzsfaN2fif/+0N56S52LDkedzjr0Uffz3KFqzFI+NLoQ3OwtHPj2PSg+Nx37iJSEkZghUbV2L0+FLsrNwOs1YDc1wu3nt3HRavXo0FL0xG9gOzsH3VCsx4fT1mTroX/9XLhLX7auDKz4UlKAZGc+AvlpHFLCwKhNxkFtZvNY1X1NuglsKxsfJDbKrYhDWr12DQ4Cy8tHQjKta9hS1VH+G56VNROGEKpk/Jhy2uEPsPHMCEgjwEqE24R2XH1FlL8fZba7Ft53ZkJsahePzjWFz+PPr46yHqrdCYovD62ztQuXMXVs8vh+gv4bUNuzCucAj+3FdEVEYp3t2wFlFhEQhPzsHa9RuxaGEFao9/gq279+DJCWMQn16Ii385j03bdmHtmwth1OqhD0rDiXN/wRRXPvqqTPAXjPifPjrM3bwbBcPSERY/Eps3b8Paiq1Y8MLT0AhGCKIEW2I2NmyrxLLl6/Dh9h0YMTgXS1e/BLV/P4x7cg6mPfYgCh6ahcqdO7FizRbs3/0OQmwmBKhNCM4oxJKVa7DunQ0YN6YUM15ahfVr38KeDz/ElAez0EdKxCefnkTpsEG4Wx2M5xa+hTXLluH11xYgPiYUKq0N/QIMKH5wNvbt3or0lOF4ffUWrFm1BhWbNmJQYjwCRCv6Bhhw/7OLMP7+0fC7R4/Jsxfh7bfWYMkbS5Aa2x/lyxYjJSEMj8x8A++9uxEbt2zDWGceht/3OLa/twVrN+zC+nkvISYpH9ur9mLZ0pXYf/BjDM0pwZtvvYP+sWFQae0MohMKhHUgN4/JFoHQyASER8uB7wCtXQ6CW0Ogk4Khl4JhNAdDrbPAHBQDe2CEkoWkN4ciNDIBZkswAkQLDOYQGC0hLWoWrAgQrQiJiIdktsOeMBxr166C1WiCxmCHwRoKoxQMtdYCtdaKe1QWvLhoO9YsmQytIRC9eqsxpHg8qg/shj0wBIIouVON7TBYQqA1BUKtsyHfNRojSh7EwUOHkJ7sgL9ogS00DqHhsVCJkrJsI2gtMFgjERIWC73J/dosIdAa7dCbQ2A0ByNAkGAPj4c9MAJ6Kbg5ZdYUjODIBASHRCFAMEHQByE0Mh6SJQh6KRgavQ16KQSi3g5Rb0WA1obQqEQEBkW0zsTS2xAY7oDRaINaH4Sw6ESYJDsCRIvyWHpzKAxSMESDDQGiRX7c0Gho9DZ3arEN/hr58qDgCPgLJqi0VtjDHLDaImCQQqASJRhsUQiNiIXOLL9WyRbucwowl7AoEMJWJu0Wpgkt0j9FJf3UphQTikrKa3P6a8sU3eYUVvt19Rwtb2OwhMAgBbVK8W2ZmnuPyoQRJZMxypWBvioT1KIZMSmZmPLYJAQIxlYpuRp3cVyAaMboiU9j6Yo1eOT+MVBrJOW5CrrrC+g0ehsEvU15fS2fi/I63c+3ddqwXU6TbfFaBV3zedoW+bV9b1rWqwg6K8SWtzHYvRdxtjlP82O0PX/zz61SlFu9VhuD6IQCYSHhHYoHwbQqtDMFIUAwwl+wQGcKgtYUBEFnQV+VEVpjkJf7BMJfbUTvflr37dhChK1MCAXCIDoh3A+EAqFAKBAKhFAgnIFQIOQ2C6RXrz5IHpiO5AFeGJjefH3L71v+PNDDfQZ4uczXrzeivcceeIOfb/R6vf3c3mO1d/uOvKfebnOjywd04D3v6OsdcIPX0JHfty+/+xv9zdzocdyXG00WBtEpEPJLCoSQrg4FQoEQCoQQCoQCIb+WQPz8/DigkG6Ht4NpvBQI03h9EEhZWRkHFNKtyMzM9Pp5YBCdAuEMxAeBXL58GZIkcWAh3QKHw4Ha2lqfBcIlLAqEM5B2jtraWlRXV19HTU1Nhy7zRtNta2pqrrufL+fpyGP4en3Ly315bjfzeB09ry/ve8v3+Ha9hx39vXbkPJ6er6f3/1b87bW8/alTp7zWf3AGQoFwBtKJGQgPHjwoEAqEUCA8eFAgFEhXZfny5UETJ050taSsrKyoJU2XebtNy5/bXte/f/9CCoQHj1svkOTk5EJPn7n2Pqstr2v7fdvbzJs3L45jJAXilaysrHG9e/dWTZw48Q8tKSsr+4+WNF3m7TYtf257ncPhSPD0x5+VlYWJEyeirKysFRMnTlQub/m15eUtr/N0/7bn8XR9e/f1dv/2nk9HH8fTa2vvnL68Zk/nvdFr9nYfb7driy+vv+39fHk9nm5/o9v58vtq7/X6+j62d46O3r/l91lZWR4FEh8fn+DpM9feZ7XldW2/b3ubfv36CZIkJXKspECuo6qqqo8oisE9evTYy0wYQogH9qpUqqnLly8P4phJgbRixYoVIZQHIeRGEpk3b14Sx0wKpBXz589P4oeDEHIjZs2alc0xkwLpUH0GIYS0ZObMmRQIBdKx9FpCCGkzA8nimEmBdEggFRUVqK2tbcWpU6c6dJmny0+dOqVc1vZ7T/dt77ye7uvte294e4y257nR8+zIY9/otbSkI8/X2+0dDofHD35NTY3Hx2zvtdzoubT9ubq6Gt6y7Dr6++nIe9z2+Xt7Hb7+jfr6er3d39PfuK/v843+Ftr7O/Xlb93b81i+fDkFQoF0jK1btwreBMLjzjpKS0s9fvC//PLL2/7Yly9f9ioQHnfWUVNT4/F3uXbtWivHTAqkFZWVlf6e/liWL1/OT9IddowaNcrb2jWWL19+WykvL6dAushRUVHh8Xe5e/duf46ZFEhbgfyuR48eH3vo8MlPUhcRyK8JBXLnHd6WsA4ePPh/HDMpkOvfDA8CGTVqFD9JXWQJiwLhcQv+Efm4urr6/3G8pECuQ6/X17X9g+nZsyc/SXfYMXPmzN+cQPiPyJ11XLp0yeMePL169TrBsZIC8cicOXNiGUjvuksPvybl5eX8xdxBh7eGjRMmTHiYYyUF4pGKiop/97SMxeUHxkFudvnq8uXL/KXcQcfEiRM9Ll/NmzfvPzlWUiBe6dWr1wm2W+86/0VWVFTckE2bNilfm77vKDe6/alTpyiPO+zwVsuj1+vrOEZSIO2SlpbmsaBQkiR+snjw6OLH5cuXvbaLnzFjhpFjJAVyQ0JCQuo9/QGVlpbyE8aDRxc+vCVghISE1DP7igLpEKNGjfo3T7EQBtR58Oi6h7fki9/97neorKxk7QcF0nF69+79MTNqePDoPvLw8/Pz+HmPi4t7h7MPCsTXHQr/LSgoqJaFYTx4dN3j8uXLKCsr85pBZ7fbjy9fvvwPHBMpEJ8pKyv7D4PBUHeDvQH4KeTB4w4UR3l5uddZR1PR4MyZM5m2S4F0nqysrN7BwcH1N8r1LysrY3yEB4/f8HHp0iVUV1ejrKysXXH06NEDBoOhzuFwJHAMpEBumtLS0n+TJOmoL8VjkiQhKysLmZmZyMzMRFZW1q9G28f39Hx8fY7tneNG5+rI8/Hl+Xo7X2fe91/7d+Xp+dyK39fNvNbb9Z54O+/N/P48ncfhcNxQGG2XrbKysnpz7KNAbuWWt/951113ffinP/2Ju7IR0gX53e9+B5VKVc1lKwrktlBdXf3/JEkaq9frD/MDR0jXEYderz/s5+e3sKKi4t851lEgt5Xly5f/oUePHnv1ev1hQRD4ISTkDkQQBEiSdLRnz54LmWlFgfwqIsnMzOzdJBOTyQRBEMBlLkJ+WzOMnj17omfPnjCbzdBoNPjDH/6wLysrq3d5eTmXqyiQ34ZMysrK/iMrK6u3JElje/TosZcQ8uvj5+e30OFwJMTHxyeUlpb+GzvqUiCEEEIoEEIIIRQIIYQQCoQQQgihQAghhFAghBBCKBBCCCEUCCGEEAqEEEIIoUAIIYRQIIQQQigQQgghFAghhBAKhBBCCKFACCGEUCCEEEIoEEIIIRQIIYQQCoQQQgihQAghhFAghBBCKBBCCCEUCCGEEEKBEEIIoUAIIYRQIIQQQigQQgghFAghhBBCgRBCCKFACCGEUCCEEEIoEEIIIRQIIYQQQoEQQgihQAghhFAghBBCKBBCCCEUCCGEEEKBEEIIoUAIIYRQIIQQQigQQgghFAghhBBCgRBCCKFACCGEUCCEEEIoEEIIIRQIIYQQQoEQQgihQAghhFAghBBCKBBCCCEUCCGEEEKBEEIIoUAIIYRQIIQQQigQQgghFAjfBEIIIRQIIYQQCoQQQggFQgghhAIhhBBCKBBCCCEUCCGEEAqEEEIIBUIIIYQCIYQQQigQQgghFAghhBAKhBBCCAVCCCGEAiGEEEI88f8HAMDgs8WGqHv3AAAAAElFTkSuQmCC;" vertex="1" parent="1">
          <mxGeometry x="690" y="304.11" width="143.34" height="107.5" as="geometry" />
        </mxCell>
        <mxCell id="mMZBT7bqYluBtJ0m3_0H-8" value="" style="shape=image;verticalLabelPosition=bottom;labelBackgroundColor=default;verticalAlign=top;aspect=fixed;imageAspect=0;image=data:image/png,iVBORw0KGgoAAAANSUhEUgAAARgAAAEYCAYAAACHjumMAAAtfUlEQVR4nOzdCXwb5Z0//s/IliVbPqQ4ku34zJ3YCXFCTnJYIaScDQYSSjkKNG2Xpdtdyn+30N3un1DKbn/Lbst2S6/lV8LRg4ZCoOUIJCDnIHfihNiJHeL4ig85sWRbviTb83uNJyZ2fGo0M49m9H2/Xn4ltqXRB+N89VzzPNEgYc9izo62xOZYwSMBHKzGaGu8LSE/EUACgHgAiRwQa7c6LeAQx4lfiwUQB8AMwGS3Ok0chxgARo6DiedhAmDgABMPCL8HwgcnfG/QSxsBRI0TjwfQ/cUnPPwA+oS/c0AXD/RwQA8vPibQ/8Gj2+Mr7g70eLsuP7fz8ocPPDo9vuJ2f4/XB6CDA1p5oK29s7KtvauyFTzawMHrD3jbvL4TnYr90IksONYBIl2mY5NN+MMUY5+aYnOmA5gCIM1hK0gzxzjSADg4DqlCMWCdNdzwPC4CaATQUOPe1sDzqAdQ520vqWv1lVYAqHF7XO7uQFMf66yRigqMghzWgkngkOWwObMApNsS8nNioq1TLLE5mRZzTgYHpIKDhXVOPbvcomoK9HgveNqKq3igzu1xVQHo/zwQ8NZ4fMWNgZ6WXtZZ9YgKjAxMRnuMw+Zc4LAVzDPHOJZmpWzKA5DLcUhmnY2Mj+fRAeBMo8d1usvfdLSmcduxlvaS463tpa2ss2kdFZggmIx2Q5Ild4bD5sxPjM+bFxtjn+2wOedwwAxw/eMdRCd4vn+8qMrTVlzW1nH2TEt7SamnrfhEW/vZ0taOUhr7mSAqMGOINWVEpds3LE+xOdc6bAUF5hjHCo66NJGuj+dxvLpxW1FLe8nu+ks7ii61HPCyDhWuqMAMYo1fkDTZunJxcuKSZRmOwttioq0LOa5/FoaQ0fT5A94zjc2udz1txQcbPa4DTd6iC6xDhYuILjDW+AUpGfbCAlti/pp0e+EqDsjjONDUPQkJz6PK7XHta/S4ijxtxa4LTW+Xs87ESsQVmERLbsK0KZs3TE27/75Yk+NGmv4lSuN5nKxu3PaHszUvvOqOsNZNRBQYoahkpWy6Oytl08YkS94ajgZkCQM80Nfldx+vu/je9vMXtgrFpop1JqXpusBkODbOmj9tyw+s8XmbaCyFhJvObnfRqYqnnzlb+4tdrLMoRVcFJs6cbY6PzVmabi+cn5N6772xJscKvf03Ev3heVRU1G19o+7iezvaOspPeX0n3KwzyUUX//gSLbmW6VM2/82c7Me/x3FIYZ2HkBB0NXn3v3ri7Pd/5PYWVbMOEypNF5hES659bvY/PTptykOPchwcrPMQIiN/Q7Pr5bM1v/jfGve2w6zDSKXJApNoyU1ZMP3ZJzMchY9evkOYEN1qbi3+oOT8v22pcW87yDpLsDRVYGJNGVGLZv3XD7JS7n6SBm1JpPG2lbx5sPQbj1xqPdDEOstEaaLAGKOToudN27J5TtZj3+c4ZLPOQwhDXTWN239+rPyxZ9q7qsL+ZsywLzDJScsz1ix4+9VYk8PJOgsh4YLnUX2s7PGvl9X8NKynuMO2wJiM9tglc3/zRGZK4T9xoIVxhIykubX49aNlj32vKUxnnMKywGQ6Ni5cdc22NzgO01hnISTc8UBXefUL3zxa9nevsc5ytbAqMHHm7Nj8mc99Lztl0/doOT8hQeG9bSV//vTUff+f13cibFozYVNgrPELrOsWu/aZjNZc1lkI0Sqeh2d3ceGqCxffLmWdBRPYMV4VyYnLp6xd9N7H5pjkPNZZCNEyjkNsduo9DwR6WosvtRz4nHUepgXGZLQbrpnx7GPLcl/8gzHaksMyCyF6wXEwpU2+8au2hPzUru6GI+1dVe3MsrB6YZPRHnfTsqNvWWIzv8QqAyF6xwMXdh5xrm/yFJ1m8fpMWjB2a4GjYOG72+PjstexeH1CIgUHJGbaC2/nOPOxJgb7z6heYBzWgrQbFrsOmGKs+Wq/NiGRKCrKnJgyyXk/eHzq9hadV/W11Xwxa/yCyWsXfbAzOso8W83XJSTScYDBMcl5u6+z8mOv74Rq23aqVmCElotQXGKM1vlqvSYh5AoOMGc4Cu/mgWNNnqJzarymKgXGYS1IWbfYtZ9aLoSwJRSZlEnOr/I89jR5iyqVfj3Fd9Q3Ge1xy+Zt/RPHgaahCQkDHBB9zfQtf3DYChRfd6boNLXJaDfctPzoexZz5o1Kvg4hJHg80LzrsPMaJY9SUbQFkzf1n79LxYWQ8MQBkxbOfv4XSr6GYmMwyYnLM5blvfgabbVASPiKM6XOjo5KPN3Q/GGJEtdXpMBY4xdY1y56b6cxyjJViesTQuQz2briVl9n5U4lpq9lH4MxRieZN6yqPEp3RROiHTyPjt3FhYsvXHxb1lsKZB+DWTrnN09QcSFEWzgOcUtzfyP7eIysXaRMx6b8+dO3/JbjYJTzuoQQ5RmjLTmJlrzuGve2vXJdU7YCYzLaY29cdqiIDkAjRLus8XnXe30l77S2lzbIcT3ZukhL5/7me7SHLiGaZ1g487mfxhjtsozPytKCSU5cnrFw9n/+kQN1jQjRuhijNYfjomobLn14LNRrhVyljNFJhtuuK99F5xYRoh88j9adR5zzmrxFNaFcJ+Qu0uzMx75FxYUQfeE4JC6a/fx/hHydUJ4ca8qIKlxdU8FxyAo1CAkfHAckO4BkO2BNBizxQGwcYLp8GnjAD3R3Ae0+oMUDNDcBFxsBv591ciKzviNnHl9cXvPT41IvEB3Kqy+a9ZN/oeKibbZkYFYekD0dyMgGUjMARypgjAnuOn19wCU30FgP1FUDlZ8DFeVAjar7pxGZGfKmPfl/z9f/dmmgp6VHygUkt2ASLblTbr2upIoLsUgR9cVZgFXrgZVrgWmzAYOCt7y664EDRcAn74t/J9pz6PSjd35e+8u3pDxXcoFZfc1bP81MKXxM6vOJeoQCkjMDSM8Glq4C8hZe6e6oRWjhnD8LHNwNVJSJrRuhm0XCn6+j8tD7B/NXB3pagu4ESyowl1sv1VyYHNxGRnfNYuArXxcLTDhp9QJ/3QZ8uB0IBFinIeM5dPrRws9rf/l2sM+TVGCW5770g2npDz0j5blEHbPygHs2A7PnsU4ytotuYNtWYN+u/qlREqZ8HZWud/ZNXRvs84JugSTG5VqW5v7vH+lw+vBkTwW+889iq2WyBm7aiLMAS1YCK9cBdTU0ThOuYozWnD4ee5uCPPYk6OG96RmbH+E4TA72eUR5uQuAp34qdou0JmUK8I/PALdtEqfJSfiZkbH5R8E+J6gWjMWcHbty/uuvcxzig30hohyjEbjnG8DX/0Fcr6JVBgMw/1pgZi5w+jOgk9mJymQkMdFJGW2dlR8EszFVUC0YS2zOtRyHVEnpiCISrcDT/w3culE/7/xCkfnxr8N//CgSJcTmBHWWfFAFJt1eeG3QiYhi7KnA//8TIDvMZojkEGcBvvcssGAJ6yRksHR74TXBPD6oApOTeu/dQSciiki2Az/4TyAtg3US5ZhjgcefBpauZp2EDLAl5m+YlLg8aaKPn/AYjMNWMGtW1rd/zCl8lhIZX850sbhMioChdoNBLDCX3ECVKoedkrFwQFR0dFJbjXvbnok8fsIFpiD/3Z/Emhz5IaUjIZs2C3jix0CSlXUS9XAcsGg50N0JnJV1S2oiRZIlL7+ibuvPJnJ/0oS6SImW3ARrQt49sqQjkgndoe//HyAhkXUS9Qktmfv+Blh1A+skhOOQPGXyLQUTeeyECkyWY9NGAEHeX0vklJENfOdfxMHPSPa1R4HlE/rVJkrKTrn7/ok8bmIFJmUTDe4yZIkHnvh3cUuFSCf8LIRCS1PYbDlszg2xpgzTeI8bt8AkxuVakhLy6D2DoQf+NjIGdIPxje+yThDZOA6J06ds/vJ4jxu3wExP31zIAbGyJSNBEbpEq9ezThF+pmQCuTTlwNS09M3jdpPGLTBT0+7/mmyJSNDufph1gvD1wCNAFG0YwowlNvMma/yCMaccxiww1vgFdpPJsU72ZGRC5l8LrLuNdYrwlTUNePg7rFNELg4wOWzOm8Z6zJgFJsNeWECbSrERYwIefULZ7Sz1YO0t4s2RhA2hRoz1/TF/fW0J+TS4y8j6DeKNjGR8hfeyThC5bIlj14gxC4zdeh3dBcJAtBG45S7WKbQjfykwJ6hb8IhcTEbrXLu1YNJo3x+1wNjiFySZYxx5iiUjo9rwFcA66v8yMpIHHqHuJCMGW0L+8lG/Odo3JluvWwyOjiRRW5wFuI2WNQYtZwZt7cCK3XrditG+N2qBSU5cukyxRGRUa76k/pEieuG8mXWCyDRpjFoxaoFx2Jw0QaoyofVyF606kmzxdcDilaxTRJ74uByn3Vow4h4xIxaYOFOGMT42Z6HiycgQN99FNzOGaiMVaNVxgHFSwqI1I31vxAKTbt+wHByooa6i2DjgxkLWKbQvcyqQR7cQqC7dvmHEBbkjFhiHzTliNSLKWbFWvFOYhK7gRtYJIk/KJKdzpK+PWGBSbAVUYFRGNzTKZ8kqII6Ktao4DvOs8QuGjcMMKzAmo91gjnGsUi0ZQXoWMIuWu8smxgSsvJ51iogTlRA3c9i6uWEFJsmSOxN0LKyqCsa8XYxIQd0k9SXF5w3bBmxYgUmxOReoloj0zxqtpfUbsps6k6as1eawOYcNrw/vIsXYqbGuIpqaVg5NWasr0ZI7gS5SfN5c1RJFOJqaVhZNWasrNsYx5+qvDe8iWZ2zVEsU4WhqWnk0FqMejoMj07FpyNn1QwqMyWg38hxmqp4sAkVF0S+/GpasEs/wJuowx9iXDv58SIFx2JzzOA40IqCC664HZgxrUBK5xZiAr/0t6xSRw2FzDlniMqTApNgKFqmeKAJFRQMb6JxM1SxcLq41Ispz2AqGDPQOKTDmGMdi1RNFoCUrxWM3iDo4jgbT1WKOcQzZumFIgcl0bKId7FRAJzSqL2cG6wSRgeOQ7Bi0habhqm/SGhiFCe+myzR8p1dvL+sE0uTMFKetiSqyB/7yRYHprzockplFihDLCoCUKaxTSNPuA0qLWaeQJioKuOM+1ikig8PmzBn4+5UWDAcaFVCYwQDcqeFf8v2fAEU7WKeQbulq7RZ3TeFGaMGkWJ1UYBQ2bxGQns06hXRCcTm0B2hrYZ1EGqF7SmuPlOcYVEuoBaOiNV9inUC60hNARbk4BrP9D6zTSLd6PR1vojSOQ8bA37/4Udvi83OYJYoAyXaxia5FfX3Ayz+/8vlHbwMX3SwTSTdpsrYH2bXAOqiWfFFgjEYr9U4VtOoGcaBRi0qOA7VVVz4XWjF7PmSZKDRrb2GdQN9iBtWSLwqMxZxDXSSFxFmA629lnUK6HduHf821A+jqZJEmdHPm01GzSuI4pCTG5ZowpMDE5mQwTaVj628HJjtYp5DmXBlw/ODwr19sBN5/k0Wi0AktyYe+zTqFrhmT4vP6u0lfFBgOoHtOFWCO0/ZB9m++Mvr3hJZNZ4eaaeSTORWYS60YxXCXp6r7C0ymY5MNdBe1IpavAeITWKeQprYSKD48+vfbWoDD+9RMJC8tz+qFuwzHpistGA6g7pFCtLzu4pP3x3+MlhfeLVsDJIx44CkJFQdx2Ut/gTEb7XSXhgKuWQzM0ujto22t4kDueM6cFNfIaJHJDNzzddYp9MkUI9aU/gJjtzmpBaOAjQ+yTiDde28AXRMcX/nzq0qnUc6aGwHbJNYp9CfF6kzHF4O8HGgNjMxm5gLTZ7NOIY2vFdj5l4k/XmjFVJQpmUg5BoNYZIjMLteUgTGYNNZ59EbLYy8HdgMd7cE9Z/dHSqVRnpMOvpMfJ9aU/gLjsBXQFLWMLAnA8gLWKaRzTWBw92r7PwH83UqkUZ4jjW4fkBsHJFjjF8T2FxhTjIMKjIxuuUs880iLqs4B588G/zxfm7anrO+8n3UC/YmJtiYPdJFSWIfRC6H1sn4D6xTSuT6Q/tzdGr4/KSNH3E6DyIiD1WAxZxvBIZ11Fr246wHtHqZWcx746B3pzz91DNij4bGYe7/JOoG+WMw5DoMlNkej60zDT1SUeNe0Vr3xCsDzoV3jzddCvwYr2dPFQ/OJPCzmHJvQRbKyDqIXS1drt/VSVw0c/TT067jrgRNj3F4Q7pw3s06gIxwShQKTyDqHXqxezzqBdLs/kq/lEco4Dmur1gHGGNYpdCPJEBNtpS6SDNKzgPkaHST0+4G9O+W7XvEh4FKTfNdTkzlW23e/hxOhthisCfnUgpHBHfcDBo3uWLfnQ8BzSb7rBfzAX16X73pqu3WTeJ8SCY01Pj/RwAEaHTUIH/ZU7S7UEoqBEpt4F+0AvM3yX1cNlnhgySrWKbSP45Bg4GkMJmQz5mh3p/pPXUCzAt0Zfzfw8XvyX1cts+iMUznECy0Y2mgqRCvXsU4gXdU55a5dcly5ayttWQEQbWSdQvMShPdd6iKFIC0DmH8t6xTSBALAkb3KXb/yc6DVq9z1lRSfANx4O+sUmhdncNicsaxTaNmX7wGio1mnkGbvTmVne7o6Rz6RQCtuv1e7/2/Dgd3qjKMWTAiE1ssqjXaPOtuB7b9T/nU+eEvbg71aXpnNGsfBIhQYGoOR6Oa7tHuY2p6d6pzOKLRigtm8KtxsuId1Au3igHihwFAXSYI4C7DCyTqFdBPZ0Fsuuz8ST4PUopQpwOKVrFNoViwVGIk2PSQWGS0qOQ5UV6j3epfcwBEN7xVz37cAI80oBY0H4qjASBCfCKy7jXUK6dRsvQzQ8l4xjjTxhAgSHI6DWSgwJtZBtGbNeu2OvXibgWMH1H/dk0eA+lr1X1cudJe1JCaDw+akAhMkLW8S/dc/Ad1d6r9uXx+w/ffqv65cFi4DEmljk2Bx1IIJ0sy5QHo26xTStHqBXe+ye/39nwBNDexePxQcp+2TIlgRCgwtJQrCag2fZ7zvY7Y7//f2antLzbXUTQqageOoBTNRWp+alnIcidz27hK7S1pEU9bBM/A8FZiJ0vLU9N6dQG0V6xRAYx3bblqoaMo6OAZu4PhYMiYtT00LLYZwOj/6nT8APT2sU0hDU9bBMfDURZqQL23Q7tT0wSJxM+5w0XxRHA/Sqls2sk6gHQbwoAbfOKKNwI13sE4h3ftvsk4w3AdhmGmi5swHchewTqENQhdJo+/L6rnhNnF/EC0qPwWcK2OdYrjqCqD0BOsU0m18kHUCbaDxl3EYjcDtX2WdQro/bWWdYHTbwjjbeGbPA6bPYZ0i/AkFhvZPH8PiVdpdwXm+HDh9knWK0ZWXhGfraqJo4d34qAUzjpvvZJ1AunAce7najrdYJ5Bu9Q2ALZl1ivBGBWYMM3OB6bNZp5Cm3Qcc2sM6xfgO7hY3pdKiGBPw5a+wThHehAJDs0ijuPth1gmk2/+JuKl3uOvpAfbtYp1CuoKbgCQb6xThywCOZpFGMnWmtqcii3awTjBxWsp6NbMZWLGWdYrwRV2kUazR8E2NpSeAinLWKSbuXBlQVsI6hXROGuwdFRWYUWj5MLU/vcQ6QfD+/DLrBNJlTtXuKm+lUYEZQbJdPLJCi2rOA2dLWacIXskJZU+ZVNrS1awThCcqMCP4ymbWCaQ7UMQ6gUQ88OknrENId883qBUzEiowV0lI0u67UW+vtgdMD2tgWn00kx10SNtIqMBc5favane/j307Ac8l1imka6wHDit4VrbSCu+lVszVqMAMYkkA1m9gnUKa/j1fXmOdInRvvMI6gXSONCB/KesU4cUg9n4JLi/91uph58cOABcbWacIXW2ltu+yXkNT1kMYwIPhNtDhRcubOofDfrty0fI40qLlwKTJrFOED+oiXXbNYiAjh3UKaRouACePsk4hnyP7xCNWtMhgAO56gHWK8EEF5vIvxQOPsE4h3Wu/Ano1usftSLo6tblYcEDBTUBaBusU4UEoMDr61ZRm/rXAlCzWKaSpqwaOH2SdQn6uD7TbiuE4bZ/+KScqMBrfOIjFQfZq4HmgSMMH5q9cp90JAzkJBUajx2DJI8mm3cO0+vqA3Ro+KXE8Wh64tiXTgfm4fGyJn3UIlu7ZrN3FUftdgK+VdQrlNFwASo6zTiHdbZuA2DjWKdgygI/cLlLWNG1vy/DX11knUN5ft7FOIJ09ldbFGLgIHoPR8kDcZ0eB6vOsUyjv1DGgvoZ1CukKNPwGJgcDj8hcaCc0XbU6uNvbC7z8AusU6ujrA179NesU0mVPB/LyWadgxwBAAzu3ym/FWsAcyzqFNP3v6rWsU6jnxCFxnxut0uobmRyEAhORg7yr17NOIJ3rA9YJ1Kfl2bIlGj5bK1QGROAs0ow5wKxc1imk8VwCjn7KOoX69nwknkCgRTEmYMM9rFOwYfC2FkfcGMzGh1gnkO6t34ljMJGmrQX45D3WKaRbe3NktmIM/h5vF+sQasqaBsxfxDqFNN5mbf8jC9U7f9RuK8YcG5HHm3RH3BiMlqemd38ozqpEquaLwLH9rFNIF2lT1vzlAtPBOoha4hO1O6IfCAA7/8I6BXsfaPgs6+zpwAon6xQq4tEpFBiNngwcvNvu1u7U9N6dwKUm1inYKzsFVFewTiHdXV9jnUA9HMQC42MdRA32FOD6W1inkKatBXhTB/vtymXrz7U70J2WASxbwzqFOnjAJxSYdtZB1LDcqd3D1Pa7gGZqvXxBaMWc+Yx1Cuki5i5rHh0Gb1txRIzB5MxgnUA6ve75EgotLzbMzNHuHfzB8PiKOwz+Hq/uC0xCknb3fOnp0faYg1IOavUEy8t7xWh1siEYgR6vz8BHwBjMnfdrd3cxLR9EpqTeXuBCNesU0n35K9o94C8IHQYOaGOdQkn2FOCGL7NOId0ODU/LKk3LU9aONGB5AesUims18Ly+WzCr14unBmjR2VLg7GnWKcLXvl1AQMPLRPW+GRUvFJj2rkodb7qo7XeJbVtZJwhv3V3Au2+wTiHd7HmATceHtLV3VvqEAqPbFsyULCA9m3UKaSo/B0qKWacIf+9uEwuNFkVFAdeuYJ1COULjReg8tLAOopTF17FOIJ2Wp2HV1NEOHNrDOoV0Wv4dnYA2A3jotouUv4x1Amn83eL4ApkYl4bPsp67ADCZWadQCA+Pwd/r1ej5eWOzJADTZ7FOIc0Hb4nvzGRizpwUu5RaFB2t31sH/D3eNoO37UQXz0N3C9FvvhOI1uA6g7rq8DiX2Rgj3n1unQRMTgFS0oG0TPEjNUP82qTJ4mOEd2COY5v3+R9qd0ZJr7vdeX3FDQPLzy4CsDPOIyut9m2LPhSPTVWKUAiSHeJNd440cZ2QUCyEQpJkEwtGfELwU/tCZl+beGNmq1fcHOtSE9BYBzQ1AHU1wCW3cv9twmucOKzNFdvC/4tkuw7vlufhHSgw9UJ3kHEc2SQmARk5rFMEz+8Xt2WQg/ALmzVNbG2kpgOpU8RCInwosapZKFwJieLHlMyRHxMIiEVGKAbCR0OduBq3+py4mVSodn+ozQIjmDZLfwWGB5r7f9VqGrfVZ6VuYp1HNpnT2DfZpSj6QHznl8KWDMxbJJ7Bk79UvP8q3BiNl4td+vDvCS2fU8eA4sNAabG0gnP8oPiPNFmDbfGcmcDhfaxTyMrf5C1q7S8wvNiC0Y1MjbZe3v7jxB8/JUs8GWHeQmD6HLG7o2VCQVyx9sq+te56cRVzyXGgrARomMA5UH19wJuvAt98XPG4stNii3ssPC/WlIHGcgPbOPLS4uK6Y/sBzzjv2plTgevWitsu2lPVSsaGUDCFj5XXi5831gEHd4vHl9SNcZRs0Q7g7ofF8SQtSctgnUB2dRgoMK3tJTWAfrpI9hTWCYI32p4vKWnA+tvFbo8OfwknLGWKONsifNRVi92hD94a3pXiebHIaG1mxpEqduuVHOBXk7e95EqB8fpKq1gHkpPWCkxtpdgVGJCaLt5DtWQ1kDOdZbLwJHQPhY+b7wLOlYl7w+x3XRm/+ugd4NZN2trUyRgjDsA36aQv0eor7d/FaKCLpKsCk6CxA652fyS+c82eB9xxHzD/WtaJtMFgAGbOFT+++k2x0Lzxitid+uyo2OrTkskO/RQYAP0d2f4C4/a63OARAAcNLk0bTksnB/T2Anwf8OwvtL2tJ2tCa+W668W9l4XicqFaewXGksA6gXzcHlf/dmD9Babb39THA/UckMU6WKiEpqaWmsZC1vv+hnUK/RBaNQuWiB9aY9bRPUld/qb+AvPFes1Aj1cfjTOdDJKRyKOjX12+y+8+h8EFxtNWrOEdTq8IBPQzEk8ii7+bdQJ58DyamrxF/bs0DL7jpI5dJHlpdQMiEtk6dXK+x+CFu18UmEaPq5JZIpn5dL2NOdGrVp1snNLkcX0xK32lBcNjjPWR2tJOBYZokNT70MLQFzd2XBmD8RVfYBZHZl4P6wSEBMfv108LpnnQeO6VWaSAVzctmPHu6SEk3Ojp7PFAj3d4gfH4iuvAQxfDTG5d3RtOIkFTI+sE8vGM2ILpaenjgXJmqWTUqJv5MBIpGnQzQNHfGzo/8PchGyO6Pa5TTBLJrEY382EkUmj5nO3BeKDD4yv+oj02pMB0+5sOM0kls7oamqom2nJOJ0cE830oDvS09A58PqTAVLm3lTBJJTO+j05FJNoR8APVFaxTyKPGve344M+HFJgWX8kRAD2qp1LA/k9YJyBkYg7vA3p08a8OaGkvOTD48yEFprW9tIXn9bE3zJF9QLtuT90merL7Q9YJ5NPiKz04+PNhp9942orLVE2kEJ6nbhIJfy2eobsZahnPw9focQ05Y3NYgQkEvDoZbhI30iYknJ04LJ6GoAfdfneZP9A0ZC+DYQWm0evSTYE5flBcgk1IuDq0h3UC+bS0l5Ze/bVhBcbbVqyTBhvgaxXHYggJRxfdYgtGL5rbik9c/bVhBaa146zQgtFJow1wfcA6ASEj+/Rj/XSPBG0d5cMW6g4vMO2lneChm1bM6RNA5eesUxAyVE8P8PG7rFPIq8VX+tnVXxtWYARVjduKVEmkAuEd4tVfsU5ByFC7/qqvGxx5HjVN3qJhdwGOWGBafSW6KTCCMyeBk0dZpyBE1NYCvPEy6xTy8vpKdo/09RELTF3zDpeexmEExw+wTkCIqOwU0NHOOoW8Gpp3jLh2fsQCc6nlQCv6cEbxVCra8xFQX8s6BYl0Qpd9++9Zp5BfrfudEdcjj1hg+p/QtF1XQ1CdHcAPvk1FhrDj9wNP/T1w/izrJPLq9nsPN3mLRtwRc9QC42krPqhoKga6OoGX/od1ChKp3nsDqNDFlm5DeXyj14pRC0yjx6XLUYuS48Drv2WdgkSaM5/ps2skaGwevVaMWmDc3qIL0Mmd1Vd754/Avo9ZpyCRorEO+M9/Ffd90aMmj+vT0b43aoEReFqLdbvQfuvPgVraWpMoTOiW/+xH+jm18Wo8jzq3t+j8aN8fs8DUXNyuo1uxhurwAc//UH/ThSS8vPQzfa8kd3tcrrG+P2aB8bYVj/lkrauvBbY8BjQ1sE5C9MbvB371HLB3F+skympuKx5zUe6YBaa26e0z4KHrbZsuVAFPPw6UDrsPlBBpWjzAj58U117pXa17+/tjfX/MAiOobtz2uqyJwpDnIvDvT9A+viR0ddXieqsyXRwANDYeODba+pcB0eNdpLz2hdeyUjY9C278YqRlfX3AL/8DqDgL3PU1wGxmnUhdPT1iV9FdD7gbAO8l8azkdp84TuXvBnovb0zNGYCYGMAcB8RZgEQrkGQFHGnA5BQgZYr49Ujz6cfAK78U7zWKBOU1L4x7RxU3kQvduabxiNnkuFaWVBowbRbw9M8Ag45Lam8vcL4cOH4I+OwoUH0OCATku35qOjD3GiB/KZCbr/+C8+JPgU/G7CzoTu+OQyvSLrUcGPNU7QkVmOW5L/3rtPSHfihbNA2YlQdsuEf8R2KOZZ0mNAE/UFUhzpxVlAPlJUBZCdCl0tRpVBQwbbb4M505F0hIAjKnApZ4dV5fKUKr91wZ4Ho/8jY2a+us3PWXvVNvGO9xEyowDltBzg2LXaPOdetZShrw0HeAaxazThKcgVMV9u4Ejn4aftPxQtERfqbXXQ8sXQ1Ej9tZDy+XmoDf/Bdw6hjrJGycPLfloVMVT8vTRYLYTfrYbHKsDTmZRs1fBNzwZbHJH21knWZkPT1AaTFwcLe4/03zmI3X8BGfCMxbCFx7HXDtCsAUxuNfVeeA998Ux1t6e1mnYYMH/O8fyE/3tp24ON5jJ1xg5k99at38GVt2hpxO45LtgPNmYOX14mAma7WVwGfHgFPHxeLi72adKDRCy2bONUBevtjCmTqTdSJxoPvIPuDDd4BKnd0JLUVjs+vXu46ufWQij51wgRHcewN/HhxyJCfTmTnzgbU3A0tWqfuuW30eOLxXbKlc0OXdYlc40sQu1LI14uC7Wvr6xBsUXe8DB/cAPTIOgGvdnpN3z61p3Dah/aKCKjDLc1/6t2npD31fcjKdio0D5i8GZswBZs8DMnPkKzhdXeKWn0LTvKIc+Pw04G2W59pak5Ak/oynzwamzhILvFwD8EJBqasRf77Ch9AqvKijPXPl4uusPPTO3qnLJvr4oApMlmOjc9WCbbQcbRwcB0zJAnJmAOlZQGoGMNkhdq/iE4cPaPb0iGtOhMIh/FI3XBC7PkJLRfiT51n9l4Q34eecmi7OSGVPFwfkJ6cAtmQg0Sau1Rmst1ecSfN6xJ+zux64UA3UnBc3gdLr3c5yKq954YdHzvzdUxN9fFBj920dZ0+DRzc4mCSlixBCQRC6LqN1XwwGcaxh4LE9ParG0w3hZ1dfK36MdELikJ8zqJsjh9aOs0EdaRTUUjKP70TjxZb9W4NORYYQmuOBgPhBxUU5Q37OVFzk0FhV//ugttINeq3qibPf/3cAXcE+jxCibeU1LzzTHWgKqlRHBfsi7V1VLQ6bc1p8bM7CYJ9LCNGm7oC3bO/JjQ/39nYENSIo6W6bszUv/EzK8wgh2lRV/7sXu/1NQZ+VJqnAVLvfOOFpLX5PynMJIdriD3hrT1c995KU50q+X7jk/LMTnqoihGhXZf3vft7eVXVJynMlF5hq9xtHWnwlf5L6fEJI+OOBxtNVz70o9fkh7XhyoPQb/wBAp/ulE0LOVP3kCamtF0iZRRqss7vW57A6bfFxOdeFch1CSPjxdVYeOlDy4N8HO3M0WMh7th0ofehHej2gjZAI1vtZxZbvSpk5GizkAtPeVdVytPzxb4R6HUJI+Ghq2f/i+bqXRz2xcaJC6iINuNRyoCLDXjg31pQ6T47rEULY8Qe8FbuLCzd2B5pC3l1Itm2tj5Y/9gTdQkCI9p2pfv5fWttLW+W4liwtGFzuKsXE2KsmJy29I9htIAgh4cHrK3nz0Olvbenr65ZlkxDZC8Gty0/9OSkh7065r0sIURYPVG/fnZnX2V3rk+uasp/8c/jMtx/jAY/c1yWEKIo/WvbYd+QsLlCiwLi9RTV7igtX8Txk6cMRQpR3uur5r5dX//c7cl9XtjGYwVo7ypoCva3HpiTfeK8SRYwQIp+mlv3/u+/k3c8ocW1FCgzEqetz1vj81KT4OUuUeg1CSGh8HZWnPj66bkNvX0dIC+pGo2jroqzm+S3g0aDkaxBCpKuo3/pYd6BJsY1bFS0wbk+Re+dRp9Mf8NYo+TqEkKAFLh//ukvJF1GsizSgvavqUhRnPpoyyfkAjccQEh4aml1bDpY+/D9Kv47iBQbizFIVz+HTFJvzdgBhfPIwIbrHN3pcz+45UfiMXIvpxqLqitupaQ8uXTFv64cAktR8XUJIP77iwtZHD5Q+/Cu1XlCVFswAr+/EBR44ljLJ+VXqLhGiLrHlcsdzar6mqgUG4sDvOZ7DvhSr8yZwiFf79QmJNDzgb2h2PaVWt2gwZjclOmwFeeuude3lOFhZZSAkEpw8t+XBUxVPv8LitVVvwQxo76pqcntcr1gT8mfHmlJnscpBiF75Ois/O1P9/AOnKp5+i1WGsNhWYeGs/7p7bvbjLwGIY52FED1oatn/693Hb/9OsEe9yi0sCgwuzzAtz9v6CcdRkSEkBPzpque/frz8u1tZBwHLLtLVvL4TF9we15tTJt8yLzrKksM6DyFaw/O48FnFlvtPfv79sDmvLGxaMIOtnP/6k9mpdz9LU9mETIzXV/LmJ8duelDu/VxCFTYtmMFq3G/s9baX/iU5ccnMGKN1Kus8hIQrf8B7vqTyx3936PS3npJjk265hWWBEbS2lzZUNvz+NY6LumC3rlhNtxgQMkRfk3f/i7tPFN5R437jqNrrWyYqLLtIV3PYCjLnT9vyXMok58ZwLoqEqKE74D18rOyxfzhf//J+1lnGo4kCM2B29neX5OU8+QtzjGMx6yyEqI6H+3T1T54sOf/jrf5AU1i2WK6mqQIjMEYnxeSk3nfH3Jx/ejw+Nmcp6zyEKM0f8NZWNvzuv09XPvdie1eVl3WeYGiuwAwYVGi+GR+bs451HkLk5g94P6+s/93PT1c992p7V1Uz6zxSaLbADDZv2lNfmpG++Ydx5sxlrLMQIoP6suoXfnTq/NO/CvXwedZ0UWAGTE17cGl8bM6X0h2F105KyL8FQAzrTIRMhK+zcv+Fpnc/bOs4e7Kq4fd/Yb3EXy66KjCDJSctt05Nu/+RWZnf/kfhU9Z5CBmB39tW8tJnFU//rMa9rZR1GCXotsAMsJizzVPst67Ncmy6x2Fz3snRHjSErV5fZ2VRRd3WV2rd29/1+k5cZB1ISbovMIPFmTKM09I3F05P33y/xZx5E3WhiEr6eB7FZ2teeKWy4bXfX2w50MQ6kFoiqsAMZo1fYE2Z5FyXbi9cOykhvyDGaJ3HOhPRER4XGj2uvZ62Ylete/tf3d6iWtaRWIjYAnO1JEuuLWXS+hV268oVyYlLlsXH5awFEM06F9EEvjvgPeJpKz7obnYdcHtdn3raiisDPS2aWAynJCowo0iy5CamJd+4dop9w7pUm7MAHPLoNgUySI23raSo/tKOjy+2HNhV495WzTpQOKICM0HW+AWJCZZZ862W3HkOm3OBOcaem2TJmwsODtbZiIJ4+HigzO1xnW5uKz7u6zhb4vWVfNbkLapjHU0LqMCEKNOxyW6OsS9NsTlX2m0Fi2JjHIvB0bS4RnXwPI7VuLeVtPhK9rf4Sg80elxnuwPaXuzGEhUYBThsBZMAZKfYnFP7a5DNmSn8aUvIz4mJtk4BhxQARtY5I0wfeDTzQJ3b46oUujietuILgR5vtaet+Lw/4K32+IrrAj0tVExkRAWGgSRLrjnJkpcNDtlZjk05PJBhirFPTbU5MwCkg0MqgATWOTXGzwP1HI8Gr6+kprWjtBo8Khs9rtouf9O5br+72u0t0tSNgnpABSZMWeMXxMZEW23gMMlizkmNj81J5IEkDrAao63xtoT8RKB/0aDwp0X4u93qjDWICwktPBDLcYgF+j9MYfr/uvtyYejgeHQC/eMd7Z624o5Aj7dD+BxAm/Cnr7OytaOrUvi+lwNa/QGv1+MrdgPwCi0Tt7eohfV/DBnu/wUAAP//0bhSQlCuKrcAAAAASUVORK5CYII=;" vertex="1" parent="1">
          <mxGeometry x="290" y="230" width="110" height="110" as="geometry" />
        </mxCell>
        <mxCell id="mMZBT7bqYluBtJ0m3_0H-9" value="" style="shape=image;verticalLabelPosition=bottom;labelBackgroundColor=default;verticalAlign=top;aspect=fixed;imageAspect=0;image=data:image/png,iVBORw0KGgoAAAANSUhEUgAACcQAAARZCAYAAADuXJFgAAAACXBIWXMAAAsTAAALEwEAmpwYAAAgAElEQVR4nOzdeZzeZX3v//f3nknCloQdRUCsWlHUqrTFLHjQVlu0Wj0aErC12sUeT/W059e9PadN+2i1Pa1Lte7ixpJlABHcUJRIMgkgAVwAERDLDrIGsk1m7uv3R22LJoRkct/3dd8zz+cf8nDme1/fl/bRP8b5zOdqAgAAQOfNW3RghvKUNM2RaTdHpMmRKXlSUg5Kmv3TZG5K5iaZk2TGT3y6JNmUZEOSh370zweT3JE0t6S0b0lyS1rlB1kzcuuPngcAAAAAAJj2mtoBAAAAA+24V+6Tvfd6Qdqt56QpxybNsUl5VtIc2qOCh5PmO0n5Vpp8K+32VXko63PNyFiP3g8AAAAAANA3DMQBAADsjhed+vRMjM9PWi9MyvFJnpNkuHbWT9ic0lyepn1JmlySzZvXZv0Fm2pHAQAAAAAAdJuBOAAAgJ05YdEhKc0vJs1LU/KLSY6snTQJW1JyUZp8NmXm+Vl7+j21gwAAAAAAALrBQBwAAMBPmr/4qWmaxUl5XZLnZWr97NROk0vTblZkfOuZufwz99UOAgAAAAAA6JSp9EsdAACAyZt/6pPTTJycNIuTclztnB4ZS3JBSvOJPGniSxkZmagdBAAAAAAAsCcMxAEAANPXgiWHJ+XkJIuTHJ9p/TNSuTNpPpQZrQ9k1bJ7a9cAAAAAAABMxjT+ZQ8AADAtLTz1gGTilJQsTrIwSat2Up/ZnJLT07TfldGR62vHAAAAAAAA7A4DcQAAwPQw75RjMtT+Xyl5Q5J9a+cMgJKUC1LKX2ftyNW1YwAAAAAAAHaFgTgAAGAqa7LwlF9Kmfj9pPml+BloMkqSs9Nu/VXWLftu7RgAAAAAAICd8csgAABg6jnulftk1j6/kSb/K8kxtXOmiImkOSPNxF9lzcgttWMAAAAAAAB2xEAcAAAwdSxcdFRK661JfjvJAbVzpqhNKXl7Hmr/U64ZGasdAwAAAAAA8GgG4gAAgMH3olOfnvH236QpJycZqp0zTXwvJW/L2hVfrh0CAAAAAADwHwzEAQAAg+v41x+R4fG/TvLGJMOVa6anppyd4fK2rBq5q3YKAAAAAACAgTgAAGDwnLDokLRbf5HkLUlm1c6huS9N+21Zs3JZ7RIAAAAAAGB6MxAHAAAMjuNfPyfD2/4oaf4gyezaOfyEppydpvzPrB75Ye0UAAAAAABgejIQBwAA9L95i/ZOq/XWJH+W5MDaOexMuSdp/U5Gl59fuwQAAAAAAJh+DMQBAAD9a9GiodzR+u0kf5Xk8No57IaSd2bm3X+WVavGa6cAAAAAAADTh4E4AACgPy1ccnxK+WCS59dOYbKaNWlPLMm6kdtrlwAAAAAAANODgTgAAKC/zFt0YIaG/iGl/Hb8zDIV/DBNOTVrVl5UOwQAAAAAAJj6hmoHAAAA/EiT+YvflFZzfpITYhhuqtg3aX4tRz77kdx6zbraMQAAAAAAwNTmF0wAAEB98xY9J62hDyRlYe0UuurDmXH3W7Nq1XjtEAAAAAAAYGoyEAcAANRz4qL9MtZamia/n2S4dg49cVFmbF2UVec9WDsEAAAAAACYegzEAQAAdcw/+bVp5T0pzRG1U+i576YZekXWnPX92iEAAAAAAMDUYiAOAADoreNPOSzDEx9JmlfVTqGmcmcy9NKMLrumdgkAAAAAADB1tGoHAAAA08gJJ786w+1vG4YjaZ6YlK9n/uKfq10CAAAAAABMHTbEAQAA3Xf86+dkePxfkryxdgp95+G02q/M6pGv1w4BAAAAAAAGn4E4AACgu+af/KI0zaeSHF07hb61OSmvy+jKL9QOAQAAAAAABpuBOAAAoDtOOmlWNsz+u6T5/5K0aufQ97alyeuzZsVI7RAAAAAAAGBwGYgDAAA674RTnpvSPiMlz6mdwkAZT6ssyuqV59UOAQAAAAAABtNQ7QAAAGAqWdrKwif8SUpZluTw2jUMnFZK899z1LPX59ZrbqwdAwAAAAAADB4b4gAAgM44/vVHZHj8rCQn1E5h4G1Jab0ia5d9rXYIAAAAAAAwWAzEAQAAe+6EJb+QdlmW5JDaKUwZG9Mqv5TVK0drhwAAAAAAAIOjVTsAAAAYaE3mL/7LtMuXYxiOzto37eYLWbDkZ2uHAAAAAAAAg8OGOAAAYHJOfPX+GZt1epr8Su0UprJyT4bKC3PJyM21SwAAAAAAgP5nIA4AANh985Y8P61ydpKfqp3CtPDdNEPzs+asB2qHAAAAAAAA/c2VqQAAwO5ZsOS30iprYxiO3jkmZeLcHLtoZu0QAAAAAACgvw3XDgAAAAbEiW/cK2Nb3p+U36ydwrR0YvYfOi3Jr9cOAQAAAAAA+tdQ7QAAAGAALDz1pzIxdmGavLx2CtPac3PUsUO59ZqLa4cAAAAAAAD9yUAcAACwcwtOfnlSLkzylNopkDT/LU9+9rW55Zpra5cAAAAAAAD9p6kdAAAA9LEFi/8gyTuTtGqnwKM8kon8fC5dcV3tEAAAAAAAoL8YiAMAALZ34onDGT/svSl5S+0UeAzfTTb/fEbPf7h2CAAAAAAA0D9seQAAAH7c8a+fk/HDPmcYjj53TJq9Pl47AgAAAAAA6C9DtQMAAIA+8sIlR2e4/dUk82qnwONrnpUnH/tIbrlmXe0SAAAAAACgP7gyFQAA+HfzF81L05yXNIfWToHdMJ6m/eKsGVlTOwQAAAAAAKjPlakAAEAyf/GSNK2vGYZjAA2ntE7PglfNrh0CAAAAAADUZyAOAACmuwWL/ypNzkqyV+0UmKSjk73fWzsCAAAAAACoz5WpAAAwXZ100qxsmHNaktfXToEOeW1GV5xbOwIAAAAAAKjHQNzuKKWZ/Y7LDywTw4fOKDl4vJ25rSb7Nsk+pWRGaTIjpe2/UwAA+t/D9w1tuPQTi5IsqJ0CHXRvZrSfk1Ujd9UOAQAAAAAA6jC8tQMH/MMVcye2lGe0kmNK8owkxzRpjinJU5PMqt0HAAB7omzdmIcv+9Q9ZevGQ2u3QBd8IaMrXlE7AgAAAAAAqMNA3NKL95rbzF2QMvGSpJmX5JlJnlA7CwAAuqG9+aFsvGL5eHvLhuHaLdA1TfmtrFn58doZAAAAAABA702/gbgPXzHjgDtz/ETykibNS5Lywtj6BgDANNDeeG82rh9Je+sjtVOg2+5Pq31MVo/8sHYIAAAAAADQW9NiK8TB/7hm9vjmWYtKsih35oR2su+/TwKWymUAANAbExvuysarzk4Z21w7BXrhwEy03pnkDbVDAAAAAACA3pq6G+JWrhyac91Tf7Ep5Q1JXpNk79pJAABQw/gDt2bT1eemjI/VToHeKq1fyNplX6udAQAAAAAA9M6UG4g78G8vP3ai3fxGSfP6Jjm8dg8AANQ0fu9N2fjNzybtidop0HslN2Tuhufki1/cWjsFAAAAAADojalxZWopzf5/e+WrSyl/NtHOzydTcNIPAAB207a7rsum73whKe3aKVBHk6dnw+y/TPJXtVMAAAAAAIDeGOy5sZUrh+Zc+1OLm+TPkzy7dg4AAPSLsVuvzubrL0pKqZ0CtW1NGXpG1p71b7VDAAAAAACA7hvMDXEfvmLG/neWXy/XNn+W5Om1cwAAoJ9svfnSbLlxde0M6BezkvY7kpxaOwQAAAAAAOi+wdoQt/Ti4TmZ/eYm+dMkR9XOAQCAfrPlhq9n6w8ur50B/aak3X5h1o34fw4AAAAAAJjiBmZD3AFLr1jYTj4YV6MCAMD2Ssnm734lY7d9s3YJ9KMmraF3JjmhdggAAAAAANBdfb8hbr+3X3lIa6z9T03yhgxALwAA9Fwp2XTNF7Ptzmtql0C/e21GV5xbOwIAAAAAAOieodoBj6mUZm7rV363NZHPNMm8GIYDAIDtlZLN137JMBzsipIX5NAFH8qd69u1UwAAAAAAgO7oy4G4/Zde/rxZX7/rvKT5H0n2rt0DAAB9qZRsvu7CjN3xndolMBiaHJThrbfk1muurJ0CAAAAAAB0R38NxJXSzG296o+TZkWSo2rnAABAP9v83Ysydvu3amfAoHlOnnrI+/ODH9gSBwAAAAAAU1DfDMTNfvtlB+3ztbtWJvm9JK3aPQAA0M82f/eijN12de0MGEQHpOz7b7nlmqtqhwAAAAAAAJ3X1A5IktlLL5/fSmt5kiNrtwAAQL/b8r2vZeu/ra+dAYPspsy4+5isWjVeOwQAAAAAAOisuhviSmnmtl75p02a05McULUFAAAGwJYbvp6t/3ZF7QwYdAemve/3c+s136wdAgAAAAAAdFa1DXFzlq49sMmsM5JyUq0GAAAYJFtuWp2t37+0dgZMFTfm8PYxGRmZqB0CAAAAAAB0TqvGSw/8u8uPbDJzjWE4AADYNVtvGjUMB531tNw+9JraEQAAAAAAQGf1fCBuv6VXPmtivLU2yTN7/W4AABhEW2++NFu+v7Z2Bkw9TX6/dgIAAAAAANBZPR2Im/23V84bSnt1kiN6+V4AABhUW39webbcuLp2BkxRZWFOWPyC2hUAAAAAAEDn9Gwgbs7fXPGKVrt9UZIDe/VOAAAYZFtvuSJbbvh67QyY2ibyB7UTAAAAAACAzml68ZL9/+aK3yglH0sy3Iv3AQDAoBu79aps/u5FtTNgOhjLjPaTs2rkrtohAAAAAADAnuv6gNrcpVf8din5SHo0fNcNw60mB+43MwfPmZlDZs/KIXNmZPbeMzNrRpO9hocya0Yrs2a0MnO4leHWwP7HBACgT1y86pKsvOirtTNgupiZ8aH/kWRp7RAAAAAAAGDPdXV6a/+/Wf+aUspIkqFuvqfTDth3Rp522H556mH75MiD984B+85IqzHoBgBA9337m9/MB9/3vpT2RO0UmE7uyoy7j8yqVeO1QwAAAAAAgD3TtQ1x+y+98kWltM/KAAzDzRhu5VmH75enPXHfPPWwfXPgvjNrJwEAMA3ddOMN+egHP2AYDnrvCRk/9KQkF9QOAQAAAAAA9kxXBuIOWLr+ue20z0+yVzfO74SmSX7q0H1z3FPm5tlHzsnM4VbtJAAAprHbb7st73/Pe7JtbKx2CkxP7eY3YyAOAAAAAAAGXsfvAd1/6VVHJxNrS/LETp/dCfvvMyPHP/2AvODouZm7z4zaOQAAkPvuvTf/9Pa/z0MPPlg7BR7LeLq4YbxPbEur/aSsHvlh7RAAAAAAAGDyOvoLjf3efuUhZWziy+nDYbiD95uZFx97cJ73lLkZajo+BwgAAJPyyMMP573//M+G4ehntyQ5JFN/IG5GJlq/nuRdtUMAAAAAAIDJ69wvNJZePNwaa5+b5OkdO7MDDps7Ky859uA896i5MQcHAEA/2bJlc973rnflnnvurp0Cj+XiJM9PsnftkJ5o8qYYiAMAAAAAgIHWsYG4uZnz90lZ2Knz9tScvYbz8ucflp85em7n74UFAIA9ND6+LR963/tyy7/9oHYK7MjWlHwqTZYkmVM7poeenQVLfjajy6+oHQIAAAAAAExORwbi5iz9xsuT8sedOGtPtZom8376gLzsOYdk1oyh2jkAALCd0i75xEc+kuuvu652CuzIXSn51zT58yT71o7puVKWJDEQBwAAAAAAA2qPB+IOXHrpERNpPp3UX8T25IP3yat/7ol54v6zaqcAAMBjWn7m6bnyCvM29KNmfdL+WJrmPUmm5w9WTV6b5I9qZwAAAAAAAJOzZ0NsSy8e3j+zV5VkQYd6JmWoaXLS8w/NgmccVH8qDwAAduJLn/tcPnvuObUzYHtNlqeULyXNR5PMqJ1TV/Nzrk0FAAAAAIDBtEcb4uZmzt+XlKrDcPvvMyOvX3hEjjxo75oZAADwuL5x2aU5/zPn1s6An1RS8n9TmtvT5LQkQ7WDqivt18W1qQAAAAAAMJBak/3gnL9Z/0tJ+eNOxuyuZz1pdn7/5U81DAcAQN+74frr8+nTTksppXYKPNrmNM1r08oDacrHYxju3zXNa2snAAAAAAAAkzOpgbgj3rV276aUD2ZPr1ydpKZJXv68w/KGFx2ZvWdMeqYPAAB64q4778yH3vfejI+P106BRyn3pN0+MaUclJL3p9LPd33qaZm/6Hm1IwAAAAAAgN03qWmyhzfM+sskT+lwyy4ZbjU5dcERedEzD6rxegAA2C0Pb3g473/3u7Np06baKfBo381QeWGGmqcm+XDtmL7UtF5TOwEAAAAAANh9uz0QN3vpZT9d66rUWcNDedOJR+U5R86p8XoAANgt28bG8oH3vif33vvD2inwaJekGZqf8dZzU5pPZ5J/KDUNnFQ7AAAAAAAA2H27/YuPVobfn2RmF1p2avZew/ndX3xynnrYvr1+NQAA7LbSLjntwx/OD77//dop8Ghn5cH2S1PKz6bJiiTDtYP62HE58ZSDa0cAAAAAAAC7Z2h3Hp77N+sXJ+VPuhXzWOb8aBju0Dmzev1qAACYlJHly3Lp2tHaGfAo5e0ZXfnWPOPYeUk+n2Tv2kV9rknJN3PLd75dOwQAAAAAANh1u7wh7uB/XDO7lPKubsbsyF4zWvnNFx+Vg/br+VI6AACYlIsvuigXX/SV2hnwH8aT/E5GV/5lFi56QUrr80n2qR01ENrll2snAAAAAAAAu2eXr8fZtnnW/22Sw7sZ85NmDLXyhhcdmUPnzkrp5YsBAGCSvnnVlTl7xbLaGfAfHk7J67J2xZez4JRjU8qFSZlTO2pgNHlZkibxIykAAAAAAAyKXdoQN3vpFQcnze91O+bRWk2TJfMPz9GHWFwAAMBguPXfbsknP/LRlLbZGfpBuTNNTsjaFV/OvEVPS9oXJeWg2lUD5rCcsPj5tSMAAAAAAIBdt0sb4lop/ztpejqZ9soXHJZnHj7b3+EDADAQHt6wIR9+33szNra1dgokyY0ZKi/LJStvzsJFR6W0vprkCbWjBlIpL05yZe0MAAAAAABg1zzuhrj9l161f9K8tRcx/+EFR8/N8U87oJevBACASRsf35YPv/9f88AD99dOgSS5OuOthblk5OYsPPWAlNaFSY6qHTWwSnNC7QQAAAAAAGDXPe5AXLuZeFuSOT1oSZIcNmdmfvVnLS4AAGBwLPv0p3PzTTfWzoAkuSRb2ifmsmV356STZqVMfDbJMbWjBtyCJE3tCAAAAAAAYNcM7eybh/3TN/edGGsvT9KT61JnDLXyphcfldl7z+jF6wAAYI999csX5qIvfbF2BiTJBZmx969m3VkbkzR5wnGnJ3lF7agpYJ886dkrcts199YOAQAAAAAAHt9ON8Rt2bjtLUkO6lFLXnXcE3LonFm9eh0AAOyRa7/97Zx39sraGZCk+VRm3P3fs+qTW5IkCxf/Q0qWVI6aOoZdmwoAAAAAAIPisQfi3nvDrCR/2KuQY4+YnRc8ZW6vXgcAAHvk7jvvyic++qGUdqmdwnTX5F0ZXf6mrFo1niSZv/gtKfmTylVTS4mBOAAAAAAAGBCPORA394ENr07yhF5EzBxu5Veef1gvXgUAAHts06ZN+dD7/iWbN22uncK0V/4ia1b8YZJ/n8xcuPhX0uR9dZumorKwdgEAAAAAALBrHntDXClv6FXES449JHP2mdGr1wEAwKS12xM57YMfyA/vubt2CtNbO6W8OaMr3/GfX1m46LiULE8yVC9ryjo6J55ycO0IAAAAAADg8Q3v6Iv7/v2lh2VbXtaLgEPnzMy8nz4gxU1TAAAMgLOXL8/1111bO4PpbTwpr8/alSv/8ysvXHJ0Svl8kn3rZU1x2/L8JF+pnQEAAAAAAOzcDjfEzRgfOjWPMSzXaa867gkZappevAoAAPbI6CVfzyVf+2rtDKa3sZS8LqOPGoZbeOoBGS5fSHJYvaxpoCkvqJ0AAAAAAAA8vh0OxJXS9OS61GMOn52jD7HAAACA/nfzTTdm5KwzamcwvW1O0/rVrF3x2f/8ykknzUqZOC8lz6zYNT2U8vzaCQAAAAAAwOPbbgvcAUvXP7ed8rxevPzEZx2YxF2pAAD0t4c3bMhpH/pAJiYmaqcwfW1MyiuzZtnFP/bVDXM/lpQXVWqabgzEAQAAAADAANhuQ1w7pSfb4Z522L454sC9e/EqAACYtHZ7Iqd96AN56MEHa6cwfW1Iq/xSRlf++DDc/JP/JCm/VqlpOnp6Tly0X+0IAAAAAABg57YbiCvJKb148YnPOqgXrwEAgD3ymZUrc9MNN9TOYPp6IO32S7N65eiPfXXByS9P07yjUtN01WQ8PdmmDgAAAAAATN6PXZl6wNJvPLudHN7tlx518N558iH7uCwVAIC+dsVll2XVVy+qncH0dW9K+6VZN3L1j3113inHpGmflbL9HzjRbUPPSrKmdgUAAAAAAPDYfuwXKBNpXtKLly58xoG9eA0AAEzaHbfdluWf/lTtDKavu5PWiVn7E8NwJ756/zTt81Myt0rVtFeeUbsAAAAAAADYueGf+PddH4jbZ+ZQfvqJ+8V6OAAA+tWmTZvy0ff/a8bGttZOYXq6PWn/QkZXXP9jX120aCh3tFakydMrdVFyTO0EAAAAAABg5/5rQ9zS0mqS/9btFz73qDkZappuvwYAACallJJPn/bR3HfvD2unMD3dmmboRRkduX6779zR/FOSl/U+iUexIQ4AAAAAAPrcf26Im5urXpBk/26/8GeOnmM5HAAAfeuLF5yfa7/9rdoZTE+3p+TFGT3r+9t9Z/6SNyblf/c+iZ9wdI5dNDPXjIzVDgEAAAAAAHbsvzbEZaLr16UeMntmnnTA3t1+DQAATMp3vnV1Lvz8BbUzmJ7uyNDQi7N2xU3bfWf+onlpyocqNLG9oew/7MpaAAAAAADoY48aiGu6PhD3M0+e2+1XAADApNx7zz054+MfSyn2GdNzdyXtl+SSs27Y7jvHv/6INK1zk8zqfRY71nZtKgAAAAAA9LF/H4hbWlpJFnT7ZU9/4r7dfgUAAOy2bWNjOe2D78/mTZtrpzDtlHsykZdkdOT67b41b9HeGZ44L8kTet/FY2t+qnYBAAAAAADw2FpJMnfo8icn2a+bL9p75lCeMHevbr4CAAAm5ZwVy3LH7bfVzmD6+WEy9JJcuuK6HX63NfSRpBzX4yYeVzmqdgEAAAAAAPDYhpOkTAw/o0l3r4Y6+pC9kyRuoAIAoJ9ccdm6rFt9Se0Mpp3mvrQnfiHrVlyzw2/PX/yWpPxaj6PYNQbiAAAAAACgj7V+9C/HdPtFP3VoVxfQAQDAbrv7rruy8ozTa2cw/dyfMvGLWTfy7R1+d/7in0uT9/S4iV1nIA4AAAAAAPpYK0lKyjO6/aKnHLpPt18BAAC7bNu2sXzyIx/I2NjW2ilMLw+mlZdm7cjVO/zuvEUHpslIkpm9zWLXNQbiAAAAAACgjw3/6J9d3RC3z8yhHDJ7RtLla1kBAGBXnX3Wmbnz9ttrZzCdNHkopXlpVi+/cscPLG2lde2ZSZ7c0y52Uzkox71yn6y/YFPtEgAAAAAAYHutH/2zqwNxB8+x3AAAgP7xjUvX5rK1a2pnML1sTLt9UkaXX/GYTyy47v8kzS/3sInJ2muvI2snAAAAAAAAO9Y6cOmlc5I8oZsvOXg/A3EAAPSHu+68IyNnnlk7g+lla5ry6qwdWfeYT8xf/LIkf927JPZIGX5S7QQAAAAAAGDHhsdbrWc07e6+5KDZM12WCgBAdWNjW/PJj3woY2Nba6cwfYynVZZk9cqLHvOJFy05MhPlzPzXBm/6XVMOqZ0AAAAAAADsWKtVho7o9ksOnm1DHAAA9Z191lm56447amcwfZQ0zW9m9crzHvOJ4948IxNlZZKDe5fFHmv83wsAAAAAAPrVcCnlsG6/5KD9ZsaKOAAAarp83dp8Y91o7QymkyZvzZrlp+/0mb0eemeSF/YmiA6yIQ4AAAAAAPpUq/RgE8H++w53+xUAAPCY7rrjjpyz7MzaGUwr5S+yZsUHdvrIgiWLk7ytNz10VNuVqQAAAAAA0K+Gm2T/br5gqGky3Gp18xUAAPCYxrdty6c/9uGMjW2tncJ0Uco/Zu3Kd+z0mRcufmZSPtajIjqtaVyZCgAAAAAAfWo4afbr5n2mM2e03JYKAEA1nz1nZe684/baGUwXTT6Y0ZV/ttNn5i3aO62MJNmvN1F0ng1xAAAAAADQr1pN2vt28wUzh22HAwCgjmu//a2sWXVx7QymjzOzZsXvPe5TTes9SY7tfg5d08SGOAAAAAAA6FPDJc3Mbr5g5rANcQAA9N6Ghx7Ksk99vHYG08dnM+PuN+bx1m/PX/K6NOXNPSmie0pm104AAAAAAAB2rJVkRjdfsNdw083jAQBgO6WULPvEadn4yCO1U5geVmXOhsVZtWp8p0/NP/XJacpHe9REVzUG4gAAAAAAoE8Nl6TVzZG14aHW4+1IAACAjlr1lS/ne9+9tnYG08O3sqX96ox+cetOnzrxxOFsay9Lsn9vsuiusl/tAgAAAAAAYMda3X5B09gQBwBA79x2yw/yxc+eWzuD6eEHac345awfeehxnxw/bGlS5nU/iR6ZlRNPHK4dAQAAAAAAbK/rA3EAANArY2NjOf1jH8nExETtFKa+e9Pkl7L6jDsf98kFJ784JX/egyZ6afxw16YCAAAAAEAf6vpftJckxZ2pAAD0wLkrzsy9P7yndgZT38a026/IupHvPe6TJ55ycLa1z4g/Rpp6Wu39kjxQOwMAAAAAAPhxfikDAMCU8M3138g31o7WzmDq25am9bqsG7l8F55tMj7xySSHd7mJGsbKfrUTAAAAAACA7XV9QxwAAHTbA/fdn7PPPKN2BlNfSdP8VtYs+9IuPb1g8e+n5BVdbqKWptmrdgIAAAAAALA9G+IAABho7dLOWZ/4WDZv3lQ7hanvT7Nm+em79OS8Jc9P8o/dzaGqpvgDMwAAAAAA6EMG4gAAGGirLvxSbr7phtoZTHnl3Rld8U+79OiJi7yYf4cAACAASURBVPZLqyxPMrO7TdTVNhAHAAAAAAB9qCf/A34pvXgLAADTzR233ZoLP39B7QymvrMyuvIPd/npba33Jfnp7uXQF1oZqp0AAAAAAABsz4Y4AAAG0vj4tiz/1MczMT5eO4UprXwlW+a+Mcmu/ZnPwsWLkryxi0H0jSEb4gAAAAAAoA8ZiAMAYCBdeMFnc+ftt9XOYGr7VsZnvC7rP7Jtl55esOTwlHyoy030DVemAgAAAABAPzIQBwDAwLn5xhvy9a9+uXYGU9sdGR9+RS47c8MuPt8k5RNJDuxmFH1kwpWpAAAAAADQjwzEAQAwULZu2ZLln/p4SnvXbrCESXgk7eZXctmZu76CcMHi30vysu4l0XdaBuIAAAAAAKAf9eSKF7+qBACgU84/e0Xuv+/e2hlMXRNJWZx1K67a5U/MO+WYpP3/uthEP2qG2rUTAAAAAACA7dkQBwDAwLj229/M5WvX1M5gKit5W0ZXfmGXnz/uzTPSKmck2bt7UfSnifHaBQAAAAAAwPYMxAEAMBA2bnwkZ5/56doZTGUl78zaFR/crc/M2vBXSTmuS0X0s5KJ2gkAAAAAAMD2un9laok7UwEA2GPnnHl6HtmwoXYGU9c5Wbvij3frE/MXzUtT/rxLPfS9lg1xAAAAAADQh2yIAwCg762/bF2+c/WVtTOYui5Lu/3r2Z0/5XnZr++bpnV6kqGuVdHfiitTAQAAAACgH3V/Q1xKihVxAABM0oMPPJDPjiyrncHU9f2Uma/KutM379anNm17d5KndieJgeDKVAAAAAAA6Es9GIgDAIDJO/v0T2bL5t2bVYJd9EDarVdk3en37NanFi7+lZTyO11qYlAMuzIVAAAAAAD6kStTAQDoW5eNrs4N119XO4OpaSyt9muybtl3d+tTJyw6JCUf61ITg2QiY7UTAAAAAACA7fVmQ5wbUwEA2E0PPnB/Pn/uSO0MpqqS/5HVI1/f7c+1Wx9Ncljngxg4w+2NtRMAAAAAAIDt2RAHAEBfOuesT2frli21M5iKSt6ZtSs+sdufm7/kjUl+teM9DKbxvQzEAQAAAABAHzIQBwBA37l87ep877pra2cwFTXl81n7zD/Z7c/NW/SktMp7ulDEoNovBuIAAAAAAKAPdf3K1BI3pgIAsOseeuCBfM5VqXTHNSlbTkmWtnf7k63WR1MytwtNDKaSL5++qXYEAAAAAACwPRviAADoK65KpUvuzVD7lRk9/+Hd/uT8xW9KclLnkxhgm+JvvwAAAAAAoC8ZiAMAoG9csW5NvnfdNbUzmHq2pZTX5pKRm3f7k8e//oi08u4uNDHQiutSAQAAAACgTxmIAwCgLzz0wIOuSqVLmrdk7cpLJvXR4W2uSmUHGgNxAAAAAADQpwzEAQDQF85d9uls2by5dgZTz3syuvy0SX1y4cm/mTS/3OEepoaHagcAAAAAAAA7NtyLl5TSi7cAADCo1l86muuv/U7tDKac8qUcXv5oUh89/vVHJOPv6nAQU0XJfbUTAAAAAACAHbMhDgCAqjY8+ICrUum8JtdlS1mSkZGJSX3eVansTNMYiAMAAAAAgD5lIA4AgKo+s+KMbNm8qXYGU0pzX9p5ZdaPTO5aywVLfstVqTyO+2sHAAAAAAAAO2YgDgCAaq6+4vJ89zvfrp3B1DKetBdl7YqbJvXpFy05MimuSmXnmmJDHAAAAAAA9KnhXrykpPTiNQAADJBNGx/J585ZUTuDqeePM7ry4kl/eqJ8LMmczuUwJRVXpgIAAAAAQL+yIQ4AgCq+8Jmzs/GRh2tnMKU0Z2R0xXsm/fEFi387ycs618OUZUMcAAAAAAD0LQNxAAD03I3XX5crL1tXO4OppOTKtCfePOnPv2jJkUne2bkgprj7awcAAAAAAAA71pMrU92YCgDAf9i2bVvOW3ZG7Qymlh+m1X5N1oxsnvQJE+2PJI2rUtk1pbmrdgIAAAAAALBjNsQBANBTF33h/Nx/3721M5g6xtM0J2fNyC2TPmH+yb+WNL/cwSamuhkTt9VOAAAAAAAAdsxAHAAAPXPHbbdm9GsX1c5gKmnyR1mzfNWkP3/CokPStN7TuSCmgW1ZNXJ37QgAAAAAAGDHun5laokbUwEASNqlnXPP+nTapV07hami5PSMrviXPTqj3XpPUg7qUBHTwx3xYy4AAAAAAPStrg/EAQBAkoxe/NXccdvkb7WEH9esz8y93rxHRyw4+eVJTu1MD9NHc2vtAgAAAAAA4LH1ZCDOn84DAExvD9x3b776hfNrZzB1/DBDeU1WfXLLpE84cdF+2dZ8sINNTBdNua12AgAAAAAA8NhsiAMAoOs+u/yMbBsbq53B1DCeVntRLhnZsy1d21rvSHJUZ5KYVoqBOAAAAAAA6Get2gEAAExtV11+aW68/rraGUwVpfnDrB75+h6dMW/J/CT/szNBTDtNYyAOAAAAAAD6WPc3xJW4MxUAYJratPGRfPEzI7UzmDrOzNrl792jE45dNDOt8tH44yAmq21DHAAAAAAA9DO/BAIAoGu+eN7Z2bTxkdoZTA3fyZZNb97jU/Zv/WWSZ+15DtNWq2UgDgAAAAAA+lj3N8TFgjgAgOnoBzd9L1ddvq52BlPDw2ny2qy/YNMenbLglGOT9p91qInpquTW2gkAAAAAAMBjsyEOAICOm5iYyAUrl9XOYKoo5U1Zs+J7e3bI0lbS/liSmR1pYroaz+gxd9WOAAAAAAAAHpuBOAAAOm70a1/OPXfdUTuDKaG8O2tXnrPHxyy87m1JXrjnPUxzdyZL27UjAAAAAACAx9aTK1NdmgoAMH08eN99WXXh52tnMCU0azLj7j/Z42Pmn/rklIm/70AQ015zW+0CAAAAAABg52yIAwCgoz53zrJs27atdgaD7+4ki7Nq1fgen9SMfyjJvnt8DqQYiAMAAAAAgD7Xkw1xxYI4AIBp4bpvX53rr/lO7QwG30RSTsnoij2/d3f+4iVJfnnPkyAxEAcAAAAAAP3PhjgAADpibOvWfOGcFbUzmAqa/J+Mrrx4j885btHcNHl3B4rg3zWtm2onAAAAAAAAO2cgDgCAjrj4S5/LQw8+UDuDgVfOz5oV/9iRo/ZuvSPJEzpyFiRJk+/WTgAAAAAAAHbOQBwAAHvs7jtuz7qvf612BoPv+5kx9htJyh6ftHDJ8Sn53T1PgkcZnzAQBwAAAAAAfc5AHAAAe6SUkgtGzky7PVE7hcG2JaX92qw678E9PunEE4dTyofj5x06a0PWjdxeOwIAAAAAANi54W6/oKQT6x0AAOhX6y8dzS03f792BgOveWvWjlzdkaO2PeEPkvIzHTkL/sv1tQMAAAAAAIDHZ2MCAACTtmnjI/nKBZ+pncHAa87I6PLTOnLUwkVHJWVpR86CRytxXSoAAAAAAAwAA3EAAEzaVy74TDZv2lg7g8F2fWZMvKVjp5XWvybZt2PnwX9oynW1EwAAAAAAgMfX9StTk7gzFQBgCrrjtn/LVZevrZ3BYNuSVuvkrFrxSEdOW7jkNSnllR05C35S07IhDgAAAAAABoANcQAATMoXz12Z0vaXD+yRP8jqZd/qyEkLXjU7ab+3I2fBjowXA3EAAAAAADAAerMhDgCAKeVbV34jt9x8U+0MBtuKjK74cOeO2/tvU3JE586DHzOebXNvrB0BAAAAAAA8vp4MxNkbAgAwdWwbG8tXLjindgaD7cZk8+907LR5S56flLd17DzY3k1Z/5FttSMAAAAAAIDH58pUAAB2y+qLvpQNDz5YO4PBtTWtLM7o+Q935rilrbTKh5MMdeY82CHXpQIAAAAAwIDowYa4EjviAACmhgfvvy9rL/5y7QwG2x9l9YorO3ba/Ot+L8nPdew82JFSDMQBAAAAAMCAsCEOAIBd9uXzz8n4+HjtDAbXORld8a8dO23BksPT5O86dh48libX1U4AAAAAAAB2TQ82xCXFgjgAgIH3gxuvz7XfvKp2BoPr5mxp/1ZHTyz55zSZ09EzYUealg1xAAAAAAAwIGyIAwDgcZXSzhc/M1I7g8G1Le32kqwfeahjJ84/+UVpyikdOw92ZvOEgTgAAAAAABgQBuIAAHhcV6xdnXvuvL12BgOr+dOsG7m8Y8ctWjSUpnlfx86Dnbu9o8OcAAAAAABAVxmIAwBgpzZv2piLv3hB7QwGVcnnMrr83R098/bW/0zy3I6eCY+prK9dAAAAAAAA7DoDcQAA7NTFX7wgmzdtrJ3BQCp3ZmbrTR098oRFh6TJ33b0TNip1hW1CwAAAAAAgF033IuXlF68BACAjrvnzjtyxdrVtTMYTCUZ+o2sWnZvR0+dGPqHNGX/jp4JO1UMxAEAAAAAwADpyUAcAACD6cLzVqaUdu0MBlHJu7J22Vc6eua8RT+fpnR24xw8njLTlakAAAAAADBAXJkKAMAOXfetq3LzDdfXzmAQlVyZh9p/0dlDl7bSar0/SdPZc2Gnbs3a0++pHQEAAAAAAOy67m+IK3FnKgDAgBkfH89Xzj+3dgaDaWNaOSXXjIx19NT51/5W0vxsR8+Ex+W6VAAAAAAAGDQ2xAEAsJ11q76SB++/t3YGg+kPsmbF9zp64sJTD0jTvL2jZ8IuaRmIAwAAAACAAWMgDgCAH/PwQw9mzVe/VDuDQdSUszO64mMdP7c98XdJDu74ufB4ig1xAAAAAAAwaLp+ZaobUwEABstFn/tMto119rZLpoVbk+E3d/zU+Yuelya/2/FzYVeMj62vnQAAAAAAAOweG+IAAPhPt/3g+/n2lZfXzmDwtFPKr2XNWQ90/ORm6H1Jhjp+Ljy+H+Tyz9xXOwIAAAAAANg9Xd8QlySl2BEHAND3SsmXzltRu4JB1OQdGV15ScfPnX/yryVlYcfPhV3RuC4VAAAAAAAGUU8G4gAA6H9XX7Eud956S+0MBs+lGb57acdPXfCq2Un+X8fPhV3WMhAHAAAAAAADyJWpAABk65YtufgLn62dweDZkKH2qVm1arzjJ5e9/zppntjxc2FXNTEQBwAAAAAAA8hAHAAAWX3RF7Lx4YdrZzBoSvm9XDJyc8fPfeHiZ6bJ/+r4ubA7hrasr50AAAAAAADsPgNxAADT3P0/vCeXr764dgYDp1mZtSvP6MrRQ3lvkhldORt2zU1Zdd6DtSMAAAAAAIDdN9yLl5RevAQAgEn58vlnpz0xUTuDwXJH2hNv6crJ85e8Lim/2JWzYde5LhUAAAAAAAaUDXEAANPYTddfmxuv+07tDAZNu/xm1o3c3/Fzj3vlPmnKOzt+LuyuJutqJwAAAAAAAJNjIA4AYJoq7ZKvfe4ztTMYNCUfyLqVF3bl7L33+YskR3XlbNgdTVbXTgAAAAAAACanJ1emujMVAKD/fHv9ZbnnzttrZzBYrs/WTX/clZPnL35qSv6oK2fD7tmQ1c+8unYEAAAAAAAwOTbEAQBMQxMT2/L1Cz9XO4PBMp6SX8/6CzZ15fRW+Zcks7pyNuye0WRpu3YEAAAAAAAwOT3ZEGdBHABAf/nG6Nez4cH7a2cwSJrm7zO6/BtdOXv+kleklFd05WzYbcV1qQAAAAD8/+zdeZTldX3g/c+vqhoEI5pMJpNlEnPyZFHHZBZnRtmM88wfGTJ5HGeelA3oySQZQ4zRuMSg4oY7UcFEMCSYKIrQ1V2aoKggIpbd1VXdSHezNQ0N9ELv9L7Weu/3+WN8zsnJiEL3/f0+9956vTz97/28zwH7FOd+6vMFoIe5EAcAsMBMT5+IiW99IzuD3vLdGNr9wVo++YILTo+q/EUtnw0nYyCWZycAAAAAAAAnz0IcAMACM/mt22PqxPHsDHrHiaji1TE2Nl/Lpx8+660R8Yu1fDY8fdNxoNRzCREAAAAAAGiEhTgAgAXk6KFD8d3xO7Mz6CVVdWmML91Yy2e/9MKfjSouq+Wz4WSUanWsH53NzgAAAAAAAE6ehTgAgAVk+e1fjfn5eg590Yeq+EaMj3yqts9vt6+KiDNr+3x4uqq251IBAAAAAKDHWYgDAFgg9u3ZFffdvSo7g95xIEr1+7V9+vkX/uco1W/X9vlwMqqwEAcAAAAAAD1uqO4BJSJKKXWPAQDgh/j2126OUtrZGfSKKl4b4yM7a/nsF12yKMrhq2v5bDh583Hm6ZPZEQAAAAAAwKlxIQ4AYAHYvuXReGTD/dkZ9I6lMb50tLZPP/3wG6LE82v7fDgZVbU2br/heHYGAAAAAABwaizEAQAsAHd+7cvZCfSOvbFo4PW1ffr5w/88qnhvbZ8PJ6u0PZcKAAAAAAB9wEIcAECf2/jAvbFj66bsDHpGeX2MLdlX28e3B98fEWfV9vlwsqqwEAcAAAAAAH1gqIkhpYkhAAD8H0ppx9htrsPxlP19rFy2rLZPP3/4BdEuf1Db58PJKxFD49kRAAAAAADAqWtkIQ4AgBz33jUZ+5/Yk51BT6j2x3z1ulpHtKsrI2Kw1hlwMqp4IMZvOpidAQAAAAAAnDoLcQAAfWpudjbGv/m17Ax6RnljrB6pb3vy7Ff+RkT1X2r7fDgVpXguFQAAAAAA+kT9C3ElvJkKAJDg7hXfjmNHDmdn0BtuiZVLb6zt04eHB2Nn9fHaPh9OVTXwrewEAAAAAACgMwayAwAA6Lyp48di1Xduz86gNxyKqF5b64SdA6+JiBfWOgNO3nzMDVqIAwAAAACAPtHIk6kOxAEANGvlnd+Imenp7Ax6QaneHBMjO2v7/HNf/qyI8v6IqrYRcIomY/WNR7IjAAAAAACAzmhkIQ4AgOYcPrA/1q1anp1BTyi3xcTS6+udccZlEfET9c6AU1DiG9kJAAAAAABA53gyFQCgzyy//ZZozc9nZ9D9jsT8oj+odcI5Fz83It5U6ww4VVVlIQ4AAAAAAPqIhTgAgD7yxM7t8eA9d2dn0AtKeWusvnF7rTMGWldExDNqnQGnZm+sHFmTHQEAAAAAAHSOhTgAgD4yduvNEaVkZ9D97oiJZZ+udcK5i18SJS6sdQacum9GhL80AQAAAACgj1iIAwDoE1sffTg2b9yQnUH3OxZl8DX1j6muqn8GnKKqui07AQAAAAAA6KyhugeUiCiulAAA1KuUGPv6zdkV9IIq3hYrb9pa64xzL1wcUc6udQacuhJz1e3ZEQAAAAAAQGe5EAcA0Ac23Lc2du94PDuD7jcW40uvrXXCBRecHlGuqHUGdMa9sXrJnuwIAAAAAACgsyzEAQD0uHarFStuvyU7g+53Ikq8Jv73Eef6HH32myLi52udAZ3huVQAAAAAAOhDFuIAAHrcPavH49D+fdkZdLsqLouJpY/VOuP84X8epVxW6wzolKr6RnYCAAAAAADQeRbiAAB62PzcXEzeaaeDH2pljD//6tqntAffHxFn1T4HTt3RmDprZXYEAAAAAADQeUNNDKn3TSYAgIVr3erxOH7sSHYG3W0qqvj9iMvbtU45f/gF0S5/UOsM6Jjy7Vhz3Vx2BQAAAAAA0HkuxAEA9Kj5ubm46zu3Z2fQ9ar3xPjSjbWPaVdXRsRg7XOgEzyXCgAAAAAAfauRC3FOxAEAdN49kyvi+NGj2Rl0t9Xx061P1D7l7Ff+RkT1X2qfAx0zeFt2AQAAAAAAUA8X4gAAetDc7GysXu46HD/QTLTi92J0tFXrlOHhwRioPl7rDOisR2P8pk3ZEQAAAAAAQD0auRDnQBwAQGetW70iThw7lp1BVyvvi1XLNtQ+ZufAayLihbXPgU4p8bXsBAAAAAAAoD4uxAEA9Ji52dn47vJvZmfQ1ao1seiJj9U+5tyXPyuivL/2OdBJA9XN2QkAAAAAAEB9GrkQBwBA59yzarnrcPwgs9Fu/V6Mjc3XP+qMyyLiJ+qfA51S7Y+faq3IrgAAAAAAAOrjyVQAgB4yNzcbdy2/IzuD7vahmBy9v/Yp51z83IjWm2qfA5311RgdbWVHAAAAAAAA9fFkKgBAD7ln4jsxddx1OJ7UvTH97I80MmmgdUVEPKORWdApA23PpQIAAAAAQJ+zEAcA0CPm5mbju67D8eRaMRC/H2uum6t90rmLXxIlLqx9DnTWVJyYuj07AgAAAAAAqFf9T6aW8GYqAEAHrJv4TkydOJ6dQfe6OlYsXdvMqOoqP+TTg26PNbecyI4AAAAAAADqVf9CHAAAp2xudibuXv6t7Ay6VVW2x1B5dyOzzr1wcUQ5u5FZ0FHlH7ILAAAAAACA+tW+EFe+9z8AAE7e2omxmDpxLDuDbtWON8XYaP3/glxwwelxpFxR+xzovFa0yy3ZEQAAAAAAQP0GsgMAAPjBZmem4+7xO7Mz6FZV+VpMLPtSI7OOPvtNEfHzjcyCzloRk6MHsiMAAAAAAID6WYgDAOhy6yaXx/SJ49kZdKcTMT/w+kYmveyiH49SLmtkFnRaFTdnJwAAAAAAAM2wEAcA0MVmZ6ZjjetwPJmqen+sGtnSyKzZ9rsi4qxGZkGntQctxAEAAAAAwAJhIQ4AoIutm/iO63A8mQdi6qyrGpn0kgt/Pqr4o0ZmQefdExM3bc2OAAAAAAAAmjHUxJBSmpgCANBfZqenY83Kb2dn0J1KDJTXxprr5hqZNhgfiIjTGpkFnVaK63AAAAAAALCAuBAHANCl1q0acx2OJ/OZWLFsZSOTzr/o1yLKxY3MgjoMVBbiAAAAAABgAbEQBwDQhWamp2LtuOtwfF97o92+tLFp7fZHwn830Ls2x/jSe7MjAAAAAACA5vhiCwCgC62bGIvpqRPZGXSl8mcxOXqgkVHnD/96RPxmI7OgHl/ODgAAAAAAAJplIQ4AoMvMTE/F2pVj2Rl0p7FYuexzjU1rD/x5Y7OgFtXfZxcAAAAAAADNGmpiSClNTAEA6A9rV347ZqZdh+P/MBvtgT9qbNp5F/73KOXFjc2DztsRK0fGsyMAAAAAAIBmuRAHANBFZqZPxLqJsewMulEVH4vJJQ81Mmt4eDBK+XAjs6A2ZVlE+PUsAAAAAABYYCzEAQB0kXUT34mZ6ansDLrPYzF0xgcbm7Zz4Pci4nmNzYM6lGpJdgIAAAAAANA8C3EAAF3if1+H+3Z2Bt2oXf44xq6fbmTW2cNnRMTljcyC+jwWE0u/mx0BAAAAAAA0z0IcAECXWLtyzHU4vp+lMbnsG41NGxz8k4j4mcbmQS3K0uwCAAAAAAAgh4U4AIAuMDN9Iu6ZHMvOoNtUcTgGFr25sXnnXfyjUcrbG5sHdWmXkewEAAAAAAAgx1ATQ0qUJsYAAPSseyaXuw7H91G9M1Z8YVdj40rrHRHxnMbmQT3Wx+To/dkRAAAAAABADhfiAACSzc/NxT2rvpOdQff5bow/79rGpr34Vf8yIt7Q2DyoTeW5VAAAAAAAWMAauRDnQBwAwJNbv2Yypo4fy86gu7SiXf1hxOXtxiYOtt4XEc9obB7Upd1akp0AAAAAAADkcSEOACBRu92KtSvvzM6g25S4JiZH1jU27yWLnx9V+Z+NzYPaVGticvTR7AoAAAAAACCPhTgAgEQb718XRw4eyM6gu+yIaurdjU4ciA9HxGCjM6EeI9kBAAAAAABArtqfTC3hxVQAgCezZsUd2Ql0m1LeGBNfOdrYvHOGz44qXtHYPKhPicFYmh0BAAAAAADkciEOACDJlo3rY9+endkZdJOqfC0mln2p2ZkDf97oPKjPRCwf2ZYdAQAAAAAA5LIQBwCQZM2Kb2Un0F1OxPzA6xudeN7i34qI8xudCfXxXCoAAAAAAGAhDgAgw65tm2PHlkezM+gmVXwgVo1saW7g5QNR4iPNzYNatWJ+YDQ7AgAAAAAAyDdU+4QSUUrtUwAAesqaFXdkJ9Bd1sfUs69sdOJ5G14dJV7Y6Eyoz7dj9ZI92REAAAAAAEA+F+IAABp2YO+e2PTQA9kZdI8SVfu1sea6ucYmXnDB6VHi/Y3Ng9pVnksFAAAAAAAiwkIcAEDj1o7f4YQu/9jnYnx0vNGJR579uoh4bqMzoT7TMd36YnYEAAAAAADQHSzEAQA06NjhQ/HwfXdnZ9A9jsai9jsanfjiV50VEe9sdCbUqYqbY83o4ewMAAAAAACgO1iIAwBo0LrJO6PdamVn0C1K+WCMje5udOai+Usjyj9rdCbUqVWuz04AAAAAAAC6h4U4AICGTE+diPV3T2Zn0C1KPBKHy180OvNlwz8ZJd7c6Eyo146YfME3syMAAAAAAIDuMdTEkBKliTEAAF3tvtXLY252JjuDbjEQb4n1o7ONzpwbfG9EObPRmVCvGyIub2dHAAAAAAAA3cOFOACABszPzca9q76TnUHXKLfF+NKvNjrypRf/UkR5TaMzoW7tgc9lJwAAAAAAAN2lmQtxDsQBAAvcg2tWx/SJ49kZdIe5aA82/2xpq/WhaOjnf2jI6phc8lB2BAAAAAAA0F1ciAMAqFm73Yp1k3dmZ9A1yjWNL/Gce+G/j4jfbnQm1K5cn10AAAAAAAB0HwtxAAA1e/SBdXH04IHsDLrD3pgu72t8ailXRETV+Fyoz3Qsmh3JjgAAAAAAALqPJ5MAAGq2dvxb2Ql0i1LeGWtGDzc689xX/qeI+M+NzoT6fTnGbj6UHQEAAAAAAHQfF+IAAGq0deODsX/PzuwMukGJtTHxgr9rfnD1geZnQu0+lx0AAAAAAAB0p9ovxJXv/QEAWIjWjH8zO4FuMdB+Y8Tl7UZnnrv4gog4t9GZUL+d8dPt27MjAAAAAACA7uRCHABATXY/vjl2bd2UnUE3qGIkxkfHEya/P2Em1KuKL8ToaCs7AwAAAAAA6E4W4gAAarJ25R3ZCXSHEzE39GeNTz3/la+IiH/f+Fyo23xcn50AAAAAAAB0r9qfTI0Ib6YCAAvOwb27Y8vD67Mz6ArVFbH6xu1ND41SuQ5H/6mqu2LVyIbsDAAAAAAAoHu5EAcAUIO1K78VUfxWALE1Fj3jY41PPWfxEBGiEQAAIABJREFU4ijxq43PhdqVz2UXAAAAAAAA3a2RC3G+CgYAFpJjRw7FI/evyc6gG5TqrTF2/XSjM4eHB2NnXN7oTGjGTMTgkuwIAAAAAACgu7kQBwDQYfdOfDvarVZ2BvnGYmLki41P3Vm9OiJ+pfG5ULvqyzF+08HsCgAAAAAAoLtZiAMA6KCZ6ROxYc1Edgb5WjEw8MbGp77okkUR1XsanwtNGIjrshMAAAAAAIDu18iTqR5NBQAWig1rV8Xc3Gx2BtmquC5WLLmv8blnHPm9KPELjc+F+j0aK0buzI4AAAAAAAC6nwtxAAAdUko7HrhrRXYG+Q7G7Oy7G596wQWnRynvanwuNOO68JtWAAAAAADAU9DIhbjiawsAYAHY/ND6OHroQHYG2Uq8N+76h/2Nzz387D+Mqvxs43OhfrMx0L4+OwIAAAAAAOgNLsQBAHTI/au+k51AvvVx2p5rG5/6ov/nzKjKOxqfC02o4u9jxeje7AwAAAAAAKA3WIgDAOiA/Xt2xM6tj2ZnkG2gemOMjc03PvcZZ/5xRPxk43OhEdXfZBcAAAAAAAC9w0IcAEAH3L9qRXYC2UrcHCtGvtX43HNf/qyIuLTxudCMh2N8ZCw7AgAAAAAA6B0W4gAATtH0iePxyAN3Z2eQayYGBv80Z/SZb4qIH8+ZDTWryqezEwAAAAAAgN5iIQ4A4BQ9ePdEtOabfyWTblKujPGbNjU+9mWveE5EeUvjc6EZMzE7d312BAAAAAAA0FuG6h5QvvcHAKAftdutWH/3eHYGuXbGM0//cMrk+dPfGhHPSZkN9ftS3PUP+7MjAAAAAACA3uJCHADAKdj04L1x/Ojh7AwylfK2uP2G443PfdlFPx4l3tj4XGhKKX+TnQAAAAAAAPSe2i/EOREHAPSzB1Yvz04gVTUZE0tvTBk92357VPEjKbOhblVsiJXL/AULAAAAAAA8bS7EAQCcpCd2bI0927dkZ5CnRMSfRMavf5z/6p+KKl7X+FxoSonrshMAAAAAAIDeVP+FuHAgDgDoT/e7DrfAVZ+PlSN3p4xuz10WEWekzIb6TUe7/fnsCAAAAAAAoDe5EAcAcBJOHDsSmzbck51BnqmYH3xXyuTzhn8uIi5JmQ2NqL4Yk6MHsisAAAAAAIDeZCEOAOAkPHj3eLRbrewM8vxlrL5xe87owXdFxGk5s6EBVetvshMAAAAAAIDe1cCTqSU8mgoA9JNWaz42rJnIziBNtT+mW1ekjD5n8f8VpfxeymxoxoMxPjqeHQEAAAAAAPQuF+IAAJ6mx+5fG1PHj2VnkKZ8MNaMHk4a/t5o5JdaIM212QEAAAAAAEBva+TLtOJAHADQR+6/a3l2Ank2x6H2X6VMfsni50cVr0qZDc04Eova12dHAAAAAAAAvc2FOACAp2H345ti/+4d2Rlkqco7Y/3obMrswery8PM7/awq18fYqPObAAAAAADAKfGFGgDA0/CA63ALWLUmxpeNpIw+/6JfiyjDKbOhGSUGhq7JjgAAAAAAAHqfhTgAgKfo2OGDseWh+7MzyFKqSyOipMxutz4QEVXKbGjGbbH8pkeyIwAAAAAAgN43lB0AANArHrx7PEppZ2eQotwWE0vuTBl9zuL/EBEvT5kNzbk6OwAAAAAAAOgPLsQBADwF83Oz8dDayewMcrSjXS5Nmz4QH0ibDc3YGCuX3pYdAQAAAAAA9IdGLsSVnIelAAA65pH77o6Z6ansDFJUN8TkaM5buecMnx0lfiNlNjSlVJ+KrOeIAQAAAACAvuNCHADAU/DAXSuyE8gxHYPx7rTpAwPvTZsNzTga1YnPZkcAAAAAAAD9w0IcAMAPsWPzxji0b3d2Bhmq+GQsH9mWMvu8C1/sOhwLwOdi5VeOZkcAAAAAAAD9w0IcAMAPsf6u5dkJ5DgQQzMfSZteiutw9LsSVVydHQEAAAAAAPQXC3EAAD/AkQP74vFHH8zOIEOJD8XYzYdSZp+z+D9ExAUps6EpVdwe40s3ZmcAAAAAAAD9ZajuAeV7fwAAetH6u5dHFD/NLEBb4nD7msT570mcDc0o5ZPZCQAAAAAAQP9xIQ4A4EnMz83Gxnu/m51BjnfF+tHZlMnnDb8oqvitlNnQnEdj5bJbsyMAAAAAAID+U/uFuIiI4qoKANCDHlu/NuZmprMzaFqJtTGx9Ka8+ZXrcCwEnwrHxAEAAAAAgBq4EAcA8CQeXjuZnUCGwerSyFrUOWf430RUL0+ZDc05FvNDn8mOAAAAAAAA+pOFOACA7+PAE7ti787HszNoWhXfiBUj38qb7zocC0CJz8fqG49kZwAAAAAAAP3JQhwAwPfx8NqJ7ASa146It6VNP/+iX4uoXpE2H5pRogxcnR0BAAAAAAD0LwtxAAD/RGt+Lh5bvyY7g+Z9IcaX3ps2vd1+T0RUafOhGbfF5JKHsiMAAAAAAID+NdTEkNLEEACADnls/T0xOz2dnUGzpmOwelfa9HMWvzAi/kfafGhKGfh4dgIAAAAAANDfXIgDAPgnNt4zmZ1A866O5SPb0qZX1bvDdTj63z0xseTO7AgAAAAAAKC/WYgDAPhHDu7dFU9s35KdQbMOxKKZD6dNP3/4BRHlt9PmQ1NKuTI7AQAAAAAA6H/1P5lawpupAEDPeHjtquwEmlaVD8fYzYfS5peBd4dfVKHfVWV7LHpiJDsDAAAAAADof754AwD4ntb8XDz2wN3ZGTRrazzr6DVp08++6HlR4pVp86EppfpkjI3NZ2cAAAAAAAD9z0IcAMD3bN5wb8xOT2Vn0KRS3hW33jqTNn+g/a7wMzn972hMt6/LjgAAAAAAABaG+p9MDS+mAgC94eF1k9kJNGtdTCy7MW36eYt/OUpcmDYfGlP+NtaMHs6uAAAAAAAAFgbXKAAAIuLQvt3xxPbN2Rk0qSqXRubvbrTjXRExmDYfmtGKMvSX2REAAAAAAMDCYSEOACAiNq5blZ1As26P8WV3pE0/e/gXo4qL0+ZDc74YEzdtzY4AAAAAAAAWDgtxAMCC15qfj8ceuDs7g+a0o7TfllowMPDOcB2OBaH6eHYBAAAAAACwsAzVPaBERCl5L1EBAPwwWzbcEzNTJ7IzaEqplsbE6D1p88+7+BeitF6dNh+aszxWjtg2BgAAAAAAGuVCHACw4G28x3OpC0grBsrlqQWldVk08IspkK+6MrsAAAAAAABYeCzEAQAL2uH9T8SebZuyM2hM9YUYX7oxbfxLLvz5iPidtPnQnIdj5cgt2REAAAAAAMDCYyEOAFjQNt4zmZ1Ac+ZisPW+1IKhuCwiFqU2QDM+ERElOwIAAAAAAFh4LMQBAAtWqzUfj92/JjuDppT4bCwf3Zw2/7zhn4tSfjdtPjRnb7Tbn8+OAAAAAAAAFqahJoY4CwAAdKOtD90fM1PHszNoxkwMVR9MLSiD74gorsPR/6rqr2JydCo7AwAAAAAAWJhciAMAFqyN6zyXuoB8OpaPbEub/tILfzai/H7afGjOVFStT2VHAAAAAAAAC5eFOABgQTpyYG/s2fZYdgbNmIqBRR9OLZgvb4+I01IboBHlM7FidG92BQAAAAAAsHA18mSqN1MBgG6zcd2q7ASaUsW1seILu9Lmnz38M1HF/0qbD82ZjzL0sewIAAAAAABgYXMhDgBYcNqtVjx2/3ezM2jG8ajaV6QWDAy8LSJOT22AZtwUEzdtzY4AAAAAAAAWNgtxAMCC8/jD98XM1PHsDJpxderzjee/+qci4g/S5kNzSrQid/kUAAAAAAAgGnoy1YupAEA32Xiv51IXiCPRbuc+39ie/bOI6hmpDdCIcnOsWrYhuwIAAAAAAMCFOABgQTl6cF/sfvyx7Aya8RcxOXogbfrLLvrxiOqStPnQpFJ9JDsBAAAAAAAgwkIcALDAPHLv6ojifu0CcDCm21elFsyWN0bEM1MboBl3xMTS72ZHAAAAAAAARFiIAwAWkFLasel+OxsLQokrY83o4bT5L37VWVGV16fNhyaVAdfhAAAAAACArmEhDgBYMHZu3hhTx49mZ1C/fXFa+y9TCxbNvy4inpPaAM1YHRNL7syOAAAAAAAA+P8N1T6hRBTPkgEAXWDT/XdnJ9CMj8bY6LG06WcPnxGlvDmiSkuAxpRwHQ4AAAAAAOgq9S/EAQB0gbnZ6dj2yAPZGdRvd0yf+FRqwcDA/4qIn0htgGasj4mlX8mOAAAAAAAA+Mc8mQoALAiPP3R/tObnsjOoW6k+EmtuOZE2/0WXLIqIP0ubD00q5YqIcA4cAAAAAADoKi7EAQALwqb1nkvte1XZHmcd+ZvUhtOPvCoifi61AZqxOU57YiQ7AgAAAAAA4J+qfSGuhJMBAECu40cOxp5tm7IzqFuJD8Wtt87kBVw+ENWGt+fNhwaV+FiMjc1nZwAAAAAAAPxTnkwFAPre5vVrI4oV/T63Jaaf83epBedt+H8j4ldSG6AZu+O0Mz6bHQEAAAAAAPD9WIgDAPre5vVrshOoW1U+EGuum0ttKPGO1PnQlFI+EWPXT2dnAAAAAAAAfD+1P5ka4SALAJBn/65tcWT/E9kZ1OvRGHri86kF5y6+ICL+bWoDNONQVNPXZkcAAAAAAAA8GRfiAIC+tvlB1+H6Xinvi7Gx+eSKdybPh4aUq2PlV45mVwAAAAAAADwZC3EAQN9qt9uxdcM92RnUqYoNMfGCm1IbznnlSyPi3NQGaMaRqIY+kR0BAAAAAADwg1iIAwD61q7NG2LmxLHsDOpUyuURl7dTGwaqy1LnQ1OquDrGbzqYnQEAAAAAAPCDWIgDAPrW5gc8l9rn7ouVy0ZTC85f/O+ixG+kNkAzjkarfVV2BAAAAAAAwA8z1MSQ0sQQAIB/ZHZmKrY/+mB2BnUaKO+N7B812+E6HAvFp2Jy9EB2BAAAAAAAwA/jQhwA0Jcef+jeaLfmszOoTbUmViy7OTXhJYufHxH/I7UBmnE8Fg1cmR0BAAAAAADwVFiIAwD60pb1nkvtb+33ZBfEYLw9IqrsDKhdFZ+KsSX7sjMAAAAAAACeigaeTC0RxaOpAEBzjh0+EHt3bMnOoD6rYuWyr6cWnHPxcyNaF6c2QDOOR9X+eHYEAAAAAADAU+VCHADQd7asX2Mhv59V5d3ZCRGtS6ORXy6BZCX+OlaM7s3OAAAAAAAAeKosxAEAfWfLg2uzE6hLqb4T48vuSG142fBPRhW/n9oAzZiK1sDHsiMAAAAAAACejtqvWpTv/QEAaMK+nVvi6MF92RnUpnp/dkHMDbwlIp6RnQH1K38dq5fsya4AAAAAAAB4OlyIAwD6ypb1rsP1sVUxseTO1ILzLv7RiHhtagM0YyoWlY9mRwAAAAAAADxdtV+Iiwgn4gCARrRbrXj8oXuzM6hLFR/KTojSekNEPCs7A2pXlU/H2Oju7AwAAAAAAICny4U4AKBv7Nz0YMxOn8jOoB73xvjSr6YWvGz4RyLijakN0IyZKAN/nh0BAAAAAABwMhq5EOdAHADQhM2eS+1j5cPZBTFf/WFE/Fh2BjTg07FyZGd2BAAAAAAAwMlwIQ4A6AuzU8dj1+YN2RnU4+FY+YIvphZccMHpUaq3pDZAM2ai3b4iOwIAAAAAAOBkWYgDAPrC4w/fG+1WKzuDOpTqiojL26kNR8763Yj46dQGaEIVn4nJ0R3ZGQAAAAAAACfLQhwA0Be2rF+TnUA9tsZpu7+QWjA8PBgRl6Y2QDNmY6D6SHYEAAAAAADAqbAQBwD0vKMH98b+XY9nZ1CHKj4aY2PzqQ07qosi4hdSG6AJJf42lo9sy84AAAAAAAA4FRbiAICet2X92uwE6rE7hs74THJDFVX19uQGaMJUDC76YHYEAAAAAADAqRqqfUKJKKX2KQDAAvb4w/dkJ1CL6soYu346NeG8xf81Svyr1AZoQhXXxoov7MrOAAAAAAAAOFUuxAEAPe3gEzvi2MF92Rl03oFY1Prr7IgocWl2AjTgeFTtK7IjAAAAAAAAOqH+C3EREeFEHABQj22uw/WnUj4ZY6PHUhvOXfySiDg/tQEaUX0yVozuza4AAAAAAADoBBfiAICetu3he7MT6LyjMTD0yeyIiOI6HP2visNRDXwsOwMAAAAAAKBTGroQBwDQeQd2PR7HDx/MzqDTqrg2xm/K/Qd73uJfjhL/LbUBmtAun4iJ5P+/AQAAAAAAdFAjC3EeTAUA6vD4xvuyE+i86ZgbuCo7IqJ6a0RxTZk+V+2P1tAnsisAAAAAAAA6yZd8AEBvKsVzqf3pb2P1kj2pBS++6F9EKb+T2gBNqOJjsfrGI9kZAAAAAAAAndTMk6lOxAEAHbZv59aYOno4O4POmovB6qPZETFU3hgRp2dnQM32xNTxq7MjAAAAAAAAOs2FOACgJ23f6Dpc3ynVDbF8ZFtqw7kvf1ZE+aPUBmjGFbHmlhPZEQAAAAAAAJ1W+4W4Eg7EAQCdVUqJbQ/fl51BZ7ViaOCK7IionnFJlHhOdgbUbEecdeTa7AgAAAAAAIA6uBAHAPScfTs2xfTxo9kZdFIVo7H8pkdSG150yaKIeFNqAzShxIfi1ltnsjMAAAAAAADqYCEOAOg52x++PzuBzirRan84OyKecejiKNW/zM6Amm2JmWf/bXYEAAAAAABAXSzEAQA9pZR2bH/k3uwMOqrcEpOj2VuOVUT11uQGqF+J98ea6+ayMwAAAAAAAOpiIQ4A6Cl7t2+KmRPHszPopHb5UHZCnHPhb0bEC7MzoFYlHomfaX8+OwMAAAAAAKBOFuIAgJ6y/eH7shPorDticvSu7IioyqXZCVC7geryGB1tZWcAAAAAAADUaaiJIaU0MQUA6HellNjxaPbLmnRUVeVfhzvvwhdHKS/NzoCaPRDjzxvJjgAAAAAAAKibC3EAQM/Yt9NzqX2liokYHxnLzojiOhwLQBXviLi8nZ0BAAAAAABQNwtxAEDP2PnIA9kJdFIp+dfhXnrxL0XEK7IzoF7VeIwv/Wp2BQAAAAAAQBMsxAEAPWPHo+uzE+ice2Llsq9nR8R8663hZ2L6XTvelp0AAAAAAADQFF/+AQA94eDubTF19FB2Bp1SxYezE+LFF/2LqOJ/ZmdAzW6JyZGJ7AgAAAAAAICmDDUxpERpYgwA0Me2P3J/dgKd81CMP/9L2RExVN4YEadnZ0CN2lHisuwIAAAAAACAJrkQBwD0hJ2PPpCdQMeUKyIub6cmvGz4RyLKH6U2QO2qG2Jiqb88AQAAAACABcVCHADQ9Y7s2x3HDu3LzqAztsSiJ27MjojZgUsi4jnZGVCjmaha78mOAAAAAAAAaFozT6Z6MRUAOAU7XIfrHyU+GmNj86kNL7pkUVSH35TaALUrfxXjo49nVwAAAAAAADTNhTgAoOvtfOT+7AQ6ouyKZx/5THZFnHH4ooj42ewMqNGRWDT44ewIAAAAAACADBbiAICudvzw/ji8b3d2Bp1Q4i/i1ltnsjOixJ9lJ0C9qo/H2BLvTAMAAAAAAAuShTgAoKvt9FxqvzgWp81elx0R577yNyPihdkZUKM98cxFV2VHAAAAAAAAZBmqe0D53h8AgJNhIa5PlPi7GLv5UHZGlIFLo/LTKX2sqj4Qt99wPDsDAAAAAAAgiwtxAEDXmj52OA7s3padwalrRbv6i+yIOHv4P0ZVfj07A2q0KabOyr/ECAAAAAAAkMhCHADQtXZtejCiuObV+6ovxaqRLdkVMTDwtuwEqFVVvTvWXDeXnQEAAAAAAJCp9idTvZkKAJysXY+tz06gE9qtK7MT4uzhX4yIV2RnQI3uifGRJdkRAAAAAAAA2VyIAwC60vzsTOzbvik7g1NWjcfk6F3ZFTFQvSn87Es/qwbeEX4VCQAAAAAAoIELceFbGQDg6duz9eFot1rZGZyqgXb+dbjzLv7RKK3fzc6AGo3F+JLbsiMAAAAAAAC6gSsZAEBX2r1pQ3YCp+7RWPGCr2RHRLT+MCKemV0BNSkxEH+aHQEAAAAAANAtLMQBAF2nlHbs2fJQdganqopPRFzeTm140SWLosTrUxugXjfEiqVrsyMAAAAAAAC6RQNPppbwaCoA8HQc2LklZqdPZGdwSqr90Wp9NrsiTj+0OKL6mewMqMmJaLcvy44AAAAAAADoJi7EAQBdx3OpfaDEtTE5OpWdEVG9ObsA6lOujMnRHdkVAAAAAAAA3cRCHADQdXZtWp+dwKmZiVZ1TXZEnD/861HFv8vOgHqUXfHM0/88uwIAAAAAAKDbNPBkakTxYioA8BQdO7A3jh/an53BqSjVjbF6yZ7sjGhXb8lOgPoMvDtuv+F4dgUAAAAAAEC3cSEOAOgquzc/mJ3Aqaqqq7IT4qUX/1JE9VvZGVCT+2Ll8z6bHQEAAAAAANCNLMQBAF1l96YN2QmcknJbrFyS/+btfOtN4Wdd+lVV/jTi8nZ2BgAAAAAAQDfyJSEA0DVmp0/Ewd1bszM4FVVcmZ0QZw//WFTxu9kZUJOvx/iyO7IjAAAAAAAAupWFOACga+zZvCFKKdkZnLx7u2JRZ6D6w4g4MzsDajAfrXhrdgQAAAAAAEA3G2piiK+1AYCnYvfmh7ITOBVVlX8d7kWXLIo4/PrsDKhFFZ+OVUu9Kw0AAAAAAPADuBAHAHSFdrsdex/fmJ3BydsRU2eNZEfEGUcujIifzs6AGhyJqv3e7AgAAAAAAIBu18iFOCfiAIAf5sCOzTE/O5OdwcmqqqtjzXVz2RlRypuzE6AWVXwkVozuzc4AAAAAAADodi7EAQBdwXW4nnYshqb/Jjsizn3lf4qIf5udATXYGs868onsCAAAAAAAgF5Q+4W4Eg7EAQA/3J6tD2cncLKq8pkYu/lQdkaU6i1RZUdADaryjrj1Vic0AQAAAAAAngIX4gCAdNPHDsfRfbuzMzg5rZgfyL9cdd7iX44q/mt2BtRgdYwvW5IdAQAAAAAA0CssxAEA6Z7wXGov+/tYNbIlOyJK9eYI9+HoQ+3qLdkJAAAAAAAAvaT2J1MjIqJ4NBUAeHJ7t3gutWdV1ZXZCfEf//s/iyi/k50BHVeVL8bk0onsDAAAAAAAgF7iQhwAkKq027F3+6PZGZyclTE+sjo7IoZOe21EnJmdAR02GzH0tuwIAAAAAACAXmMhDgBIdXDX1pifmc7O4GR0w3W4fzV8WlTlj7MzoONKXB3jN23KzgAAAAAAAOg1jTyZ6sFUAODJPPH4xuwETs6jMf68L2dHxHOqiyKqn8rOgM6q9sdp0x/MrgAAAAAAAOhFLsQBAKme2GohridV8YmIy9vZGRHVm7MLoONKeV+M3XwoOwMAAAAAAKAXWYgDANLMnDgaR/btzM7g6TsQUyeuz46Icy76vyPiX2dnQIc9HKftuTY7AgAAAAAAoFdZiAMA0ux1Ha43VXFtrLnlRHZGDLTekp0AnVddGmNj89kVAAAAAAAAvcpCHACQxnOpPWkmhtrXZEfEucO/EqX6zewM6LBvx8qRr2RHAAAAAAAA9LKh2ieUiFJqnwIA9JhSSuzb9kh2Bk9XFTfF2Oju7IyIgTdHRJVdAR3Ujnb1p9kRAAAAAAAAvc6FOAAgxeEntsfczFR2Bk9XGbgyOyHOHv6xiPid7AzorOqGmBxZl10BAAAAAADQ62q/EFe+9wcA4B/bt/2x7ASetnJbrFyyPrsiBgf/IEo5IzsDOuhEtFvvzI4AAAAAAADoBy7EAQAp9m97NDuBp23wquyCGB4ejFJel50BHfbxmBzdkR0BAAAAAADQDyzEAQCNa83NxsHdW7MzeDqq2BArl3wzOyN2Dvy3iPi57AzonLIrnnnaR7MrAAAAAAAA+oWFOACgcQd3bYl2az47g6fnmuyAiIgo1Z9kJ0BHVfGuuP2G49kZAAAAAAAA/cJCHADQuH3bPZfaU6o4HGee9rnsjDh7+FejKr+enQEddG+Mv+D67AgAAAAAAIB+MtTEkFJKE2MAgB6x73ELcT2llM90xQWrgQHX4egvA9WfRlzezs4AAAAAAADoJy7EAQCNmp06HkcP7M7O4KlrR6k+lR0RZw//WES8KjsDOqbEV2PFyLeyMwAAAAAAAPqNhTgAoFH7tz8W4Xps7yjx9ZhY+lh2RlTVayLijOwM6JCZKO03Z0cAAAAAAAD0IwtxAECj9m/3XGpPqQY+mZ0Qw8ODUVWvy86AzqmuislRfxkCAAAAAADUwEIcANCofdvsgPSMKjbEyiXfzM6IXYMvj4jnZmdAh2yL6eMfzI4AAAAAAADoVxbiAIDGnDi8P6aPHcrO4Km7JjsgIiJK+ZPsBOic8tZYc8uJ7AoAAAAAAIB+NdTEkNLEEACg67kO10OqOBxnnva57Iw4e/hXI+Jl2RnQId+OlcuWZUcAAAAAAAD0MxfiAIDG7N/xWHYCT1WJz8btNxzPzojBwTdkJ0CHzEcM+PcZAAAAAACgZo1ciHMiDgCIUuLAjk3ZFTw17Shd8Fzq2cM/FqW8KjsDOuSaWLlkfXYEAAAAAABAv3MhDgBoxLGDT8Tc9InsDJ6KEl+PiaX55/yq6jURcWZ2BnTAnphuX54dAQAAAAAAsBBYiAMAGnFg5+bsBJ6qauCT2QkxPDwYVfW67AzoiFK9PdaMHs7OAAAAAAAAWAgaeTLVi6kAgIW4HlHFhhhf8s3sjNg1+PKI8tzsDDh11WRMjHwuuwIAAAAAAGChcCEOAGjEwV0W4nrENdkBERFRyhuyE6AD2lG13hB+RwgAAAAA4P9j787j6y7rRI9/nt9J0n2DQtn3rRQR2Zukpe4yc0UdTdOCRRy30Rn1utzxznXmWmcc1+u+zMiIg7IljYPgBqJooUnKLrIVFKHQvdB9T3J+z/0jgDCUNkmT85yT83m/XnlBk5Pz+1DSZjnf830kqWRKsiFOkiRVt20bnqJr+9bUGdqbwCZG16XfZFXffArwytQZ0j6LfI9i7R8WAAAgAElEQVSOtrtTZ0iSJEmSJEmSJFUTN8RJkqQh53a4ChH5T266YlvqDLLwodQJ0iBYT0/X/0kdIUmSJEmSJEmSVG2GfENcjBCjJwRJklTN1q9wIK4CRPL826kjaLxwErF4UeoMaZ8F/ok7frwudYYkSZIkSZIkSVK1cUOcJEkachtWPZY6QXv3Kxa3PZo6glh8NzA6dYa0j+6lfeq/p46QJEmSJEmSJEmqRg7ESZKkIbV90zp2bduSOkN7E/lO6gSYnwEfSF0h7bMs/h3Mz1NnSJIkSZIkSZIkVSMH4iRJ0pDasGpp6gTt3ZMcmv8sdQQzHroAOCp1hrRvwpUsWtCRukKSJEmSJEmSJKlaORAnSZKG1IYVHpda9iKX0tZWTJ1BHj6UOkHaR1uoLf6v1BGSJEmSJEmSJEnVzIE4SZI0pDasXpo6QXvWTTH7XuoI6ptPAV6ZOkPaN+GfWdi2OnWFJEmSJEmSJElSNaspxUViKS4iSZLKzs4tG9m5ZWPqDO3Ztdx+zZrUEWR8wC8aVdECS9gx/uupMyRJkiRJkiRJkqqdG+IkSdKQ2eh2uPIX43dSJzCraSyRt6fOkPZN/BB3X9qdukKSJEmSJEmSJKnalWRDnNs+JEmqTptWP5k6QXv2AJ0Lbk0dQXd4OzAudYa0D66lfcGvU0dIkiRJkiRJkiTJDXGSJGkIbVzjQFxZC/xb6oRe4f2pC6R9sINY+GjqCEmSJEmSJEmSJPVyIE6SJA2JYk83W9etSZ2hl7aFuOOK1BFMn1MPnJo6Q9oHn6fz6idSR0iSJEmSJEmSJKlXSY5M9cRUSZKqz6a1y4gxT52hlxK4kvafbEmdQYbb4VTJHqN21BdTR0iSJEmSJEmSJOnP3BAnSZKGxKbVHpda1nK+kzqBWXMnQ2xKnSENXPgICy/fmbpCkiRJkiRJkiRJf+ZAnCRJGhKb1joQV8YW0dn6QOoIuvN3AiNSZ0gDdAMdLT9JHSFJkiRJkiRJkqQXciBOkiQNvhjZtGZZ6gq9lFgG2+EgAO9LHSENUBeFwodTR0iSJEmSJEmSJOnFaob+EpEY49BfRpIklY3tG5+me+f21BnavTXsmvBfqSOob34tcGzqDGmAvsKtV/8xdYQkSZIkSZIkSZJezA1xkiRp0G1a43GpZSvwPe6+tDt1BvD+1AHSAK1gTN1nUkdIkiRJkiRJkiRp9xyIkyRJg27TWo9LLVNFsvDd1BGcc9FhBN6YOkMakMjHuemKbakzJEmSJEmSJEmStHslODJVkiRVm02rn0idoN2KP+fW1vTTijU97wEKqTOkAVhIZ2tL6ghJkiRJkiRJkiS9NDfESZKkQdXTtZNtG59KnaHdCv+euoBZs2qAd6fOkAaghzz/UOoISZIkSZIkSZIk7ZkDcZIkaVBtXrscYkydoRd7go6pv0wdQdeBbwIOSZ0hDcBXWdx2f+oISZIkSZIkSZIk7dmQH5kan3mRJEnVYdNTy1MnaLfCZTA/T10B4f2pC6QBeIKd2+enjpAkSZIkSZIkSdLeuSFOkiQNqi1PrUidoBfrAS5LHUFj8wkEXpU6Q+q3wN9x90+3p86QJEmSJEmSJEnS3g35hjjw1DRJkqrJlrVuiCtDP6ejZWXqCGL8GwghdYbUT9fS3vqz1BGSJEmSJEmSJEnqGzfESZKkQdO1fSu7tm9JnaEXiZemLmB60ygIl6TOkPppC3n+odQRkiRJkiRJkiRJ6jsH4iRJ0qDZ8rTb4crQk3ScfGPqCEKhGZiUOkPql8A/sbjNc6AlSZIkSZIkSZIqiANxkiRp0Gx5yrmR8hO+B/Pz1BVkvD91gtQvkXs4OP9W6gxJkiRJkiRJkiT1jwNxkiRp0Gx5amXqBL1QEbgsdQQzmk8nxrNTZ0j9kBPC+2hrK6YOkSRJkiRJkiRJUv/UpA6QJEnDx5an3RBXXuLP6WhNP6WYux1OFefbdLTclTpCkiRJkiRJkiRJ/Tf0A3ERYhzyq0iSpMR2bdtE146tqTP0fDG7NHUC51w0Hnrmps6Q+mElPTX/mDpCkiRJkiRJkiRJA+ORqZIkaVBsecrtcGVmGZ0n3ZA6gpruC4ExqTOkPovhw9x+1ebUGZIkSZIkSZIkSRqYEh2Z6oo4SZKGuy1PLU+doBf6HszPU0dAeFfqAqkffkFny49SR0iSJEmSJEmSJGng3BAnSZIGxZan3RBXRork+WWpI2hsfjlwZuoMqY+2Uwx/mzpCkiRJkiRJkiRJ+6YkG+LcDydJ0vC35emVqRP0Z79gcVv6CcWI2+FUOUL4Z25rWZo6Q5IkSZIkSZIkSfvGDXGSJGmf5T1d5D3dqTP0rMClqRM4//wRwEWpM6Q+eoAd47+SOkKSJEmSJEmSJEn7zoE4SZK0z7KaOqYc/4rUGeq1jIPzG1JHsGXcXwH7pc6Q+iCSh/dx96VO9UqSJEmSJEmSJA0DJTky1TNTJUka/g57WQOrHrkLop/4k4rxMtraiqkzyMO7CKkjpD4I4XssbulMnSFJkiRJkiRJkqTB4YY4SZI0KEaN35/JR52cOqPaFSnWXpY6gplNRxN4VeoMae/iWsg+kbpCkiRJkiRJkiRJg8eBOEmSNGgOP3Vm6oRq90tuv2p56gh6Cn8N7odTBYh8jParN6TOkCRJkiRJkiRJ0uAZ8iNTI56YKklStRg7+RAmHnI0G1c+njqlWqXfDsf8jOyhS4jOw6nMRW6mc8GVqTMkSZIkSZIkSZI0uNwQJ0mSBtVhbolLJK5l54Sfpq6gYcnrieGw1BnSXuwi4wOpIyRJkiRJkiRJkjT4HIiTJEmDatKhxzF2/4NTZ1SfGK7g7ku7U2cA70odIO1VjJ+jvfUPqTMkSZIkSZIkSZI0+ByIkyRJg+6wl81InVB9Cvn3Uycwo+kA4ILUGdJe/IEJWz6fOkKSJEmSJEmSJElDw4E4SZI06CYfM426MeNTZ1ST21jU9lDqCGK4GKhNnSHtWfwbbrhhV+oKSZIkSZIkSZIkDY2aUlwkxlJcRZIklY+Mg044kyd/95vUIdXistQBvYLHpaq8Ra6gc8FvU2dIkiRJkiRJkiRp6LghTpIkDYmDTjqTkPmlRglsgx2tqSOYPqeeyNTUGdIerKeQfyx1hCRJkiRJkiRJkoZWSTbEgSviJEmqNnWjxrL/USfz9GMPpE4Z7tro+MmW1BEE3A6ncvcJFrU9lTpCkiRJkiRJkiRJQ8u1LZIkacgcctI5qROGv5CnPy51VtNYQpydOkN6aaGdjtb0f1YkSZIkSZIkSZI05ByIkyRJQ2b8QUcyZr8pqTOGs0dob2tPHUF3oRkYmzpDegndEP4G11ZLkiRJkiRJkiRVhZIcmeojT5IkVa+Dpp7Nnzp+mjpjeArhP1Mn9IrvTl0g7cGX6bjmwdQRkiRJkiRJkiRJKg03xEmSpCF1wLGnUagbmTpjOOqhpviD1BE0NJ0InJs6Q3oJj5Pn/5w6QpIkSZIkSZIkSaVTkg1xroiTJKl6FQq1TDnuNFY+dFvqlGEm/oKFbatTVxCyeX6tpzK0Amgjz77L4tYdqWMkSZIkSZIkSZJUOqUZiJMkSVVtyglnOhA32GL4fuoEIBB5e+oIqVdcSww/IoQWOlra8Wk5kiRJkiRJkiRJVcmBOEmSNORGTzqQsZMPYevTK1OnDBerqVvz89QRzGiaSc6RqTNU1dYD1xJiKwfH39K2oJg6SJIkSZIkSZIkSWkN+UBcxNUMkiQJDjz+dAfiBkvghyxc2JM6gzyblzpBVWkzkesJsYWdE3/F3Zd2pw6SJEmSJEmSJElS+XBDnCRJ6pN1Sx9i4mHHUaipG9D7Tz7mZSy940byYvo5rooX8/THpc66ZCQ9O97mMx9UItuBnxJCK+M2/YIbbtiVOkiSJEmSJEmSJEnlyYE4SZLUJ6uW3M629as44vRXD+j9a+pGsd+RU3n6sfsHuazqdNDR9kjqCLq3XwBhQuoMDWuRyG8gXs7YET/mpiu2pQ6SJEmSJEmSJElS+XMgTpIk7VX3jq1sXrOUrU+v4KATz6JuzPgB3c+Bx73Cgbh9FeMPUicAEMM8QuoIDVN/gvADQvEHdLQ9mTpGkiRJkiRJkiRJlcWBOEmStFfrnngIYiTv6eLJ393McY1vGdD9TDzkWEaMmcCubZsGubBqFKkr/Dh1BDOaDiDnDakzNKxsJdBGDP9JR8ui1DGSJEmSJEmSJEmqXEM/EBchxiG/iiRJGkLrlj743L+vffReDpp6LmP2O3gA9xQ44NhXsPy+hYPWVlUiC1l4zdOpMyhmcwg+sUL7LAK3QLycMSN+5JGokiRJkiRJkiRJGgw+kClJkvaoe+c2Nq9+4s+viJEn7ryRk1//zgHd3wHHv4Ll99/ixPxAhPij1AkABOalTlBFW0oIPyAr/oBb2x5PHSNJkiRJkiRJkqThxYE4SZK0R+ufeIgY8xe8btOqx9mw/BEmHXZiv+9v5LhJjDvgMLasXTZYidUiJ464NnUEDU0nAmelzlDF2UmkjSx8n/aWW+jdDidJkiRJkiRJkiQNupIMxEUf75IkqWI9/7jU53virpuYcOhxhJD1+z4nH3OqA3H9dyudV6xNHQHh4tQFqih/IPJdYn45i9vWp46RJEmSJEmSJEnS8OeGOEmS9JJ6dm1n8+qlu33bjo1PsfaRu5lyUv+Xhe131DSW3n7DizbPaQ9CKIfjUgOEi1JHqOz1EOJ1hOzfWdTyG9wGJ0mSJEmSJEmSpBJyIE6SJL2k3R2X+nzL7/0tk485lULdiH7db+3IMYw/5Gg2rfjTviZWi5xQk/641BlNM8k5MnWGytYyQryUUHcZi65clTpGkiRJkiRJkiRJ1an/Z5xJkqSqse6Jh/b49u6d21j5wKIB3ffko08d0PtVp9BZFgNGeTYvdYLKTg7cQIgXcEh+NO0LPlMWH6uSJEmSJEmSJEmqWiXZEBc9JEmSpIrTs2sHm1c+vtfbrXpwMQeecBZ1Yyb06/4nHX4SWVZDnvcMNLF6RNpSJzDrkpH07Hibh1+qV1wL4fsU8ku5tW3vf1FIkiRJkiRJkiRJJeKGOEmStFsbli3Z43Gpz8qLPSy759f9vv9C3UgmHHb8QNKqTSQW/yt1BN3bLyDSv6lHDUOhnchcNsbD6Wj9B4fhJEmSJEmSJEmSVG5KsiFOkiRVnvWPP9jn2z79+P0cdPJ0xux/SL+uMfmYl7HhySX9Tasy4TYWt61IXUEM8wipI5RIF5FWCnyNRS33pI6RJEmSJEmSJEmS9sQNcZIk6UV6unayafVjfX+HGHnizl/2+zoTDzuBQu2Ifr9flUl/XOqMpgMIvCF1hkpuDSF8mtr8SDpbL2ZRq8NwkiRJkiRJkiRJKntuiJMkSS+y4cmHifnej0t9vi1rlrJh2RImHT61z++TFWqZeNgJrHv8/v4mVotIgR+ljqCYzSH4dWMV+R3ErzN+Sws33LArdYwkSZIkSZIkSZLUH0P+wGZ85kWSJFWO9U/0/bjU53vyzpuYcOiJhKzvS2gnHXGSA3EvJYQ7ubVlWeoMAvNSJ2jIFYHrifHrdC64NXWMJEmSJEmSJEmSNFBu+pAkSS9Q7NrJplV/GtD77tyynrWP3MmUqef0+X0mHHo8Iash5j0DuuawFmP67XDT554E+VmpMzRkNhK5DArfpPPqJ1LHSP0UmNZUy8idNYzbP2fh5bvw+ViSpL6aNauGUaMKrK0pUDcychhdtLUVU2dJGirzM2Y9ODp1hSrIwmnbYX7/jk+QJEmSVDYciJMkSS+wYdnDxOLAHwda8fuFTD72VAp1o/p0+0LtCMYffDSbVvxxwNcctoqhLXUCWXEehNQVGnx/IPB1Rtf9gJuu2JY6RlUrMKNpMjE7BLKDyfODCeFgiAcB+xGZQGA8MKH3JYyDOJLe72NrgWfWkY6G7h3Q0Ay92w53AV0QuyDsAjYRwzpCfJrIOkJYR8jXEXmaGFYR8ifIeZLFbTsS/B5Ikvqq4YJxFEZMpljYnzzfn0K2P3ncH+J+hLA/vZ8vxhAYS2QsMBYYA4wlMIpILb2fQwpAgW6gGxj5zP2vBBqa82de2w10veifgW4iO4FNhLgRsg3EuBHiBmLYCGwgy575dXEjceQGOo992oEKqQzULzmD7uyO1BmqIPWPvJpOfpM6Q5IkSdLAlGYgzufoS5JUMdYvfWif3r9n13ZW3ncrh5/x+j6/z6QjpjoQ9yLhbm5rWZo6AsJFiRs0mAKdhPglFi24Hr9KV6nMePvB0HMyeX48MRxHiMdDOA44hvzZMYT8mdnb531YvmgWt08fsgVgdO/Lc3dwOCE+7z4jxPC8X2e9o3UNzU9DeALyJ4nhSQKPkoUlUPMQi65c1b//aElSv8y6ZCTdu46F4pEQDieGwwjxMODZl0OBcRQBImQBYnzm7/H/9gljd58u+v5VTwaMeOZlz/cTw/NeEf6cEZ+dfcsgdEHDkh7C7NXEsJwQl//5n9lysnw5xZrl7Bq7krsv7e5zpaT+i9kWgrOp6o98XOoCSZIkSQPnhjhJkvScYvcuNq0c2HGpz7d6yR0ceOLZjBg7qU+3n3TYSSwNP+19UEu9QhkclzqjaSY5R6bO0D6LwE/IwxdZ3NKZOkbDWqCh6QRCOB3CaUROA15O3j3l2TfvdnChfEyGOBnCGc8l5hHohobm9cASQniIGB8ixAcoxntY3LY+Ya8kVZZpTXXsV3MSefEk4FhidhxwLCEeR/eOQ3j+VFkYVt8X1BBD72DfswPZzw7T5QFCEUZuymloXkvgMfLwMCH2vmQ1DzOl+zGPcpUGQZ5tJXMgTv0QGJs6QZIkSdLAORAnSZKes3HZI8S8Z5/vJ+Y9LLvn1xw3s6lPt68dNYaxkw9j61PL9vnaw0ZO+uNS82xe6gTtk13AFZD/PzraHkkdo2Ho/PNHsHXcmcSskRgbINRD3H+Y7h7cD2jo/e+kd5AhC9DQ/BhwJ4S7yIp3ku+6h46fbElaKknJzc+Y+YdjyfNTiPFlwCkETiFyPHleM0yH3vZVBhxE5CBCrAd6P9cUi7Ay20VD86PAwwQeJrKEjCUURj3Ewst3Jq2WKklP1xZqstQVqiwOxEmSJEkVrAQDcZE4TB8RkSRpuFn3xIODdl/rlz7AlqnnMvaAw/p0+4mHn+RA3J/dS2frvq/q2xezLhlJz463+WVcRdoI4d+oLX6DhW2rU8domKlvPoUQ3gD5+WwODcCIPx8XV5V/YRzT+xKbyTNgVE5D8x+IoZMs3kJeuIXOq59IHTmoGpq/SuRlfbz1I3S2/u2Q9khKr775WOAsMs4iciYsOZ3ifxsiqMpPEYNmBDANmPbc72MO5Dt6aGh+ALiLEO6kyJ2MWH0/Cxfu+zOcpOHoGLayMnWEKkvwyFRJkiSpgrkhTpIkAb3HpW5e+eig3ueyu3/J1De8q0+3nXTkVJbf86tBvX7FiqQ/LrV7+wUQJqTOUL8sg/BVaov/wcK2raljNEycf/4INk94PcQ3Aq8HDu+daijbY09Ty4CTCPEkIn9NKEJD85NEbiGEW8iLt7C4bXA/2ZbS9Kb9gL8j9PVnCWHikPZIKr3XzRvDtp56KM6AcA5wJr1bNB16K70a4DTgNGJ8NxnQPWUnDc2/B+4kcCchv4tF0x6G+Z4TKbW1FWlo3g6MTp2iCuGRqZIkSVJFcyBOkiQBsGnFH8iLg7tMYOvaZWx44iEmHXnyXm87ctx+jJp4ADs2PjWoDRUpK4PjUmOY57xLxbiPGL9E3doWN4JoUExrqmNS9jpyZrOZN0Ecnzqpwh1BYB7EeWQZNDSvAH4F4UZCdhPtV29IHdhnhfBmoj9HkKrKrDdPpGdEIzGeR8hmsq3rdKDGweiyNRI4BziHCMQMGpZsgeZ2CL8hi79h0dR7HZBT9YpbITgQpz6KboiTJEmSKpg/yJYkSQCsX/rQkNzvsrt/xcTDTiQUCnu97cTDT3IgLnA/7a1/SNowo+kAct6QtEF9sYiQfZb2a25MHaJhoqH5XODdwFuJTHTWYcgcClwC8RJisUjDnDsg3kie38jiaXeV9ZBCpCl1gqQhdsZ7axm9oZ688HpifD3dnAZkECC6Aq5CjQPOh3g+OdCwZD3MvqV3QC7/DYvahuYbQakshS3AgakrVCFyN8RJkiRJlcyBOEmSRN7TzaYVQ3OC266tG1jzyB0cdPL0vd520uEnsur+RUPSUTHK4bjUYjan78fhqfTijYT4r7S3tacu0TAwvWk/Ctk8Iu8GTkmdU4UKEKcD08myT9Ow5Glo/iWB6xld9wtuumJb6sDnNF44iVh8deoMSUOgvvlYMnoH4Nj0SvJsHESXwA1f+0F4C/AW8gwamlcTw28J8TcUwi+5tWVZ6kBpCG1JHaBKEtwQJ0mSJFWwkjzQ6RNIJUkqbxtXPEpe7B6y+1953y3sf8xp1IwYtcfbjd7vUOpGj6dr++Yhayl7WZ5+IC5wceoEvUgO/JiMz7JowT2pYzQM1DedBtlHCTQRGZk6R8+ZDFxE5CK2de2kYfZNwLWEmp+kP1q15y0QatM2SBokgfqmc8myNxN5E3AisffVqkoHEeJcYC7FCPXN9xC4nsD1tLf+PnWcNMgciFPfheiGOEmSJKmCuflDkiSx8cklQ3r/xa6drLr/Fg4/cy+ncIbAhMNP5KlH7hzSnjL2SPIji6bPPQnyM5M26Pl6gKsp8nluax3aP6iqDg3N50P8OIRXpU7RXo2EcAFwAbHYQ0PzQgI/JtT+mEVXrip5TR4udFZGqmDTmuqYVPMqYv5miBdAOBifwKrdCZwOnE7k0zQ0LyVyPSFezyHxVtraiqnzpH3kQJz6ww1xkiRJUgVzIE6SpCoXY86mlX8c8uusfeQODjzpHEaMnbTH20067KTqHYiL8brUCWTFeW4HKQu7CHyfnvBFbmtZmjpGlW5+RuPDFxHjJ4Bp/hmvSDXAa4i8htj9LRqa7yBwHT1cX5Jh2elNLyPgcalS5Qk0zjkP4sVE3krMxz/7aqmPjiLwYQgfZmVYT33zzyFez9gRN5bVsd5Sn4WtOA2svnNDnCRJklTBHIiTJKnKbV37JD27dgz5dWKes/Le33J041/t8XbjDjqaQt1Iil07h7yp7ISQeiAuQLgocUO12wrx38nqvpJkA1SpTWuqY1LhFRxcvMuNI0Mi0DC7ibBkPpGpqWM0aAJwDpFzKPA5Gpr/AFxPFq9n0cmLYX4++FfM/nnQ71PS0JnedBxZuBjCPGI8KnWOho39CMyDMI9tXdtpaP4xkR/SOfXXQ/K5RxoS0Q1x6g83xEmSJEkVbOgH4iJEn3QlSVLZ2vDkwyW71rql9zNlWiOjJh740jcKGRMOOZ71S+8vWVd5iKvoWHB70oQZTTPJOTJpQ/XaCHyDPP86i9vWp44ZMo0XTiLP6wmxEUIjxDPJ47dpa0v7sT8cNc5+IzH8C/Byl2AMeycA/4s8/C8aHlpLnHMzgZsJxV/R3vbkPt97Y3MTkTfve6akIXVG0wRGFZqJ8WKgIXWOhr3RwEUELqJhyUqYfTUx/IDO1gdSh0l7VLvr4+wc+Rnqslpidy0xq6WYjyCrmUDIJxKZAGEixP2Bg4BDgCOAo4CRKdM1ZLYCDwOPEFhBZBWEVcR8FVnN8tRxkiRJkgbODXGSJFW5TcsfKd3FYmTFvTdz3Ky5e7zZxMNPrL6BuBh+SuqzW/JsXtLrV6PAJvL4VXbFr3F326bUOYNuZtPR9IQGQmgEGonFkwnPntMWIbCE2lH/mLRxuGlsfjl5+Doxnpc6RSmEAwlxLjCXmEFD86PAzRB/QyHeya1tj/fnzqhvvoTId4YoVtK+amoqsDJ7HfAO4E3E6LCGUjgEwscJfJyG5nsh/JCecDW3X7MmdZj0Iguv20jvk5H6K3DORYdSVzyRItOAlxPiGcA0fIylgsS1EBYR6QQeoCYs4daW5aT+WYwkSZKkIeE3a5IkVbEdG9awa+uGkl5z0/JH2PrUMsYecPhL3mbCoScQCgVisYpOUAykPS511iUj6dnxNn8MXDKbIX6dmq6vPPOgTOVraiqwvHAqITb2DsDFBooc+uz4224UKeaX0H55FZ6PPATOfsv+1I74DDG+hxALqXNKZBeB3o+fyCigLm1OWTqu9yW8j2KAhub1wD0E7iFyHzF/jBpWE9lKV01GxiSy/GjgXGA2cFLSekm7V998CiG+g5VcBBycOmcY6QG6nnmJ9H5eqQNqU0ZVmNMgnkZN/CINzTcRw39St/o6Fi7sSR0m7aPI7VctB5YDNz/32tfNG8PWnnMI+XnA64CzgSxNonZjOyH+gpjdSIiLaF/wh9RBkiRJkkrHgThJkqrYxhWlOy71+Vbc+2tOfO07X/LtWU0dYycfwZY1/VlkU9G2sDG/ee83G0Ld2y+AMCFpQ3XYCvEb5PHLFX806p8f/GmE2MjKcC5ZHNf7xr5MVsYvsLjtjiFtrA6Bxub3E/kMxEmpYwZoA7AS4krIVj737zGugriSApuItTsJ2Q5ivpNi904Wt+3kv3+gNTUVWLlrNHHCKPLu0RBHUZOPBkZBNhE4gjweQRaOBI6AeAQxHEJ1PWi5H/AaIq8BIGTw7Ox5TZ4sSlIfNDUVWJX9FZGPAueyh4nzKlWkd1DlSSLrCM+8ENYT4zpCWEee9/46yzdTQxe76GIEXTxFFw+2dbOnL2CmNdVxAHXsoo6aESPo7hlBYBKFfH/yMJnAZEKYTMwnE8L+RCYTOJTIUcCo0vwWlJUa4C8I8S/onrKCxtn/Tj7iUjqvWJs6TBpUN12xDfjNMy+f4uy37E/NiDcS4mzgtfj4Swo7gJ8RaGPH9p9z90+3pw6SJEmSlIbfkEmSVMU2PlnC41KfZ+uaJ9i88lHGH3LcS95m/CHHVtFAXLiBB9u6kibEMM/HVYfUNmL8Fj3dX+KOH69LHTMgs5oOout5x6GLWDcAACAASURBVJ9u6zqN8Oz3E/3+4LmPjfHTg1xYfWZeeDzF4mVEZqRO6aMdwIME7u/dTpbdRx33sfCapwfl3tvaisCWZ176ZtasGnYedBi1xSPJs5OAswicTeRkoFo27UkqZ7OaxtKTvYuVfBg4OnVOYiuJ4Y8ElhJYSs5SMpbSw1JGrl4+pFvIer9W/+9fry/tw3sGZrz9IHp6jiaLRxPi0eTZ0YR4DDAVmDLYqWXoUGL4F0LXP9Iwp428+E2fFKFhq/d7vcuBy6mfdyCh6x3A+/Hv7xKIayF8m9rsO4P2/YUkSZKkihbGz7/rugBvGqoLjK4rcMikkUN195IkaYC6tm3m/h9/Jdn1R+93EFPPfx+E3Q/SbF+/iiW/+G6JqxIJ8ULaF1yT7Ppnv2V/autW45MlhsJ2iN8hi19kUdtTqWP65dzmqRRogNC7AQ6OHaR77ibmZ9PZdu8g3V/1aWoqsDL7KPBpynvrzDLgZmK8mRDvpGPaH2F+ZawhO+ONoxk18nRi4SwiZxHi2Qzen4EqEu6mo+XM1BVSRZredCiF7ENE3gtMTJ1TYjshPEiI9wG/J8b76O6+r2KfVLAns5oOoqfmNMhPI3IacBpwPMN9e2kId5Dn32RTXJD8iUHSkJufUf/wXxHiJ+n9M67BtZIY51M3+goWXr4zdYwkSZKk8jHkD3pGIPbpyCRJklRKqY5Lfdb29atZ/8SDTDpq2m7fPmrSFGpGjqZn57A/3aKbHfEXSQvqRryVGB2GG1w7IP47PYUvcPs1a1LH7N38jBlLTiMP50E8D2gAJve+bdC/lv+Mw3D7YOaFx7MqvxLi2alTdmMjxN8Swq+J+c10tP23NaRtaaoGovdopfZnXnrNaDqAYuEvCfkFEF4HjEmVJ2kYq286jVD4GMRmIrWpc0ogBx6AuIhABz3hXg7P//DM1s/hb2HbauDGZ156vW7eGLbuPBWy6YR4HoQZQKUei757MZ5NCFcwkS9TP+dSCjXfYdGVq1JnSUNjfk4nPwL+i4bZTRA+jxvjBkM38DVq839mYdvW1DGSJEmSys+Qb4gbVVfgkEkjhuruJUnSAD1685VsXvWnpA0jxu3HyRf8LSHsfgHC0vZrWb/0/hJXlVr8FR0LXpc0oWH2zRBelbRh+NhJiJcS6j5f1g/qNTUVWM4ZZNl5zzzQ2khkwpBfN3IPdWvOGdIjzYazhtnvgPAtYGzqlOfZTAw/IuMKDi4uqpoBhlmXjKRr56shXkCIb4RwcOqk8uSGOKmPAvVz/oIQPwa8MnXMENsF3AGhHfJ2ars6WXjdxtRR5W1+Rv2Dp5Jl55Ezi8BMYL/UVYNsJ8TLKGRf4NaWZaljpCE165KRdG//Jwh/j1vaB+ou8mwei69J+0xPSZIkSWXNgThJkqpQsXsX9/3oS8Ri+rmFI875H0w+/ozdvm3dY/fyROf1JS4qscDf0t76nWTXP2fuFGryFUAhWcPwsAvi9yD7LB0tK1PHvMgZ761lxIYzybLziPE8CA3AuBJXdBE5g87WB0p83crXcME4GPVvwEWpU55RBG4i8kNifj2L23akDkosUN98JoG/At4JTEkdVD4ciJP26PzzR7Bp3MVk4SNEpqbOGUIPEuPPCNnPGb/pDm64YVfqoAoXaGw+FeIbieFNwHD6e7Yb+AGh8Dnar34sdYw0pOqbzyLQAhyTOqXCXE7tqPd7PKokSZKkvSnNM5A8MVWSpLKyecWjZTEMB7DqvlvY7+hTyQovPhFq/EHHJSgqqUgxTzvxVxvfRnQYbh90Qfg+BT7Lra3ls81iWlMdkzgbwixiOA82TYdsTO/X5SFNU+BTdDgM12/T57wCYhtwbOoUYBkhfp3uwpWVcRRwyUQ6W+8E7uSM9/5fRmx6K4H3AzNTh0kqU01NBVZm72RL/BQhHDYMf27WBfEWYvgpNfnPuLXt8dRBw0ykvfX3wO+Bz3DORYdRW3wTMX8ThFlQ0Uft1gLvJhYvob75GkL+ry8+gl0aJjpb72TWm8+gu+4aCG9InVMBisD/pKP1W6lDJEmSJFUGV3JLklSFNi4rn8cUunds4alH7mDKyQ0velvtqLGMmjiFHRuH7dzFXSxuW5G0IDIn6fUrVzchXE6e/SudVz+ROoZZl4ykZ+e55Pl5hHAecC6RUamznud2Ds6/lDqi4jTMaYb4n5D8/+XDxPAFdo2/irsv7U7cUt56f39agBYa5k4j5h8gMI/Sb2SUVK7qZ7+VleEzwEnEREPqQ2MrhOuI+XWEnTfR8ZMtqYOqxu1XLQe+DXybM5omMCr8BTE0A39J5f7st6b382d2EQ3NbUQ+45ZhDUsLr9tIU9P/YGX4LvCu1DllrEjk7XS2tqQOkSRJklQ5SvJDkeH3RFdJkipXzHM2r/pj6owXWP1QB/sfdwaFupEvetu4g48dxgNx4bqklz/nosOg58WTiNqTHmL4ITXFzyTddnLGG0czesx0iswixPPo3nE2MIJQlg+s74D8HbS1lcdaysoQaJjzrxD/IXHHXcDn6Jh6HczPE7dUno5rHgT+loYL/jdx1NuBjxA4PnWWpETq576KLH6OGM9OnTKIisDNwA8ZU3cdN12xLXVQ1bu7bRNwDXAN9fMOhK63E3gncErisoHKgGYCs2mYfR3F8Elua12SOkoaVL3fJ72HhuYe4H2pc8pSCB+go8VhOEmSJEn9UqnPEpQkSQO0dc1Sil07U2e8QHHXDtYs6eCQl7/6RW8bf/CxrF3SmaCqFELa41Jrik0kOz+z4hQhXEmM/0Jny59KfvVZTWPZFRrIsvMI8TwiZ5HH2sr4vxc+6VFX/dBwwTgYeSXECxJWPEDkY3S23pSwYfjo3ZL0b8ya9R90T3kXxE9BODh1lqQSmdF8Onn8POSvHUbPGP09IV5BqLuaRVeuSh2jl9B5xVrgK8BXaJhzJjG+k8BcYFLisoEIEN5CgQuob76MuvxTLGxbnTpKGkSRjqkfoGHJZOCtqWPKzPdob7k0dYQkSZKkyuNAnCRJVWbT8odTJ+zWU0tu58ATzqVm1JgXvH7MgUeQFWrJi8PslL7IH+m85sHEEc1pr18RcuAaCoVPc+vVpVuteM5F46npbuw9/jTMojueTkYNxEpbv7yIjpO+njqiYsxqOoju7AbgtEQFW4jMp27NN1i4sCdRw/DV+3v6Xc544xWMGv0hIp8AJqbOkjREZl54PMX8M+SxiTJd4dpPWyH+gDx+l8Vt96eOUT91tNwF3MX553+UzePfBuEjEM9InTUABQLvpTu7kMY5X2Z07ZfcTKjhY37OzjdezMjRxwOnpq4pE8voqflY6ghJkiRJlcmBOEmSqsym5eW5qCkvdrP6wVs57MzzX/D6rFDDmAOPYMuq0i/lGlIhpt0Od+6coyCek7Sh/N1Alv1vFl1z35Bf6fzzR7B5XD0hvJrIa6DnTAiF3uG3ypqAe55thMIlHrXZRzMvPJ7u4i+Bo5NcP4ZrKNR8zE0/JXD3T7cDn6fxwu9C8X8T+SAwKnWWpEEy4+0Hk3d/imLxXQyPn7s9DuGb7Cx+/5njOFXJbrhhF3AVcBX1s2cSwkeBN9J7NGklGUuMn2Jb1/tonPMpDi5e9syxk1Jlu/un25k+t5ksvwe/PoSQvZfbr9qcOkOSJElSZRoOP5iTJEl9tH3DKrq2l+/PEtc9+jsOOuU8akaOfsHrxx987PAbiMu4Lun1a2iu3DmrIXc7Wf4JFrXdMnSXmJ/R+OAryMOrCbyGzaERGDWs/p8E/p72qx9LnVER6pvPolj8OXBAya8dWALhA3S0LCz5tatd+9UbgE8wvekbZNlngYtTJ0naB7OaxtKdfZK8+0PA6L3evvz9lsjX6Zz6U4fbh6nOBbcCtzLzwuPpKf5PApdQeR+7BxHjd1mZfZjG5k/Q3vqz1EHSPlt8zcM0NH8K+GLqlKQi19FxzY2pMyRJkiRVrpIMxMXh9MCeJEkVbNOy8twO96y82M2aJZ0cctprXvD6cQcdm6hoqMS1LDp5cdoEj0vdjUeA/0NH67VDcu+9Dza+hsCrYckridl+DIcD1HYncjMdrf+WOqMiNM5+DZHrgDF7ve3gu4xi/kEWt+1IcG09a3HbCuAd1M9ZQIiXAoekTpLUT/Wz30oPXwMOS52yj4rAVWTZl0uyIVfl4dar/wj8LdOb/olC+AAxfIzKO9L7ZCI/paF5IVn2YT9+VfFq13yV7invAk5MnZJMFj6fOkGSJElSZXNDnCRJVWTTsodTJ+zV03+8iyknN1KoG/nc60ZOPJDaUePo3rElYdlgCmk3bTQ2n0DkFcmuX35WEuN8Do3fH9Sjls6ZO4WavHcALvJqisUjhu0A3AttgcK7qOCzXkumYe5rifn1lP44pK3A39DRelWJr6s96Wz5OY0XnkJe/DqBealzJPXBzKajKWbfAv6iwj/r5cA1FAqffmY4StVocdt64DPMevO36B759xA/RJqB/X0xizy/m/rmrzO27lPcdMW21EHSgCxc2EP9nH8kxLbUKUnEcAsdLbenzpAkSZJU2UqzIa4UF5EkSXvUtXUjOzauSZ2xV3n3Lp565HamvOy8F7x+3MHHsv6xexNVDbKQ+LjUGJr9Cg2AjYTweYrFbwzKhqxZs2roOrCekL0B4hsgPw0IVfhb/VE6r34idUTZa5j7WkgyDHcf5LPpaCvvlaHVqvcY1YtpmPMjiN8FDkqdJGk3pjXVMbHwcYrxHyn93+ODKSewgGL2aRZfU/7PnFFpLLxuI/B/OGfu16nJPwm8D6hLXNUfNQQ+xrau2dQ3f5DO1utTB0kD0tnyXzQ0P0I1bokL8QupEyRJkiRVvix1gCRJKo3NKypn9uGpP9xO3tP1gteNO/iYRDWDbis1o36dNqHqj0vdCXyJUDiG9pYv7NMw3Mw5h9M45700zL6W7inrCOEWiP8AvAKqZB/cC91AR+v3UkeUvVTDcCH8B7WjznEYrgJ0tPyEPJ8GuMVPKjczms5jUnYvxH+lcofhIiH+CLJTaW+d6zCcduv2a9bQ0fohYuEEAv9J75G6leRwAtfRMPt6GpuOSB0jDUAkhu+kjkhgBR2tN6aOkCRJklT5PDJVkqQqsWl55cw/FHftYN2jd3HASfXPvW7slKMTFg2qX7Lw8p3Jrt4wdxrk05JdP60iMfyAYuFT3H7V8gHdw/nnj2DzxJlQPJ8Q3kAxTu19QzXOvr3IRvL8Pakjyl797JlpNsOFT9Le8tnSXlP7pPfourfTOOeXxPgfwIjUSVJVm9F0AHn2/8i5OHXKPlpEHj7M4tbfpQ5Rhejd/PvX1Dd/BcK3CPG8vb5PWQkXEMOraWj+NLVrvsrChT2pi6Q+i8UrCdmXqa7Hca7FlfaSJEmSBoEb4iRJqgLFrp1sW1tZJxg+tWQxMf/zYxU1I8cyYvzkhEWDJMbEx6XGOUmvn0rkOoq8jM6Wd/V7GK6x6Qgamv+Ohuafs3n8eshvgvARIlOHqLYyhfAhFretSJ1R1mbMPZUs/ITSDsMVgffQ4TBcxWpvuYIQzoO4KnWKVKUCjXPeS549DBU8DBficiJz6WidyeIWh+HUf52tD9DZMgt4ewV+ThoDfJHuKXdT3zQ9dYzUZ71PkPhN6oySivFHqRMkSZIkDQ8OxEmSVAW2rnmMGPPUGf3SvWMr6/907wteN/bAIxPVDJoespqfp02ouuNSFxHzejpb38JtrUv6/F6NzS+nfvanaGj+HTF7Avgm8BfA6KEKrXDX095yReqIsnbunKPIizcSmVDCq+4ihCaPsR0G2ltuJ49nAXelTpGqyoy5p9LY3E6M3wX2S50zQDsh/gs7dpxIZ2tL6hgNAx2tV9FTexLwNaDStq2dSsg6aGj+JtObKvXIY1WbGBL/DKGkVtN5cnvqCEmSJEnDQzWt2pYkqWqNPfBoCrUjKHbvSp3SL2uXdLDfcacTQu8M/9gpR7Hu0bsTV+2TTtqv3pDs6tPnvIIQj092/VIK3E8e/oHOlr49eNDUVGBVYQZ5fDOBNxE5iuAxqH0T1tET3pe6oqzNmjuZ7vyXEA4u4VU3E8KbaG9ZWMJraigtblvBrEtm0LXz+4Q4N3WONKw1NRVYEf6RPP9HKvtnZ9dSDB/jttalqUM0zNx+1WbgI0xv+j5Z9m1gRuqkfgjA35Flr2V608UsbrsjdZC0R4WwkLxKThAN4acwv7KezSlJkiSpbA35D/VihBir5Bs2SZLKVFY3ksknnsOaB25NndIvXVs3suHx+5h09MsBGFP5G+J+lvTqhTiH4f9l2RME/i/tU6/c6w/Sz3jjaEaNeT0xvpmV4S8h7o8zcAOQf4DbF6xJXVG2pjXV0R1/ApxQwqvuAF5Pe8ttJbymSmHh5TuBC2mYfT+Ez+DWd2nwzWw6mpWFqwixko9VfJI8vpfFC36ZOkTD3OK2+4GZNM55LzF+GRibOqkfTiTLOmiY/Tlq1/4zCxdW2rY7VYvCqofIp3QDtalThl50O5wkSZKkQeMPzyVJqhKTTzyXQt3I1Bn9tvah9t4Je6Bm5FhGjJ+cuGgfZHnao04is5Nef2htJMSPM37zibS3/vAlh+FmzaqhcfYbaWhewMjRTxPjtcDFEPcvbe6w0UbHggWpI8rahMK/QUmHKnJCuIiOVofhhrOOBZ8jhLcBXalTpGGlsfliitnvS/z39uAK4T/oqXmZw3AqqfaWSwmFlwOLUqf0Uw2Ef6L7oNs4t3lq6hhptxYu7CHwaOqMksjpSJ0gSZIkafhwIE6SpCpRqBvJASfVp87ot12b17Fp2cPP/Xps5W6Je5xFbQ8lu3rjnHOAo5Jdf+j0AN+ku+s42hd8mRtu2P25wDOaT6e++Wt0T1lJDD8BmoBRpQwdfuJaarMPpK4oa/XNHyTEvy7pNWP4CO0tPy7pNZVGe8uPnxl07k6dIlW8WW+eSGPzNUR+AIxLnTNAy4i8nvaW9z5znKVUWu1XP0bH1FnA3wO7/5q8bMUzKHAPDc3/E9wZrTIUWZI6oQTW0Nn6p9QRkiRJkoYPB+IkSaoik088m5oRo1Nn9Nvah/68aKCCj01NvB0ub056/SERfwL5KXS0fog7frzuRW9umHMI9bP/nobm+8m5m8CHgQNK3zlMZbyPhdc8nTqjbDXMfiWBr5T4ql+js+UbJb6mUupsvZ4sOhQn7Yv62TPpHvF7InNSp+yD79FTcwqdrTelDlG1m5/T0folImcCv0td008jga/SMPvXzJxzeOoY6QVCVQzEuR1OkiRJ0qByIE6SpCqS1dRxwMkNqTP6bceG1Wxb+wQAY6cclTZmoPL4s4RXDxCG03Gpv4P4KjoWvImOtkf+29sC9XP+kobZN0BcRghfAE5JETm8hStZtOC61BVlq2HOIRAWADUlvOq1dEz9WAmvp3KxaMF1hNCMQ3FS/8yaVUPDnM8Swm+BI1LnDNBKQnY+Ha3vcSucykpn6wPsnHAOxM8CMXVO/4RXkcf7aWxuSl0iPac6NsTdljpAkiRJ0vBSkgdoKuynHpIkDWv7HX8mTy1ZTM/OralT+mXdo3cz+sAjKYwcy4jxk9m1uaIWU21j4paFya7eMKcR4qHJrj94VhLDJ+k86YcwP3/BWxouGEccdQnwQUI83pOOhtRKand+MHVE+ZqfwZIrgcklvOhS2HHJi/5cqHq0t/yYhuY5QCulHcSUKtP0puPozq6GeFbqlIGLvyKLF7Go9anUJdJu3X1pN/BJGprbgSuB/RIX9V1kArCAhuZvsnPCx575b5HSCeFR4nB/lCU+mLpAkiRJ0vDihjhJkqpMVqjlgGmVtyVu07KH6dm1HajIY1N/zQ037Ep3+Yo/LnU7IXyaMXUn0Nly+QuGfhovPIaG5q/CqOUEvkHg+HSZVSJk72LhdRtTZ5St+iX/ALyyhFfMifEddPxkSwmvqXLU0XotMc4BelKnSGWtYc67yLJ7gUodhsuJcT4dJ7+BRW0Ow6n8dbTeQDGcAeHu1CkD8EFGbrrVI1SVXjb8/74PNQ+nTpAkSZI0vJTmmePD/clLkiRVmP2OOZ21999KsWtH6pQ+i3kPGx//PZNPnM6YA45k/aMV9HhKjD9Pdu2mpgIrw9uSXX/f5MAPIXyS9paVL3hL/dxXEYofJhb/Bz7Jo4Tit2m/5sbUFWVr+px6Qpxf0msGvkbHgltLek2Vr84F/0XjnL8mxh+mTpHKzuvmjWFb9/chVvAx8nEtgYvoWPDr1CVSv9zWspTzz29gy4RvEuN7Uuf007kU+R2Nc9/u18FKJm59CkalrhhKO2k/YWnqCEmSJEnDiw8eSpJUhbJCLfsff2bqjH7buPQBAMZOOSptSH+FLN1A3OrCLGBKsusP3ELycCYdre+k45lhuFmXjKSh+d00Nt9HyP8/e3ceJldV53/8c2519ZKdLCRhDZuyKIpxgF6CDSgaURS10p0AKurgOm7jOD8RNe466Dg6Lsiog7KkO+UoIhJls016YZFFZAlEZCdk73SW3qru+f0RRJCQ9FJ1v/feer+e54wPIenzZpSkq+p7z7lBcmeI72ejtFqh/zfriNhqPGOyAn+5or2u8l5N7js/wv2QBJ1tl0r+G9YZQKw0LDlYO4a6kz0Mp1VScJw6GYZDQq1YMajOtvPk3bmSkvNkliTJz5APr1FD6xelpbz+QPR2nQY9YJ1RRvc/5yR4AAAAACiBSD6s4YA4AADiZ/oRx2vDfT3yYXJuVuvfslYD2zaqZvJM1UyeqcFtG62TRuKOZwa6LHgl7brUB+T1SXW3/+qZH6nP7a8g80END5wnaQbfXJoYlgvPVk8+YR9eRqn2q5LmRbjhsAKdY3sdM2Kr6+h/V9N9L5XXa61TAHMNi06SK/5c0izrlHG4UPuFn1I+X7QOAcatu+0SNbXcIa9fS0rSVaROzl+gxvtOVJBbwpXFMLBByfp3ZuSc7rNOAAAAAJA+PNEGAECFqqqdqGmHHGudMWpbH7lHkjRx34ONS0bKX222dXNzlbzeYrb/6GyW00c1MPUlzwzDNbacqMaWNgXBw5L/lORn2CZWMK/PqzOfoHuKI9aUa5LcByLe9SKtar894j2RGEtDVQ22ymuNdQlgqnHR++Tc9UruMNywvN6lrvZPMgyHVOls/5OC7AmS7rBOGYNXKwzu3PX9HxAhrzQPYT5oHQAAAAAgfRiIAwCggs18cb3knHXGqGx9ZNe1qRNmHmBcMkKW16UOz35NAobIivL6vsLwCHW2f1uS1NS6RE2tN0vqkdSiaK+gxD9y6tb+4desM2Jr4cIa+eBHkqL8zXS7fPWXItwPSdRxZa9CvUlSn3UKELnm5io1tv5Acj+QlLXOGaNe+eB16m7/X+sQoCxWXbZW2fAkSSusU8ZgP/ngRjW2vts6BBUkSPVAnN2p+gAAAABSi4E4AAAqWM2UGZo89wjrjFEZ3LZJ/VvWqm7m/tYpI+DXq7PtFrv9XdyvS10pp/nqbv+gqpRR06ILVLv1YXl/ubw/3joOkqRtUuYcTqXZg77Jn5X04mg39d9S96Xro90TiXRT+31yOktSaJ0CRKZ58UwNz75O8u+zThmHh1RUg7qX3WgdApRVR367suvOkNfF1iljkJX8j9S46EJpKe+xo/y8NlknlI3zDMQBAAAAKDlerAMAUOFmHtVgnTBqWx+5WzWTZihTXWedshfBCkneZOuFC2vk/JtN9t4b5x+X12J1tb9KktTU8hOFwaPy7ouS9rONw3M4/1F1XvFX64zYqs8dLrlPRLup26RC9hvR7olE62y/Ws5/zjoDiER97qUaDm+R1GydMnauR0F4gm5qv8+6BIhER0dB3e3vlfz5snrtNC7uE2q895c67ZyJ1iVIOed2WCeUjQ/WWicAAAAASB8G4gAAqHATZx2kuhlJOG3t77Y+eo8kqW5GzGenvK4227tv6mvlNdVs/90blNOX5QeOVuAG1dDaIa875XWupFrrOPwj/0t1Lv+JdUWsBcE3JFVHuqcLv6qbL+cKTIxO59FfkXSzdQZQVk2tZyoIuiUdYp0ydm65srWnaFU+zdfiAbvXtfyrcv4sSUPWKaPnztCOoU6d1HqgdQlSzPv0DsQFXJkKAAAAoPSqyr2Bl+R9Ah/uAwCggsw44ng9vumX1hkjNryzTzs3PaEJMw7Q9rUPWue8kGEVM9ea7e7VKme2+274qxS4z8v7k6W6u+T9vHj14R88pWzmPOuIWGtYfIoUviniXdepasL3It4TqbA0VJB7l8LgDkU9xAmUn1Njy2fk/VIpyd9duIvU1fYBJfKELKBEOpcvU+OirZL7PyXvgZmXq+hvUX3uTerJ32IdgzTyOxP9x9wL89ox5SnrCAAAAADpwwlxAABAUw48SlU1E6wzRqXvidWqm3GAdcYe+FVmpzjV5+rk/BtN9n6++yX9s5weVqg/yLtvSJpn3IS98u9Wx7KN1hWxlctl5MJvRb6v00/VcclA5PsiHVbl75XzX7TOAEpq/nlZNbZcJunzSvSUgP+WutreL4bhAKlr+TVScIakndYpYzBHQdChxkWLrEOQRkFaT4jbpNsuHraOAAAAAJA+DMQBAAC5IKNph7zcOmNU+h67b9eVqS6mn3169xuzvV3mdEmTzPbfpU/SD+V1i6Tvy7sPx6AJI+H0g10fROIFPRG8XdKxke/rQ66wxfhUrf+apDutM4CSqM/Vqa73l5KWWKeMi9OX1bX849YZQKx0LbtOQfh6SdutU8agTnJtamz5rHUIUsal9srUXusAAAAAAOnEQBwAAJAk7XP4/PgOl+3G0PYtGt7Rq5rJM6xTdi/Q1WZ7O99qtrfk5XW7pNslvUdO50jKGvZgdB5Q/85PWEfE2vzzsnL6jMHOXerK32+wL9Kko6Og0L1LUsE6BRiXxjMmy2VWyLvTrVPGx31ane0XWFcAsbQq/weF7rXa9aBN0jhJn1djy/9IS3n//Ox57QAAIABJREFUHaXhlc6BOJ/If8cBAAAAJAAvyAEAgCSpeuI0TZpzmHXGqPQ9tlp1M2N4barXGnW2P2Cyd3NukqTXm+wteclvkNNxkpolZYw6MDYFeZ2t236dxOupolO79R2SDol8X68fR74n0qmn7Q7JXWidAYzZ8WfOkOpulPOvsk4Zp4+pq+0r1hFArPW0dcvr1ZK2WKeM0XvUdG+7jslVW4cgBdJ6QpxjIA4AAABAeUQyEOdZLBaLxWIlYu1z+HwlSd/j96pu+v7WGc/nZHddaiFzhqQ6o92d5Pbd9Z9IHvcFdbffal0Ra/PPy0qyOMlnmyZVLzfYF2k1ZevnJXHiIJKnPre/stUrJb3SOmUcvOTfr672/7IOARKhu/1W+fAUJXUozru3aZq7WqedM9E6BQnng3QOxMkzEAcAAACgLDghDgCAtPBe/ZufGNeXmDz3CGUnTC1RUPkN9m1SJltrnfF8ztsNxHm/yGxvJJjr0X5FTqnZm5red0o6OPqN3a907aUp/QAMJlasGJR0vnUGMCoNLYcpCDolHW2dMk4fV9fyi6wjgETpzt8pH54uKaEnGbvXaMfQDarPTbcuQYJ5P2CdUB4BA3EAAAAAyiKagTjr425YLBaLxaqANdC7Xk/eerUU+rF/HTntc+grlCSDfRsVVNVYZzzbNvVP+4PJzruuS32tyd5Isu3y/hzl80XrkJhzkvs3m63D6232Rap1tf9CcrdZZwAj0tDyEjl1SppnnTJOX+BkOGCMuvM9Cv1bJA1Zp4zRCQqClWps3c86BAmVcel8veY5IQ4AAABAeXBCHAAAKbFj/cMa7F2v3ofuHNfXmXbocXJBcr5F2Pb4faqbMdc649mu020XD5vsPJR5naQYHpmHmPuYutsftI6IvaaW0+V0hMnehewNJvsi/ZyzuAIYGJ2m1hPk9AdJc6xTxsX576ir/XPWGUCi9Sz/neTPkRRap4zRMZLvUn3ucOsQJFGxYF1QFk4MxAEAAAAoi+R82g0AAPZox/q/SpLW392hsDD2h+araidq0lybmY+xGNi6XpnqCdYZz7bCcO+3GO6NZPqVutp/ZB2RCKE+arTzA7r58seN9kbadS77reQ6rTOAF9Sw+BR5f72kpF8z+DN1Lrf6cwRIl67lyyV9wDpjHOYpCDrV1PIy6xAkjUvpQJwbtE4AAAAAkE6RDMTF4BY5FovFYrFSvUIfauf6xyRJhYHt2ri6e1xfb+ohxypJhvu3WSf8Xcb9zmTfY3LVcv50k72RVOsUhP9sHZEIu67qO9VkbydOh0N5+fDT1gnAbjW2niEXXiNpknXKOP1K2XXv1q5vswGUQlf7DyWX5D+/ZsurQw25eusQJIgP0jkQpzCl/1wAAAAArHFCHAAAKTCw6UmFhb8/VLvp/h4N7xz7kNikOS+K26lre1Toj8kNG073aWXbYyZ7TwtOlTTFZG8kk3fv1qr8BuuMhPgXs51Dz0Acyqt7+UpJ11pnAM9Rv+i1ks9LqrFOGR9/o6b0taijgw/7gVLravuKnP7TOmMcpskFv1V97njrECSEV9E6oTxSevIdAAAAAHMMxAEAkAI71j/0nL/2xYI2/HnsMxQuCDR13jHjzYrM8I6tckEMvq3xsjkdTpKcO9NsbyTRD9Xd9hvriEQ47ZyJclpitn/GrzTbG5XD6wLrBOAZ9a0NCtwvJFVbp4zTvSpkz9SKFVwFB5RL51H/JulX1hnjMEWZ4Fo1tr7SOgQJ4IvpHBzzDMQBAAAAKI8YfHIMAADGa8e6h573Y1sfvVsDW9aO+WtOnfey8SRFzoehdYLkAqOBuKWBfPgmm72ROF5rNLH6X60zEmPn0Ftldl2f28QpfohEd/utkv+tdQagBYuPVeB/Iyk5RxXv3ka5zBt18+UxOcYYSKulobLh2ZL+ZF0yZl5TJX+tFrS8wjoFcZfWK1N9Sv+5AAAAAFhjIA4AgITzxYL6Nz2xm7/hte7O68b8dWunzVXNtH3HUVZxBlUs/MFk58bVjZLjvyyMREE+PFvXXrrDOiQxvM413P0Bw71Raby7yDoBFa6h5TCF4e8kTbNOGachufBMdV7xV+sQoCJ05LfLhWdIWmedMg77KNR1asi93DoEMebTOhCntP5zAQAAADBWVfYdvJf3vuzbAABQqXZseFQ+3P37hzs3PKK+x1dr8v4vHtPXnnrwsVrfe/148irJKvXk+222Ds+UnM3WSBbvv6Se/C3WGYlxUu4QFfUqwwIG4hCd/cOrtdY9Lu8OsE5BBWps3U/y10maY50yfv48deY7rSuAitKZf1QNuTPlgt9LqrHOGaPpcpnrtWDxKVq17C7rGMRRoZDO8w04IQ4AAABAeaTxFRQAABVl57o9Hz6x4a4bxnyd6JSDXirn+HZhZJzRdamS5M602xsJcrOq13/ZOiJRisE5sp02ZSAO0cnniwr1I+sMVKD63HTJXyvpEOuUcXP6D3Ut/6l1BlCRuvM98v491hnj42coDK9X4+JjrEsQQ1kVrRPKwzEQBwAAAKAsyv4Jt2exWCwWi1XWtWP9w9qToe2bteXBW8f0tTO1EzVxzmF7/Pp4Wli0GYirbz1O0jyTvZEkOxSGZ6ujgw8bRuetprt7BuIQMe9/JKX1w1bEUnNukoLgGklpGP74lTqP+pR1BFDRupdfJulr1hnjNEsq3qgTW46yDgEi4fzYnuAEAAAAgL3gyBcAABIsHB7QQO9Te/15m+5dpeLQ2G7znHxQGj6fLLsn1ZP/s8nOQcjpcNg75z6unvxfrDMSpWnJoZKONW3IOAbiEK2e/BOSrrbOQIVYuLBGQ8GVkk6wThk3pz9rYvVZ0lI+1AesdbWfL+d/Y50xPm5fZXSj6nOHW5cAZRc6b50AAAAAIJ0YiAMAIMF2rn9U8nt/77A4NKBN93aOaY9J+x0hl6ka06+tINfabe3eYrc3EuJX6my72DoieQoxGDYtrLUuQAVywUXWCagAuVxGfZOXyelU65QS2C4f5nTtpTusQwBIkryK/u2SHrMOGac5CoLfqeGcfa1DgPJiIA4AAABAeUQzEGd9lxyLxWKxWCldOzc+opHqffBWDW3bPOo9gkyNJs4+dMT7VCQvm+tST1pyhNJxxRjK50kND73bOiKRvLMfiNs5wHAFote57HeSHrLOQKo5rQ3+R4rB77Ol4Px56srfb50B4Fl68pvlwxZJBeuUcTpUbvgaNecmWYcAZeNCb50AAAAAIJ04IQ4AgATr3zjyh959GGrDXTeMaZ/JBxw9pl9XIUIVhq4z2bkQhxOsEGOhfHCObvnlJuuQxFmQmyWp3rgi1G2/3mncgMrkJfe/1hFIscZFn5fXudYZJfJDdS5fZh0BYDe68z2S+5R1xvj5+RoO/k/zz8talwBl4TghDgAAAEB5MBAHAEBChcVhDW55alS/ZvuT96t/w6Oj3mvS3CPkAq5NfQG3mw0cOa5LxR54f6G6l91onZFIxeBU2b9W4nQ42AmLV1onIKUaWt8muQusM0rkTmXrPmodAWAPutq+KenX1hklcJpqtv5YkrMOAUqPgTgAAAAA5RHJhzwxuFGOxWKxWKzUrf5Nj8v7UKO1/q7r5L0f1V4uW6OJc7g2dbec0XWpja37STreZG8kwa0anPYZ64jEcjrVOkEMxMFST/7P4tpUlFpTy8vk/CVKx0BHn8Iwp45LBqxDAOyRVxi+U9LonwqLG6dz1NTyNesMGAqzafjzEwAAAAAiY33qAQAAGKP+jWN7T39gy1r1PXb3qH/dJK5N3T3vbAbinM5UOj5QRultl9di3XbxsHVIgp1iHSBpu3UAKpzXVdYJSJHmxTPldaWkidYpJeH0HvXk/2KdAWAEevKbJbVISv73xl6fVEPrh60zgJIKQ2+dAAAAACCdGIgDACCh+jc8NuZfu/HuG+WLhVH9Gq5N3a0+ZZ/qMdk59Gea7IsE8B9Sd/uD1hWJ1bDkYElxOBKTgTjYcv5X1glIiebmKg35n0uaZ51SGu4idbbnrSsAjEJX+01y+qx1Rkk4/y01LlpknQGUjOPKVAAAAADlwafaAAAkkA9D9W9+fMy/vrBzm7Y80KPpRy0Y8a8Jnr42dfuTD4x539TxulEdHaObLCyF+tx0Ob0q8n0Rf94tU3f7T60zkq0Yh9PhJKeMdQIqXHb9Kg3P3iJpH+sUJNzQ7G/L+bR83/KgJmY/YR0BYAzmhhfqyeDNkk6wThmnQHI/04LcOq3K/8E6Bhg3BuIA7E1zbpKGg5fIuUPlNVvyk+VdVk5D8r5X8k9K/kFt1b26Jz9knQsAAOIjkoE4z0saAABKamDL2lGf8PaPNt/foymHHKdMzaQR/5pJ+x/FQNyzOW9zXWrg3igebMDzPaRi5n3WEYnn1GCdIEnyKblWEMnV0VFQY8s1ks6yTkGCNbWeJ+8/YJ1RIqFc+E5de+kO6xAAY5DPF3Viy7nK6HZJtdY541SjMPi5Tmz9J93U9rB1DDA+XJkKYDcWLD5WYbFFcq/XsI6VFDznw+a/zdK6v/0fJ03TdjW0dMjpd8pkfqeVV6yJPhwAAMQJV6YCAJBA/RseGffXCAtD2nTP6B4onzj3RVyb+mwZo4E4Oa5LxT8qyodn6ebL+6xDUuCfrAOeNsE6AJAT16Zi7JpyTfL+u9YZJeP0X+rMd1pnABiHm9rvk1Jydao0Uxn/K512Dg9RVIqw6KwTyiLkhDgAz9K4+Bg1tlynMPyT5M6X9HKN/LPsSXJ6g6T/VrH4gBpaHlDjovdp4cKa8gUDAIA4YyAOAIAE6t/4WEm+ztaH79Tg1vUj/vlBtkYTZh9akr0Tz2uNVuYfinzfXR94nBb5vog593l153usKxJv/hsnSDrGOuNpfLgJe77/t5K4cgajd1LrgfLu/yRlrVNKZLWq6j5tHQGgBLqO+qbk0vJ987HaOXiJnj4fB0gkrkwFIEnzc1PV0PJfUninpFeX5Gs6HSG5H6hvyoNqbPno0+/5AACAChLRQJxnsVgsFotVquVD9W8qzUCcvNfGu64b1f6TDziyNHsnnfPXmuy7ffB1kupM9kZcrVTXkV+2jkiFCXXHKT7XEfNGLex1XbVN0q3WGUiY+lydCv5Kye1rnVIiRYXhO9RxyYB1CIBSWBpKxXMlpePfae/epsbWC6wzgLHjylSg4jW0/JNqg/vl9BGV5z2Z/SV9S7V1D6mxtaUMXx8AAMQUJ8QBAJAwQ9s2KRwu3Xv3O9c/pB1P/WXEP59rU5/mZHNdquO6VDxHrzLu7F0f7GHcQheX61IlKcO1HogFr5usE5AwmeAncnqFdUbpuP9QT/4W6woAJdSVv1/Op2iIzH9eDS1vsq4AxoQT4oDK1ti6QE43SJpd/s3cvpJvU2PLZZqfm1r+/QAAgDUG4gAASJiBzY+X/Gtu/PMN8n5k8zS7rk09pOQNCTOsKv/7yHedf15WTm+IfF/El3f/rJVtJToyEpJ7uXXBc2yeNs06AZAcA3EYucaWD8mr1TqjhO5Wb3GpdQSAMug8+lspujrVyelSNS4+xjoEGLWQgTigYjW0nCb530qaHPHOZ6k2+JMaFp0U8b4AACBikQzExeByORaLxWKxUrP6Nz+pUhvq26itD9054oZJBxxV8oaE6VJHfnvku1b3niIvnmDE3/xY3W0/t45IFad4/eaW9fOsEwAVMwzEYWQaWl4i6ULrjBLyCt17dU9+yDoEQDksDeX8+yUVrUtKZLIUXqX63HTrEGB0uDIVqEgLFh8rp6skTTAqOFjO/V5NrR802h8AAESAE+IAAEiYwS1ry/J1N9/7B4XDgyP6uVyb6q4z2TbgulQ8435NrP6IdUTqeH+kdcJzhYdaFwC6+fLHJT1hnYGYW7iwRoGukFRrnVIyTpeop63bOgNAGXW2/0nSD6wzSuhQuWC5crmMdQjKwIfOOqEsuDIVqDzzz8sqDH8qqca4JJD331Vj6yeMOwAAQJlEMxBnfZQOi8VisVgpWb5Q0NDW9SqH4uBObVndNaKOoKrSr031N0a/59JA0pui3xcxNKTQLda1l+6wDkmVxtb9JE2xzngOH1Tyb7SIl5utAxBzW6d8XV4vtc4ooS1y4b9bRwCIwEB4geTL8yLbgtOpWht83joDGDEG4oDKU7v1Akkvt874O3+hGls/Y10BAABKjxPiAABIkMHetfI+LNvX7/3LrRresXVEP3fifjE7SCk6fdovvDXyXRfcWy9pTuT7In6cP189bXdYZ6SOdzH8Tc0zEIe44NpUvLD6Ra+V04etM0rLn69V+Q3WFQAicFt+q3yQrgFYr0+pcdHJ1hnAiDiuTAUqSlPLyySdb53xfP4Lalz0BesKAABQWgzEAQCQIAObnyzr1/dhQZvuGdnhZxNnHya5dN7YsUdeK5XPF6Pf170l8j0RP06/U+fy/7TOSCVXfJF1wvN4MRCHePCeE+Kwe82LZypwl0hK0zeFf1TX0RdbRwCIUHfbT+WUpiuSA0mXa0FulnUIsFdFTogDKkqopZKqrDN2z31GTS056woAAFA6ZR+Ii8HtciwWi8VipWYNbCnvQJwkbX/8Xg1sfnKvLUHtRNVMrcADy5wzuC5VkteZJvsiRvx6DQfv0K5/BVFy7mDrgudxOsw6AZAkDfb/UVLBOgMxNFz8sdJ1gm0oufdLS8t3JDOAOPIKww9Kiv7Bp7JxcxUGlyhdA8tII65MBSpHY+t+cjrDOmOPvH6khhbeiwEAICU4IQ4AgAQZLPMJcX+z6Z7fj+jnTZh7eJlLYihwN0S+567rBDgpCufq5mXrrCNS7EDrgN2Yp+bFM60jAN32652S7rfOQMw0Lnqf5OL9gdaouYvV1fZH6woABrrzd0r6gXVGib1eDS0fs45AiWSzDDcCSDanMxX/z6WnSFquhQtrrEMAAMD4xf0bDwAA8LTi4E4N7+yNZK/+DQ+rf8PDe/15E+ZU3EDcBq1a9ufId/XiutRK5/x31LX8GuuMVPPuAOuE3SqEJ1onAE/7i3UAYqR+8ZGS+6Z1RoltUVj8tHUEAEPZwc9I2mKdUVJOX1Vj6yutM4AX5EJOiAMqhQ9PtU4YEadXaOuUr1tnAACA8WMgDgCAhBiM4LrUZxvJKXG10+YqUzMhgpq4cL+XxXWVjutSK9xdmrztk9YRqed8HE+IkyQG4hAPnoE4PO2YXLWC8ApJ6fom0PuvqSe/2ToDgKGOK3vlXNo+AK+WfJsaz5hsHQLsHlemApXDvcK6YMScPqiTctzWAQBAwjEQBwBAQgz2PhXtfpuf1I61e7kdzTlN2PewaIJiwd8Y+Zb1ucPl9dLI90Vc9KuoVq1YMWgdknJO0v7WEbvldYJ1AiBJcp6BOOwyLfiSpOOsM0rK+cdVPeE71hkAYqBY/I6kJ6wzSuwwqe4i6whgt0IG4oCKcEyuWtJB1hmjUKVC5gLrCAAAMD7lH4jzkmexWCwWizXuNbh1Xdn/2P5Hm+/pkA/9HrvqKuna1Ewm+oG4IOB0uIrmP66b2u+zrki9piXTJNVYZ7yA46WlPMgEe44T4iCpcdHJkj5hnVEGn1PHJQPWEQBioCffL+e+YJ1RBkvU1PJ26wjgebgyFagM02tmaNfDiMnh/NvV0FJJT4IDAJA6fLACAEBCDG3dEP2efRu17bG79/hzJsw+VHLJej9jjB7TyivWRL+tYyCuUjn/c3Ut5ySHaOxjHbAHU9Rw39HWEYAKAQNxla75nbWSu1hJ+yBr7+7RXP9T6wgAMVL11E8kPWCdUXJe39aCs+daZwDPxQlxQEUYLsT1IcQ9qZITp8QBAJBgEQ3EeRaLxWKxWONYPhzW8I7NsrBl9R/kw8ILtgXZGtVOP8CkLVou+tPhFpw9V/InRr4v4uAh9fv3WEdUDFecZp2wZ/711gWAbjryUUlD1hkwNLzzfEkpPBrYna98vmhdASBGOjoK8u7T1hllME3hEA/cJFVYTNtA+i4u8NYJACLgMwXrhDFqUX2uzjoCAACMDSfEAQCQAEN9GyRv8x5hYcdWbXv4jj3+nAmVcG2q0w2R7xkOn6H0ncKCvRtWGLbqtvxW65CKUQziPRDngjdbJwDS0lDSQ9YVMNKYe7Hk/t06o/Rcp7rarrKuABBD3W0/l/RH64zSc2eoadFi6wrgGcUiA3FAJajaltT3uOqUCU61jgAAAGPDQBwAAAlgcV3qs225v0u+OPyCf3/C7MMirDFSLEZ/Qpzzb4x8T8SAO189+VusKyqKC+M9ECd/gppzc6wrADnPtakVK/iBpGrripILlcIhPwAlE7j/Z51QFj74bzWcs691BiBJclyZClSErqu2SeqzzhgTrzdYJwAAgLGpimITXtEAADA+Q9vWm+5fHNih3r/cqmkvbtjt389O3VdVdVNU6E/m+xoj8IB68k9EumN9rk7enRLpnoiDa9TV9k3riIrjNTXmZzEGKmTOkHSxdQgqnNefJDfyq7y97y1jDaLS1HqOvD/ZOqMMrlFPW7d1BIAYW9V2gxpbVko6yTqltPwMuaHvSlpkXQJwZSpQSdwayc+3rhgDBuIAAEioSAbiAADA+Az12p4QJ0lb19ykKYe+QkG2drd/v27OYdr20J6vVk0si+tSA3eypLrI94WlJ5QN3iGeJ4me00TrhL3y/s1iIA7WupZ/WtKnrTMQoaYl+8gX0zmoHbovWycASISvKXUDcZKknBpb3qKu9l9Yh6DCOa5MBSqG0+3ySuJA3P5qanmZOtv/ZB0CAABGJ5orUz2LxWKxWKzxLOsT4iQpHB5Q7/09L9g4Yd/DTfvKKnQG16U6nj6sLEV5v0QdyzZah1Qml7UuGIFTdMJZU6wjAFSa8OuSZllXlEEHp8MBGJGu9hWS0voB+PdVn5tuHYEKxwlxQCVZYR0wZt690joBAACMXjQDcQAAYMzCoZ0qDuywzpAk9f311hdsqdt3nlyQysNnvQqDvzfY9fTI94SlL6h7+UrriIrlwyQMxNUoUzjLOgJABalvbZD377HOKAvnOR0OwMg5/3XrhDKZrSDzbesIjJAPnXVCWRQdA3FApZiQvVbSoHXG2PgXWxcAAIDRYyAOAICYG97Ra53wDF8sqPf+Vbv9ey6TVe3MAyMuisSfdMsvN0W6Y0PLSyQdFOmesPR7dR31JeuIihao2jphRAK93zoBQIVobq5Sxl8kKX0fvjt3izqXX2+dASBB5vrlkv5qnVEe/mzVL3qtdQUqGFemApXj2kt3SIr+Fo5ScErlm94AAKRdJANxMbhpjsVisVisxK7hnVsVJ9seuVPDO3p321o3+wjTtrJwBm/UBOK61MqxQUH2LGlpaB1S0XwirkyVvF6qBYsarTMAVIDh2R+T10utM8rCi9PhAIxOPl+U/IXWGWUTuG9r/nnJ+H4Y6cOVqUBl8fq1dcKYeHHFOAAACcQJcQAAxFxhZ3xOiJMkH4bqXb37mx3r9p0XbUwUvL8h+j0d16VWBi8XvF2rLltrHYKEDMRJUug+YJ0AIOWacgdJ+px1Rlk4/Vldbcn8EA6ArSnb/lfSU9YZZfJi1fZ9xDoCFYoT4oDKkgl/LmmHdcaoeVdjnQAAAEaPgTgAAGKuEKMrU/9m++P3aKhvw/N+PDt5pjI1kwyKyqagrN/99F+51OemS74+0j1hw+lCdS77rXUGJDmfpBP63qYFuVnWEQBSzAfflTTROqM8/Fe162BjABidFSsG5fRt64zy8Z9Vc26OdQUAIOVW5TdI7jvWGaPnC9YFAABg9BiIAwAg5uJ2QpwkyXv13tex279VO+vgaFvKyekWdeS3R7pnJvM6SZlI94SFm1S17tPWEXha6IetE0ahWqF7j3UEgJRqaDlN0hutM8rkIc31y60jACRYf/gDSdG+PozOZA0HX7eOwB6EVc46oSyKjkF1oNK44EI5bbXOGJXAb7FOAAAAo8dAHAAAMRfHE+IkaefaNRrc/Pjzfrxu1rzoY8oldDdGvqf3XJeafr3ymVZ1dPB0aVy4IEkDcZLcx9WcS9VxnABiwcnpa9YRZfQD5fNF6wgACXZbfquky60zyugcNeQ4rRzRcgEDcUCl6bxii7z7pnXGqHg9Zp0AAABGr6rcG3hJnpc0AACMjfcq9PdZV7ygLfeu1OzGJc/5sZqZ82xiysGF0Q7E5XIZPanXRbonoufcu9R1xSPWGXiOIeuAUZqp4cyHJX3FOgRAijQtapXXcdYZZdKvMPyxdQSAFAiC7ysM32udUSZOLviOtPQEaWloHYMK4Yp8egRUomzxWyq48+TdAdYpI+PutS4AAACjxwlxAADEWHFoh3wY34MsBjY+rMEtTzznx6omTFXVhGlGRSU1qOyEnkh3XKt6SdMj3RMR899TZ9svrSvwD1yirkx9mv+E5uemWlcASIn552Xl3RetM8rGu2XqyW+2zgCQAquW3SW5TuuMMnqlGu97l3UEKojjylSgInXktyv0iyQl5P2YINr3iAEAQEmU/YQ4ycuL1zQAAIxFcWjAOmGvtj7QqVknLHrOj9XOmqftj9xpVFQyt6jjkmj/C/AB16Wm252asu1frSOwG6GG5KwjRm0f1WU+JmmpdQiAFKjrO09eh1lnlI3Xd60TAKSIC78v75qsM8roK2p+88/VcWWvdQgqQIErU4GK1Z3vUWPLJyV9yzplj5x/XJ3L7rHOAAAAo8cJcQAAxFhYiP9AXP9TD2po67rn/FjtzIONakrIaaXBngzEpdd2ZTKLtGLFoHUIdiPQDuuEMfH+Y6rPcaokgPFpzk2S95+xzigf16OetjusKwCkyBb/f5LW7fXnJdcsFWpS/OcCYoUrU4HK1tX+X3L+59YZe+TVZp0AAADGhoE4AABizA8nY3am74Hu5/x1zax5NiGlFEY8ENeUO0heL410T0TH+/dr5RVrrDPwAkJttU4YoynKBJ+2jgCQcMPBxyXNts4oG8fpcABK7J78kOR/bJ09J2I9AAAgAElEQVRRVl4fUH1uf+sMPIsPk3em9Ug4TogDKp4feJeku6wzXkBBmaqLrSMAAMDYMBAHAECMhQkZiNu59n4Nb9v0zF9naiYoO2WWYdG4FVQddu/9p5VQyHWpKXaJupdfZh2BPciEyb0OyuvDWrD4WOsMAAm1IDdL0iesM8roKfVPyVtHAEihTHCRpKJ1RhnVKshcYB2BCuAcA3FApeu6aptcplnO3WKdshvf5QFXAACSi4E4AABiLCkDcfJefWueOz9WO3OeTUtp3KGO/PZIdww8A3Fp5HSfJlZ/yDoDe1FM7AlxklSl0F8kKZ0nRgAor2LwaUmTrTPKxrsf6baLh60zAKTQyrbHJF1tnVFe/t06KXeIdQVSrsiVqQAkdV6xRX7nq+XdH6xT/s6v10C41LoCAACMXVUUm3he0gAAMCZhISEDcZJ2PH6Pprx4gaomTJMk1cw8WNv+eqtx1Rj5iK9Lrc/VybtTIt0TUdghF75N1166wzoEexFmepVJ8osWX6/GlvPU1f5D6xIACXJi6zw5/37rjDLyqir+xDoCQJq5n0j+TdYVZZRVMVgq6R3WIUgxrkwF8DddV21TfW6hnPuF5F5nnSMF5+u2tiQ/QAkAQMXjhDgAAGLMBZHMrpeG99q2pueZv6yZcZDkEnpgkXPRDsS5zCmS6iLdE+Xn/fu0Kn+vdQZGoHYguVem/t1X1XDOvtYRABIkoy9KqrbOKKNOrcw/ZB0BIMUGpqyQ3CbrjDI7Wye2HGUdgRTjylQAz9aT71evf5Oc/45xyS/U1cbDNQAAJBwDcQAAxFiQrbVOGJUdj9+tcHhAkhRka1Q9ba5x0Zh4uWBVpDtyXWoa/VDdyy+zjsAIdVzZKyk5R3Lu3j5yQ/9pHQEgIRYsPlbyS6wzysv91LoAQMrddvGwvG+3ziizQBl93joCkrJhQp843AvHlakA/sE9+SF1Lv+IpNdLWmdQcL2m9C2RxO9PAAAkHANxAADEmEvYQJwvFrTj0bue+evamfPsYsbK6W51XrEl0j29GIhLFXebpvR9xLoCo7bWOqAEzlJD69usIwAkgC9+Rel+T6hfhUzeOgJAJQgr4SGYt6kh93LrCKQUV6YCeCFd7Svkq4+VdE2Eu96sbHimVqxI+kOTAABA6X7zEwCAxEvaCXGStP3h2yW/6/3MmpkHG9eMgffRXpdan3uppIMi3RPl1KtMMccbZ4n0hHVASTj/P2pYksDffAFEpr71OHmX7mF8767UzZf3WWcAqADd+R5Jf7HOKDOnwH3JOgIpVeDKVAB70H3penW1ny6nd6j8f97+QmH4enXkt5d5HwAAEBEG4gAAiLFMdfIG4go7tmhgw18lSTXT95Nc4m71iHYgLhOk+wPpyuLl/Nu1Mv+QdQjGwqVjIE6aJhcuU3NzlXUIgJgK/CesE8oucD+zTgBQQZy73Dqh7Lw7XY0tJ1pnIIW4MhXASHS2/0z7hUc+PRj3QGm/uF8v73Lqan+revKbS/u1AQCApbJ/SOLFJesAAIxVZuI+cpkq+WLBOmVUtj10m2r2PUzKVKt6yhwNbU3QTYTZiE+I83pDpPuhfJwuVOfyX1tnYKzCJ6TEDfC+AF+vwuylki6wLgEQM025g+S1yDqjvPxazS1cZ10BoIIUi5cpCD5nnVF+/pOS3mJdAQCoUPl8UdLPpKWXqeneFklnybtTJNWN8SsOyOtnKgyfr1t+ual0ocAI1OcOVxBcPapf4/031b38f8pUBACpxAlxAADEmQtUM/MQ64pRG1j/VxV29kqSqmccYFwzCl5r1JF/KrL96nPTJfGUfTqs1NzwfOsIjIN3j1snlJTXp9S46GTrDAAx44OPKYKHI41d/vSHZQAQjZ78XyTXY51Rfu5Nqs8dbl2BlAkCzlMAMEpLQ3UuX6bO5W9Qtm66pNdL+q681mjvZ7RskPQrOfdeheH+6m5/L8NwMLHr1pgXj2oFboZNLAAkV/nfBOWIOAAAxmXSIfM1sG6NdcboeK+dj92tKS9qUs30A7T9r7daF42Mi/q61Mzr5H0m0j1RDusUZFuVv4wP35PMub+k7IVLIOlynXDW8br58nQN+wEYm+Y3T9Ow3mOdUXZB5lLrBAAVyPnL5FVvnVFmgVzwMUkftA6pSGGVk0LritJzDMQBGIeOSwYkrXh6SfW5OqnqYLnivlIwWfJV8n5Azm2Wqh9R96XrTXuBv/F6vXUCAFSCtD8VDABA4tXOOkQ1M+dpcOPD1imj0v/EfZryoiZVTz/QOmXkoh6I8/70SPdDORQlv1irLkvQvcDYrdA9oNR9FuPmqqrwGzWe0aSuq7ZZ1wAwNlz9fkmTrDPKymuNVi27yzoDQAVy2V/KD39XkrNOKSund6o+9xn15DdbpyAlCoW0vQgDYKkn3y9p9dMLiKf5b5wg6VXWGQBQCbgyFQCABJh61MmSS9b76sPbN2p420ZlaiaqauI+1jkjU3DRDcTlchlJr4tsP5SJ+6y6lv/eugIlMDT5QUkF64wyOFaq+7mam3kYCqhkCxfWSO7D1hllF+iX1gkAKtSuB2Rusc6IwARl3AesI5AinBAHAKg0dXWnSqqxzgCAShDJhyI+XVcPAQAQuey02aqbe6T6n7zPOmVUdq69T1MmN6l6xoEq7NhinbM3j+qmtocj222t6iVNj2w/lJ7zv1Fn+1etM1Ait108rIaWh+R0hHVKGZym4dk/kPTP1iEAjPRNPVvyc6wzys4zEAfAkNOV8jrBOqPsvPuQFi68UCtWDFqnIAUYiAMAVBy30LoAACoFJ8QBAJAQU448SXLJ+qO7/4ldp9PX7HOAcclIRHg6nCT5gOtSk+0RFf3bJZ78SJXAP2CdUEbvUWPr+dYRAEw4Of+v1hEReEJd7TdbRwCoYMXgSuuEiMzeNWgNlEDAlakAgArjxUAcAEQkmk/VPYvFYrFYrPGuqgn7aOJBL1OSFLZv1HDfRlVPP9A6Ze98GO1AnPSGiPdD6QzJK6ee/GbrEJSYd/daJ5SX/5KaWpdYVwCIWFPL6fI6yjqj/PyV2vWdMwDY6Fm2WtL91hnR8B+X5KwrkALDnBAHAKggJ7YcJWmedQYAVIpkHTMDAECFm3ToCZJL1nvO/WtXq2riPgpqJlqn7Jnz0Q3ENeUOkvSSyPZDaTn3cXW332qdgTJw/g7rhDJz8v4SNbS+zToEQIS8/s06IRI+8wvrBACQ06+sEyJytBoXcbpJlHyYrDeDRoorUwEAlSTQW6wTAKCSMBAHAECCVE2cprq5R1pnjEr/k09fmzo91temrlNXPron+UOuS00s75aps+171hkoF3ebdUEEsnJ+mRpaWq1DAESgPne8pJOsM8rPbdL+hT9YVwCAwrBSrk2VpH+xDkAKcGUqAKCSOC22TgCAShLJQFwMbpljsVgsFis1a9LhJyhJCts3anhbzK9NdX5VtPtxXWpCrVZ18TzrCJRRZ/saSdusMyJQJafL1LDobOsQAGUWBJ+wToiG/7Xy+aJ1BQCo+5ibJT1lnRENd5pOao3xC30kAifEAQAqRUPLSyQdY50BAJWEE+IAAEiY7JQ5qpk5zzpjVPrXrlZ2n/2sM15Y6KK7LrU+Vyfp5Mj2Q6nsUBC+VR357dYhKCsv6U7riIhk5NxP1dByrnUIgDI5YfFsSWdaZ0TD/dK6AAB2WRrK6yrriogEKoTvso5AwgUZBuIAAJXBeU6HA4CIMRAHAEACTTr8ROuEUel/crWyU/aVCzLWKbsXKLqBOJc5RVJdZPuhNLx/n1bl77XOQCQq4drUvwnk9GM1tXLyIZBG2eLZkqqsMyIwrGzxRusIAHhG4H5rnRAZ586VlvIZA8ZueJiBOABAhXCt1gUAUGl4sQoAQALVzJynqkkzrTNGrLB9o4o7e1U1ZV/rlN3Zps6j/hzZblyXmkQ/VPfyy6wjEBGnbuuEiDl5f5GaWj9oHQKgxLyrlBMgezjBFUCsVA38XlKlXON8sOrvfY11REXwobNOKAuuTAUAVIL63PGSDrXOAIBKw0AcAAAJNfHg46wTRqX/ydWqnjbXOmN3bpaWhtFt518f3V4YN6/bNaXvI9YZiNBwEN2JkfHh5P131dj6FUnp/KANqDQNLf8k6RjrjGi431kXAMBzdFzZK+cq59ThjN5jnYAE48pUAEAlCAKuSwUAA5FcneF5SQMAQMnVHnCM+lZ3yBeHrVNGpP/J1Zp0eL2k261T/lF0p0EtyB2tUAdFth/Gq1dV4du0YsWgdQgidPOydWpseUDSi6xTouc/paaWQzS575387x5IOOfeJVXMmzHXWgcAwPP48HrJHW+dEQnvztCC3Cytym+wTkECBVyZCgBIuebmKg37Fp5BBYDocUIcAAAJFVTVqm6/o6wzRqywfaNcJmud8Xwu6IlsrzA4LbK9MF5ecu/QyvxD1iEw4NwfrBPMeLWqb+r1Ov7MGdYpAMao+Z21km+1zojIRnUdGbunLQBAPnODdUKEquXd260jAAAAYmlozpslF8urcwAg7RiIAwAgwSYc9HLrhFEZ3rZeQVWtdcazeVX13xThdq+Nbi+M0zfU1XaVdQSMhGElXpv6LL5JVdU9qs8dbl0CYAwKO8+UNM06IyI3SEtD6wgAeJ6pvV2S+q0zouPebV2AhBriylQAQMo5/wHrBACoVAzEAQCQYNlp+yk7dbZ1xogNPLla2X1i9TDUfeq4sjeSnRYurJHcSZHshfFaqey6860jYMj731snmHM6QkHQowWLGq1TAIyS17nWCZHx+p11AgDs1ooVg5LvtM6IjNdRqm9tsM5AAgUBA3EAgPSqX3ykpJOtMwCgUjEQBwBAwk048GXWCSO269rUauuMZ+uObKdtkxdImhDZfhirdQqyreroKFiHwFBP/glJd1pnxMBMhe4GNba2WIcAGKGTWg+U3KnWGZHx4bXWCQDwgryut06IVOAXWyekWlWVs04oi2CYgTgAQHpliu+3TgCASlZV7g28JC9e0wAAUC41c4+U7r1eCpNxW1Sxf6t1wt853xPZXt6dFtleGKui5Bdr1WVrrUMQA95dLeeTdS91edRIfpkaW45WV/tSiRd3QKwV9U5VzsOP9z49wAwA8ZRx1ysZL9NLxL9VWvoRrrLGqARcmQoASKn5b5wguXdYZwBAJauUN0kBAEitoLpONfseZp0xYrEaiCtmojshTnpthHthLLw+p67lXJWJXQJdbZ0QI07SZ9W06NdqfvM06xgAL8hJ/p3WEdFxK60LAGCPVrXfIWmLdUZ03Fw1rm60rkDCDDIQBwBIqdoJS+Q11ToDACoZA3EAAKRA3f4vsU4YsXCo3zrhbzarZ9n9kezUnJsj6dhI9sJYXaPu9q9YRyBGOttukfx664xY8e50Ddf8UfW5l1qnANiNBbmTJB1qnREZpygfbACAsfCSbrKOiJbPWRcgYYIhBuIAAGnk5PRh6wgAqHTlH4jzLBaLxWKxyr1qZh2mIFsrjMpN2vX/wfIrBFyXGm8PKwzPUVT/e0BSePmAU+Ke7zAFwU1qWrTYOgTAPwgz51onRCvosi4AgL1yvtKGd9+qXacLAyPDlakAgDRqbDlTXjxQCgDGOCEOAIAUcEFGtXOPss5IFud7ItvLc11qjPXLh2eqJ7/ZOgQx5MPl1gkxNUHeXaHGlm+pubnKOgaApGNy1ZI/0zojQk+p84q/WkcAwF65ILrXnfGwn5pyXJtaDj5M56BhUMVAHAAgjT5jHQAAkCL58IJXNAAAlF/t/sdo56N3WGckR5iJ6kl9J+k1Ee2F0fL+PHXn77TOQEzVrL9Bw7M3SJplnRJTH9XQnON0wuIW3bxsnXUMUNGmBs2SphhXRCjCBxsAYDzCnbdIdaEq6sF0l5PUaV2BhMgM8vERACBdGlvPkPzLrTMAABX1QhwAgHTLTttPmdrJ1hlJUVR14ZZIdlrQcpwYpomr/1b38susIxBjHR0FeeWtM2LN+VepKrxNjS0nWqcAFc35M6wTIuXEdakAkqHrqm2S7rbOiJR3XJuKkevnhDgAQOp81joAALBLJANxnsVisVgsVvmXc6qe8yJhRP6sjvz2SHYKPdelxtMqZdd93DoCCRCEy6wTEmB/SSvV1Prv4sNPwIh7o3VBpEIf1Um/AFAKlXaq5f5asKjBOgIJkWEgDgCQIg2tp0t+vnUGAGAXTogDACBFamYfYZ2QDC7KDyTcadHthRF6QoUgp46OgnUIEqAz3yXpUeuMBMjK+6+pcdHv1JybYx0DVJT61uMkHWSdEaEBbdVt1hEAMHIVeM1z0eWsE5AQmQEG4gAA6RFwOhwAxAkDcQAApEj19IMUZOusM+IvqlNFmnOTJPFkfLwMSXqbbl62zjoEieHl3P9aRySHe42Gg7vU2LLQugSoGC6srOtSpdt0T37IOgIARixTVXmnWjrxvSBGhhPiAABp0dS6RN4fb50BAPi7aAbizO+QY7FYLBarQpacqjklbgRcNE/oF4JmSdWR7IWRce5f1NV+k3UGEmY48yNJReuMBJkl6TdqbPmWjsnxeyBQdq6yBuK8+HMcQLKsvGKNpI3WGRF7kRqWHGwdkSph6KwTymInJ8QBAFJg/hsnSOHXrTMAAM/FCXEAAKRM7ewXWSfEnF+v7vYHo9lKr41kH4zUj9TZdrF1BBLo5ssfl3SNdUbCOEkf1bTgJjW18AcTUC4nnHWAnF5hnREppzusEwBgDG61Dohe4TTrAiQAJ8QBANKgtu7/ybsDrDMAAM/FQBwAACmTnXmwXFWNdUaMRXQ6nMRAXJw4d4um9H3IOgNJ5i+yLkio4+R1uxpazrUOAVIpW6is0+EkScGd1gUAMAZ/sg6IXCAG4rB3mSwDcQCAZGtYcrDk/s06AwDwfFVRbMIrGgAAIhRUqXrWIRpcu9q6JJ68745knxNb58l57q+NBb9ew1Vv1YoVg9YlSLCuo3+rxvsekcTVT6M3UU4/UVPLaRqueq9uvrzPOghIkUobiOvXfgW+yQWQPF5/UjovvHxh3p0qLQ2kpaF1CgAAQNkEhW/Iu1rrDADA83FCHAAAKVQz+8XWCfEVRDQQF4SviWQf7EmvnP5Dhez8p6+8BMZhaSjn/9u6ItG8WlVV+LMaFp9inQKkQuMZk+V1snVGxO5WPl+0jgCAUQsr8IQ4aR/V3/NK6wjEXNVOzlMAACRX46KT5d3brDMAALsXyQlxnBEHAEC0qvc9RC7IyId8XvgPhlU18Y+R7OSCV/M9kBGvNQrctzUhe4muvXSHdQ5SxA9cLNVdIGmadUqCHSQXXq/Glu9pYOe/67Zf77QOAhLL1b1OXtXWGZFyjutSASTTgeEDejIYkFRZp4dk3GmSbrHOQIxt48pUAEBCNecmadj92DoDAPDCOCEOAIAUcplqZWceYp0RP87doY5LBqLYSfKcgBS91XLuLHUfdaQ6277HMBxKruuqbZL/vnVGCjhJH1LNhDvVkKu3jgESy7tKuy5VCv0d1gkAMCa7Tre82zojct6dZp2QGj6Tzkt3q6oZiAMAJNNQ8E1JfAgDADHGQBwAAClVM/tF1gnx4/3NkezTkHuZpJmR7AVJul/S2eo66hh1tl0hLQ2tg5BivubbkqIYrE0/pyPkgk41tXxdCxfWWOcACeMkLbSOiF7ICXEAkqwSr009UY1nTLaOQIxVbWMgDgCQPI0tC+V0nnUGAGDPyn5lqpfkeUkDAEDkqvc9XHKB5JkNeoZzt0ayT+BO5bbUSDwg77+o/f2yp09cAMqv+9L1amr5X3m93zolJQJ5fVJ9U16vBS3v0Kr2262DgERoyL1M8jOsMyIWalLtXdYRADBmXn9SOs/42pOsXG2zpF9bhyCmsjW8ewIASJamJfvIF39knQEA2DtOiAMAIKVctlbZ6QdYZ8RLMaKBOK9XR7JPpfJaI+ferv3Co9W9/DKG4RC5wH1V0qB1Rsq8RKFuUsOiz6m5uewPbgGJ54Jm6wQDf+E6dADJ5ivxhDjJuwXWCYix6loG4gAAyeKL35W0n3UGAGDvGIgDACDFama/2DohTvrUs+z+su8y/7ysxBv+ZeG1Rk7v0P7hUepsu5RBOJhZ2faY5L9vnZFCWTm3VMNzbtKC3NHWMUC8+ZOtCyLnPKfDAUi26qFK/X3sROsAxNimXgbiAADJ0bjoHZKWWGcAAEaGgTgAAFIsO/MQ64Q4uV2K4CLTmt56SRPLvk9l+avk37lrEK79ZwzCIRayma9I2madkU5+vsLgdjUs+qRyuYx1DRA/SwPJnWRdETmvB6wTAGBcOq7slfSYdYaBV3ICcAlU+XReuMsJcQCApKjPHS+5H1pnAABGLpIXoryiAQDARjBhmjJ1U1Xs32qdEgfRXJfq3KmR7FMZtkjui+otfk/35IesY4Dn6Fi2UQ2LvinnllqnpFSNnPu6nnAtasi9W935O62DgNhYcN/LFWqadUbknCv/Sb8AUHZ+jeQOtK6IWJ0Ks14m6TbrEMRQzUQ+PgIAxF9zbo6Gg19IqrFOAQCMHCfEAQCQctlZnBInSXJRDcTp1ZHsk27Dkv5LYXi4utq+xTAcYqvaf1PSBuuMVHN6hVxwqxpbvqrmd9Za5wCx4CvwulRJEgNxANLArbEusJHh2lTsXt06BuIAAPF2TK5aw5lfSNrfOgUAMDoMxAEAkHLZGQzESZIKrvwDcY3/n707j5OrqvP//zq3qjvdWQk7ERDFLQRBjBLS1YFWBgRZBmasdCeAIo6o47iMyzjucV/Gff+hzqAs6eryOyCoUVymTbo6LEYUiXFn37ckQJburnt+fwSQJUt31733c5f38/HoeRjI3PMGKreq7n3fzzl1Bp4jY18n3/6XMDyERu3fWV2/3zqMyE4N1h/C+/daxyiAMvCfjG7+LV2Li7dNpMiTha7bOoKNQFumikj2OV/MQpz3C60jSErdPF2FOBERSbfdgq+CPsuIiGRRIlumas9UERERO227Px1cAD60jmLpXq7svzH2VVznMfiEPl/lzzXg3k6jf5V1EJEJGT7k21TWvRZ4sXWUAngOzg1S6T2PsfJ/cNVFG60DiZhwFHHKzj0MXfyAdQgRkZaF7i846xAmivjeJePRMVt3j0REJL0qve8E/sU6hoiITI4mxImIiOScK7fTttsc6xjG/K+SWYZjE1knV/zd4M+mUVugMpxk07IQzxvRY0BJccDrKI/9nkrfqdZhRBLXtfTpwL7WMQxoOpyI5EMpLOaEODiYniV7WoeQFJrxJ32PEhGRdOrqfQPwaesYIiIyeSrEiYiIFIC2TSX+7VK3+YeE1smDEM/XaBt5Lo2B76AykWTZcO0a4NvWMQrmaeC/T6WvRtdZe1uHEUmMC4s5Yce7P1pHEBGJxPSH/goUc3z7WEHfw6Liw3zOFtxrL10LEBGR9OnufSWOr1rHEBGR1iRSiPP60Y9+9KMf/ejH9Ke850EUmkugELdgyT7AobGvkw9XEfBihmtvZPDS9dZhRCLRFrwbuN86RvH4xbiRdVQWv8o6iUgywgXWCWyEKsSJSD6sWLEVuMU6hgnvF1pHkBSqz/PWEURERJ6ga/E/4/lvKOhG9yIiOaIJcSIiIgVQnrkvrr3TOoYd1x7/lqltXtul7tr9eH8ujdpCVtV+bR1GJFKDy+/F+7dYxyio3cGdT2XxFSysPss6jEi8gmJO1ylpy1QRyZVibpvq3HzrCCIiIiI7VVn8cpxbDpSso4iISOsSKMRZz8TRj370ox/96Ec/OGjb/ekU1G2suvCO2FcJUSFuxzzwLUZHnsPwwDcf+bVI/gwPXAj+MusYxeWOIwiup7tvGSeeOMU6jUjk5p/bBv4I6xgmmu4v1hFERKJT1HOan2edQNJoma4PiIhIOnT3nQXuUqDNOoqIiERDE+JEREQKoq2o26b6BLZLBXCaELcD1wFdNGqv5epL7rMOIxK7Nv864AHrGAU2Be8/yMaZ19PVe7x1GJFITXlgHtBhHcNEs3yzdQQRkch4X8wJcd7tz/zqLOsYkjoqxImIiL2u3vfi/XdRGU5EJFdUiBMRESmItj0Oso5gw7n4C3Hbtugr7Ai+HRjFuQ+xZdaLaNSutA4jkpjB+p04p61T7T0Lx0+o9NWo9M2xDiMSCecOt45gZCNXXbTROoSISHRccUu+UzjEOkJm+ZKzjiAiIpI71WqJSu83cHzUOoqIiESvHPsKXo/4iIiIpIGbMoPS9D1oPlSwIV3e/yr2NYJA0+Ge6Focr2ao/7fWQURMDPVfQGXx6eBOt44ifjFwAt29H2C/8CvU603rRCKT5txhBb3Acot1ABGRSAXcUtDzObjSIcBq6xiSGkX9kyAiImkw/5Sp3BbUcJxsHUVEROKhCXEiIiIF0rbnM6wjJM+H8Rfi4CUJrJEFIzj/ftruOpKhmspwUmyu/BqguNM/0mUmni9we3ANC6tHWocRmbSQYk6Ic9xqHUFEJFLNZoHPa+E86wSSKirEiYiIjcqSeXRMvVplOBFJXM/ZHfSc3QFoAnQC4p8QJyIiIqlR3v0guDGJflhq/JXV9fsTWOeYBNZIu1/heTWNgeutg4ikwtDFD9BV7cMFK9H3rrQ4giBYTaXvPNq2vJvBS9dbBxKZEMdh1hFMeE2IE5GcWT3vDirrxijkZ0SnQpw8ngpxIiKSvK7Fr4Xwi0CndRQRybCe6nSawXPwzMGzL87vi2dfcPsC++LYHU8n0PHITyfQzujmbUW4Si/ACLAF/BZwW3BswHMvcC+Oe/Hc88iv7yEIb2W0/UauevbtsCw0+WfOoAJ+6RYRESmu8uwDcEEJHxZkxzjHNbGvsXDJ8yDcN/Z10msrjmXsF/6XtiIUeZLh+mq6+96H95+0jiKPCcC/ntH2f6K77x0M9V9gHUhkXBaduR/h6F7WMYyoECciObMshN47gAOskyTO+UOsI0iqqBAnImnnWFSdS9NVcO6ZeEIRjJAAACAASURBVD/xaT6OlTQGfhRDNpmoBWfMpDx2HtBrHUVEMmR+dRZT3OE4NxfPXBxzgbmMsj+Pn/L25LeI8X3Sbd/242Y+5f/n0f/96GF9AOUxqKwbgd5b8NyI40Y8N4D7I6FfS8ddf2ZwcGwS/5S5pUKciIhIgbhSmdKsOYw9UJD7imEChbig2VPgycZX0uQcrqytsw4iklpD/Z+msrgH3AnWUeTx3N54/10qvefQ5F91HpPUGxs5jKCgnzc0IU5EcsndCr54hTjv9md+dRZr6huso0gqqBAnIumysNpJmSMJSxXwFWAhIbMfu/TrJvOdzJcAFeKsLezrIhi7AHimdRQRSbmj+g6i5CvgunG+gmceEABpuRXYDhyM42DgkUweSsDoPlup9P4R79biuB7v11J2v2Zlf2GvrcVeiNM3GhERkXQp735gcQpx+AT2h3U98a+ROmM4/yH285/QVDiRXfKMjp5JW/s1wDOsw8hT9FDit1T6PkPY/Air65utA4lsV+DmWkcw44JbrSOIiETPF/fcNoVDgNXWMTLHe5eSG3BR0u0jEbG16Mz9aI5VcL4CVIAXENIW7enJ6VxnqWfJnoz4T+H8q0lLlUVE0qXntN0Y63g53p8EHAP+adv+hs/ip9UpwGE4fxiw7azX9NC9+Fa8Ww0ME4bDjMy+ljXnjVoGTYomxImIiBRMefb+1hGSEtLuf53AOscksEaa3ETolrK6NmwdRCQzrr7kPhZW/5EgWA1Ms44jT9EG/t0EwRK6e9/EUO0H1oFEnsLz7MJeug81IU5EcshxSwZvrkTDlVSIk0cV9U+BiJhYFrDoj4fSDCs41wW+Qjj6jNi/Zzmd64w4uvtey2j4CRy7W4cRkZTpXvpMfPNU4FRGWQQ+370p7/YHqkCVIICODZup9P4K/CAu+CFD/VeT08/myfyHzeW/OhERkfTwPPHxpqdsLf+4Xwcz50BQgjD3g73WMVh/KNYVjuqdC+wb6xrpUmNL+DptbyMyCavrv6Nr8atwro6eSE2rg/BcTlfvpZTdm4s8Sl5SyPEc6whmpowVd4qSiOSXd7cW96J5qK3K5FFF/UMgIknoqU6nWVpASNe2CXDrjiJk1mNby0l+dVfn44Ov4v0C6ygikiI91X0Zca/EubPwzUOt4xjrBBaBW4T376fSexewAu9/gNtyBY3LHrQOGJV8Nx1FREQybntfzd0O/vp4/poHXKlMaea+NNff1mq8tFsT+woBPbGvkQ4P4/ybGRr4b+sgIpk2PPD/6Or7GM6/zzqK7ITjNJr+OCq9H6Ltrs8zODhmHUkEeLZ1ACObYn/AQUTEgvO3FvdefHCgdQJJjcL+KRCRGCw4Y3/KzQr4Cp4KoxwOvgTYnm1Cr3NdUhb1vpCQD+A5FT2MKiIA889to3PjyYT+HEY5Aad+1A7sA5yNc2dD5wiVxb/E8T884P8fa+sj1uFaof/gIiIiMXr8ZLaovvlGcZzy7AMKUIhzv4l/CddTgOu310K4hKH6H62DiOTCcP8HqPQeAvyTdRTZqWnApxnd55V0V9/AUH3IOpAUWM/ZHYxuPsA6hpF7rQOIiMQiDG/FBdYpjHgV4uRRub+gIiIxqVZL3Fo6jMBXcGwrwDH29+9MqkIVS6XvRXj/QUJOto4Ss+fQveQE6xCmvH+YRv8q6xiSAV1Lnw7NN+E2vBLPXnpfmJB2cMfhOY7d3L109X6HgPMYqv3JOthkJFKI07caEREpurS9F5Z325+t1iHi5rg2/kX8MfGvYcaD/wLr/X9m/QkQkZTxtHWeweiWn4Lvtg4ju3QoPlhJd+/5lIP/YHC5yjmSvNGtBwPFbE14FeJEJKfKbffSbFqnsKJCnDwqbZfLRCStFpwxk9LYUY+V325nAYGfDqT/TOJc2hNmlaOyuAfcO8C/vBBlF8+rIXy1dQxjNwDPtA4hKbZoyWGE4buguRgNB4vCnjjejudtVHoHcXyOodoPrENNhF4EIiIiBVSa/TRwAfjQOkp8ylvinRB3VO9cto0RziF/N7izaQyssE4ikkuD52+he+mp+OYQcIh1HNklh+fVjIb/SKX3XTRq3yb9l9wlT4LmswmLcHV/OwLusY4gIhKL0dH7CIrZdQaeBssCWJbjCxIx8KHL4VRBfaYWke07qu8gSo9Nf+uCsefz6ENCmftqpEJcpCp9c4CzwZ8DHGycRhLnO6wTSEp19/Xgw3cRhsWeohgfB7wEz0uo9F5Bk7dyZW2ddajxUCFORESkgFypndLMfWhuuMM6SlxuYvDS9bGuENAT6/Ht/Iyx0plctfwu6yAiuTZ08QMc3XcCYTiMd/tbx5Fx2R34Jt29r8YFb2DV8uusA0lBePd06whmNCFORPJq9bz1VNY1gZJ1FANtLFy7H6u5zTqIiIikQE9PmZF9jsBRAbqACvg5gGqzss38c9uYuv4kmu414E+kmJ+fBADXaZ1AUmZR9RjC4JN4f1QGG9NZdTwlrqOr96u0b10W+73YFqkQJyIiUlDl2QfktxDnE9gu1bmeHF6V+S/mhO+mXivs3j0iiVrZfwtdvSfiWAnMto4j4+Tpwodr6O79EuXwgwzWH7KOJLlX3K3lVIgTkdxaFkLvA8Ce1klMOA4EFeIkfxdVRGQcek7bjdEpCx/b/nSUI3FMtY4Vn1DnuslYVN2LZukknD8ZNhxH6Gaq6yKACnGyzVG9cwn4NCEnW0cpqDKOtzDavoTuvl6G+getA+2ICnEiIiIFVZ69P1tvvNo6Rkx8vNulAhD25OiJk014XsNwrd86iEjhDNeup7t6HD74KSrFZUkZz9sYc4vp7n0DQ7UfWAeSHPMcYB3BTOBViBORPLuPwhbi3AHAausYYk4lEZEi6Oo9mIAKIdu2QB3lEMAV5gzgtGXquMw/t40pG14AHI/jZEKOxPnc7RUuLZvCtpsy+nNVVD3VfRkrfRjvz0HTIlPA7Y33P6Wr920M175snWZ7VIgTEREpqNKs/cE58Hn87uDiLcQtqh5C6PaOdY3k3IjjNBq131oHESmsofoaFvYdS+B/xrZtOSUrtm13ezldfcspNd/Cqvo91pEkl4pbiNOEOBHJM8d9xb2VFxR3+qn8XXHqMCLFMa/azm7BC3F+2/Q3XBewD54cPVcskejqPZjALSD0R+JYABuOYFvZSWTnFlY7WF3fbB1DEratNPsfjPJu8NOs48gTlHF8ie7eI5ix8Q2sWLHVOtDjqRAnIiJSUK5tCqUZe9HceLd1lBiU4i3E+aAn1uMnxv+C0dHFXH3JfdZJRApvdf+1dFWPxZV+Bn4P6zgyQc4vIQyOo9L7Vhq1i6zjSO4UtzTgAxXiRCS/PAX+HuaL+942WaWSy90DjV6FOJHMO/L0PWhv69o2/c11AS8GOvBqvz0mLPCEuJ4lezIaPgs4+LEfx7Pw7rng98B7FSVl4kptHYAKcUVS6T0KNnwTONQ6iuyE59VsnPkMeqqnMFh/yDrOo1SIExERKbDybgfmsRB3P8MX3xTrCp6eWI+fCP955vh3Ur+kaZ1ERB4xXP8Ni5a8lND/nKJun5VtewIXUuldSsm9npX9t1gHkhyYf24bbNjXOoaZQBPiRCTXiluIK/J24PJ4xS2JiGRVpfpcnKvgXRdQAZ6Lx6nUJE/R3beM0fCDT/nr/rH/IzI5PuwEHrCOIQmonDoDOj8O/CugLZSzoYex4CcsOONErrpoo3UYUCFORESk0Eqz94ebf2UdI2oJbP3pj8nw42ub8f5chgcutA4iItuxavl1dPW+BMePgadZx5FJeTlNv5bu3v9kqPZ1dKVXWtH5wH74oLgX/ZrN4pZFRCT/PPdl92tli5zTwx8C+pwskm4nnjiFB6e/mNB14R7b/nRP/cmdIBcW899Y6EcL+zlH4uWCDusIkoCuvpPAfx30IE3meLooj/2chdWXsbp+v3UcFeJEREQKrLzb/uAc+dp2w8e7XepRvXOBvWNdIz43E3A6qwZ+bR1ERHZiuHY9R/ctpOlXAPOs48ikzMDzVSq9fRC+lkb9j9aBJKPCYJ9C30TwpQetI4iIxCbg3uKWCvzu1gkkDQq8jaBIGnWdtTelrdu2PyWosNHPB9oL/X0kEgU91wV+i7bOlVh432kdQWK0sNpJEHwJ/L9YR5GWvIigdAXHn3UMV1zwsGUQFeJEREQKzLV3Upq2B82HcrQblQuujfX4JY6O9fjxGSQIF7Oqfo91EBEZh5X9t9BzWjejUy6BPGzTXFiLIPgtlb4P03bnpxkcHLMOJBnj/F4Znkrbug73kHUEEZH4uPsLPCBLhTghZ09nimSNY1F1Lk1XwQUV8BUYeRbho9899MdTWuU2WyeQnHJjmhCXV129h+LoRw+I54Sfz8Mjy2HZabAstEpR3G03REREBIDS7JxNHG42450QB4tiPn70nPsmbXcdpzKcSMYMXrqe9eHLHrkQINk1BfzHGN3nGhb1vtA6jGRM4beUm6JCnIjkWFjkKZizrQNIKqhxI5KkSt+LqPS9h+7FP6DSey9hsBbnzgP/KuBZ1vFyyxV0QlyICnESF02Iy6NK7+twXI3KcHlzCpV1X7AMoEKciIhIwZXzVYjbypR71sW8RtYKcR9kqP9cTSUSyai19RGGakvBf8Y6irTsBYRcRXfvp+g5W0+zyjj5vawTGBpj8Pwt1iFERGLjA9OtY4xNYf4pU61DZIrP475zmhAnkijPZ8B/DO9OQpM6JX4qxEk8fFmFuDyZX51Fpa8GfAOVHfPqTXT3vdFqcRXiRERECq6029OsI0TIXR9r8au7eiBwYGzHj1YTeC2N2oetg4hIyzyNgXcCrwdGrcNIS8p4/oPRzb9lYV+XdRjJAF/gCXGOIhdFRKQIfMG3hS7PVBmj8Ao6NUlEiiUMi3muK3k93CTxcE09ZJoXRy99Nh3B1eAXW0eRmHn/Wbp7D7dYWoU4ERGRggumTCfomGEdIyI+3u1SfZCV6XCbcf50GrVvWQcRkQg1av8fLnwpcJd1FGnZcwj8Sip9H2f+uW3WYSTVijshzlPsooiI5F/gi138bQ9ViJNilkREpFiKumXqmCbESUy8pojlQndfD83mlcBzrKNIIqYAy1lYTfzPrwpxIiIiQmnWHOsIUYm3EIfrjvf4UXD34cNjGRq43DqJiMRgqD7EWPlFwDXWUaRlJfDvpmPD1VSWzLMOIynl2cM6giEV4kQk34o+IY6x2dYJxJq2TBURyS2nQpzExDlNiMu6St9r8P4KtH13sXjmEgSfT3pZFeJERESE0qycbJvqwpgLcT7tE+JugmaF4fpq6yAiEqOrLrqVmRsXAedbR5FIvADCNXQvfjss03d0eSLHLOsIdopeFBGR3Ct6Ic6XdAOs8Ao6NUlECqao5zqnQpzEQxPiMmxZQFfvZ8B/C9COGcX0Orr7epJcsJzkYiIiIpJO5Vn7WkeIgsdv/W1sR19Y3R04JLbjt+63BG0nsurCO6yDiEgCVqzYCryaSu8a4PPou13WTcG7z9D1h1Ng6asYvvgm60CSGnnZ137itGWqiORdu3+YUesQhrwmQkyIDx0ud89OFLQkIiJSCCrESTwcmhCXRT1ndzCybjmO06yj7MIm4Ba8uxMXbnjkYc0xcAGE0/DB7jh/AHAguh4/Od5/gWp1PvV6M4nl9B9JREREKM3cB4IShIl8/ojLX2lc9mBsRw9K3eBdbMdvif8FY22nc9WFG62TiEjCGrWvsKj6O8KgH8hFu7nQnD8GmtdRWfxmGgPfsY4jqTDdOoCZIFQhTkRybspDBb9XrC1TRUQk/1xYzPKvD7fksMgt6aAJcVnTU53O6Kbv49xLraM8kb8b3CpwVxJwLZR/P+6BE/Oq7cwO5hL6I3GuBzgO2CvOtDlyOLe71wLfSGIxFeJEREQEgjKlGXvT3JDh4WLOx7xdargIUtiHc/TzgH8Vay8asY4iIkZW1X9JT/UIRt1FkLYLCzIJM8GdT6X3VNqC1zG4/F7rQGLI+emp7ePHzQcPW0cQEYnV4PlbqPQ2gZJ1FBMu1HSPonO+mCURESmWsKBbpo5suZ0pnWdZxxg35/4TmGcdY6ccHyP0f7COYS708e0SJNHrXjqb0eYKYIF1lEf8Hu8HKLnLWTVwLZOdWLy2PgL89pGfb8KygMofKsBS8GdQ5B0fxsV9hJ7T+hm8dH3cK6kQJyIiIgCUZ83JdiHOB9fGu4Drjvf4k+D4HEO1d6BtRkRksH4nLDuO7j98AO/fD+gx3Oz7J0bDCl19r2G4/4fWYcSKK/AFNF/kjQRFpDgeBmZahzDhabeOIMZ8QUsiIiJFsObyTcCF1jHGrdJ7DmkvxIX+CoYHVlrHEBm3BUv2geZPgecbJ3kI3IUE/pusqv06niWWhTRYBayie+l78M23Am8Gdotnvczbk9GONwEfiXsh3SQRERERAEqz5lhHaFEY34S4+adMBebHdvzJcO5DDNXejspwIvKYZSFD/csI3PHAXdZpJBL74PwP6O47j55qcbfOLDJf4C1TcWPWCUREElDg7aFdm3UCMafrGSKSf07l30zw2t9VJFLd1QMphavwpmW4e8G9l7atB9Dof0N8ZbgnGbr4ARq1D7IlPAjcB4D7E1k3c/ybH7n3Giud3EVERATIQSFurO262I7d0bkASM/Feu8+ylD/MusYIpJSq/p/Tlv4AuD/rKNIRLx/LaPBb+nuS8v2ApKEnrM7KOo2egCepnUEEZEEbLUOYMZpQpyoECeSMyFwG9AALgK+C3wfGASuBW5Cf+4lrZx31hF2yQX68yPZ0F09EB+swvFsowQh8GXGygfT6P94Ettybtea+gYa/R+BzQeBfw/bpoPL3+1Jx9Rz4l5EW6aKiIgIAEHnTNyUafitGfxM5tjAVRfdGuMCi+I79kS5TzDc/37rFCKScoP1O6lWj+N290Fw70UPQ+XBM/F+Fd2L383QwOfQjYT8e/DhKXQU+Y+u14Q4ESmC4pZ/tWXqxPiSI39DhnL3DySScyFwB3AjcCOOG/HciPM30vQ3spGbWVsf2ekRFpwxk7bmC/G8CPyLgJeR++3kQp3rMsEFqX9bcs2UBxRh2zapYfgzHAfaBHBrcM3XMVRfY7P+djQuexD4BF29Azi+A1SsI6XI26lWv069Htv3YhXiRERE5DHlWXMYvfvP1jEmY23Mx09HIc7xaYb632MdQ0QyYtsXyQ/QtWQQF54PHGCcSFrXhnefoau3Bx++itV1jdzPs9JYmSJ3BYICl0REpEiKW/5VIU5S3zwQKZzWC2+7ctVFG9k2MW4Q2DYVe2zT6XheDe5Y8vgwn7ZMzYgMTIgTSbvupbPxzSvAZDLcRjzvY/h5X4VlocH6uzZc+yssO5qu378D5z4MTLGOlAIHcXtwPLAirgVUiBMREZHHlLJaiAu5PrZjV6slbueo2I4/Xp7P0qi9yzqGiGTQ8PJfML/6fDpKXwF/pnUciYDjZFzwGxb29bG6f9g6jsTEdZS33ZMqKF/gkoiIFElxy78BbdYRxJxKIiJJcmET3G3EWXibqMHztwDLgeV0L30mYfOLOE5ONIMIkI0JcSpXSor1VKcz2lwBHJb84v7HBO3nsOrCO5Jfe6KWhQzzabp6f4Tju8AR1onsuaWoECciIiJJKM3azzrCZMVXiLu9dAT46bEdf3y+wHDtHcYZRCTL1tQ3AGfR1fd9HN8Av4d1JGnZAQT+l3T3vp+h2qdI/ZVbmbBgrJzHAQnjpy1TRaQQiluI04Q40edXkWQ1DjkutVNzAIYu/htwCt19p+P9F8nNlHuVmLIhAxPixgK9liSdes7uYHTzZcACg9W/wBz/DuoXZut71XDteuafu4CO9R8HV/B7f/405p8ylTWXb4rj6EW+sioiIiJPUpq577aHoTIniHPLVNvtUp3/Eo3av5tmEJH8GO7/Hm3NQ4EfWUeRSJTxfILK4h+xqLqXdRiJmGsr+kOM2bqYKSIyGcWehqlCnOjGvkiiUlyGe7yh/ktg8zw8P7eOIgXiMnlTRCQFlgWMbqoBL0l44VGcex2N2r9Tr2fz+tGa80ZpDLwTz5sp9BYRTGfK1FPjOrhO7iIiIvIYV2qjND2L99PL8U2Iw3fHd+xdrv1VhgbeYre+iOTSYP1OGrWTcO51wMPWcSQK7gTC4Dd0LT7aOolEqVnwQpwrcklERIrCFbj867VlauF5FeJEZAcalz3IrI0nAd+3jtKyMNS5Lgt8BibEuaZeS5I+lXWfBRdbmWkHHgD/Mob6z0t43XgM174MfgmQ7LblaeL4p7gOrUKciIiIPEFp1hzrCBN1D8MX3B3j8SsxHnsn3DdoDLzJZm0RKYSh/vPwHI5j2DqKRGIOzv2CSt/7YZm+6+dBQMk6gqkil0REpEAKXP51mhA3IeUw/TfqJ8qpECciO7FixVba7noFjn7rKC1x2jI1GzQhTmTCKr2vA96a8Kp/olRaQGPg/xJeN16NgQEC93LgQesoRl4CxPJ9Ryd3EREReYLybvtZR5io+KbDdS99JrBPbMffEee+SaP/X9H2ISISt+HaX9kvPBr8e4BR6zjSshL4D9O17goWLEn+/UuiFZQK/jmgwCURESmS4pZ/nS/4+5ygax4isiuDg2Ns3vQa4I/WUSTnMjEhLtD7pqRH9+J/AL6S8Ko3ELT1sPLiPye8bjJW9f+c0B0D3GUdxcCeLKweGseBVYgTERGRJ8jghLi1sR3ZNxfGduwd+zZD/a9DF4ZFJCn1epPGwCfw4ZHEWTKW5DiOpdy8lkrvUdZRpAUjYbFLqj7UNSsRKQBf3PJv6Ir9Pieg6x4iMh5rLt+EC88gsw/xaUJcJrgMdCY0bVDSYuGS5+FdHSgnuOpdeI5j1YV3JLhm8lb3X4vjZcDD1lESVwpeGsdh039yFxERkUQFU2fj2jutY0xEfOUNT1dsx94e579HY+656KKwiFgYrv+GmRtfBP4zQGgdR1rl9gMG6V58jnUSmaQSI9YRbAVJXlgVEbHhizwhLqvFBomMtkwVkfEaqq/B8yHrGJPiQp3rskGdCZHxOPL0PQjCHwC7JbamYwM+PIHh2l8TW9PSUO23wCsp2n1Cz0viOKxO7iIiIvIUpRkZ2mUt8PEV4lyihbiVzHjwTFimEoqI2FmxYiuNgXfi/UuAG63jSMum4N23qfR+mZ4elYuyJmgWuyjgfMk6gohI7FyBC3GZnfQjkfEFu8knIq1p7/ws+LutY0hOOdK/ZWqzqfdNMbYsoK1tADg4wUW3EPpTGa7/JsE17TVq/4v32SyCT96COA6qQpyIiIg8RWnmvtYRxm9TTIW4nup04PmxHPup1tK29R9ZsWJrQuuJiOzc8MBK2HwYjv+xjiKR+DdG97mCI0/fwzqITMCmok+IS3TrDRERG54Cl3+1ZeqEeJ/+G/UiInEaPH8Lji9bx5iwUNtcZoLPQGfCBXotia2uP3wIXCzbWu5AE0/ftuvUBTQ88GGc/551jATtS89pkU8eTP/JXURERBJXmpmZCXG3saa+IZYjj5SPhARuTjh/K2PlExi8dH3sa4mITETjsgcZqp2D5zTgHus40rKX0NZ+DYuWHGYdRMZrS7GLAmGRSyIiUhyuwOVfX+z3OYGibQMlIq1r+q8BD1vHkFxS8VxkZ7qXnIDz70141bcyXPt+wmumiWfz5lcBxZmOt7XtgKgPqUKciIiIPEVmJsQ54tsulXBhfMd+zHp86QSuuujWBNYSEZmc4dr38e2H4rnUOoq07BmE4TBdfa+wDiLjsV+xiwLOF7gkIiKFUeRzndOWqaJCnIhM0Or6/eAusI4xIU4T4jIi/Z0JvZbEyoIz9sf7C0m0OOovoVH7SnLrpdSayzfRZCkUZBeJUiny3U3Sf3IXERGRxAUdM3HtU61j7FoYYyHO0RXbsbfZivf/SGP52pjXERFp3fAFdzNcOx3HYuBO6zjSkmk4P0BX30fQE9Dptua8ghcFijw1SUQKpMDnOk2IKzynQpyITEZ4uXWCifE612VD+q+PuKZeS5K8+ee2UW4OgI+8qLQTt+DKr0lwvXS7srYO/KesYyTCh5HfmFYhTkRERLarNCMT26bGVSZzwFExHfuRFdxrGR5YGesaIiJRG6rVads6F/i2dRRpicP591FZfCmVU2dYh5GdKnJZQFumikgBFLj8G7oiv8cJgFchTkQmYcvmQWCrdQzJGa/OhMh2daz/FPgkdlN6VBMXLmXo4gcSXDP9tmz+JPg7rGPELqQZ9SF1chcREZHtysi2qfFMiFu45LnA7rEce5tPMtSfrfH+IiKPGrx0PY3av+DcS/D82TqOtMKdCp1XclTfQdZJZIeKfKOnuCURESmQIm+Z6ov8HifbqBAnIhO35vJNwCrrGOOmaZjZ4LIwIS7Qa0mS1dV3Erh/T3jVDzNUH0p4zfRbc/kmcB+3jhG7kn846kOqECciIiLbVZqV+glxnq2b4pkQV2rGuV3q92nU3hPj8UVEkjHUP0h752HgPgGMWceRSTuEUjjMoiWHWQeR7dpoHcBOgacmiUiRFPdc54ICv8dNgi+l/0b9xOnGvohM1hXWASR30t+ZGHN635TkHHn6Hjj/rUTX9O6XNOZ+NNE1s6St81vAPdYx4hXcHfkRoz6giIiI5ENpxn7WEXblhkeeCIyed3GNgL6OtvBMdNFXRPJi8PwtNPrfQxDMB66xjiOT5fbDhyvp7uuxTiJPsd46gBlX4KlJIlIkRT7XaRsk0bUREZkcF/zOOsK4hSoxZUQei+cik9fe9g0gyW2k1uObZ8CyMME1s2Xw/C04zrOOESNPufPmqA+qQpyIiIhsV9AxHTdlqnWMnYlnOtw2MUyI83fjwlMYrD8U/bFFRIytWn4djblHAf8ORD7aXBLgmYX3P6a7t2odRR7HFbgQ5+m0jiAikoDiFuJ8WNz3ONnGqxAnIpMUuL9aRxg/r3NdNqS/H5UYFAAAIABJREFUM+Gaei1JMiq9Z+DdKxJe9f2srt+W8JrZE5S+Yx0hRjcweP6WqA+a/pO7iIiImCnNSPIBkIly18dy2J7TdgPmRnzUrYTB6QzVI3+6QUQkPZaFNGpfwJfmgf+xdRqZlCl4+qn0/pt1EHmEZ4N1BDOe6dYRREQSUOBCnFMhruicpiaJyCQ9PP1GYMw6huRK+ifEBYHeNyV+C6tPA76S8KrXMSf8esJrZtPKi/8M/MY6RkzWxHFQFeJERERkh0oz97GOsGOOeApxY51HEfUXYOfezOr+4UiPKSKSVsMX30Rj4ETgTOAe6zgyYQHwZSp9H7cOIhS7LOBUiBORAnC+ZB3BjCbEiaYmichkrTlvFMjGg8dO0zAzwXl1JkTAEbj/AXZLdFXv30S93kx0zSxz/NA6QkxWxnFQndxFRERkh0oz97OOsGNh8/exHNeHC6M9oPsOQ/3nRXtMEZEMaNQuYnRkLvBd6ygyGf7ddPf+Nz09xZ1ckwaBL3JZQIU4Eck/76ZZRzBTCor8HjdxPkz/5JqJU0lERFrxF+sAkiPepb8z4TQhTmLW3fsGcMcluqZ3yxkeiKUIlVs++KV1hBh4xsqXxnHg9J/cRURExExpxt7WEXbEs3XLn2I6dleEx7qOsPmGCI8nIpItV19yH43aqyA4HrjBOo5MkOfVjO19KfNPmWodpbCKPCFOhTgRKYbinuvC9iK/xwloy1QRaY3PSCFO57qM8Okvno+N6bUk8VlYfRqeTya86kM43pHwmjng11oniMGvuOqiW+M4sApxIiIiskNBxwxceyofWL+VNZdviv6wywLgyEgO5dhAGP4zq+ubIzmeiEiWNZb/lC2bDsXzWUAj8LPEu5PomPpzek5LdrsE2caxwTqCHVfckoiIFMO8ajvQZh3DzNbOB6wjiDGvLVNFpAWOP1tHGB+d67IhAxPiROIUBF8EZiS6pnMfpdF/e6Jr5sG2f2cx3B815PjfuA6tk7uIiIjsVGnWPtYRtuePsRy1a90hwMxIjuX82ayuZ+NJRRGRJKy5fBPDtXfgwgXAtdZxZEKOYqzjJyw4I5r3SJmIApcFfCqfyhARiczMAk+Hg02sOW/UOoSYU0lERCbP+busI0ieZGBCnLZMlbh09Z0E/HPCq/6JB5qfT3jN/HD81TpChJqEpeVxHVyFOBEREdmp0sz9rCNsh4+nEBf4aKbDwX+xaiCW/e5FRDJvqL6GtruOxPt3AZqimRXeH0m5+WMqpyb7tGjRufBu6wiGOqhWS9YhRERiUyp0IU4lBgG0jaCItMI9aJ1gXEKVf7MhAxPiVIiTOMw/ZSrOfyX5hd0HWFsfSX7dnPBZmZI6Lt9j+OKb4jp4+k/uIiIiYqo8M4UT4ryLpxDnXRSFuFXMCd8dwXFERPJrcHCM4YFP43k+np9bx5Hx8gth6o84/ixN7kpK091mHcHU3wpdFhGRvHNFPscV/P1NRERa58JsFOIkI1z6J8SJxGFK5weAgxJd07GOxvPqia6ZN44c7U7lPhPn0VWIExERkZ0KZqSxEOf/FNORWyvEOTbgwjOp15sR5RERybfh2l8Zrv0Dzr0SuMc6joyH7+ah0R8y/5Sp1kkKwRW8MNBe5LKIiOReMyhwwdwX+/1tMkoZ2MptopzXpBsRaUGQjUKcznUZ4dPfmQjG9FqSaHX1Hopzb098Xc/HYFmY+Lp5Evq8FOJW0uj/VZwLpP/kLiIiIqaCKdNx7Sm75+2D6CfE9ZzdATy/pWOEvJ6h+s3RBBIRKZCh/gsIw+cB3wJtJ5J6zh9DR+flLKx2WkfJvTnNu4ACF+3L2qJXRPLL+QKXfv3t1gkkBbw+94tIC1wpG4U4bQ+dFekvno9qy1SJmHNfB8qJrun5M3PC/kTXzKOAG6wjRML798e9hApxIiIiskul6XtZR3i8LVz5vOhLZ1u3vJCWPvy7Cxmu6YO8iMhkra7fT6P2Wlx4NLDWOo7sinspgfv+I4Vyicu2qbN3WscwU27uYR1BRCQ2Rd4y1aEJcYJKIiLSkmA0I4U4yQh1JqRYuvpeAb47+YXdx7XDUhT8A9YJWub89xgeWBn3Mjq5i4iIyC6VZuxtHeHx/hLLOOXAt7Jd6o2Mld4YWRYRkSIbqg+xZdYR4N8DbLaOIzvjjmN00yWceOIU6yS5VuxtU1P1VIaISMSKW4gLC/3eJo/RNoIi0oL2jmwU4pzKvxmR/glxThPiJCLzqu04/0mDlf9G+50XGqybPy7z18y3Mha8M4mFVIgTERGRXUpZIS767VIBvJtsIa5J4M/kqos2RppHRKTI1pw3SmPgE7jSoeB/bB1HdsadwIaZ/bBM1xfi4sPilgZCt6d1BBGR+ATF3Ra62GVv+Tvd2BeRybvigk1A9A9NRy0Mda7LhvRf0wjG9FqSaOxWeiNwsMHKn2BwcMxg3fwZK6f//W+n3Oe4sv/GJFZK/8ldREREzAUz9rGO8Dg+nkKcm+yEOP9xVg00og0jIiIADF38NxoDJ4LvBX+HdRzZAcdpVNZZPFlaEEUuDXhNiBOR/PIUt/Tr/e3WESQFvKYmiUhLPPCwdQjJjfRPiBOJQvfS2eDfb7DyzWyZ9R2DdfOpPJbdnpdjHW0dH05quez+ixIREZHElKbtDkHJOsY2zkVfiFtY3Z1JPRHj1tB2d2If3ERECqsxMMAWPxfP18jCE+DF9E66F59jHSKXHAUuxGnLVBHJswKXfts7i/zeNjm+lL8b9U5bpopIq/xD1gl2SVumZkX6OxPaMlWi4MfeD8w2WPgbrDlvNPl1c8rTaR1hksbw7pUMnr8lqQXTf3IXERERe85Rmp6Sa/WeP0V+zFJ5MtPhRgncORrxLCKSkDX1DQzX3kgYLgR+Yx1HtsO7b7Coeox1jPzxN1knMOO1ZaqI5FlRz3H+7iRvgEiq6ca+iIikRfo7E0FJ75vSmq7eg8G90WDlUcZK/22wbn650m7WESbp4zT6f5Xkguk/uYuIiEgqlGakpBDnStFPiPPhxAtx3n2KVcuvizyLiIjs3Or61cwJX4Tn7cAm6zjyBG2Ewf+ysPos6yD54qN/GCArXIGnJ4lI/hX2HBcU931NnkQT4kSkVS4D97k1IS4j8jeJVeTJAj4KtBusfBlXLb/LYN388uHe1hEm4Rq2zPpo0otm4IOCiIiIpEFpxj7WEQDuYejiB2I47oIJ/v7fs6H5kRhyiIjIeNTrTYZrn8OVng/+F9Zx5Al2Jwh+QM9pWX1SMX381gIXB4KClkVEpBDCgm4LHcfUd8kmr5KIiLTKp7/E5EKd67Ih/Z2J0VG9lmTyjuqdi2exydqe80zWzbOQA6wjTNA9lNw/W2ybm/6Tu4iIiKRCkI4JcXFdOH/xBH5vCLyGtfWRmLKIiMh4DV38NxoDx+L9ucBG6zjymOcyMuV79PSUrYPkQuOyB4HbrWPY8AXdTlBECsEVtBAXqBAnj3DaMlVEWpWFCXGSEekvV4q0osT7sOkG3cBw7acG6+ZbEGRpd44m+F5W9t9isbg+KIiIiMi4lKbvDc74e6F30W+XenT1GTChGxFfolG7MvIcIiIyecMD3yQMD8HzA+so8gjHsYzu+2XrGDkS/WegbChmWUREiqKo5zgV4ibDhzm8Ua8tU0WkZem/zx1qGmZGpP+15AK9lmRyunufA/TaLO6+BXoIInp+nnWC8XP/SWPg/6xWT//JXURERFLBldsJOmcZpwijvxncLB05gd/9N7Zsem/kGUREpHWr67cxXDsF584A7rWOIwD+9VT6jC645U0MDwVkw1QWnDHTOoSISOR6qtOBDusYJrxTIU4eoZKIiLQsh2VhkR0ISnrflMnxvBcoGaw8Rlvzvw3WzbllAZ7DrFOM0/k0+j9jGUCFOBERERm30oy9jQPE8CS58+MvxIX+X1lz+abIM4iISHSG+i8mCA8BatZRBMB/g6P7DrBOkX2+qIU4aB/Z3zqCiEjkwsJOhwuZuf4v1iEkJbRlqoi0ymXhPrfKv+m3LAOvI5FJ6uo9GDjDaPXLGKzfabR2fi1a9wJgunWMXfJcypzwX6xj6AQvIiIi42ZeiBuNYTqKd+MrxHkuZfXATyJfX0REoreqfg+NWh+e08DfYR2n4HZjjAt0gblVvrjTdMacCpUikj+jhS3E3cyKFVutQ0hKeG2ZKiIt8hm4z+1CnevSrro2G5MGg1G9lmTiArPpcOD9xSbr5l3oT7OOMA7/x6yNfdTrTesg6f+gICIiIqlhXIhr8mD410iPWK2WwL9wHL9zC+XwbZGuLSIi8RuufZ+2kUNw/I91lEJz/hgqv3+XdYxM84XdMhUCFeJEJIfKbo51BCPFLXiLiEgcslFkknT72+xs9CVGtGWqTNCCM/bHc5bR6luYPuXHRmvnm3NpL8T9Cjb/Y1oehMrGCV5ERERSIZi+j+XyN7C2PhLpEW8L5gJTd/0b/X+xsn5DpGuLiEgyBi9dz1DtHDwvA26yjlNc7kN09b7YOkVmPS28EdhsHcOICnEikj/NwpZ9f28dQNJE2wiKSMvSf5/b6VyXelseULFS8qnc/FegbLO4v4IrLnjYZu0c6176TDzPt46xE3+gLTiRxmUPWgd5VPo/KIiIiEhqBB3TcW0dVstH/yR5wHimw91M6D8R+doiIpKs4doVtIWH4tw3raMUVBtwEcefNc06SCZt22LgOusYJpwKcSKSQ84faB3BhONa6wiZ5Ut5vFmvkoiItEr3uaV1e03LxusoCPS+KeO3sNoJnGu2vneXmq2dZ2EzzdPhbqHkjmdw+b3WQR4vGyd4ERERSY3S9D2tlv5b9If083f9W9zbWV0v6kQWEZF8Gaw/xFD/uXh3MnCndZzCcTybh0e+aB0jsxy/to5gwqsQJyJ5FBSzENcMVYiTv3NeN/ZFpFUZKAtrQlzqPXhfNvoSwaheSzJ+QXAG+D2MVm/SHlxutHa+OdJaiLsHwuNY2X+LdZAny8YJXkRERFIjmGZViHPRF+J8sIsJcf4XDPd/L/J1RUTE1nD/DxkdORTndY5P3mtYuPhl1iEyyRe0EKctU0Ukn4p4btvClHvWWYeQFAlVEhGRlqX/PncY6lyXdnvsloFipciEvcVw7VVpmxKWC929hwPd1jG2Yz0uPJFG/Y/WQbYn/R8UREREJFVK04weKgnCG6I94LIA/BE7+Q1NKL052jVFRCQ1rr7kPoYGqsCZwHrrOIXi3JeZV223jpE5oVtjHcFIEUsjIpJ7hdwy9XcMDo5Zh5AUcdoyVURapvvc0rqHN2TjdRSU9L4p49O15KXAoWbre3eJ2dp55vkA6ZuMeidBcAxD9dRes8zGCV5ERERSIzDbMrUU7YS4o9Y9F5i2w7/v+C6N5WsjXVNERNKnUbuIsfLzwf/UOkphOJ7Nbu7t1jEyZ2Tm9cCIdQwDU1lY3d06hIhIZHp6ysB+1jES59F2qfIk2jJVRFqW/vvcTtMwU29sRtoKJtu3VYU4GSfXtJwOB0HzUtP182hh9fnA6dYxnuQGPN2sWn6ddZCdSf8HBREREUmVktWWqaWxaAtxJXa2XepWAvfBSNcTEZH0uuqiW2kMvAzn/g3YZB2nGNz7OLpPk78mYs15o+B+Zx3DRDk4yDqCiEhktuy7P0W8Lu+8CnGtKPls3KyfEJVERKRlOTw3SuI6Hy7e5zLJr+7qgeBONkxwPUP1mw3Xz6eSS9t0uLXguhmu/dU6yK7oBC8iIiIT4qZMxbV3Jr3sPQzWH4r2kH7+Tv7m11nZf0u064mISMp5hvq/Sqn0AuBK6zAFMJWm/6x1iMxx/No6ggnvn2sdQUQkMqWCbgUd+mK+h8mOeW2ZKiItSVMxYMc0IS79xqZm47UUjOi1JOPgXolpB8gN2a2dU129h+LdP1vHeIxzVxOGR9Pov906ynioECciIiITZjAlLtrpcAA+2NGEuAdpCz4W+XoiIpINKy/+M3PCbjzvA0at4+RclUV9x1qHyBQfFrRMEKgQJyI54g+0TmCgCRRzyqnsmNOWqSLSgmo1I/e4Q53r0m5kczZeS4G2TJVx8O5VxgFUiIua49OkpQTu+Tnl5rGsrt9vHWW8snGCFxERkVQJpu+R7ILeRV2Iczh/xPb/jvscg8vvjXg9ERHJknq9yXDtY7hwIfAX6zi55v2XmX9um3WMzHD+GusINjQhTkRyxHOQdQQD17O6vtk6hKSNpiaJSAvuuScd5QDJvqkdei1JPnRXu4FnmWZouobp+nnTtfi1wInWMbbxlzBr40nR7+YVLxXiREREZMISnxAX+GgLcd29zwZmbufv3IvfpO3bRERkm6H6Gtj8QnAXWkfJLc9cOja+xTpGZuzHb4AHrWMkzqNCnIjkh3PPs45gYJV1AEklFeJEZPLu2Ssb97hDlX9Tb6ScjddSUNZrSXbOB2ebru/8rVzZf6NphjzpXvpMnPucdQwAHP/DHF9lxYqt1lEmKhsneBEREUmVYHrSW6ZGXIgL2cF2qe7jNC4r3k1mERHZscZlD9LoPwvHq4BMPQGXHf49VE6dYZ0iE+r1Jo5h6xgGnkNatocQEWlZAadeOlZaR5AU0papItKKvabpHrdEozmWje+apa1635Qdm3/KVKBqmsFrOlxkqtUSNC8Aphsn8eA+wFDtHOr1pnGWSdGHBREREZmw0rSEt0wliLYQ5/z8p/5FfwczN3wt0nVERCQ/hmrfxTEfuNY6Sg7NxnW+0TpEZnj/S+sIBqax4IynWYcQEYlI8Qpx5VAT4lrlw2zcrJ8Ir6lJItKCrQ9n47zodK5LvfaS+hKSfVM6/4nt74qUHI8KcVG53f0Hni7jFFvALaHR/xHjHC3RCV5EREQmzLVPxbVPTXDFZrSFOLY3Ic59PovjfkVEJEFDtT+xPjwKzxeto+SO522PPM0quxIUdMpOKXyOdQQRkZYtOnM/rG9UJc3zZwbrd1rHkDRSSUREWjCjIyP3uEOd69IuzMiEuM3aMlV2wrmzrCPg3ZB1hFzoqi4Et8w4xV0410Ojv2aco2UZ+bAgIiIiaZPglLgRhubdGu0h3ZMLceth8zeiXUNERHJpbX2E4dpbcZwC3GsdJ0f2YsrU11uHyIT7/TXAZusYyQuLN1FJRPLHjxXvXKbtUmWHtGWqiLTg4Q26xy3RGMvIhLiSCnGyAz2n7Qa8xDjFQ+zfvM44Q/ZVlszDBT8E2s0yOH6HLy1gqP8qswwRysYJXkRERFInmL5nMgt5boJlYWTH6+o9GNjtiWu4r9C47MHI1hARkfwbqv0A3OHAoHWU3HC8k56zO6xjpN7a+ghwpXUMA8UrkYhI/vjwedYREqdCnIiIxGFsRjamemnL1PRrG1FfQrJtpP1koM04xVrq9aZxhmzrrh4I4U+A2YYpVuA3Vxi++CbDDJHSCV5EREQmpTQ9oQlxAdFulxo8ZbvUTbQ7bX0nIiIT1+i/ncbcY8F9AIiuvF1c+zK6+V+sQ2SC97+0jpA4xzzrCCIirXPFK/cG4SrrCJJSDpVERGTyOh/Oxj3uUIW41AvbslGuLG3Ra0m2z7nTrSMA66wDZFrPkj3xwRXA0wxTfJk54Sl5Gx6SjQ8LIiIikjrBtIQmxBFxIS7085/0V77N4HJteSciIpO0LKTR/xE8JwL3W6fJPOffxbyq3bYAWVHMaTuHWwcQEYlA0Qpxt7CyfoN1CEkplUREpBVb23SPW6JRHs3Ga0lbpsr2LKx2AidYx8B7FeImq6c6ndHwR9h9V2zi3L/RqL05j1P+snGCFxERkdQpJbZlqou2EOfcEY/71Sgu/EykxxcRkWIarl1B080HrrWOkmne7c/s0tnWMVKvbepqYLN1jITtxcKq5ZOyIiJRKNqWqf9nHSA3fCkb02smwnnd2BeRyWuOZeS8GOpcl3ZZmRAnsj0uOB6Yah0DF/zBOkImza/OYjS4HHixTQB3H86fwFD/V23Wj58KcSIiIjIprq0T157E52wfbSEO/4K//293MUP1m6M9voiIFNaV/TcShhXgu9ZRss3/m3WC1Bs8fwswaB0jca70gl3/JhGRlDr+rGnA061jJMv9yDqBpJpKIiIyeVPKusct0WhmZELcJm2ZKtuRju1SoRRoQtxEdS19Oh1BA+gxSnAdpeaLGRr4mdH6icjGCV5ERERSKZEpcT6MrhC36Mz9wO392K/D5mcjO7aIiAjA6vpmGrVX4XgjMGodJ5M8z6er1+jJyAxx7ofWERIXhEfs+jeJiKTUg6OHU6zr8U1ccIV1CEkzbZkqIi0YyUghzulcl3ptGZkQpy1T5SmWBcDJ1imArewzGvFgi5yr9L0I17wSmGcTwA2wZdNCVtZvsFk/Odn4sCAiIiKpFEzbI/5Fmu3RfZD2zcP//gs3xOr67yI7toiIyOMN1b5G6HqA262jZJLjNdYRUm+M4hXivNOEOBHJrsC/0DpCwq5k6OIHrENIinltmSoiLWgvZeMetwpx6ZeVCXEiT9a1bj74BG7S7dKfqdeb1iEyo9J3KvhfAvsarB7i3H/S6O9lzeWbDNZPnE7wIiIiMmkJTIi7n6su2hjd4cK/30R14deiO66IiMh2rO4fpi2cD6yyjpJBS5h/ShJ7s2fXlf034ijalhQqxIlIdnlXsCmX2i5VdsFpy1QRaUE4lo2pXpJ+YTkbr6VSm9435YkCjrWOAIDzf7COkBldfW8Gfwlgcc3zAVxwEkP9nzJY24wKcSIiIjJpwbTYC3FRj1l+dELcXTzg/1/ExxYREXmqwfqdtN31Upz/knWUjJlJ59RXWIdIPe+LNiXumSw4Y6Z1CBGRSXEFmxAXssI6Qq74MBs36ydEU5NEpAVjWZkQF+pcl3blsWy8lkSezPuXWkcAwPMn6wip1710NpW+Gs5/EZuO1lrC8EiGlv/YYG1TOsGLiIjIpCUwIS7q/esfKcT5b7O2PhLxsUVERLZvcHCMoYG34HgjoC0Exstr29RdckHRCnGOcvPwXf82EZGUmVdtB+ZZx0iOv4PV/ddap5C005apItKCthHd45ZoZGVCXHmT3jfl7048cQq4busYAHh3p3WEVOta8lIYuw78YqME/0tbeBSr638xWt+UPiyIiIjIpLm2Dlz7tBhX8LdGdqiF1U48zwGalIJvRHZcERGR8RqqfQ38qcBD1lEy4miOXvps6xCpVr5zCIhwe/kM8F7bpopI9uweHAq0WcdIjHOFmzwgk6AtU0WkFWFbNkpMTU3DTL0wIxPiHtSWqfI4D85aCHRaxwDAubutI6TSiSdOobv3s7jwZ3i3v0GCMbx/F43aKxisF/ZadDZO8CIiIpJa8U6JC26J7FAuOBQoAT9gZX90xxUREZmIxsCP8OEi4HbrKJnQbJ5jHSHVBgfHcP4K6xiJciywjiAiMmEhBdsu1f3IOoJkQKiSiIi0oDyajXvcTue61CtnZEKcyOOFHGsd4e9CFeKerKv3UDbOvBrP2wCLc8xtBL6H4YFPQ7EfQsnGhwURERFJrWD6HvEd3BNhce2RaSKer0V3TBERkUkYrv+GsfIC4DrrKBmwxDpA6nl3qXWEhFWsA4iITJgrVCFuM+1NTYiTXXPaMlVEWjAW6B63RKOZkQlx5Xa9b8rfuTQV4koqxD2q5+wOunrfi+Ma4DCTDI6f0Ba8gFUDDZP1UyYbJ3gRERFJrVgnxAURFuIchwN/Y7j208iOKSIiMllXXXQrbO4GrxvGO/d0KkvmWYdIt82XAZutUyToICp9c6xDiIhMiOcI6wgJWlHkLXlkQnRjX0Qmz4fZmOrlQp3r0q6UkXJl+UG9lmSbedV28POtYzwmGFMhDqCr7xWMbl6H46NAh0GCUXDvZWjuyxlcfq/B+qmUjRO8iIiIpFYwLSsT4twL/n/27jxMrrLM+/j3PtXdWUkQRBhwX+GNIhokdFcntMvgZBAEtLo6iTDggiuLyuAyjkQdFTd0HBcEFRBIenEDVASVaUl3x6hhHDSKojIuIKhsgWzdXed5/wgoS5buqlN1n6fq97muua4R0qe+M1ZOV3fddT8QLkO/cBURkbwYveJe2v98NPA575RcC5WjvBNybfSKe4HWOprOgrbEiUg8li6dAa00EBcGvAuaUghxDH5Mh44RFJFaxDLEJPkXy3ClyAPmJ88GOrwz7peyZsEd3hGuFi87mGL5v7EwBDzRqWIDqS1itP8DsDJ1asglvVgQERGRmhTm1G1D3CSjB96W0bUMeNb9A3EiIiL5MTw8yejA6zDe4Z2SW2YaiNudYP3eCQ2V6thUEYnIvXOfB8zwzmiQzWzd8g3vCIlEqiNTRaQGlVgG4jT8m3tpJM+l9hl6Lsl2Cc/zTniQO1p2AKtn2aMpls8jTa8HepwqUuAjzNu4kLX9/+PUkGtx3OBFREQkt6x9JjZjTj0ufWtmL6S7lz8J+BWjQ7/M5HoiIiJZGxk4BzgVbTLdkS56jt3TOyLXQuWbwL3eGQ1jdHkniIhMXdLtXdBA32T9lZu9I0REpAXEstUr1UBc7sXyXOqYqeeSbBdyNRDXesel9pTm0tV7FhPpTcBrgYJTyW+w9AhGB87iqqu2OTXkngbiREREpGZ12hKX3XGpoXIIoO1wIiKSb6MDnwJOYfun++Tv2piY+WLviFxbO7QFuMI7o4Gew8KjZ3tHiIhMTWidgbhgg94JEhHTB0FEpAY6MlWykui5JNE5zDvgQVrnuNTu5Y+iq/dsJpLfYfYhwOvDu1uAs2mf9UxGhkacGqKhG7yIiIjUrDC3DgNxluFAHDyT9rS1jhITEZE4jQ58HrOTgIp3Sq6EoGNTd8dopdc6bcyak6dfAIuI7IwRrFW2Wt53/8ZSkSnS1iQRqUE6Gcd73JbqXpd3sWyIu+NuPZdk+3YyONA740HGvQPqbnFpH7p6zyFUfofZSmAvv5jwNULhIEYH3svwRVv9OuIRx4sFERERybVkzt7ZXzRkOBCoSt3gAAAgAElEQVRndgfDQ7dldj0REZF6Gum/BMJyYNI7JTeMpbBSv8PYlS3zrwbu8s5omDQUvRNERHarq7wAeJR3RkMY37h/Y6nUQ6EQx5v102FBb+yLSPXa2prvvig+ChbH7xp0ZKoAVFhIvmZ8JrwD6qazdABd5U+QJv+H2duAPRxrfkngxYwOHs/Yqt85dkQnT39ZREREJFKFuftkf9Fgf8zsWlb5WWbXEhERaYTRwUECL6cVPmk5NY+mc8Oh3hG5tv78CeAr3hkNYyzxThAR2S1roeNS05baVCpZSHVkqojUoBLJhjhtw8y/EDRcKfFIk+d4JzxM832Yt6v8PLr6vkCS/BbjdGC2Y819hPA2ts5/FmMD1zh2RCuSFwsiIiKSZ3XZEJdktCFuQamDAuszuZaIiEgjjQ1cThqOAbQCH8CSRd4JuZfahd4JDbSYnpNmekeIiOyatcpA3O103K7jUmV6tCFORGpRSOJ4j9sS3evyLo1kQ9yMOXouCeTruFQgNMdA3JEnzKG77xS6yusxfoiFVwIdrk1GP2l6IGODH77/Q7BShTbvABEREYmftc8gmbkH6dZ7s7toVkembhgaR9t1REQkVmsHr6a7bzkhfJlW/1CboQ1xu7O2f4xieQOwwDulAWYxsW0x8B3vEBGRXWiVgbgvMTzcHG+GSQNpa5KI1CCk1uo/IktGCsFII1gSN+t2fd8UCHZgvl5CJXEPai1edjAhfR2bxlcA88jHreBnmJ3KSP+wd0gz0CsFERERyUQyc362F5y0bAbiREREYjfS/zXMTvPOyAENxE2FcYF3QuNUjvQuEBHZqe7S44EneGc0RvoF7wKJUp7ezRWR2KSRbIirVHSvy7tYNsSJAFh4hnfCQ0W4Ia7npJl0l0+k2DdGmv4vgdcD87yzMH4BvIL900M0DJcd3eBFREQkE9aR6YlV46xb/ecsLygiIhK1kf5PE8KHvDOcHciRJ8zxjsi9SnoJsM07ozFMA3Eikl8hWeqd0Bg2wujQL70rJEI6MlVEapFEMsRkuVrlJDsSCvnYCbU7v5+r51KrW1iaD+znnfFQFseGuIWntNPVdxTFvkuY2PJnAhdD6PTOut/PwPoYOeiZjA5cxtBQxTuomcTxYkFERERyz9pmZXm5W9AnhUVERB5qbPAdYJd6ZzhK2DTxXO+I3Fs7dCfwFe+MBnkWPaWc/TJYROR+gX/yTmiM9PPeBS0hxHCW2zSlGhIRkRqkFb3HLdlIInkuzXyUvm+2ug5yth0O8r0hbmXC4r4XUixfwMx7bsPCNyC8AtjDu+x+PwFexujAwYz2D8DK1DuoGbV5B4iIiEhzsI5MB+J0XKqIiMgjBbbOeyUz79kPeJF3jJNDgTXeEblndgEhLPfOaABjsvCPwCXeISIiD7HwlHbsnhd4ZzTARrZuGfKOkEiZPggpIjUIBSOGuVpLIohscaklNN/YuTSjQnJg7l49BfK2zcxY3NtFan3wi5eT5m2jHgA/Bnsfo/1XeIe0Ag3EiYiISCasXQNxIiIidbf+/AmKxxwPs64DDvHOabxwqHdBFEb6h+kq34TxNO+UugsciQbiRCRvZt/VRZrM885ogNWsv3Kzd4TESkemikgNCpWEEMdiL8m5EAyLYCJuj1/p+6Y83TtgBzJ9Y7AqC0od7Nl2BCE9CuM4Uh7vnbQTPwDey+jAVd4hrUQDcSIiIpIJbYgTERFpkNEr7qV7+cugcj2B+d45DaaBuCkLnwf7kHdF/YUXAQa5+5y0iLSyNGmN41IDX/BOkIhZDKudRCS3YtnqZRXd6/IusTgmK/fZR8+lVhfsCbn71YeFuS6PW+zbH8I/EzgK40WQzs3p94RA4Fos+RCjq7/jHdOKNBAnIiIimbC2DAfiTANxIiIiuzSy6rd0950M4aveKQ32NBYePVvbaKagEC4ktfcAM71T6mw/OvsOYW3//3iHiIg8SCsMxP2YsYEfeUdIxNK8vaMrIlEpBCPN5/TDQ+jI1AgEI6eTNCIPle6fw+dqgwbiViZ0bVhEkhxF4CgI20/NyN3/O/7mLggXYXYeowO/8o5pZRqIExERkUxYR4bvtQb7Y3YXExERaVIj/V+jWP4EcIZ3SgMZHXMfD9zoHZJ7a4b+QnffJYTwGu+UukvCsYAG4kQkH3pK+zHBs70z6s7s494JEjnTkakiUoM0kq1ekn9mSRQj2kMLAgx5V4gr29+74JGS+g3EHd73RBJ6ILwA+8VSSB4dwd/VdRA+S/vsAYYv2uodIxqIExERkYwk7bOzu5hVbsnuYiIiIk1s6/yzmHlPJ7DIO6VhLNVA3FRV7FyS8Gry/JnZbBwPnO0dISICwIS9mOa/797Clnl6R7ahmnF7jY5MFZEaJElCGsFtpKJ7Xf7F8j12pZ5Lkr+BuCyPTO0sPZWkcAQhHIFxBITHZ3bt+tpE4DKCnafTC/JHA3EiIiKSCWvPcENchduyu5iIiEgTW3/+BF3Ly1jlemAv75zGCE/wLojG2tU30t37LYId5Z1SZ89kyfKncd2qm7xDRETAlnoX1J3xKdafP+GdISIiLSykkQwxSe6lluipJLm38OjZwDzvjEcINRyZWiw9A7t/AA6OAA6AENOt/WeYncdE4RLWXbbRO0Z2TANxIiIikglr68jqUoEZf7k9q4uJiIg0vbFVv6PYdzKEy71TGiOJ5ROi+ZAWzsXSZh+Ig8nJ44APe2eISIvrOWkmE1ua/Z67mUp6vneENAGL4NArEcmvWIaYrKJ7Xd4VgpHG8GTS982W1jEzf9vhtpvaQNyRJ8zhvm0LSXgeITkMwhJgP0J0T+vNwNex9LOMDI14x8juaSBOREREMhHSNKMr2Z0MD09mdDEREZHWMNp/BcXyZcAK75T604a4aRlbfS3F8k+AQ7xT6srseDQQJyLexre8GKthS0IMjItZO3Snd4Y0gTS+d0BFJEeSJCFk9fvoOrJE97q8Sy3xThDZLbN4BuJ6etqo7HswKc8j2GFYOIxN4wdhVtg+1hndbXELcBWEAbZu+Qbrr9zsHSRTp4E4ERERyUYlqxm2oONSRUREqjExfjrtHUcC+3in1JWhgbjpCuFjmF3inVFnh9FZOoC1Q7d4h4hICzN7eYRv8ExHAD7hHSFNwqyp/7KISJ2FOFZ6SQRCMExPJ8m5xPbN6Y8ZsyiWngHJoVg4jJA8j4nwHGAmAPG+3NtG4CqSMEhbuJLhofu8g6Q6GogTERGRTIR0IqMLoYE4ERGRavzwa3dQ7DsVQr93Sp3pyNTp2rbnADPvOQc4wDuljowkOQ74lHeIiLSoBaUOLByd0zeqsmHhW4wM/so7oyWFxCJ+Q3Enmu7/IBFppGBJFLcRHZmaf4klEbx+y3+h1Fewefl9GiQ3AhCM/DZOyThwNSEMUmm/gnWXbfQOktppBaiIiIhkI6sNccbt2VxIRESkBY32DwCXe2fU2WNhpX6fMR3rz58A/tM7o/7Ccd4FItLC9rQXEZjvnVFfyUe9C6SZpFG/YyoizpJUPxNKNkIUR6bqe2bLC3t4FzSpCeBbEE5ia/oYRgeOYWzwUg3DNY8YbvAiIiISgRAyG4jThjgREZGa2Bsw7vGuqKM2ejY8xjsiOu3pZ4G/emfUly1hcam5jwwWkfwye7l3Qp2tYaR/2DtCmoiOTBWRWoQkjjMuK7rX5V4IcTyXpMWZBuKy81eCrYZwElbYl9GBoxgdvJj1Q838u9SWpYE4ERERyUalks110qANcSIiIrUY7b+VlHd4Z9TVeDLHOyE6w0P3EcJHvDPqrI1KYZl3hIi0oJ6eNgIv9c6oKwvv9U6QJpNqSEREahDLhjhLdK/Lu0Qb4iQG2hBXg0lgDYF3gT2P0YP2Zax/OaODFzOy6i7vOKmvNu8AERERaQ4hncjmQolpQ5yIiEitOm6/gIl9zwCe7p1SFyGd7Z0QpbkzPs2m8TOB5t2iZpwIfNI7Q0RazPi+L8DYyzujbowxRga/650hTcZ0ZKqI1CCNYohJYqANcRIF20NzkdNyM9jVJOnVjLdfqyNQW5deLIiIiEg20oyOTK1oQ5yIiEjNhocnCeGd3hl1UyhoIK4a11yyCezD3hn1FRZSXLbAu0JEWo2VvQvqqqLtcFIP2hAnIjUIkQzEWUX3uryzKJ5Leh61PG2I241NWPgmcCqFwtMZHXgyo/2vZ83g1zUM19q0IU5EREQyESoZDcQVtCFOREQkE2ODX6FYXgcs8k7JnDbEVW/rps8wc/aZwL7eKXVj6YnA27wzRKRFHHnCHDaN93pn1NE61g5e7R3R8pJgTfdWuGkgTkRq0Iz3RXESxYY4PdtbXtgDYniqNsy9wDoIawmFYe6ZHGHD0Lh3lOSPBuJEREQkEyGrDXFtqTbEiYiIZCWEszD7vndG5kKigbhqrb9yM13lD2N8zDulbgIrYOU7YGXqnSIiLWDz+MuAud4Z9aPtcFInqY5MFZEaBEuimBHS8G/+pZZoaankntmMGG55dRO4CbMxCGtJkrWsecbP9DsfmQoNxImIiEg2stkQl7IPf8niQiIiIgKMDV5Hd+83CXaUd0qmkqCBuFqE9LNY8q/Aft4pdXIAxV++kFG+4x0iIi0gcLJ3Qh39mNHBb3lHSJPSkIiI1MLSJIrFXpOJ7nW5F8MTqaVHoaT1bAJ+BLYWS9fSVljL8Oq/ekdJnDQQJyIiIpnIZkNc+CtDQ5UMLiQiIiIPqCT/ThKaayAuaCCuJmuHtlAsfwj4uHdK/YQTQQNxIlJnS0pPosIR3hl1Y7zHO0GamQbiRKQWiWlGSDJhUWwbzH2gSA1uBtZiNoaFtRRuv4Hh4YyOpJJWp4E4ERERyUYmA3F2WwYXERERkQdb2/8/FMvXAUu8UzI0yzsgevM2fpaN804HnuidUh/hOHpKcxkeus+7RESaWFr4l0i2ilTjOkYGvuEdIU3MdGSqiNQgTRMsgm/BVtG9Lvea9rWcSN7cC/YzCDdg3ADpDWzhp6wfusc7TJqXBuJEREQkEyGbI1M1ECcijdNVOgRLDp3ynw/hLsYGv1LHIpH6ScLHSa2JBuISDcTV6qqrtlHsezuEfu+UOpnDRNIHfN47RESalhHCv3hH1EkgcKZ3hDxYMGiy9+tTbYgTkRoklmhnlmTCLCHk/smU+0CRB0mBX2PhBkJyAyHcQFL4KSOrbkbPZWkwDcSJiIhINrLYEBe4vfaLiIhMUWIvIfC+Kf95s18BGoiTOK35f1dQ/MVvgSd7p2QioCPWszDaP0Cx73QInd4pdfJGNBAnIvXStez5kD7RO6MugvUz1v8j7wwREZGdCpEMClui4Y+8C1FsiNPzSPLqPuDHDxl+C+nPWDu0xTtMBDQQJyIiIhkJWQzEmTbEiUiuzfAOEKneyhTK/wV83LskE5aOeyc0DePNBNYSxbtJ03YIi3uLrBkc9Q4RkWaUnuRdUCfbSHmnd4S0ANOGOBGpQbAkip9gdK/Lv0AczyWRfLqG0YGXeUeI7EziHSAiIiJNIqS1X8OCNsSJSJ5pIE7iNtn2ReBe74xMGBqIy8pI/zqMAe+Muqkkb/ROEJEmtLi0D0avd0Z9hP/iB/3/510hrSDVkIiIVM9M73FLNpIonkv6ntnqQl7P9bUneBeI7EoMN3gRERGJQZrBQFwwbYgTkTzTQJzEbd1lG4FV3hmZSDUQl6m08HZgq3dGXVh4GYuW7eudISJNppKcQnO+NryT9vH3e0dIi9DWJBGpSRTHXEKlontd3unIVImCbfMu2LGggTjJNQ3EiYiISDa0IU5Eml8zvukprSYkg94JmdCGuGyNrfod8AnvjDrpoC2c4h0hIk2kp6cN4w3eGfVh/8Hw1+/2rpBWoYE4EalBLBviLNG9Lu9CJM8laXX3eQfsxKNZePRs7wiRndENXkRERDIRshiIw/6SwUVEROplJhDDp0ZFdu6Aye8D8Q+gh7x+MjZmWz4A4c/eFfURXktPT5t3hYg0ifF9Xw7s751RB7/h7sqnvSNkJ0LSfD+HpDoyVURqEFK9xy3ZSLQhTmJg93oX7FT7bG2Jk9zSiwURERHJRhYDcYndWftFRETqJqHn2PneESI1GRqqEPiKd0bNErvHO6HpjF5xL3CWd0adHMD4Y17qHSEiTcLsNO+EOjmVDUPawCqNoyNTRaQWwWIYYtK9LgZxbIjT86jlpXndEAdtiQbiJLdiuMGLiIhIDNIMBuI2bbqj9ouIiNRR2v4o7wSRmhXS+I9NNQ3R18Xo4MXAsHdGXTTvAIuINFKx71AInd4Z2QtfY3TgKu8KaTUaEhGRGiRRDDFJDEIUG+Kk1YXcHpkKIdVAnOSWXiyIiIhINkKl1itsZf2Vm7NIERGpm5S9vBNEarZmwRoIf/LOqImFu7wTmlaavB5oxg1BSyiWD/eOEJHIhdCMw7WbsHCGd4S0INORqSJSgzTE8R63VXSvyzuLYrhSz6NWl+R4IA7TQJzkVgw3eBEREYlAqPnIVL2xLSIxMG2IkyawMsWSb3hX1GRmuzbE1cva1TcS7MPeGXXyTu8AEYnYomX7YpS9MzJn9j5Ghn7vnSEtKNWGOBGpRSxHpia61+VeBBviTANxLS9YfgfiLDzJO0FkZzQQJyIiItmoeSBOR5+JSAw0ECfNIox4F9RgnGsu2eQd0dQ6Zr4f+LV3Rh28hK7yM70jRCRSbZXTgA7vjIz9nC3zzvWOkBZlGogTkRpYJBviJP/i2BAnrc7CRu+EXVjgHSCyM7rBi4iISDbSWgfiuCOLDBGROtvfO0AkE0m6xjuhBhqir7fhi7ZC8gbvjDowjLd7R4hIhLqXPwrsTd4ZmUvSN7D+/AnvDJmCEMH2mmkLGogTkeqFSN7jntTwb/5F8D02aENcy7Pkz94JOxU4kIWntHtniOxIHC8WREREJP9q/T1m0JvbIhKBlMd5J4hk4rqhm4FbvDOq9EfvgJYwuvo7BFvtnVEHfSwp6TgPEZmedPI0YJ53RrbsUtYMfd+7QlqYjn8TkVpoq5dkJUTxXNL3zFaX2m3eCbvQTsddB3pHiOxIDDd4ERERiUAIlRqvoCNTRSQCxuO9E0QyFOuxqb/3DmgZFXszcLd3RsYKVApneUeISEQWrZiH2eneGRm7i0k70ztCWlyqrUkiUosItnoBWEX3urxryi2s0nTSyT95J+xSkhzsnSCyIxqIExERkWzUuiHOUg3EiUgMNBAnzUQDcbJr61bfTuAt3hnZCyfTU9rPu0JEItFWeRPwKO+MTJmdzrrVt3tnSKvTkakiUoNYNsQlie51eRfHc0nPo1a3duhOYJt3xk4ZGoiTXIrhBi8iIiIxSGvdEKcjU0UkCjoyVZpHYJ13QlUCf/BOaCljAxcCV3pnZGwGE/ZW7wgRicCRJ8yB8GbvjIxdyUj/Jd4RIjoyVURqElK9xy3ZiOK5pK2qAkB+P9ASeJZ3gsiORHCDFxERkRiEmjfEJXdkUyIiUlf70XPSTO8IkUx0bLvJO6E6pg1xjTaZvAb4q3dGtuyNdJYO8K4QkZzbNPF64NHeGRm6i6T9td4RUoWCjnMTEXmoJI77omlDXO4lkTyXRCDPx6ZqQ5zkkgbiREREJCNprV+uDXEiEoOEyS3P8I4QycTw1+8Gi28gPanc7J3Qctatvp1gr/fOyNgsCoWzvSNEJMc6S7MgnOmdkakQTmPNpXl+I01aiWnbjYjUwGLY6iVRiGJDnI4ZFwBu8w7YhQPoXv4o7wiRh4vgBi8iIiJRqPlnMtNAnIjEIeUg7wSR7ITYtsQFZs+80TuiJY31fxlY5Z2RqRBOprv8dO8MEckps1OBfb0zMnQ5Y4OXekeI/J3e3BeRGgSL4z3uyUnd6/IuRLEhTs8jAeNW74Rdm1zoXSDycHG8WBAREZEWMKmBOBGJg2kgTpqJ/dq7YJr+j2su2eQd0bKs8CbI+y9gp6UNwvu9I0Qkhw47bm8Se6d3RobupD19nXeEyEOkenNfRGoQIjlKWkem5p+2DUosgv3WO2GXAku8E0QeTjd4ERERyYe2QnxHtolIq9JAnDSRyDbEBTZ4J7S0kVV3YcmrvDMyFexlFPsO9c4QkZzpaH83gfneGZkxO5XhoTwfsSStyLQhTkRqYJFsiJMIxLAhTt8zBUjSnH+o1RZ7F4g8nF4siIiISD7MbNeGOBGJxQLvAJHMmN3snTA9QQNx3kZWfxv4nHdGhowQzvGOEJEc6Sw9lWCv987I0FcZ6W+uI6+lSZje3BeR6sVyZKo2xOVfiGFDnL5nCpAW8v6h1kUsKHV4R4g8WAQ3eBEREWkB23T8mYhE5BkcecIc7wiRTFh6r3fCtCSJBuLyYOvmtwA/987IjPFCisv+0TtDRHIiSc4B2r0zMvIHrPBq7wjJQIhhe800md7cF5EaJJEcmSr5l5ieSxKH9hm/gVwfOT+Lvex53hEiD6aBOBEREcmDu7wDRESmocB92xZ6R4hkInCfd8K0pOF/vBMEWH/lZpK0BGz2TslMSM+Blfo9mUir6+zrAl7mnZGRCtgKRlbp523JpzTN8xu6IpJ3sWyISyZ1r8u7EGJ4Lul5JDB80VYs3OKdsUtBx6ZKvsRwgxcREZHmd4d3gIjItCTo027SHNIQ04bWexk7qHm2ksVuzdDPsXCqd0ZmjOfSfaO2KIm0uoSPeidkJoT3Mdq/xjtDZKe0IU5EahHFMZfAhI5Mzb2gDXESkWD5PjY1sMQ7QeTB4nixICIiIs3uTu8AEZFpCVr/Lk0iqg1x4UewMvWukAcZGfwi2KXeGZkJfIDO0l7eGSLipKvv5RA6vTMych0HhP/wjhDZNQ3EiUgNdMylZMVi2BAX9D1TtjP7tXfCbhQplQreESIPiOAGLyIiIs0v6AgXEYnNIu8AkUwU2mPaEPcD7wDZgfbK64FfemdkI+xNIdEAiUgrOvKEOVg41zsjI3cy2baCoaGKd4jILpmOTBWRGsRxzCWYNsTlXhTH72qIXO4X+JV3wm7M4zY73DtC5AGJ6cxpERERcWf3eheIiEzTE+la/gTvCJGaTUR0ZKppIC6XhofuI0l6ga3eKZkIvJbOvud4Z4hIg903/h7gcd4ZmUjCq1h32R+9MyRjITTfJqRUb+6LSA0shiEmIJnUvS7vkib8HivNK01/6p2wW8GO8U4QeUACTHhHiIiISMuL6Lg2EZEHVF7gXSBSsxmhwzthigIWNBCXV2tW3wCc4Z2RkYRC+BSgN0VEWkVn6VkYp3tnZML4LGsGv+6dITI1GogTkRo046Cw+IhiQ5wWHMn9ZoT/9U6YgqO9A0QeoIE4ERERyYGgDXEiEh/jhd4JIjWbsDneCVN0A2uG/uIdIbswOvA5gq32zshEoIti74neGSLSEEYhOQ9o8w6pWeB62ma9xTtDZMp0ZKqI1CKOISYdmRqFCIYrLeh5JNsND90G3O6dsUuBg+gqP8U7QwS2D8Rt9o4QERGRZlDDz2RBG+JEJEZBG+IkfoXJSAbiwne8C2QKtm16NfAT74xs2IdYtGKed4WI1FlX76sJdHlnZOCvJOlxDF/UHMdXS2swbYgTkRoYcQzESf7FcvyuyAMsgt+7mI5NlTpa3Fuc6h9NAmyqZ4uIiIjI7pk2xIlIhOwfKC5b4F0hUpM0lg1xhWu8C2QK1l+5mVA4FmiGbX770j55jneEiNTR4tI+mDXD3/MKhF5Ghn7vHSIyPRqIE5FahDiGmJKC7nV5Fyz/G+KCvmfKQ0RwbGrQsalSH119R5Ha9yn29k7ljycJ3FPvJhEREZFdSkwb4kQkUuGl3gUiNUkKs70TpmAr7TPWeEfIFI2t+h1JWgImvVNqFngdxd7ne2eISJ2kyUeBvbwzahY4i9HB//bOEJm2VEemikgNYhhiApiY0L0u70IUw5V6HsmDhPxviIPF9By7p3eENJmlS2dg4RNAAexSunt3O3iZpMZfG5AmIiIiTa+W30Gk2hAnIpEKx3kXiNQkrUSwIS6s0RFwkVkz9H3MzvDOyICBfZ4jT4jg74mITEt374uAE70zahZsNWMD53pnSAOEEMfgh4hIo+iYS8lKEslwpcgDJi2Ggbg2JjuO946QJnPPvDOBp97/n9oJNnT/z/Y7lRj25/qXiYiISNOr7edGbYgTkVgdypK+x3lHiFQtieDI1JB8wztBqjDS/2ng894ZGXgym8Y/6B0hIhnavqngQu+MDPwv2za92jtCpGqm499EpAZxbPUCS3Svy7s4hs71PJK/e1z6K2CLd8ZuheRk7wRpIkv6Hofxzof90xkEu5zuUvfOviyxYH+qc5qIiIi0AKtpIC7RhjgRidck2hIn8UrJ+0BcIFS+4h0hVbo7fSPGmHdGBt5EV+8S7wgRycjEjE8R7LHeGTW6Eyscz/orN3uHiFRNA3EiUgtt9ZKsxPH9KIZGaZShoQqwzjtj90I3S5Y/zbtCmkSangvM3sG/mU1Ivkmx79AdfVkyweSv6lsmIiIiLcEK1X9t0IY4EYmYhZd7J4hULeEA74Rdsx+wdugW7wqp0oahcdrSlwGx/3domH2BztIs7xARqVFX38uBFd4ZNaoQWMbIqt96h4jUJtWb+yJSvVg2xCUF3evyLlDxThCZNrPveydMSWXyJO8EaQLFZf9IsF29BzMPwtV0lp718H+RbFp52G3APfWrExERkdZQy4fyKtoQJyIx66Z7+ZO9I0Sqklren7tD3gFSo+Gh20g4BtjknVKjp5IkH/COEJEa9JT2w8JnvTNqZpzG2MA13hkiNUuj2MgjInllRDIQN6F7Xe6lMQzE6XkkD5Xadd4JU2P/AivjuF9LPnUvfxRW+eIU/uReJMl36C4//cH/8IEn3y+zLxMREZGWktTwmjbVhjgRiZoR9Gk3iZSFPA/EBQp82TtCMrBm4HoIvRD9J+9P09GpIhGbtM8Dj/bOqE34OCMDn/GuEMlEHEfUiUhehZo+nS3yIJZ6FwGfkpkAACAASURBVEyBvmfKQ4XJtcC4d8YUHED3L4/0jpCIhfQ8gj12in96Xwjf4/C+Jz7wDxIAwzQQJyIiIrWxWgbiOrQhTkQiZydS26pMES85HoizH3Bd/x+8KyQjo4PfIoTXe2fUKCHhMjpLe3mHiMg0dfW+hmBHeWfUJPB1Rv/fmd4Z4iVpwp81dGSqiNQkjo1D4zoyNQKxf3BLWtHaoS3Aj7wzpiSkr/ROkEh1l0+8/wO2UxfssRTCdyn27Q/3v1gIcGMd8kRERKSFmNXwu9l1T9OGOBGJ3RNY3PcC7wiRaekpzQX28c7YqZBe6J0gGRsbvADj/d4ZNQn2WBLTc1MkJkuWPw2zc70zavQjtm1eAStj2GAiMjXaECciNanl09kiDxKiGIjT90zZgViOTeW4B2/sEpmS7uVPJvCpKr/6KVgowd82xGkgTkRERGpV9UDcZv1SX0SaQkhf550gMi2TyVO8E3ZhE7a13ztC6mBk4F0ELvHOqI0dQ1ffad4VIjIFnaVZVCpfBuZ6p9Tgd0wmR7P+ys3eISKZSjUQJyK1CHFszkwS3evyLtFAnEQqTb/vnTBFbRTCW7wjJCKlUgEqlwB7VPX1xj1MtF0I9w/EJUlFR6aKiIhIbar+UF7QdjgRaQ7BjqO79HjvDJGpszwfl/plRq/QkerNatv8VxH4nndGTSx8hMXl53pniMhuJMlngIO9M6pm3APJUaxbfbt3ikj2dGSqiNQgRLIhLpnQvS7vgsUwECfySDPCKDDpnTFFr6Jn2aO9IyQStxRWEuiq+uvTcB7rLtsI0AZwZzrnpvlsmXzgP4uIiIhMW1Lt7yBMb3aLSLMoEOxU4F+9Q0SmJISneifswhe8A6SO1p8/waIVx9M+OULgWd45VeqgQj89pecyPKQPeIjkUbHvVRBO8s6owSSElzO6eoN3iEhd6MhUicHCU9qZsXHFtL6mo/Jthoduq1ORPMBCHANxkn8W0tzvXwu5LxQPw0P30d13PSEc5p0yBbOZDG8CVnqHSM519b0cC/9WwxW2Uej4zwf+w/YXCysXjAPX15gmIiIircyq3lKvNxBFpInYqznyhDneFSJTUssn7errV4z2r/GOkDpbd9lGJtr+GfiDd0rVjKcxUfisd4aI7EBX6RAIn/LOqEEghJMZGfyud4jkREKHd0LmNBAnMZhx16FYuHBa/zPOft7ZraH6X0Y3VFLQvS7vQgRHppoG4mQnUq7xTpiywJtYePRs7wzJsc6+52DhYqCW7/GXsObSPz3wHx48PX9tDRcVERGRFmdVvz7RhjgRaSp7smn8ZO8IkSkwjG7viB0y+6R3gjTIusv+SKHwQiDiowDDK+jufaV3hYg8yMLSfCz5MjDTO6VqZqcyNnipd4bkSRrv83lnTEemSgQsmf7PTAVuqUOJPJyl2hAnWcn/QJzIzhTC17wTpi7szYzZr/KukJxatGxfknA5UMvQZArpRx/8D/7+YsGCBuJERESkelao8guDBuJEpLlYeBtLl87wzhDZpcPLBwKP9s7YgTvZsulC7whpoOtW3USSHAnc5Z1StWCfobMUwxElIq1hRnIR8BTvjKoF3sVI/6e9MyRnUtPPFyI+Fk/zz4+zZuivdSmRhwoWx0DcNm2Iy70YNsShDXGyE2sGrgd+550xZcY76SnN9c6QnFlQ6qA9/SrwuJquE7iC0aFfPvgf/e3Fwh57TIwA4zU9gIiIiLSu6rfUb84yQ0TEXbDHcu/8V3tniOxSm033jZ0Gsc+x/kq9Nmg1a1bfAPwzcJ93SpVmkCRfo9i3v3eISMsr9r4D41jvjBp8hLGB93tHSA4ZzTcQlzbhMbDSbAysa5pfcysaXGmMQBwDcZJ/iQbi5EEOO25v74RpC3zdO2Ea9mMyebt3hOTMo5LzCEz3NdcjGR96+D/624uFP76lawuEH9T8ICIiItKaqv9Q3tYsM0REciGEd2hLnORaCEu8E3ZgnKTtv7wjxMnowA8IyUuJ97Xh/hC+qnu/iKOuvpeDxTtMZnYBowNneWdITlkTbogLNsc7QWSXFpcOgjC9wQjj1jrVyMMZVX86u6EKodpjVaRR0pB6J0hOFMsfp73953T3LfJOmZZCGtGxqUDgrXSXHu+dITnR1XsOgZMzuNIaRgceMe/2kHeugyU6NlVERESqYknVP9vH+qaniMiuHMA9807xjhDZhTxuiOtnzaV/8o4QR2Orr8UoAZPeKVVaxMZ553tHiLSkztJhWPgSRPLm+CMNMHLg67wjJMdCaL6BOEMDcZJvaTL9n5kCt9ShRHYskg1xlTbvAtmNGDbEmTbE1ZlRLJ8HnAH2GEL47+0ftonEfowAMR3XPZO0cI53hORAd++7MHtbJtcK9ojtcPCwFwsFQwNxIiIiUh2rciAusC3bEBGRnLDwLhatmOedIfII2z+FmbdPYlYg/YB3hOTAyMA3CJwAxPop/RMp9r3ZO0KkpXQtfwJJcgUwyzulSt9i6/wTYGWs9z1pCJvpXZA5Y653gsguWXhRFV+lgbhGsRDHQJylGojLu2D5H4gLGoirm1KpQLF8EfDaB/3TWVgYpLscx9GeQ0MVgl3hnTEtFpZRLB/unSGOiuUzCPa+jK72Y8b6v7mjf/GQFwt37Rt+AGzK6EFFRESklRSqHIhLtCFORJqVPYa2iX/3rhB5hLRwrHfCDlzG6NAvvSMkJ8YG+sFOgVh/6R8+QnHZP3pXiLSERSvmYZVvAPt6p1TFuJr2WS9j/fkT3imSd2nzDcSlOjJVcmzh0bMJ9s/T/0LTQFyjBItkK2ybBuLyLkSwIU7qY+Ep7dyarAZO3MG/NQIfpFj+PD09+f97nIS4jk3d7hOwMo7hZslWV+9rgI9nd8Fw9s7+zUOfYK89dAK4PLsHFhERkVZhSZU/E4SggTgRaWJ2Gp2lp3pXiDxEwgrvhIeZJPBe7wjJmdH+LxB4FXFuiitAOsDh5YO8Q0SaWqlUoG1iAHimd0pVLHyTPTa+lOGL9DOxTEGyl3dB5izVQJzk14xZS4HZ0/46SzUQ1zDaECcZMca9E6Yg0g+L5djSpTOYefeXgdJu/uSrGN/32ywszW9EVtX22Pgd4F7vjGlaRNfPz/SOkAYrlldgdl6GV/wBo4Pf2tm/fMSLhWD2pQwfXERERFpFtUemkuiX/yLSzDpIknO9I0T+pqv8FEI4zDvjYS5mbOA33hGSQ2MDF2KcTJxDcY+iwNV0lg7wDhFpWrcknwT7J++MKl3OXeF4rrpqm3eIxCI030Bc0IY4ybPkZVV9mYVbMw6RnbI4BuLQQFzuGVu8E6TBOkuz2DjvCrBjpvTnjRcyMxnj8L4n1jesBlddtY1gQ94Z02b2XjpLz/LOkAYp9r4O+BI7mFOrWmCn2+HY0QNtPOg33w2gF2wiIiIyLVbtkaloQ5yINL2j6eo7yjtCBACz5d4JDzNBKLzPO0JybGTgS2w/viTGY2weR5J8m55j9/QOEWk6Xb1nY7zBO6NKX2Hr/BIbhmLYRiJ5YeztnZA541HeCSI7tHTpDCy8pKqvnUQb4homRHJkakEDcfkXw0Bcu3dA0+gpzSVJvg0cOc2v/H8U0nUUy4fXIysTCed7J1RhBklyCQtKHd4hUmddvWeDfZYsh+GwEcYGrtnVn3jkg/X2VoxwWXYRIiIi0hKqPjLV9Il4EWl+SXoexWP28M4QgZCvgbjAJxlb9TvvDMm50YHLwFYAk94pVXgmEzOuoOekmd4hIk2j2PdmzFZ6Z1THBmm/vY/15094l0hkAs23Ic7QFlXJp3v3OBKo9ud3DcQ1SohkQ5yOTI1B/gfiLEz/CGd5pJ5j92Qi+Q6wpLoL2GOA/6a7vLtjVn2M9K8D/tc7owrPZs/CSu8IqZeVCcXeT9XlZ/hgu9wOBzuZvisk4eLMY0RERKSpWbVHpiZoQ5yINL9gj4XZH/bOkBa3uPxc4EDvjL8Lf6bS9l7vConEaP8AIfQBMQ6RLGZi8ypKpWpXKovIA7p6XwMh1uPoV7F/ZTnDwzEO94q7ZjwylSd6J4jsULATqvzKu1g7lP/BmmZhWW6Yqaeggbi8M8v/39tgGoir1eLSPkzMuBaodcPbTAIDFMtvyiIrc2YXeCdUJ5xFZ1+Xd4VkbEGpg+IvVoG9sQ5XH2Zs9bW7+0M7fLFw57sP2wD8T+ZJIiIi0rx0ZKqIyG6E17K4dIR3hbSwwArvhIeyf2PdZRu9KyQiY4NfIQm9RDkUZ8dxa/Jp7wqRqHWV+zA7zzujShcxetAJDA3FePyz5II14/Gi+9FZmuUdIfIQS/oeBxxX5VffmmWK7FYcR6ZOmjZF591kBBviQANxtehcdiBp8gPgOZlcz9hISEcyuVbWtlQuBTZ7Z1ShQBKGKPbt7x0iGeks7cX85FtAuS7XD2G32+FgF+ezGval7GpERESk6VV9ZKoG4kSkZRhp8gV6SnO9Q6QFLSzNB17lnfE3gesZPeiL3hkSoTWDX8eSY4BN3ilVeC3dfSu9I0Si1N17NMYl7OL32bllfJjRgVfCytQ7RSK1aMU8oN07ow4SjGd4R4g8RCW8Aah2o5eOS20oi2PzWmJzvBNkt2IYiJsJK+N7HZwH3X09JOkY8OSMrrgF0pcwNvSTjK6XrfVD9wCD3hlV2h/C5frARBPoLj+bJPkxxgvr8wDhO4wNXjeVP7nTG+dkh10GOsJMREREpqbqI1NJ9HpDRFrJUxhPPuMdIS1olp1KYL53xt8k6ekaDJCqjaz+NmYvBLvDO2XaQjib7t53eWeIRKVr2QsINkT1AwpeAvBmRgbedv//LlKdwuTjvRPqJkkO9k4Q+Zvtb8CfUvXXmwbiGivM8C6YkhC02Sv3IjgyFaBng55L09VdPpEQrgay2rQ7SbASI0P53A73gJCe751Qg0NJChd5R0gNunuXERgDnlSnR0hJCmdO9Q/vdCDuvnc+9y+APq0tIiIiU1Ptkalpui3bEBGRnDNOoLt8oneGtJAjT5hDSM7wzniQL+T+l4eSfyP960itG/i9d8q0BXsfxb5/984QiUJn74ux9Eogjje9/26cwHJGBz7hHSLNwJ7gXVA3gUO9E0T+xuwVwF5Vf31qGohrrDheG5g2xOVeLCfYTNZwf2pFxfJ7CFwMdGR0xYDZvzDW/82Mrlc/Y0NrMX7qnVG90Eux/G7vCpmmUqlAsfdcgq2ivsc8X8ia1TdM9Q/vcrVmAh8CJmpOEhERkaZn1R6Z2pZMZlsiIhKBwKdZsvxp3hnSIjZNvB7C3t4Z24U/0b5typ/iE9mltatvJE27gA3eKdMX3qtf8IrsRrF8PIldQX1/mV4P92LhKMYG+r1DpFmE5t0QB0d4B4jczzA7rbZLhFuzSZEpimMgDovtdUzrCZFsiAttOmZ8KhaUOiiWLwWy/Xnb7FRG+ldles26CrF/MGcl3X3LvSNkinpK+3GrXQP25jo/0iaS9ml9wHSXA3F3rTz09xAura1JREREWkK1R6YGKtmGiIhEYS6VyiALj9YvRqW+ek6aCSE/A2iBUxn++t3eGdJE1g7dghUWg8W4dfA9GooT2Ynt23QHyW6jQ6PcTkIPI4Pf9Q6RJmI080DcszjsuJx8cENaWlfvCuCZNV3DtCGuweJ4jWCpNsTlXhLHQBypBuJ257Dj9mbP5LvAioyvfDYj/Z/O+Jr11fbnLwE3e2fUwAjhSxqKi0CxfDwTyU/BXtCAR/sway7903S+YJcDcQCh0PZB0BvVIiIismtVb4ijog1xItKqDmHmnAu9I6TJjW95DbCvd8Z24WuMDX7Fu0Ka0Miqu0grR0K4wjulCu+hq/ds7wiRXOkuv4HARUCVn7py8xus0MWageu9Q6TJhCY+MhWM9g5tiRNfnaVZmH2g5utYRQNxjRXHhriQ6IOQeTc5J5KBODQQtyudpafS1rEWWJzpdQP/yejAezO9ZiMMD08Swge9M2pUIIQv0dX7Cu8Q2YFFK+ZRLF8MfAV4dAMe8Ra2bv7odL9otwNxG//9OTex/dN4IiIiIjtXqHZDnI5MFZFWFnrp7n2Xd4U0qUUr5mG83TvjfneRdLzRO0Ka2NqhLewfjgc+550ybWYr6ep7n3eGSC50l99O4NOAeadM0zAT44sYWfVb7xBpQtbUR6aC8SLvBGlxlrwFeFzN12lDA3GNNdM7YGrCHt4Fshvrz58gjuVAB3oH5FZ3Xw9JshbjaRlf+XOMDdT7CMj62bbnRcDvvDNqVMDs4vs3iEteLC4dQdvkDUAD/3sJ/8b6KzdP96t2OxC3/Q+FDwBh2k0iIiLSMixpr+4LdWSqiLS6YO9lce+x3hnShNonzwH2984AIITXTHelvci0DQ1VGB14HfBm4nhD4+8svIti+QJKpdg2YolkxSiWP0ggwi0Gdh5b5x/JD792h3eJNK0F3gF1FThe3//EzaJl+2b0IaJJhhf8OYPryNTN8w6YGnuMd4FMSQxb4g7yDsiflQnF8rsJ4btkv6Hq84wOvJ6YZ2S2D3tG+PPVIyQELqTY9yrvkJZXPGYPiuWPkybXAo3bYh24ntHBL1XzpVMaiLtr5fN+Bny9mgcQERGRFlGodiDOtCFORFqdkdqldJU6vUOkiSzuLRJ4nXcGAGYX6KhUaajRgU8ARwMbvVOm6dXcknydhUfrWCVpLT0nzaRYXg252Wo6VZMYb2S0//X3v9kkkr3u0uOBPb0z6mxf/mjaEic+2sP7gLk1X8fCbbAyrT1IpmT76+U274ypCRqIi0MMPzseQPfyJ3tH5EbXCY+h+PNvA+8Bsh2sNy5kdOAUYh6Ge8Dd6YXAH7wzMpBA+Dzd5Y/pgxROusp9MOtG4AymOGeWmcTeSpV/H6ccGrCzgG3VPIiIiIg0P6t2II6KBuJERGAOSXIVi8vP9Q6RJrCg1EGwC8jHcXM3smXTGd4R0oJGB66CpAu42TtlWoyXMGvOf7O4tI93ikhDLFq2LxNbhoGyd8o03UlIXszIwGe8Q6TJhcIh3gkNYbbCO0FaULG8lBBencm1gum41EbaY2Yk2+EA0Ov6GBiRbPpNNUAO249rtG0/AfvHzK8duISRg15NMwzDAWwYGo9zC/dOBN7Crcm3Oey4vb1TWsbh5YMo9n4PYzUuJ5HYpYz0D1f71VMeiNu4cuGvDT5U7QOJiIhIc6t6IK4tsuOsRETqJTCf1K6huKy5j0SS+ptv7yDk4iiNcUK6jPVXbvYOkRY1unoDSboIbMQ7ZVpCOIxKMqpP/0vTW7zsYNrSHwKLvFOm6edY4XmMrb7WO0RawrO9AxrCOJ7u5Y/yzpAWsmjZvhAuIrsPEWkgrpEmmO+dMA3aEBeD1O70TpiSwAu9E3ytTOjufRdp8j2wf6jDA6xi7KCTmm7j5z3pF2iOLXEPeBHtHT9i8bKDvUOaWk9pLl2951Dgf8Fe4FRxJ0nlLbVcYFqr7O7m3g8Cv6nlAUVERKRJJQWwKrbkhkQb4kRE/ibsDel36S4/3btEInV4+SDM3umdcb+3Mjb0E+8IaXFrhv7C3ZUXgl3snTItxtMIk2sp9h3qnSJSF119R5GmI8DjvVOmJfAN2HI4I6t+650irSK0xkAczIHJN3pHSMsw2tILwbIcVNJAXCOlUQ3E7Q0rG3u0nEyfpXEMxBFeQD5OA2i8xaV9KP7iKoK9j6yPSN1ugP3TE5tuGA62b4nD/tU7I2NPIk3X0t37Su+QptNz0ky6ym9hIvktZm8Dqj0eLAN2FmuG/lLLFab3DXjl87cG7E21PKCIiIg0L2ur5nVRQQNxIiIPtR+E73F43xO9QyQyS5fOoM0uAjq8UwhcwujAp7wzRIDtv/wd7T8JC2cCEb32tMdA+D7dfcu9S0QyVSyfgYUrgD28U6ahgvEOxgaOYfSKe71jpKW0zmB0sNPoLM3yzpAWUCyfDizN9JrGrZleT3bDYtoomdCzQVvics8iOTKVR9Pdd5h3RMMtLh1BmvwEOLI+D2CDtN/+CoaGmvc0o9H+AQLf887I2GyCfYFi+TssKT3JOyZ6PT1tdPedwuTmmzA+hv+R32sY7f9irReZ9kT6xpULvw3hq7U+sIiIiDQfK1Tx/nuqI1NFRB4h2GMphGvpLB3gnSIRuXfeZwkhD78Y/Qkhfa13hMgjjAx+bPsxD+FP3inTMJsQLqOr/Al6etq8Y0Rq0lOaS7F8GfBxqvi9tKNbwZ7PyMA5QPCOkRbSVX4K8ATvjAbaB0te7R0hTa671A2ck/2FTRviGqlAXL8rmeSp3gmyG0YkG+KAEF7jndAwC4+eTVf5o9uPSGX/ujxGsC8yeuAyhocj+vBclULyJmDcO6MOXkQl+RnFvjdrI2cVSqUC3X3Lmdj3F4TwOYI91jsJGKfCa8ng5++qnhAFKqcDm2p9cBEREWkySRXv0YWJ5v9BQ0SkOk8iSb7HomX7eodIBLr6TiNwsncGcCeF9HjWDm3xDhHZodH+NbSH5xLs+94p02Kczvh+36XrBG2XkDgtXnYwE8l6ILaNh9eQpIcw2r/GO0RakPEi74SGMzubw47b2ztDmtTiZQcTkiuBGZlfO9VAXEOFJK6BuFB4hneC7I7FMxAHy+g5dk/viLrr7H0xM2dvwHgr9TkiFSx8krH+VzflMak7snb1jYTwce+MOpkN4Vy6b1zL4vJzvWOi0FOaS3f5dG5NbiKEyyBHw9vGR/jBwC+yuFRVA3F3rjz8j2acnUWAiIiINI+qjkydoQ1xIiK78Aza0u9pU5zsUteyF2DhY94ZQEoalnPd0M3eISK7NDx0GwdUXkgIHyKmbU8WjiDZtp7OUh42QYpMXXffKaTpOuDp3inTUCHwLkYH/ok1Q3/xjpEWZaH1BuIIe9Pe8X7vCmlCS0pPIq18G6jPEIlNaiCuseqzKapu0gO9C2Q3QojlyFSA2YzPPNE7om4Wl/ahWL6MxL4NPLF+DxQ+wMjg6cT0O4EszJ3xPuAP3hl1E8JhpPyYYvkrFJct8M7Jpc7SAXSXP8RE8gcCnwDydtzsr2mb9R9ZXazqlYF3h4UfB67JKkRERETiV9WRqSIisjsLSJJ1dPY9xztEcmhJ6UlYGATycJTi6awdvNo7QmRKhoYqjA2+ncBxGPd450xZsMeSJNdRLOtIOcm/B45IDeFzwEzvnKkLf8LsRYwNvJ9We4NMcmRlQkie713h5DV0lZ/nHSFNpOuEx1BJrgH7h7o9RjsaiGuoNLKBONOGuPyLaUMcWHgDpVJ9tqZ56iqfTJrcSL23ShvvYHTw3+r6GHl1zSWbgDO8M+rMgOMhvYGuvlUsWf4076AcMIq9z98+bJrcTOAs6vUhgdqkmL2G4Yu2ZnXB6s/QXWlppSN5RYBbs4oRERGRyCVVbIgTEZGpOIAkrKG7/BLvEMmRI0+YQ5pcDsH/WCnjXEYHPuWdITJtYwOXk7IQ+Il3yjTMAC6gu7y6JY7KkThtPyL1x8R3ROpVTBaew0j/sHeItLjuDV25eI3nIwEuo3jMHt4h0gQ6Swdg49+hvseA3cvw0H11vL48gj3eu2CanukdILthUR2ZCvAMbim80TsiM52lp1Ls/R7GF4G96vhIAbM3MTJwTh0fI/9GB74K4dveGQ2QYGEZlcovKJYvpqvU6R3UcIf3PZHuvpUUy78Fu5btP5/n+I3ccG7WP4tXPxAH3PfO5/4lSdLloKPOREREpMojU0VEZKrmELicrr7TvEMkB448YQ6bxr9B4FneKVj4MiMDZ3pniFRtbOA3zNt4OMa5xLQNKtDHxIwb6Fr2Au8Ukb9ZeEo7xfK7SdMfATFtQ7mPEE5hdOCfWbf6du8YEdLCyd4JroynYbPO986QyC0uP5ck+SFwcJ0fSdvhGmplQlyvMQCeRNcJj/GOkF1Iw1+9E6YtCe+lp7Sfd0ZNekpzKfb9O0nyU7B6/1w7CeFkRvo/XefHiUMhOYXYNiNWrwCciCVjFMs/pbt8Op2leg5e+jrsuL3p6juJYvlaCuG3hHA2dT1+ODM3cHfIfHNjTQNxAHe/+7DvB1iZQYuIiIhErqojUyszLPsSEZGmlWDhPymWP9mURyPI1PSU5rJp/FtAj3cKMErb7BOIaYhIZEeuumobIwNvxcKRxPWm5uOw9Lt0lz/G0qUzvGOkxXWVDmHmPT8E3gNU8cOhm+sopAczNniBd4gIsP2DDxZ6vTPcBfro7mue7TfSWIt7jyXlOqD+R2uGqF47xm/JhicAs7wzpi0ZP8I7QXbBtvzOO2HaAvOZKHzEO6MqC4+eTVfvWUwkN0N4LzCzzo94H5YczejgxXV+nHhc1/8HAq/0znDwTAKfIEluoVi+jGJ5KZ2l+L6nPFxn6al0976VYvk62jtux8KFwPPZfnxsDLaRpq9gw9B41heueSAOYCMLPwBck8W1REREJGI6MlVEpFFO5U92OT2lud4h0mDFY/ZgonAVsMQ7BdjAxPhLGb5oq3eISGZGBr9Lmh6MhS97p0yDEXgL9877EZ0l/62R0noWlDoo9r4XS34EHOKdMw3bsHAmowc9n+uGbvaOEfmb+yZKgF7nA4TwSbr6Xu6dIZEplv+V1L4CzGnI45kG4hqqYgd5J1RpqXeA7MLoFfcCEW4JDq+gu+8E74op6zlpJsW+NzNz9m8x+xDw6AY86m0kHMHI6lY4InR6xgYuh9CqG/Nmsv340G+RJHdQLH+LYvlNdC9/snfYlPQcuyfdvUdT7P0IxfIGkuQmgn0UWMz2jXhxsfBvrB36aV0undWF5n7g+n2S8fQn1ohPW4iIiEgubb3p+2z7vx9O74uS9v1Zc+mf6lMkIrIL3b3vItj7vDNq9BPS9CWsHdIv4FvBohXzaJ+8ikCXdwrwa9rTxQwP3eYdIlI3XX0nYeGTwB7eKdOwDbOzabvtYwwPT3rHSAvoLi0kJBcBz/ROmR5bT1I5kTVDP/cuEXkYo1j+IXCod0iOjJOGY1g7vIOsCgAAIABJREFUeLV3iOTcktKTmEwuwHhhgx/5HEYH3tHgx2xd3b1vvf9N/9j8lfbb/0Gv0XOs2LcGQrd3RhUmCLyEsYH8Li9aUOpgz+QU4B00dpbkRiq2lB/0/18DHzMuS5fOYOO8dcCzvVP+P3t3Hh9nVS9+/HOeJF2A0rJvBQVFURQFZGmSQmQHAUGZJkVQ1IvLdb0uuHIt4HKviMvFq/cHqHhZmmlQEFCURSPNpLZQVC6rLCoiskOBbknmOb8/UhWx0GmbmTMz+bxfr7zS1jOdT7HN8sz3OaeO/I7AdURuIuMmHs9vqcbOZWtlv57tGcn3JoT9Gb1J+tWM0eZndeAXlIoHUqXTR8Z0i7yNT79xn5Dzc2CDsfx9JUlSY1h57yAr7imt5aPCdpR6H6hKkCS9kOYYiAN4hMA7GChemTpEVbTPWzamdeRnwL6pU4D7CPlMBvruSx0iVV3n8TtB+YI6GUStXOD/CPG9zJ+3tl+cS5XpOmYawxM/B7wfaE2dsxaGCOFLtD74eV+QVl3q6OmG2Js6ow4tA46jVLwqdYjq0ZyMzts/QOQL1GpXuH/0AUrFbyZ43vGps3sukZ7UGeskcszojkyqS53d3yXy9tQZ6+gZMvZnfvGm1CH/YEZhMln2VuAzwPY1fvYSeX40C/oer/HzNp6OwsshW0yaz6GNYIjILQRuIvBr8vBHsng/Q0P3s+jSx8bsWQqFFh5q2Za8/CLy7NVkvJoYXg3xVcC0MXueehJYQhZezfW9f6reU4yxjU+74fAQw+U01oUQSZI0Blbet5gVd/58LR/lQJykRJpnIG6V+N+0bfAxj69sQu3Hv4hQvoy6OIYu/oUYZjJYvCd1iVQzhUILD7T8G8TTaKybQCMxfI+RlaeM6UVajXNzMjpuPxn4PLU54mjsxPBL8vheflW8PXWKtFqju6fcDjTGUU21VybyAQaL304dojoys/BKYnZu0psXQngTA72XJnv+8aaj+4/ADqkz1k28htK8Q1JX6Hl0dn+SyJdSZ6yzwBIi76BU/GHqFPY7fmfKI++FcBKwSYKCH9A2+QSvka6F9u63E/hu6owGtBz4M3A/gQfJwzJCvnzVr696C8sJDJEzCZhMxmRY9RbZihCmE+N0YCsa8bjTdRfJ4puYP++yaj7JmA/EAWx82g0nhhi+X63fX5Ik1aehB25h+a1re7OuA3GSEmm6gTgAbiEym8HiLalDNEZm9hxIThHiZqlTgEfI8i6Pl9O41Xn8TuTlcxIcw7WewmOE/BQG5n2PKh1BoXFiZmF/8uwbNNxxOuExIh9jsPf81CXSC2rv/giBs1Jn1L3AV2l96BPu8jjOjQ7CnUpkFqmPDMvzfVjQtyhpw3jR3v0SAnenzlg/YS9KvTemrtBqtM96MyFckjpjvYX4XzwRP17zIx73LExlUjgGwgnAgSSbE4lfofTKT8CcPM3zN7CO7u8Db02doXEi8AUGip+t9tNU5YvEpz631wUh8PFq/N6SJKl+hdaJqRMkabx7FYEbaO/+QOoQjYGOno+Rx5/VyTDcA5TZ32E4jWsDF9/LYPEgQnwn8ETqnMrFzYjhO3R0z6e9UAc7TarhtB//Ijpn9ZFn/TTaMFzgewyvfLnDcKp7M2bvQqDZbtapjshHGN5qkM7ul6VOUQKd3a9Z9TnpllXHZqYdhhv159QB48gRqQPWW4z/kTpBz6Ol5a7UCWMihg8yLbuB9llvhjnV/Ri597Gb0dH9Fjq6L2dS9jCE84GDSDMMt4IQ3kpp3scdhltHT+YnQ1zbI6CkdRB/ysAr/r0Wz1TVD0ZT59x4JvCxaj6HJEmqHyOP38fSxcW1e1CeT2dBnxeOJNVec+4Q93ch/pgQ3878vkdSp2gt7XnUBkza4LtAd+qUVf5I5ECPSZWepauwNSPhbGI4LnXKWorE0EuWfZaBi+9NHaM6137iljB0CoF/ZfRIl8YRuJ08vofBedenTpHWqPP4TYjlQWCX1CkNZhmBjzNQ/DbugNrc9nxXG5OfPIzIv0A4ivo6nSpn23wCfX3l1CHjQntPPyHunzpjvYXwFgZ6L06doecYvRbzNPUxaDtW7iTEL1OOc1nQt3y9f7cZhcm0tOxDzA+GcAiwB/Xx3+sB8vxYd+scA3sWpjI5m0/k1alT1LTuJbS8joGLa3KjaXW/aIwxbHza4vODWytKkjQulJ9+iGd+9b9r9yAH4iSl0uwDcaMehPBuSr2Xpw5RhUaPgPkhsFvqlFXuJuQHMtB3X+oQqS7NnHUMefhvYNvUKWtpGOI5jLScwcK5D6WOUZ2ZWdiCPJwC4V+BDVLnrKVnIH6RJ+NZNT8mSloXXcdMY2TSz4hx79QpDStyE1n4KAO9/alTNMbaCzMgO4HALGDz1DmrF/9CaV6jfR3YmEa/V76L+hqIXFePE/Ld/T67DnV239ykg0BLgWuJXE8WbqK1fAf9fQ+x2oHyORldd27KSL4dOS8m8DIIu0J8LbAr0Frb9DUIYRGRYyn1PpA6pWnMKGxHli0Atk+doqazjCybwfy5N9fqCav/RcOcX7RuzJTzAryt6s8lSZKSypc9ydOlc9fuQSOt27PwovurUyRJL2B8DMStEn8K8cOU+u5MXaLnMyej444PQTwD2DB1zSq3kbUdxPwL/5I6RKprXYWNGMlOJfJhYELqnLX0DMSvwYozKV3+dOoYJTazsAV59nHgX6mfz0WVKhPCdxkOpzrkqYaxX8/25PHHTfrCewo/guwzlObemjpE62pORuetu0PLUcR4AvCS1EUVuJFSca/UEeNCR/d/AR9InTFmIjex0YT9uPqCpalT9Czt3f+9anfk8WAEeAJYturnrYzeDDOV+tj1rQLhQtomnUz/+StSlzSdjtm7Qj4ATEudoiaSYIfU2kzRxximnnbjf0L4eE2eT5IkJRGHl/NU/zfX7kEt+U5c3/f76hRJ0gsYVwNxAAwTOJvh1tNYeNFTqWP0LDNn70aenwfU0wsp1xNajqnV9vVSU9jv+J0pl78OHJE6ZR08CvGrtA19m/7LnkwdoxprP3FLsqGPEnkfjTcIB3A1kY8yWLwldYhUsfbZBxDKcyFsmTql+cSfEjiLgXnXpi5RBWYUXkoWDoJwEPB6YNPUSWvpR5SKx6SOaHr7FXaknN0OTEydMsZ+wYplR7L4imVrXqqaaJ/1ZkK4JHWG1mgEwqco9X4ldUhTm1nYnzz7Gc33sVcpBL7AQPGztX/aGpp22o0fjZEza/28kiSpRvKcJdedtXaPaWl5GddffFd1giTpBYy/gbi/eojIpxgsns9qj0ZQzXSdNInhFf8O8ePU15ETF/Nk/naPmpPWUXvPGyB+jcDOqVPWwTPAeYT8ax7hNA509LyOGD+46ii6RnyR41ZC9jEG5v40dYhUsa6TJjG8/HTgozTM7isN67fA+bTlvfT3PZg6RsCe72pj4hO7QrY7gQ7gQODFiavWT+DbDBTHy25SaXR1tTK09bWEuH/qlCq5jcDxDBR/mzpEjB5lPjzxUaAldYqeR4j3E+hh/rxS6pRxobO7QORi6uu6pRrPeZSKJ6d44poPpm08Z/EJgfhdoK3Wzy1JkqrvqZ9/jVgeqfwBWb4r8/tuq16RJD2P8TsQNyqERcAHGehdmDplXOrs6SKP59TfwEz8IqV5n8VhSWn97FqYwNTwYUL4LDAldc46GAHmEfMzGez7TeoYjaE939XG5CePI2YfgDgjdc66iQ9D+He2zc+jr6+cukaqUKCz+zgiXwRemjpmnMmJ/IIQ5gJXUep9IHXQuNBV2IhyeA152J0YdifE3YFdabzj5V9Y5LMMFr+QOqNpHX74RJZM/R4hzk6dUmVDwGcpFb+C34un19H9C6ArdYZW6yqGh05k0aWPpQ4ZV9q730igSGPeRKXUIpexXX5cqu/dk+zUtvGcxYcF4iU05hb8kiTpBTz1y28Rh5ZW/oAsew3z595cvSJJeh7jfSBuVATmkuf/wYK+/0sdMy50FvaEcBoxvCF1ynMME+P7GJx3buoQqanMPGEb8uEzgJNo1F0GIteR8XW2ya9y+KiBtZ+4JWH43RDfA2ybOmfdhMcI8Su05t+kv++Z1DVSxWb2HEge/wN4XeoUAYHbIV4D4RqGhhb4ovp6mFHYlKxlJ8h3Al4CYSeIO0HYEXgR42EXxBjezmDv+akzmlLnrIOI4euMDlKOF/1kfJT5xZtSh4xrHd3vB85OnaF/MELgVAaK/4lDo2m0zz6AkP8I2Ch1ihrK9bRNPpT+81ekCkh2dOnGp9+4Dzk/DA17AUaSJK3O04PfIV/6eOUPyNjTb/IlJeFA3HPEnwJfpjTvF6lLmtLM7j3ImQMclTplNR6EMItS7/zUIVLT6ux+2ejnnFgg4fW49fQAhO+Tl7/Lgr67U8eoAjMKk8lajibkJxLDoTTuMTePQzgLlp1N6fKnU8dIFRndKXQWIbwP2Dd1jl7Qn4CbiPHXEH5DzO9lIr8fv4O3czLa79kchraEbEvIt4SwJVkcfR/jlsAOwI7AtMSxdSA7hNLca1JXNI2u2ZsznL+ZyLsI7JE6J52wAOLFjLRexsKL7k9dM+7sM3srWvP7adyvnZvNnwl5DwN9A6lDxr0Zhb3JsquATVOnqCHczIp8Pxb3LUkZkfQC3EZfvGmLlqH8AuDQlB2SJGnsPLPoQspL/lL5A0LY1+P6JCXhQNzzuYHAmQy84gcwJ08d0/DaC68lZHOAN6ZOWb2wADjOo6OkGpnZvQd5/AKEw1KnrKfrCXyH5csuYfEVy1LH6NnmZLTf2UXITwTeBGycumg9PAnhq4y0fIOFFz2VOkaqyMzZu5GXu4F/gbBl6hytl0cI4feQ30ceHieExwj5Y+TZY7TkT5IzRGBo9H0YIg8rCeXq71oTWwIhtkLeSmhpJdACeSu0jP5aTgvEVkI2+r/lcSKEKYR8Q2AjAhuRZxsR4oaEuOrHbARxQ4ibQtiMRt3VNoUs35X5fbelzmhYMwtbkIe9gA4IBwB74d+/57oDQj8xLiLjJp7Ib+fWvqHUUU2vo/ty6vOGxvElchkTspPpn/to6hSt0jF7V8ivxk2v9MLuIWubyfwL1+LF4upIf0dqjGHq6Ys/SeQM/CJHkqSGt/SmPkYe+0PlD8hiJ/PnlaoWJEnPx4G4NbmHyFnE/HwW9C1PHdNY5mTMuO1gQngPgTdSD997r1b4H54sf8iL6VICHT0zIX4J6Eidsp6eIoQi5fwHDE37OYvPGU4dNE4FOnr2JMQCxOOJYXrqoPUSWEIev8bK+PXUd5NLazYno/OOvSC+iZxjCeycukhSDbWt3IT+y55MnVG3DjlxQ54pb06Wb02M2xHijuRhJ+DlhPhKCNukTmxAI4xer7mLwO8h3EfkUbL4KJFHyfNHGeIRv4ZaT+09byDEK1NnjFuBJcAHGSj+b+oUrcZ+hR0pZ9cCO6VOUV26haztkHoYhoM6uii/yemLZ+Z5nAtsl7pFkiStu2U3X87wQ3dW/oAQXs9Ab3/VgiTp+TgQV6lHIF5IHntZ0LcodUxd26+wI+XwdggnAdunznkBS4nh/Qz2np86RBr3OmYdQcg+R4x7p04ZA08CPybGS1m5/Cp3jquyrsJGDGeHEDiSyOHA1qmTxsADBM6mdeX/OFygurXnu9qYtGRPQtifGPcj0EFkauosSUkso1TcMHVEVe197Ga0tb2LyAQCE4hh4uh7Jv795/G5P98E2BzYDJiY+E8wng0DjwGPAo8Q4jLyMEwIQ8AQIQ4TGQKGCQyN/jiu+nF4kFLxvKT16QXau+900D2Ja2kJ7+D63j+lDtELaD9xS8JQL/D61CmqKzeQ54exoO/x1CF/VTcDcQBT5ty4eUa8oAmOjZAkadxafvvVDN3/28ofEOLBDMy7tnpFkvQ8qj8Q9wBwBTH8ipby74k8Qx42JLAj8CrIOiC+DmirYsNYuwdikRjmMli8JXVMXeg6aRLDy98M8R0QXk+dfZ+9GjfS0nI81198V+oQSc8ys+dAyvFTBA5MnTJGlgNXQ7yULP6E+X2PpA5qCp3H70SeH0nIj4SwPzAhddIYuZnAWTyR97prqepGodDCn9umQ/nlBF4DYTdCfA2RXWisr98lVUvkLgaLL0udUVXthdcSsl+nzlDN3UOp+NLUEcm1zzqZEM5JnTGOLCOEUxjo/RZQ/SPItf4KhRYeyD4PfIL6vx6q6uuH5UdTuvzp1CHPVn9/MWMM005f/ME4eoTqlNQ5kiRp7ay465es/MNabSB0BKXiVdXqkaTnVb2BuDsJnMo2+Q/p6yu/4MpDTtyQZ4Y6CKEL4uuBvYGsCk3VcCuRuUAvg8V7UsfU1MzCFpTDoYTsUIhHAtNSJ1UgJ8YzWTntVI80lOpYe/deBD4JHEs9Xrdbd7dC7CfyCya0/JL+uY+mDmoAgZmFV5BnMyF0QpwJvCh11NiKPyVwljdIqS60d78EwqcJ+Ysh7Mjobr+tiask1bd+SsXm3hmnvTCDkA2mzlDN/ZFS8cWpI5LbtTCBadmdwItTpzS/MEBL9g5v3mxQnbOOIob/pTGuj6oaIlcyYXKB/vNXpE55rrq9sLb5nJu2Hab8VQjdqVskSVLlVv5hESvu+mXlDwjxaAbmXVG9Ikl6HmM/EBcJnMkT+anrvLvJPrO3oiV/EyEet2rnl5Yx7KumG4GfQLiWFRv/qukGrrq6WhnZYl/IDiOGwyDuQR1/P/1PQryfvOVtDM79eeoUSRWaMXsXsvwTwFtovp2IIoFbiPQTwi8olxexoO/PqaOSO/zwiTy50WtoCTOJYSbQwehxY81miMBFxOwsSnNvTR0j/c3oC3mXp86Q1FAuplR8S+qIqmqffQAhvy51hmruAUrF7VJH1IWO7rcAF6bOaGKPEjmFweL5uCtcY+s8fidi+RJg99QpqrnvsGLqe+v19YC6v4A/dc4NB0H4b6C5tx2WJKlJDD3wfyy/9adr85A3Uyr+sFo9kvS8xnYgbgjiiZTmzRuj3w+6Zm/OUPlYQjgOOIDG2aHiGeB6CL8AFrJi6WIWX7EsddRa2fvYzZjQtjsx7A7sS+BAIlNTZ62DSOB/GG79JAsveip1jKR10FnYgZi9H3gnsGnqnCp6BPg1Mf4awm8I+a8p7XoXzMlTh1VF+/EvIhvZjZi9GuJuBHYjsjON87l+XfwOwrm0hfPdIVB1qXPWbGK4OHWGpIZyJqXiKakjqqq95w2EeGXqDNVafJjSvK1SV9SJQGf3AJH21CFNJgLfYXjokyy69LHUMRojXSdNYnj52cC/pE5RTawE3k+peF7qkBdS9xdZlszZ61rm3PrqjVl+SoBPA5NTN0mSpOcXWtfyU3WIE6tTIkk1M0JkFoPzfjSmv+voi8XnAucyo7ApIXsjgeOAg4AJY/pcY2sj4AiIRwAwaYMROrpvARYSuBnCbQyH21k496GklX/VWdiBPNudLOxOzHeHsDuw/T/cl9qY96jeCeFkBnrnpw6RtB4G+u4DTmFG4XO0hNnk4X0E9kidVQVbAIcQwiGjP82g4/ZnCN03E8NdEO8lxnuJ2b1MLN9Lf9+DSWvXaE7GfndsR5kXE3gx5C8ihhcBryDwKmJ5KjHwt08wjfl5phIrCVwK4f8x0NufOkZ6YdmUZv7HKKkKAuNhh1tfkx2XQrPtUL0+IjnvJnATzbdzdyo3k4f3sqDX45ibzehxmSfT3n0lWfwmMUxPnaSquZPIiQwWb0gdsiZ1v0Pcs009Y+GOlFv+E3gzkKXukSRJ/2zkyftZesPcyh8Q4jsZmPfd6hVJ0vMYqx3iIv/KYPHbY1BUmT0LU5nccjQxPw7CIcCkmj33mAqPQbwD+CNwH4E/AfdRDn8m8gSx5fF13tVsz3e10bp0MtnQFFpaphPjdsQwnSxuR2Q6MWxHiNOBbWm+C/zDEL7CxktO46qrVqaOkVQF7YUZhOz9wHHU94B0NS0D/gDcQ+QvhPgoZI8SeBTCI8T4KGUeZVL5Ufr7nhmTZ9y1MIFNJ25GeXgzWvLNyLPNiHEzsmxTYtyM0aG+FwEvBqYzvl8wu5MQz6W15fvuBqeG0d79EQJnpc6Q1EBiKDDYe0nqjKpqn3UCIVyQOkM19zSl4sapI+pKR8+nIX4hdUaDewI4nbaHvkl//0jqGFVZV2EjhrLPE/gAzvU0kyGI/8nGT3+hUa471/0Occ+25NR9fg/M2uiMxa9oLeefjoTZQEvqLkmS9HdZ2wZr+4hmG0SQNL5cVNNhOIDFfUuAC4AL6Dh6CmHSkcRwHHAEDTUcFzcDOla9/X1DjuyvPxiBju4yhCchPgUMA0NEhggMr1o0mdE/8+R//PGSVd8nZhBX/X4h/v05QpPu/hHij4nxo5T67kydIqmKBvsWAAtoP/HfYOhkAiczOog1nmwAvBJ45ejtvqt2W4vwtw/2LcBwBh3dI4we5TH0t/eRlYS/vg8rIWaMDhdOIDKBwARGB9omPOttEvnw6FPlq67nh/D3zzPjXWAJ8ENC/n3m9/0ydY609uKUBts/QFJyZXeIU7Mazzd2rF5pl/+g47YDIRyQOqUBrYR4NqH1iwxc/ETqGNXI6I1pH6aj50KI5wC7p07SeruWLP8Q8/tuSx2yNhpqIO6vnjl1z9uBE6eeceMcynwSeBt+cpYkqS6EtrWcxYheWJHUsP7Mivx9SQtKlz8NzAXm0nH0FJh8NNANHEpz7BrUsmpwbrO//YqvU/6zwO2QfYSBuT9NnSKphgYveBj4AvBFOnv2h/hWIscBUxKX1ZvWVW8b/u1XwrPfP2egzc8za2M5cCUhzGXKkp80yh3i0moFNkqdIKnRtD2QuqD6sskeJz0uNeT8QHXNyckKPeRhEaM7QmvNInAxseUzDF78x9QxSqTUeyOFwl78JXyYGE7j2d+Xq1HcSIifYmDetalD1kVDf0Jbcurr7gFO3vTzi07PR8InIuGdNNSOCJIkNZ/QNhlGv9mp9KUkB+IkNaoPrtqtrT6MDsddBFxE1zHTGJp0DCHvhnAQDf69n57XI8Twedoe/JbHTUjjWmSgtx/oZ0bhfbSEY4i8FcLBeLKCxt4IcA0xXkxY8aNVX39ITSA4TCxpbURWbtT8A3EZk52HG5e8hrQ68/seoWP2kZAPANNS59S5a8nDKSzo/XXqENWBvr4ycBadhT7I5hA5ET/O1L8QFpHnX2Zw3g9p4On4prrncaMv3rRF63B+fIy8FdgjdY8kSePVkuu+tpx8pMJBt/AlSr2frm6RJK1G56zPEsMZ6/jofkrF149pT7XsfexmtLa9CUI3gS4cjmgC4TECZ7JB2ze5+oKlqWsk1amuwtYMZccTOAGPJ9H6GQZ+CfEHtLVcQv/cR1MHSWOuo/tC4C2pMyQ1ivgwpXlbpa6ous6eOcT4udQZSmDF1AksPmc4dUZdmtHTThZ/Bu4u+09C/DHl7Iss6B1MnaI61t79EkI4FeIJeJ263uRELifLz2KgbyB1zFhoqsnLZz69xyPAN4BvbDLnhlfl8NZIeEuAbVO3SZI0noSW1mWx4oG46A5xkhrRp1IHVGzRpY8B5wLnss/srWjNjwHeCBwATEzaprX1OMSv0JafTX/fM6ljJNW5/r4Hga8CX2W/wo7k4U0Q3kRkBk12k6yq4nEIPyHEyxlu/RkLL3oqdZBUXXGKHxolVS78OXVBTeT5JIIfG8elCU+0MnpThJ5rQe8g7YVDCNmPgU1S59SBMoE+QvYl5s+9OXWMGsBg8R7gJGYUPk+WncroTSkOxqV1JyFeyEh2Ib/q/UPqmLHUVANxz/bEnL1uAU5h3rxPbXz7Sw4KMb6V0Rd9PJdYkqQqCy1ty+Lwis0qXO5AnKRGcy2l4q9SR6yThXMfAv4f8P/oOHoKYfJhRN4IvAGPe6hnfyTEs4krzvFoOknr5Pq+3wNnAWcx84RtKA8fQ4jHQng9TXx9UGvtdxAvJ3IF28XSqqNtpPHCXV4kVS7E5j8uFSCwBLgzdYYSmDIpS51Q1wb7FrBvdwctXAnslDonkZXABeT5f7Kg7+7UMWpAo39v3kZn9xeI4VSIPXh9oobiwwR6ycOFDBZvSF1TLeNrrH/OrRM2yVbsU44cEGJ+AIR9gQmpsyRJajZPL/junfkzj728wuX/S6n4tqoGSdLqrOuRqZFDGSxeXYWidLq6WhnaZj/C33aP2yF1kgBYCPGrbBt/4FCCpKroPH4TKB9F5AgIB0Gs9KYWNYPAEiLXE7gOuIqB4u9SJ0nJdPYsJMa9U2dIahCRcxgsvjt1hqTE9j52M9raLoRwWOqUGrobwv9jeOX3Vp1KIY2NrsLWjLS8jTy+k8DOqXOa1DJi+BEhv5C2h6+mv38kdVC1ja+BuOeY/tXByU8/1dYB4QBGjwvaE6dOJUlab0sXXfjbkSV/eU2Fy/soFWdVNUiSVmfdBuJ+T6n4EiBWI6lutBdeS2g5CuLBwL5AW+qkcWQ58EPy8C0W9A6mjpE0nszJ6LhjD8gPhnAI0I43kjab5UAJ4s/J43VMZ7ED19Iqnd23EXlF6gxJDeNzlIqnp46QVBcCnd0fJPJFYIPUMVUyAlxOiN9mYN51NPt1UaXXPms/QngncBzN+++qVn4H8RpiuIYJ+XX09z2TOqiWxvVA3D+Zc+uEjVj50lbiLjHEl8fILgF2AV4OTE2dJ0lSo1h20yW/Gn7s9/tWtDhyJYPFo6qcJEn/bF0G4iKfZbD4hSoV1aeOo6cQJnURwyHAwYx+f6SxdwPE77IizmVx35LUMZLEISduyNKV+xPDIQQOAl6J1xIbzXLgRoj9hOznTFmygKuuWpk6SqpLHd1nA1ukzpDUIEI8j4F516bOkFRHOo/fibz8DQJHpk4ZM5GbyMI8IhdQ6h0fR0Wrvuzzlo1pHZkNvB3YG69JVOJR4DoI1xDK1zDQd1/qoJT8C1OhDecs2npC1rKQkUWBAAAgAElEQVRzHtk2xnwLQrYZkamBOCXA5AgTIGQQW6L/XSVJ49zyxX1Dw4//oVDR4sh1DBYPqnKSJP2ztR+IGyFr24H5F/6lak2NoLOwA7HlYOAQ4ECP11sv9xD4ATkXMFi8JXWMJL2gzuM3IZb3JYZ2Qt4OYW9go9RZ+psI3AlhITEupIWFtDx083g4AkWSJEmqGzN7DiTG04m0p05ZJ38dgiPrY+Die1PnSH+zz+ytaC0fBtkREA8BpqVOqhMPAYsJ4XpCvIb5xV/jLo5/4+CWJEkae+2zTiaEcypc/StKxRlV7ZGk1dn72M1omVT5LhAtYcgLQc81J2Pmna8i5p3koZMQO4HtU1fVudsg/oAQfsBA8bepYyRpnRUKLdzfshsttBNjO6OD0punzhpf4jWQzSfGhUxYuYj+y55MXSRJkiQJmFnYn3L24VU7xrWmznkBS4HrCfE6aL3Ua59qCIVCC39hBrHlCIhHAK9JnVQjo8NvxMWQ3UheXsyCvj+njqpnDsRJkqSx1znrKGK4vMLVt1IqvqqqPZKk2uks7AAtnRA7gU4iuwJZ6qyEniHEX0K4hnL2MxbMvSN1kCRVxZ6FqUwKn4PwAer7BZ9mchV5/mYW9C1PHSJJkiRpNWaesA1x6HjIZhHjXqSfzxgCFhLjdWTxOpZvspDF5wwnbpLWzz6zt6Ilvo7AHsS4B4HdgRelzloPTwN3j77FO4hhMeXWxSy86P7UYY0m9QdcSZLUjNq79yKwqMLVf6JU3KGqPZKkdLqOmcbw5L2I5d3Jwu5Edgd2pnmH5JYBi4nhl5Bfw8ppC7ywKGlcmVl4JeXsvwgcmDplfAgDrCgfyeK+JalLJEmSJL2AmSdsQz50CGSvJ8Z2AjtX+RmfhvBbiL+B8BtC+TdMeeYWrrpqZZWfV0pvRmFTWsIexLD76KBc2Bny7SFsQX3MST0O3EMMdxPyuwnhbsrhbkLb3Qxe8HDquGZRD/9HS5KkZrNfz/aU430VrQ0sYaA4rcpFkqR6csiJG/LMit3Isr8OyL0W2AXYKHHZ2hohcBeRhRAXkmcLmfjg/9HfP5I6TJKS6+jphvhtYJPUKePAr4kTDvOiuSRJktRAuo6ZxtCE3QjhFRBfSuDFxGw7iFsAmwJTgLbnPGoFsIwQlxHDMghPQ3yAyJ8I8X4ifyLL7icr/5Hr+/4AxBr/qaT6dvjhE1my8XRa8umUw/YEtieE7YlMZ/Tf3GRgMpHJBDb4289hEn+fr8qBlcAKiCsgrCCwgsjoj4lPQniYEB+C+DBkD1POR99TfpihTR72BuracCBOkiSNvV0LE5iWraCyrzXKlIoeqSRJGr1Ttjy0MyHbmZjvTAg7Ay9d9bZBwrLHgT8CvwNuI3A7MbuNJ0fu4ta+oYRdklTf9nnLdFrKFxLi/qlTxoHfEfKDGeir7MYkSZIkSfWvq6uVlVu0MbQisHjPFTAnT50kjVtdJ03ikaW514MbhwNxkiSpOjq6H2P0LqY123DCRlx9wdLqBkmSGlhgZmFzRtialrAVMWxFZCsytiKyNYGtgCnkTCJjMpFJECdBmMToHXwZMLSat6XAExCfIGaj7+EJAg8RuY+Y3cfQM/ex+Iplif7cktQE5mR03PFJiKcB3ghTXfcwknWwcO5DqUMkSZIkSZJSciBOkiRVR0f3rcArK1rblm9Df9+D1Q2SJEmSlMyMwt5kWS+wY+qUJvcbVuRdLO5bkjpEkiRJkiQplSx1gCRJalax8gG3kWzjKoZIkiRJSm1B3yKGh/aC+PPUKU3utUzKLqfrpEmpQyRJkiRJklJxIE6SJFVJqHwgLgYH4iRJkqRmt+jSx2h7+FDg7NQpTW4/hpcVKRRaUodIkiRJkiSl4ECcJEmqjsBaHIGaT6leiCRJkqS60d8/Qqn4QQj/Agylzmle4WgeyM4DQuoSSZIkSZKkWnMgTpIkVUdci4E4d4iTJEmSxpdS73eIeReszY00Wksn0d59ZuoISZIkSZKkWnMgTpIkVUfgocoXR3eIkyRJksabwb4FlMMM4HepU5pW4KN0zvpo6gxJkiRJkqRaciBOkiRVR74WOz1k2dQqlkiSJEmqV7/q/QNtWQchLEqd0rRi+DIdPUenzpAkSZIkSaoVB+IkSVJ1tGRrcWQqm1axRJIkSVI965/7KBu0HQDxp6lTmlQG8WLaC69NHSJJkiRJklQLDsRJkqTqKLeuxUBc3KyKJZIkSZLq3dUXLGXFtKOJXJA6pUltSBauYOYJ26QOkSRJkiRJqjYH4iRJUnUMvuRRYKSitSE4ECdJkiSNd4vPGWaw+DbgzNQpTSmG6eTDP2JGYXLqFEmSJEmSpGpyIE6SJFXJnBziI5WtjR6ZKkmSJAkgUiqeQoinpg5pUnuRZd8HQuoQSZIkSZKkanEgTpIkVVGo9NhUd4iTJEmS9HcD8z4PnJI6o0kV6Ow+I3WEJEmSJElStTgQJ0mSqukvFa2KuEOcJEmSpH9UKp5J4MOpM5pS5DN09pyYOkOSJEmSJKkaHIiTJEnV9EBFq4I7xEmSJElajYHiN4j8KxBTpzSdGM+js9CZOkOSJEmSJGmsORAnSZKqKNxX4cJpMMevSyRJkiT9s8HityGcDOSpU5rMBGL4Afv1bJ86RJIkSZIkaSz5wrMkSaqeyJ8qXJkx49ZpVW2RJEmS1LhKvd8hhJNwKG6MhS0ZiZcxozA5dYkkSZIkSdJYcSBOkiRVUcU7xEFbm8emSpIkSXp+A70XEMM78fjUsRXYg6zlnNQZkiRJkiRJY8WBOEmSVD1xpPKBuHLZgThJkiRJL2yw93wi70ud0XziCbR3fyR1hSRJkiRJ0lhwIE6SJFXPxA3vp9LdGwKbVzdGkiRJUlMYLH6byEdTZzSdwJfpnHVQ6gxJkiRJkqT15UCcJEmqnv7zV0B8pKK1MWxV5RpJkiRJzWKw+FVCPDV1RpNpIYYi+xV2TB0iSZIkSZK0PhyIkyRJVZb9qcKFDsRJkiRJqtzAvM9D/GLqjCazKeXsMg45ccPUIZIkSZIkSevKgThJklRl+X2VrYtbV7dDkiRJUtMpzfsMxK+lzmgyu7F06HupIyRJkiRJktaVA3GSJKm6AhXuEOeRqZIkSZLWQWneRwjh3NQZTaZAR8+nU0dIkiRJkiStCwfiJElStVW2Q1z0yFRJkiRJ62ib8nuBH6XOaC7xDDpmHZG6QpIkSZIkaW05ECdJkqosVDYQF6IDcZIkSZLWTV9fmTyfTWAwdUoTyQjhYjq7X5Y6RJIkSZIkaW04ECdJkqorVnpkKltXtUOSJElSc1vQt5xyfhRwR+qUphGZSuRyuo6ZljpFkiRJkiSpUg7ESZKkKqtwhziYxuGHT6xqiiRJkqTmtqDvcUJ+KPBA6pQm8nJGJvZSKLSkDpEkSZIkSaqEA3GSJKm6Srs8CAxXtHbp1C2rGyNJkiSp6Q303UeWHU5gSeqUphE5lAfCmakzJEmSJEmSKuFAnCRJqrI5OfDnipaW2aq6LZIkSZLGhflzbybGY4Gh1CnNI/wbnbPekbpCkiRJkiRpTRyIkyRJtVDZsakhbl3lDkmSJEnjRWneLyC8FYipU5pGDN9m5qyO1BmSJEmSJEkvxIE4SZJUC3+qaFWM06vcIUmSJGk8KfUWgY+kzmgiE8j5IZ2FHVKHSJIkSZIkPR8H4iRJUvUF/lDhyu2rmSFJkiRpHCoVvw7xK6kzmkfYkphdziEnbpi6RJIkSZIkaXUciJMkSdWXc09F62JwIE6SJEnS2CvNOwW4KHVGE3kNS4f+FwipQyRJkiRJkp7LgThJklR9WX5XReuCO8RJkiRJqorIiqlvh3hN6pAm8iY6Zp2WOkKSJEmSJOm5HIiTJEnV18rdFa50IE6SJElSdSw+ZxhWvBn4deqU5hFOpWPWrNQVkiRJkiRJz+ZAnCRJqr7+vgeBpytYOR2P3JEkSZJULaXLn2YkOxz4feqU5hHOZ2b3HqkrJEmSJEmS/sqBOEmSVCv3VLBmIvvM3rLqJZIkSZLGr4VzH6Kl5VDg0dQpTWIyMf6IrsLWqUMkSZIkSZLAgThJklQrIVZ2bGpr9NhUSZIkSdV1/cV3kedvAJalTmkKMUxnOLuCPY/aIHWKJEmSJEmSA3GSJKk2YnZXResCDsRJkiRJqr4FfYuIYRZQTp3SJF7HpMlzYY7XnCVJkiRJUlJenJAkSbUR8sp2iMsdiJMkSZJUI4O9PwbekzqjeYSjab/9q6krJEmSJEnS+OZAnCRJqo2cygbiQu5AnCRJkqTaKRXPA05PndE0Ah+ivfsDqTMkSZIkSdL45UCcJEmqjZYJlR2ZStixuiGSJEmS9Byl4ueA76TOaBqBr9M566jUGZIkSZIkaXxyIE6SJNXG/Av/AiytYOVO1U6RJEmSpH/S9tB7gJ+kzmgSGTHMZWb3HqlDJEmSJEnS+ONAnCRJqqVKjk19SdUrJEmSJOm5+vtH2HDCLODG1ClNYkPyeCWdhR1Sh0iSJEmSpPHFgThJklRLlQzEbUzX7M2rXiJJkiRJz3X1BUuJE94A3JM6pTmEbYjZj9nnLRunLpEkSZIkSeOHA3GSJKl2YqxkIA5GorvESZIkSUpj8IKHyfPDgEdSpzSJV9E6fAldXa2pQyRJkiRJ0vjgQJwkSaqdkN1V2cJ8p+qGSJIkSdILWNB3N3l+JLAsdUpzCAczvNW3U1dIkiRJkqTxwYE4SZJUO1m5sh3iwB3iJEmSJKW1oG8RgW6gnDqlSfwLHbM+lTpCkiRJkiQ1PwfiJElS7eQtle0QF4MDcZIkSZLSGyheSYzvTZ3RPMIX6Jj1ttQVkiRJkiSpuTkQJ0mSaqfU+wCBJRWs9MhUSZIkSfVhcN65EM9IndEkAoTz6Ow+MnWIJEmSJElqXg7ESZKkWru1gjXuECdJkiSpfpTm/TsxfDd1RpNoJTKP9sKM1CGSJEmSJKk5ORAnSZJqK+eWClZtS9dJk6reIkmSJEmVmvDgu4GrUmc0icmE7EpmFl6ZOkSSJEmSJDUfB+IkSVKNhUp2iAusXLpz1VMkSZIkqVL9/SNsOKEA3Jg6pUlsSgw/Y7+e7VOHSJIkSZKk5uJAnCRJqrFQyQ5xkIVXVDlEkiRJktbO1RcsJU54A3Bv6pSmEMN0yvFq9j52s9QpkiRJkiSpeTgQJ0mSaqtMJTvEAWGX6oZIkiRJ0joYvOBhWloOAx5NndIkdqFtwo/Z86gNUodIkiRJkqTm4ECcJEmqrYVzH6KSF44C7hAnSZIkqT5df/FdhHAksCx1SpPYh0kbXEJXV2vqEEmSJEmS1PgciJMkSbUXw5p3iYu4Q5wkSZKk+jXQu5AQe4By6pQmcTjDW38PCKlDJEmSJElSY3MgTpIkJRArOTb15fhCiCRJkqR6NjDvCmI8CchTpzSHeAIds85KXSFJkiRJkhqbA3GSJCmFWypYM5l9e15U9RJJkiRJWh+D8y4kxvcAMXVKcwj/RmfPnNQVkiRJkiSpcTkQJ0mSEqhohzhoia+ocogkSZIkrb/BeecS+VDqjKYR4+fo7PlE6gxJkiRJktSYHIiTJEm1F2MlO8RBxIE4SZIkSY1hsHg2MTrENVZi/A/aez6YOkOSJEmSJDUeB+IkSVLtLeh7HHhwjeuysEv1YyRJkiRpjAzO+zIhnJY6o2mE+HXaZ52cOkOSJEmSJDUWB+IkSVIqa94lzh3iJEmSJDWagd45BL6cOqNJBEL4Hzp7TkwdIkmSJEmSGocDcZIkKY3IrWtcE+Kra1AiSZIkSWNroPgJ4OzUGU0iI8bv0dldSB0iSZIkSZIagwNxkiQpjVDRDnFT2a+wYw1qJEmSJGlslYofIoRzU2c0iRYiF9HRc3TqEEmSJEmSVP8ciJMkSYmE31S0LIbXVDlEkiRJkqohMrDLeyBcmDqkSbRBnEd79yGpQyRJkiRJUn1zIE6SJKXxZPlmYGiN68o4ECdJkiSpQc3J2bZ8EiFekrqkSUwkcBmdPV2pQyRJkiRJUv1yIE6SJKVxa98QcPMa1wUH4iRJkiQ1sL6+MsunHU/kytQpTWIyMf6YjtkHpw6RJEmSJEn1yYE4SZKUTuCGChY5ECdJkiSpsS0+Z5ipTx0H8ZrUKU1iA8ivoL3nDalDJEmSJElS/XEgTpIkJRRvrGDRjnQcPaXqKZIkSZJUTVddtZIVy48Brk+d0iQmEuKldHS/KXWIJEmSJEmqLw7ESZKkdEJLJQNxgWzSblVvkSRJkqRqW3zFMlh+JPCr1ClNog0o0jlrduoQSZIkSZJUPxyIkyRJ6Ww9ciuwbI3rosemSpIkSWoSpcufpm3l4cCvU6c0iVZiuJD27renDpEkSZIkSfXBgThJkpROX1+ZwG/WvDC8tvoxkiRJklQj/Zc9yfDQwcDNqVOaREbgO7R3vzd1iCRJkiRJSs+BOEmSlFhc87GpedyzBiGSJEmSVDuLLn2MPH89sObviVSJQOBbdPT8W+oQSZIkSZKUlgNxkiQprZwb1rgm8Gq6TppUgxpJkiRJqp0FfY8z0nogUEqd0jziV2nv/kzqCkmSJEmSlI4DcZIkKa3YUsluCG0MLd296i2SJEmSVGsLL3qKDSccCvHnqVOaRuDzdHT/F8zx+rckSZIkSeOQFwQkSVJaC+beCTy1xnVZtnf1YyRJkiQpgasvWErbBm8AfpI6pYl8gM7bihx++MTUIZIkSZIkqbYciJMkSalF4KYKVu1V/RRJkiRJSqT//BU8mR8L/DB1StOI4Tie2vhquo6ZljpFkiRJkiTVjgNxkiSpDsQ1H5sacYc4SZIkSc3t1r4hts1nARelTmki+zE8cYD9erZPHSJJkiRJkmrDgThJklQPbljjisBL6Tx+kxq0SJIkSVI6fX1lSq94K4T/SZ3SRHYlzwdp735V6hBJkiRJklR9DsRJkqQ6kA1UsCiQlz02VZIkSdI4MCen1Pte4HOpS5pGDNPJGGBmYf/UKZIkSZIkqbociJMkSemVeh8A7l7juix6bKokSZKk8aNUPB04GSinTmkKkank2c9o7+5JnSJJkiRJkqrHgThJklQvfrnGFTE4ECdJkiRpfCkVzyPEY4HlqVOaxEQCc+no/hLM8fq4JEmSJElNyG/4JUlSfQhhzQNxMKPqHZIkSZJUbwbmXUHMD4TwWOqUJvJJOm6/kq5jpqUOkSRJkiRJY8uBOEmSVCfKlQzEbc6+3a+oeookSZIk1ZvBvgXkoRP4Y+qUJnI4wxNvYGbhlalDJEmSJEnS2HEgTpIk1YeBvvuAP6xxXWuYWfUWSZIkSapHC+beAaGdyE2pU5rIS8mzX9HZc2zqEEmSJEmSNDYciJMkSXWkgmNTY9yvBiGSJEmSVJ9KvQ+wctlMQrwkdUoTmUKMP6Bj1ulASB0jSZIkSZLWjwNxkiSpfsRYybGp7hAnSZIkaXxbfMUyBubNgnhG6pQmEiCcSkf3j+g8fpPUMZIkSZIkad05ECdJkupH1lLJQNwOdBZ2qHqLJEmSJNW3SGnev0PoAZanjmkiR8HIzbTPPiB1iCRJkiRJWjcOxEmSpPoxcPG9hHj/GtflwWNTJUmSJAmg1Fsksj/wQOqUphHDdEJ+LR2zzmTXwoTUOZIkSZIkae04ECdJkupLDBXsEhc8NlWSJEmS/mqweAN5vjdwY+qUJhIgfIxp2UJmFl6ZOkaSJEmSJFXOgThJklRfYlzzQFyGA3GSJEmS9GwL+v7Mxk91EvlW6pQm81ry7EY6ut+fOkSSJEmSJFUmpA6QJEn6B53dLyNy5xrXZfmWzO97pAZFkiRJktRY2rt7CJwLbJQ6pclcRUt4N9f3/il1iCRJkiRJen7uECdJkurLQPF3wJpfXChnB1Y/RpIkSZIa0GCxF/LXEfi/1ClN5nDK8XY6ej5GV1dr6hhJkiRJkrR6DsRJkqT6E7lizYvCwdUPkSRJkqQGVeq7k3K+D3B+6pQmsyHEMxnZ6iZmzupIHSNJkiRJkv6ZA3GSJKn+ZNmaB+JCdCBOkiRJkl7Igr7llIpvJ/A24KnUOU0l8mryMJ/2nu+w97Gbpc6RJEmSJEl/50CcJEmqP1Oe/AXwzBpWbc//b+/+Yus+7zqOf55jO0vTJSlV061tGmd/tCZ1AmNpmyVOskx00Gxa9q/5t/EngIY02N0kYBIXQQOJi1GJiwltAqqARuYaOi1iJJoGZIudrC1FbLW3lhYttQkjok3Wdm3zxz4PF+nEJBa3K8n52cevl3R0jn7n8dHbvvM53/M8G/as6kQOAADAnDYy9JepPT+dWr7WdEqXKSn119K34NEM7v71ZJ/32wEAAGAW6Gk6AADg/3jiiemsWHNbktUvs/LxTI490IkkAACAOW3ykWcyObY//QPPJeUdSXqbTuoii5Jsz4qn7s7Kgf/MxPijTQcBAADAfOYbawDALFUPvoI1jk0FAAB45WpG7vvj1NyW5F+bjulCA2mXL2Zw97Fs3Lml6RgAAACYr0rTAQAAP9bWPdflQvtUZh7g/0HOLr02D3/uQqeyAAAAusLAjgW5pvxeUn43SV/TOd2pHk6tn8yxYcOHAAAA0EEG4gCA2Wtw10iSwRnX1PqOHLvv650JAgAA6DKDewZS2p9LzcamU7pUTfI3abc/nePDDzYdAwAAAPNBT9MBAACX1L92WZI7Z17UOpnJsX/qSA8AAEC3mRz770yM35ub15xKK5uSLGw6qcuUJAMp5aNZseZd6V97JhN3/1typDYdBgAAAN1qpiPIAACaNVUPvvyi+u4rHwIAANDVao4N/WlquTXJ/U3HdLHB1Hp/Br/zWAZ3fTw//0tXNx0EAAAA3ciRqQDA7Da46/Ekb55xTbu9PMeHT3YmCAAAoMtt3P2elHpPkrc0ndLlzqTk3pTW/hw98K2mYwAAAKBbODIVAJjdVgy8ISkbZl5Unsjk+D93JggAAKDLTY49nusHP5uec99Pyfo4RvVKuSrJhtT6saxY88H0D1ydN9763Zz49g+aDmtIyeDu23Lzmo+lf+BPsnzNmUyOjzUdBQAAwNxjhzgAYHbbuOv2lDw486J6OKP3betMEAAAwDyydc91uVA/ldSPxhesO2E6yVeSsj9901/OkeHuHo4b2LEgS8o701Pel5rtSW76kWePZHTonU2lAQAAMHcZiAMAZr/BXWNJBmZYcS597eu6/oMCAACApmzYsTat1j1J7mw6ZR45n5qjadVDmSp/n28MfafpoMtiy+6bM123JGV7Uu9KsuTSi9urMjr8WMfaAAAA6AoG4gCA2W/Tzk+klk+/zKoPZXTo/o70AAAAzFebd/9c2vUPk6xvOmUeOpGSQ6nlcPrKsRw58FTTQS9r3Y6luarcntq6I2mvT3J7Um54xT9fck9Ghj5x5QIBAADoRgbiAIDZb/2e16W3/R9Jei+9qOzP6Bf2dioJAABgXhvcvT2l/kFq1jadMo+dSPJQkodSykOpLzyc0YPPNVKydWtvzr5+eXqzMqm3pmZ9kjuS3JL/1+cQ5ekseeamHDp07vKEAgAAMB8YiAMA5obBnV+6eJzKJT2V0dWvS/a1O9YEAAAwr+1rZdOju1Pr7yd5c9M1pJ2af0/Jd1PKk6k5kdQn06oncr7vyVx18r9y5MjUT/yqAzsW5NosTem7JrW9IrXdn5qVqWVlSvqTrExyU5Key/rb/K9fzOjQ56/QawMAANCFDMQBAHPD5p3vT7t8ccY1pb05I8MjHSoCAAAgubg72NTr96TW30ky0HQOM7qQkhdS6wtJeeHi4zx/8anSl9S+lPSlpi/J4iRLkyxssDdJjmZ0aEvDDQAAAMwhBuIAgLlh3W/0ZeEzJ5Ms+zHPnk/qZ1J6P5WRvz7T6TQAAACSJCWDu9+b1E8meXvTMXSRVnsgR4e/3XQGAAAAc8OV2sIcAODy+t7D7awYuCEpG37kak1yINPlAzk+NJSJR842lQcAAECSybHHMjn+5+lf+7UkNyZ5U9NJdIF2mcrk+OGmMwAAAJgb7BAHAMwdG3etSckjSZKaf0hPfjtHh/6l4SoAAAAuZdOun0nNx5N8OMmipnOYs86k3b4px4dfbDoEAACA2c9AHAAwtwzuujelNZSRA74ZDgAAMFds+vBPpT39qyn5zdg1jlel7s3offubrgAAAGD2MxAHAAAAAECnlAzu3JaU30pyV5JW00HMetNJPZh2/aMcH36w6RgAAABmPwNxAAAAAAB03vqPLE/v9C8n9VeSvKXpHGadUyn5s7TKZ/P1L0w2HQMAAMDcYSAOAAAAAIBmbdyxIWntTSu7UrO06RwaNZpSP5Mz9W8zPny+6RgAAADmHgNxAAAAAADMDlv3LsyFs+9L6s5cPFJ1UdNJdMSplDqUlL/IyNA3m44BAABgbjMQBwAAAADA7LPuvYvymqvfnVLvTvKeJK9tOonLqOSZJPentg7kxql/zPDwdNNJAAAAdAcDcQAAAAAAzG5b9y7M+Rd/ISUfTOpdSbm+6SRelbMp9e9Sy4EsefbLOXToXNNBAAAAdB8DcQAAAAAAzCUlm3a8Le3WXSnZluTtSXqajuJS6vdSyuHUejhTfYfzwOefbboIAACA7mYgDgAAAACAuWvr+6/J+YV3JvVdKdmSZFXTSfPcVJJjKTmUdvtwjg1/M0ltOgoAAID5w0AcAAAAAADdY/OOZak9m1LrlqRsTupbYwe5K6mdZCwlo6n5aqZ6v2oXOAAAAJpkIA4AAAAAgO41uH1xWovuyHR7XUp5W5J1Sd4U74+/Ws8m9YGU1rHUMpo8/42MHnyu6SgAAAD4If/wAwAAAAAwv6zbsTRX9fxs0l6X2nprktVJvSXJa5tOm13K00kdT8l4av1WSjmekdWPJPvaTZcBAADApRiIAwAAAACAJFn/keXpu7Aq7bI6yaokt6TkDUluTtLXbNyVVJ5O6qOpGU/KeFLGMp3xPHDgVNNlAPLTRDUAAADmSURBVAAA8JMyEAcAAAAAADPa18qG8RvSW1amtvpT2/1J6U9yY5Lrkyx76ba4ycpLOJvkZJKJpEwk7YnUTKZmIrVMZMmCiXzlr55vOhIAAAAuFwNxAAAAAABwOWzb9pqcvnZZFkxdn+lcl5QlSV2clMUX73/4OItTsiipfUnpTdKb1N6k9Kak96VrSc35pF5Iyfm0c/E+uXDxermQVj2XWr6f5HRK+3RKTif1TKZyOnnpdnz4xcb+HgAAAAAAAAAAAAAAAAAAAAAAAAAAAAAAAAAAAAAAAAAAAAAAAAAAAAAAADTufwAI0oO7dUGSPQAAAABJRU5ErkJggg==;" vertex="1" parent="1">
          <mxGeometry x="30" y="263.22" width="150" height="66.78" as="geometry" />
        </mxCell>
        <mxCell id="mMZBT7bqYluBtJ0m3_0H-12" value="&lt;h2&gt;&lt;u&gt;&lt;font style=&quot;font-size: 20px;&quot;&gt;Heroku&lt;/font&gt;&lt;/u&gt;&lt;/h2&gt;" style="text;html=1;strokeColor=none;fillColor=none;align=center;verticalAlign=middle;whiteSpace=wrap;rounded=0;strokeWidth=8;" vertex="1" parent="1">
          <mxGeometry y="180" width="160" height="40" as="geometry" />
        </mxCell>
        <mxCell id="mMZBT7bqYluBtJ0m3_0H-14" value="API" style="text;html=1;strokeColor=none;fillColor=none;align=center;verticalAlign=middle;whiteSpace=wrap;rounded=0;" vertex="1" parent="1">
          <mxGeometry x="315" y="350" width="60" height="30" as="geometry" />
        </mxCell>
        <mxCell id="mMZBT7bqYluBtJ0m3_0H-15" value="Database" style="text;html=1;strokeColor=none;fillColor=none;align=center;verticalAlign=middle;whiteSpace=wrap;rounded=0;" vertex="1" parent="1">
          <mxGeometry x="70" y="340" width="60" height="30" as="geometry" />
        </mxCell>
        <mxCell id="mMZBT7bqYluBtJ0m3_0H-19" value="Bearer Token" style="text;html=1;strokeColor=none;fillColor=none;align=center;verticalAlign=middle;whiteSpace=wrap;rounded=0;" vertex="1" parent="1">
          <mxGeometry x="570" y="350" width="90" height="30" as="geometry" />
        </mxCell>
        <mxCell id="mMZBT7bqYluBtJ0m3_0H-20" value="Bearer Token" style="text;html=1;strokeColor=none;fillColor=none;align=center;verticalAlign=middle;whiteSpace=wrap;rounded=0;" vertex="1" parent="1">
          <mxGeometry x="580" y="190" width="90" height="30" as="geometry" />
        </mxCell>
        <mxCell id="mMZBT7bqYluBtJ0m3_0H-22" value="" style="endArrow=classic;startArrow=classic;html=1;rounded=0;entryX=1;entryY=0.25;entryDx=0;entryDy=0;exitX=-0.097;exitY=0.688;exitDx=0;exitDy=0;exitPerimeter=0;" edge="1" parent="1" source="mMZBT7bqYluBtJ0m3_0H-5" target="mMZBT7bqYluBtJ0m3_0H-4">
          <mxGeometry width="50" height="50" relative="1" as="geometry">
            <mxPoint x="520" y="70" as="sourcePoint" />
            <mxPoint x="570" y="20" as="targetPoint" />
          </mxGeometry>
        </mxCell>
        <mxCell id="mMZBT7bqYluBtJ0m3_0H-23" value="" style="endArrow=classic;startArrow=classic;html=1;rounded=0;" edge="1" parent="1">
          <mxGeometry width="50" height="50" relative="1" as="geometry">
            <mxPoint x="550" y="350" as="sourcePoint" />
            <mxPoint x="680" y="350" as="targetPoint" />
          </mxGeometry>
        </mxCell>
        <mxCell id="mMZBT7bqYluBtJ0m3_0H-24" value="" style="endArrow=classic;startArrow=classic;html=1;rounded=0;exitX=1;exitY=0.5;exitDx=0;exitDy=0;entryX=0.519;entryY=0.5;entryDx=0;entryDy=0;entryPerimeter=0;" edge="1" parent="1" source="mMZBT7bqYluBtJ0m3_0H-9" target="mMZBT7bqYluBtJ0m3_0H-4">
          <mxGeometry width="50" height="50" relative="1" as="geometry">
            <mxPoint x="230" y="310" as="sourcePoint" />
            <mxPoint x="280" y="270" as="targetPoint" />
          </mxGeometry>
        </mxCell>
      </root>
    </mxGraphModel>
  </diagram>
</mxfile>
